<svg width="104" height="104" viewBox="0 0 104 104" fill="none" xmlns="http://www.w3.org/2000/svg">
<g opacity="0.9" filter="url(#filter0_bd_6594_46191)">
<rect x="22" width="56" height="56" rx="28" fill="#0045FF" shape-rendering="crispEdges"/>
<path d="M39.3337 28C39.3337 22.109 44.1093 17.3333 50.0003 17.3333C55.8914 17.3333 60.667 22.109 60.667 28V36.8889C60.667 37.6176 60.667 37.982 60.4861 38.2402C60.4192 38.3358 60.3361 38.4189 60.2406 38.4858C59.9823 38.6667 59.6179 38.6667 58.8892 38.6667H50.0003C44.1093 38.6667 39.3337 33.891 39.3337 28Z" fill="white"/>
<path d="M45.333 26H54.6663" stroke="#000F2E" stroke-width="2" stroke-linecap="round" stroke-linejoin="round"/>
<path d="M45.333 30H51.9997" stroke="#000F2E" stroke-width="2" stroke-linecap="round" stroke-linejoin="round"/>
<rect x="22.5" y="0.5" width="55" height="55" rx="27.5" stroke="#0045FF" shape-rendering="crispEdges"/>
</g>
<defs>
<filter id="filter0_bd_6594_46191" x="-2" y="-24" width="106" height="128" filterUnits="userSpaceOnUse" color-interpolation-filters="sRGB">
<feFlood flood-opacity="0" result="BackgroundImageFix"/>
<feGaussianBlur in="BackgroundImageFix" stdDeviation="12"/>
<feComposite in2="SourceAlpha" operator="in" result="effect1_backgroundBlur_6594_46191"/>
<feColorMatrix in="SourceAlpha" type="matrix" values="0 0 0 0 0 0 0 0 0 0 0 0 0 0 0 0 0 0 127 0" result="hardAlpha"/>
<feMorphology radius="10" operator="erode" in="SourceAlpha" result="effect2_dropShadow_6594_46191"/>
<feOffset dx="2" dy="24"/>
<feGaussianBlur stdDeviation="17"/>
<feComposite in2="hardAlpha" operator="out"/>
<feColorMatrix type="matrix" values="0 0 0 0 0 0 0 0 0 0 0 0 0 0 0 0 0 0 0.04 0"/>
<feBlend mode="normal" in2="effect1_backgroundBlur_6594_46191" result="effect2_dropShadow_6594_46191"/>
<feBlend mode="normal" in="SourceGraphic" in2="effect2_dropShadow_6594_46191" result="shape"/>
</filter>
</defs>
</svg>
