<svg width="580" height="599" viewBox="0 0 580 599" fill="none" xmlns="http://www.w3.org/2000/svg">
<g clip-path="url(#clip0_1_11)">
<path d="M161.002 531.738C161.036 537.762 162.322 543.722 164.87 549.19C167.604 555.059 171.723 560.249 176.814 564.259C181.811 568.194 187.722 570.953 193.952 572.261C197.273 572.958 200.62 573.153 204.001 573.153C207.662 573.153 211.323 573.153 214.984 573.153C221.51 573.153 228.036 573.153 234.562 573.153C243.084 573.153 251.606 573.153 260.128 573.153C269.825 573.153 279.523 573.153 289.22 573.153C299.284 573.153 309.347 573.153 319.411 573.153C328.972 573.153 338.534 573.153 348.095 573.153C356.272 573.153 364.449 573.153 372.626 573.153C378.668 573.153 384.712 573.153 390.755 573.153C393.772 573.153 396.789 573.153 399.806 573.153C404.098 573.153 408.34 572.609 412.453 571.361C418.587 569.5 424.268 566.21 428.922 561.809C433.597 557.388 437.208 551.896 439.406 545.856C441.063 541.302 441.884 536.488 441.894 531.647C441.897 530.535 441.894 529.423 441.894 528.311C441.894 525.701 441.894 523.09 441.894 520.479C441.894 516.495 441.894 512.509 441.894 508.525C441.894 503.31 441.894 498.094 441.894 492.879C441.894 486.61 441.894 480.34 441.894 474.071C441.894 466.816 441.894 459.561 441.894 452.307C441.894 444.236 441.894 436.167 441.894 428.097C441.894 419.351 441.894 410.605 441.894 401.859C441.894 392.627 441.894 383.395 441.894 374.163C441.894 364.482 441.894 354.801 441.894 345.12C441.894 335.179 441.894 325.236 441.894 315.294C441.894 305.257 441.894 295.221 441.894 285.184C441.894 275.163 441.894 265.142 441.894 255.12C441.894 245.226 441.894 235.332 441.894 225.437C441.894 215.836 441.894 206.235 441.894 196.632C441.894 187.511 441.894 178.39 441.894 169.269C441.894 160.666 441.894 152.063 441.894 143.459C441.894 135.565 441.894 127.67 441.894 119.775C441.894 112.727 441.894 105.678 441.894 98.6302C441.894 92.5978 441.894 86.5655 441.894 80.5324C441.894 75.5875 441.894 70.6426 441.894 65.697C441.894 62.0139 441.894 58.3309 441.894 54.6479C441.894 52.3696 441.894 50.0922 441.894 47.814C441.894 46.8587 441.903 45.9026 441.889 44.9474C441.798 38.9109 440.369 32.9125 437.725 27.4809C434.876 21.6262 430.633 16.4698 425.428 12.5439C420.422 8.76828 414.569 6.14876 408.411 4.93651C405.185 4.30105 401.94 4.15314 398.664 4.15314C394.878 4.15314 391.092 4.15314 387.305 4.15314C380.686 4.15314 374.068 4.15314 367.449 4.15314C358.892 4.15314 350.334 4.15314 341.777 4.15314C332.026 4.15314 322.274 4.15314 312.523 4.15314C302.463 4.15314 292.403 4.15314 282.344 4.15314C272.819 4.15314 263.293 4.15314 253.768 4.15314C245.659 4.15314 237.549 4.15314 229.44 4.15314C223.498 4.15314 217.554 4.15314 211.612 4.15314C208.727 4.15314 205.842 4.15314 202.958 4.15314C198.473 4.15314 194.029 4.78033 189.756 6.1595C183.673 8.1229 178.082 11.4911 173.505 15.9451C168.865 20.4619 165.319 26.0712 163.227 32.1919C161.74 36.5426 161.01 41.1049 161.002 45.6985C160.999 46.8653 161.002 48.0313 161.002 49.1981C161.002 51.8689 161.002 54.5396 161.002 57.2104C161.002 61.2446 161.002 65.2796 161.002 69.3139C161.002 74.5736 161.002 79.8324 161.002 85.0921C161.002 91.4005 161.002 97.7088 161.002 104.017C161.002 111.306 161.002 118.594 161.002 125.883C161.002 133.981 161.002 142.079 161.002 150.178C161.002 158.922 161.002 167.666 161.002 176.411C161.002 185.685 161.002 194.96 161.002 204.234C161.002 213.928 161.002 223.621 161.002 233.315C161.002 243.264 161.002 253.213 161.002 263.162C161.002 273.174 161.002 283.185 161.002 293.196C161.002 303.241 161.002 313.286 161.002 323.332C161.002 333.218 161.002 343.103 161.002 352.99C161.002 362.577 161.002 372.165 161.002 381.752C161.002 390.854 161.002 399.957 161.002 409.059C161.002 417.637 161.002 426.216 161.002 434.795C161.002 442.66 161.002 450.525 161.002 458.39C161.002 465.385 161.002 472.38 161.002 479.376C161.002 485.386 161.002 491.396 161.002 497.407C161.002 502.306 161.002 507.206 161.002 512.105C161.002 515.737 161.002 519.369 161.002 523.001C161.002 525.218 161.002 527.436 161.002 529.653C161.002 530.348 161.002 531.043 161.002 531.738Z" fill="white" stroke="#717783" stroke-width="1.5" stroke-miterlimit="10" stroke-linecap="round" stroke-linejoin="round"/>
<path d="M212.027 19.6507H233.747L368.647 19.6499C371.84 19.6466 375.033 19.6499 378.226 19.6499C385.516 19.6499 392.807 19.6186 400.096 19.6499C405.38 19.673 410.578 21.2758 414.914 24.29C419.315 27.3504 422.691 31.7669 424.478 36.803C425.512 39.719 425.951 42.7555 425.951 45.839V50.2101V58.8073V71.3219V87.2244V106.185V127.815V151.865V177.678V204.992V233.419V262.734V292.221V321.653V350.721V378.951V405.877V431.19V454.566V475.536V493.665V508.625V520.08V527.513C425.951 528.545 425.954 529.577 425.951 530.609C425.935 535.069 424.803 539.476 422.584 543.359C419.933 548.001 415.831 551.764 410.955 554.004C407.372 555.649 403.525 556.38 399.591 556.38H390.998H373.615H349.666H321.796H292.258H263.345H237.526H217.239H204.775L204.401 556.38C201.983 556.381 199.59 556.382 197.196 555.936C191.937 554.955 187.044 552.322 183.337 548.487C179.647 544.668 177.205 539.735 176.412 534.498C176.152 532.776 176.124 531.055 176.124 529.321V523.588V513.726V500.171V483.287V463.347V440.961V416.416V390.101V362.246V333.551V304.253V274.741V245.241V216.472V188.657V162.113V137.312V114.704V94.6081V77.3685V63.4366V53.2276V47.0862C176.124 45.7532 176.106 44.4226 176.224 43.0929C176.692 37.7912 178.852 32.6875 182.332 28.6438C185.811 24.601 190.548 21.6891 195.743 20.4088C197.918 19.8726 200.132 19.6516 202.371 19.6507C205.589 19.6491 208.808 19.6507 212.027 19.6507Z" stroke="#717783" stroke-width="1.5" stroke-miterlimit="10" stroke-linecap="round" stroke-linejoin="round"/>
<rect x="270.75" y="33.7501" width="46.5" height="6.5" rx="3.25" stroke="#717783" stroke-width="1.5"/>
<circle cx="328" cy="37.0001" r="3.25" stroke="#717783" stroke-width="1.5"/>
<rect x="146" y="311" width="237" height="80" rx="4" fill="white"/>
<path d="M150 311.5H379C380.933 311.5 382.5 313.067 382.5 315V387C382.5 388.933 380.933 390.5 379 390.5H199.234C198.135 390.5 197.074 390.902 196.252 391.63L182.636 403.682C181.668 404.539 180.142 403.852 180.142 402.559V395C180.142 392.515 178.127 390.5 175.642 390.5H150C148.067 390.5 146.5 388.933 146.5 387V315C146.5 313.067 148.067 311.5 150 311.5Z" stroke="#CCCFD5"/>
<rect x="162.5" y="327.5" width="204" height="8" rx="2.5" fill="#F2F3F5" stroke="#CCCFD5"/>
<rect x="162.5" y="344.5" width="181" height="8" rx="2.5" fill="#F2F3F5" stroke="#CCCFD5"/>
<rect x="162.5" y="361.5" width="175" height="8" rx="2.5" fill="#F2F3F5" stroke="#CCCFD5"/>
<path d="M316 361.5H465C466.933 361.5 468.5 363.067 468.5 365V421C468.5 422.933 466.933 424.5 465 424.5H367.83C365.345 424.5 363.33 426.515 363.33 429V436.565C363.33 437.857 361.806 438.545 360.837 437.689L347.18 425.627C346.358 424.901 345.298 424.5 344.201 424.5H316C314.067 424.5 312.5 422.933 312.5 421V365C312.5 363.067 314.067 361.5 316 361.5Z" fill="#E5ECFF" stroke="#0045FF"/>
<rect x="326.5" y="374.5" width="126" height="6" rx="1.5" fill="white" stroke="#0045FF"/>
<rect x="326.5" y="389.5" width="126" height="6" rx="1.5" fill="white" stroke="#0045FF"/>
<rect x="326.5" y="404.5" width="108" height="6" rx="1.5" fill="white" stroke="#0045FF"/>
<path d="M192 432.5H340C341.933 432.5 343.5 434.067 343.5 436V492C343.5 493.933 341.933 495.5 340 495.5H241.021C239.919 495.5 238.855 495.904 238.031 496.637L224.497 508.667C223.529 509.527 222 508.841 222 507.546V500C222 497.515 219.985 495.5 217.5 495.5H192C190.067 495.5 188.5 493.933 188.5 492V436C188.5 434.067 190.067 432.5 192 432.5Z" fill="#06C569" fill-opacity="0.1" stroke="#06C569"/>
<mask id="path-17-inside-1_1_11" fill="white">
<path fill-rule="evenodd" clip-rule="evenodd" d="M217.485 482.607C217.482 482.607 217.479 482.607 217.476 482.607C212.243 482.607 208 478.365 208 473.131C208 467.898 212.243 463.655 217.476 463.655C218.033 463.655 218.579 463.704 219.11 463.796C219.074 463.351 219.055 462.9 219.055 462.446C219.055 453.363 226.418 446 235.501 446C242.324 446 248.177 450.155 250.667 456.074C251.693 455.823 252.766 455.69 253.869 455.69C261.302 455.69 267.328 461.716 267.328 469.149C267.328 476.582 261.302 482.607 253.869 482.607C253.864 482.607 253.858 482.607 253.852 482.607H217.485Z"/>
</mask>
<path fill-rule="evenodd" clip-rule="evenodd" d="M217.485 482.607C217.482 482.607 217.479 482.607 217.476 482.607C212.243 482.607 208 478.365 208 473.131C208 467.898 212.243 463.655 217.476 463.655C218.033 463.655 218.579 463.704 219.11 463.796C219.074 463.351 219.055 462.9 219.055 462.446C219.055 453.363 226.418 446 235.501 446C242.324 446 248.177 450.155 250.667 456.074C251.693 455.823 252.766 455.69 253.869 455.69C261.302 455.69 267.328 461.716 267.328 469.149C267.328 476.582 261.302 482.607 253.869 482.607C253.864 482.607 253.858 482.607 253.852 482.607H217.485Z" fill="white"/>
<path d="M219.11 463.796L218.939 464.781L220.211 465.002L220.107 463.715L219.11 463.796ZM250.667 456.074L249.745 456.461L250.076 457.247L250.904 457.045L250.667 456.074ZM253.852 482.607L253.853 481.607H253.852V482.607ZM217.485 481.607C217.483 481.607 217.481 481.607 217.48 481.607C217.478 481.607 217.477 481.607 217.476 481.607V483.607C217.478 483.607 217.48 483.607 217.481 483.607C217.482 483.607 217.484 483.607 217.485 483.607V481.607ZM217.476 481.607C212.795 481.607 209 477.813 209 473.131H207C207 478.917 211.69 483.607 217.476 483.607V481.607ZM209 473.131C209 468.45 212.795 464.655 217.476 464.655V462.655C211.69 462.655 207 467.346 207 473.131H209ZM217.476 464.655C217.976 464.655 218.464 464.699 218.939 464.781L219.281 462.811C218.694 462.709 218.091 462.655 217.476 462.655V464.655ZM220.107 463.715C220.073 463.296 220.055 462.873 220.055 462.446H218.055C218.055 462.927 218.075 463.405 218.113 463.877L220.107 463.715ZM220.055 462.446C220.055 453.915 226.971 447 235.501 447V445C225.866 445 218.055 452.811 218.055 462.446H220.055ZM235.501 447C241.908 447 247.406 450.901 249.745 456.461L251.588 455.686C248.948 449.41 242.741 445 235.501 445V447ZM250.904 457.045C251.853 456.813 252.846 456.69 253.869 456.69V454.69C252.685 454.69 251.533 454.833 250.43 455.102L250.904 457.045ZM253.869 456.69C260.75 456.69 266.328 462.268 266.328 469.149H268.328C268.328 461.163 261.855 454.69 253.869 454.69V456.69ZM266.328 469.149C266.328 476.03 260.75 481.607 253.869 481.607V483.607C261.855 483.607 268.328 477.134 268.328 469.149H266.328ZM253.869 481.607C253.864 481.607 253.858 481.607 253.853 481.607L253.85 483.607C253.857 483.607 253.863 483.607 253.869 483.607V481.607ZM253.852 481.607H217.485V483.607H253.852V481.607Z" fill="#06C569" mask="url(#path-17-inside-1_1_11)"/>
<mask id="path-19-inside-2_1_11" fill="white">
<path fill-rule="evenodd" clip-rule="evenodd" d="M269.485 477.607C269.482 477.607 269.479 477.607 269.476 477.607C264.243 477.607 260 473.365 260 468.131C260 462.898 264.243 458.655 269.476 458.655C270.033 458.655 270.579 458.704 271.11 458.796C271.074 458.351 271.055 457.9 271.055 457.446C271.055 448.363 278.418 441 287.501 441C294.324 441 300.177 445.155 302.667 451.074C303.693 450.823 304.766 450.69 305.869 450.69C313.302 450.69 319.328 456.716 319.328 464.149C319.328 471.582 313.302 477.607 305.869 477.607C305.864 477.607 305.858 477.607 305.852 477.607H269.485Z"/>
</mask>
<path fill-rule="evenodd" clip-rule="evenodd" d="M269.485 477.607C269.482 477.607 269.479 477.607 269.476 477.607C264.243 477.607 260 473.365 260 468.131C260 462.898 264.243 458.655 269.476 458.655C270.033 458.655 270.579 458.704 271.11 458.796C271.074 458.351 271.055 457.9 271.055 457.446C271.055 448.363 278.418 441 287.501 441C294.324 441 300.177 445.155 302.667 451.074C303.693 450.823 304.766 450.69 305.869 450.69C313.302 450.69 319.328 456.716 319.328 464.149C319.328 471.582 313.302 477.607 305.869 477.607C305.864 477.607 305.858 477.607 305.852 477.607H269.485Z" fill="white"/>
<path d="M271.11 458.796L270.939 459.781L272.211 460.002L272.107 458.715L271.11 458.796ZM302.667 451.074L301.745 451.461L302.076 452.247L302.904 452.045L302.667 451.074ZM305.852 477.607L305.853 476.607H305.852V477.607ZM269.485 476.607C269.483 476.607 269.481 476.607 269.48 476.607C269.478 476.607 269.477 476.607 269.476 476.607V478.607C269.478 478.607 269.48 478.607 269.481 478.607C269.482 478.607 269.484 478.607 269.485 478.607V476.607ZM269.476 476.607C264.795 476.607 261 472.813 261 468.131H259C259 473.917 263.69 478.607 269.476 478.607V476.607ZM261 468.131C261 463.45 264.795 459.655 269.476 459.655V457.655C263.69 457.655 259 462.346 259 468.131H261ZM269.476 459.655C269.976 459.655 270.464 459.699 270.939 459.781L271.281 457.811C270.694 457.709 270.091 457.655 269.476 457.655V459.655ZM272.107 458.715C272.073 458.296 272.055 457.873 272.055 457.446H270.055C270.055 457.927 270.075 458.405 270.113 458.877L272.107 458.715ZM272.055 457.446C272.055 448.915 278.971 442 287.501 442V440C277.866 440 270.055 447.811 270.055 457.446H272.055ZM287.501 442C293.908 442 299.406 445.901 301.745 451.461L303.588 450.686C300.948 444.41 294.741 440 287.501 440V442ZM302.904 452.045C303.853 451.813 304.846 451.69 305.869 451.69V449.69C304.685 449.69 303.533 449.833 302.43 450.102L302.904 452.045ZM305.869 451.69C312.75 451.69 318.328 457.268 318.328 464.149H320.328C320.328 456.163 313.855 449.69 305.869 449.69V451.69ZM318.328 464.149C318.328 471.03 312.75 476.607 305.869 476.607V478.607C313.855 478.607 320.328 472.134 320.328 464.149H318.328ZM305.869 476.607C305.864 476.607 305.858 476.607 305.853 476.607L305.85 478.607C305.857 478.607 305.863 478.607 305.869 478.607V476.607ZM305.852 476.607H269.485V478.607H305.852V476.607Z" fill="#06C569" mask="url(#path-19-inside-2_1_11)"/>
<path d="M160.121 299.981C76.0325 405.914 35.2315 502.939 67.0499 532.958C105.582 569.311 236.018 493.635 358.388 363.931C480.758 234.227 548.722 99.6115 510.19 63.2585C496.895 50.7152 472.658 51.5094 441.587 63.2585" stroke="#717783" stroke-width="4" stroke-linecap="round" stroke-dasharray="0.5 14"/>
<circle cx="505.237" cy="153.769" r="29.1155" fill="white" stroke="#CCCFD5"/>
<path d="M505.083 155.632C509.565 155.632 513.199 152.297 513.199 148.184C513.199 144.07 509.565 140.736 505.083 140.736C500.6 140.736 496.966 144.07 496.966 148.184C496.966 152.297 500.6 155.632 505.083 155.632Z" fill="#000F2E"/>
<path fill-rule="evenodd" clip-rule="evenodd" d="M505.179 141.268C500.989 141.268 497.682 144.412 497.682 148.184C497.682 151.955 500.989 155.099 505.179 155.099C509.369 155.099 512.675 151.955 512.675 148.184C512.675 144.412 509.369 141.268 505.179 141.268ZM496.394 148.184C496.394 143.6 500.376 139.972 505.179 139.972C509.981 139.972 513.964 143.6 513.964 148.184C513.964 152.767 509.981 156.396 505.179 156.396C500.376 156.396 496.394 152.767 496.394 148.184Z" fill="white"/>
<path d="M511.237 146.274H498.928C497.845 146.274 496.966 147.152 496.966 148.236V160.545C496.966 161.628 497.845 162.507 498.928 162.507H511.237C512.321 162.507 513.199 161.628 513.199 160.545V148.236C513.199 147.152 512.321 146.274 511.237 146.274Z" fill="#000F2E"/>
<path fill-rule="evenodd" clip-rule="evenodd" d="M499.006 146.975C498.275 146.975 497.682 147.562 497.682 148.285V160.496C497.682 161.219 498.275 161.806 499.006 161.806H511.351C512.083 161.806 512.675 161.219 512.675 160.496V148.285C512.675 147.562 512.083 146.975 511.351 146.975H499.006ZM496.394 148.285C496.394 146.858 497.563 145.701 499.006 145.701H511.351C512.794 145.701 513.964 146.858 513.964 148.285V160.496C513.964 161.923 512.794 163.08 511.351 163.08H499.006C497.563 163.08 496.394 161.923 496.394 160.496V148.285Z" fill="white"/>
<path d="M499.602 139.504C499.446 139.224 499.548 138.872 499.827 138.717C500.107 138.562 500.46 138.663 500.615 138.943L503.768 144.631C503.923 144.911 503.822 145.264 503.542 145.419C503.262 145.574 502.91 145.473 502.755 145.193L499.602 139.504Z" fill="#000F2E"/>
<path fill-rule="evenodd" clip-rule="evenodd" d="M499.983 138.997C500.108 138.928 500.265 138.973 500.335 139.098L503.488 144.787C503.557 144.912 503.512 145.069 503.387 145.138C503.262 145.207 503.105 145.162 503.036 145.037L499.883 139.349C499.813 139.224 499.858 139.067 499.983 138.997ZM500.896 138.787C500.655 138.352 500.107 138.195 499.672 138.436C499.238 138.677 499.081 139.225 499.321 139.66L502.475 145.348C502.716 145.783 503.263 145.94 503.698 145.699C504.133 145.458 504.29 144.911 504.049 144.476L500.896 138.787Z" fill="white"/>
<path d="M513.582 150.32C513.582 149.14 514.565 148.184 515.778 148.184C516.991 148.184 517.974 149.14 517.974 150.32V157.888C517.974 159.068 516.991 160.024 515.778 160.024C514.565 160.024 513.582 159.068 513.582 157.888V150.32Z" fill="#000F2E"/>
<path fill-rule="evenodd" clip-rule="evenodd" d="M515.682 148.449C516.696 148.449 517.517 149.27 517.517 150.283V157.925C517.517 158.938 516.696 159.759 515.682 159.759C514.669 159.759 513.847 158.938 513.847 157.925V150.283C513.847 149.27 514.669 148.449 515.682 148.449ZM518.165 150.283C518.165 148.913 517.054 147.802 515.682 147.802C514.311 147.802 513.2 148.913 513.2 150.283V157.925C513.2 159.295 514.311 160.406 515.682 160.406C517.054 160.406 518.165 159.295 518.165 157.925V150.283Z" fill="white"/>
<path d="M505.943 158.914C505.943 157.734 506.926 156.778 508.139 156.778C509.352 156.778 510.335 157.734 510.335 158.914V166.481C510.335 167.661 509.352 168.618 508.139 168.618C506.926 168.618 505.943 167.661 505.943 166.481V158.914Z" fill="#000F2E"/>
<path fill-rule="evenodd" clip-rule="evenodd" d="M508.235 157.224C509.248 157.224 510.07 158.033 510.07 159.03V166.556C510.07 167.554 509.248 168.363 508.235 168.363C507.221 168.363 506.4 167.554 506.4 166.556V159.03C506.4 158.033 507.221 157.224 508.235 157.224ZM510.718 159.03C510.718 157.681 509.606 156.587 508.235 156.587C506.864 156.587 505.752 157.681 505.752 159.03V166.556C505.752 167.906 506.864 169 508.235 169C509.606 169 510.718 167.906 510.718 166.556V159.03Z" fill="white"/>
<path d="M510.677 139.504C510.832 139.224 510.731 138.872 510.452 138.717C510.172 138.562 509.819 138.663 509.664 138.943L506.511 144.631C506.356 144.911 506.457 145.264 506.737 145.419C507.017 145.574 507.369 145.473 507.524 145.193L510.677 139.504Z" fill="#000F2E"/>
<path fill-rule="evenodd" clip-rule="evenodd" d="M510.297 138.997C510.172 138.928 510.015 138.973 509.945 139.098L506.792 144.787C506.723 144.912 506.768 145.069 506.893 145.138C507.018 145.207 507.175 145.162 507.244 145.037L510.397 139.349C510.467 139.224 510.421 139.067 510.297 138.997ZM509.384 138.787C509.625 138.352 510.173 138.195 510.608 138.436C511.042 138.677 511.199 139.225 510.958 139.66L507.805 145.348C507.564 145.783 507.016 145.94 506.582 145.699C506.147 145.458 505.99 144.911 506.231 144.476L509.384 138.787Z" fill="white"/>
<path d="M496.584 150.32C496.584 149.14 495.644 148.184 494.483 148.184C493.323 148.184 492.383 149.14 492.383 150.32V157.888C492.383 159.068 493.323 160.024 494.483 160.024C495.644 160.024 496.584 159.068 496.584 157.888V150.32Z" fill="#000F2E"/>
<path fill-rule="evenodd" clip-rule="evenodd" d="M494.483 148.449C493.47 148.449 492.648 149.27 492.648 150.283V157.925C492.648 158.938 493.47 159.759 494.483 159.759C495.497 159.759 496.318 158.938 496.318 157.925V150.283C496.318 149.27 495.497 148.449 494.483 148.449ZM492.001 150.283C492.001 148.913 493.112 147.802 494.483 147.802C495.854 147.802 496.966 148.913 496.966 150.283V157.925C496.966 159.295 495.854 160.406 494.483 160.406C493.112 160.406 492.001 159.295 492.001 157.925V150.283Z" fill="white"/>
<path d="M504.224 158.914C504.224 157.734 503.283 156.778 502.123 156.778C500.963 156.778 500.022 157.734 500.022 158.914V166.481C500.022 167.661 500.963 168.618 502.123 168.618C503.283 168.618 504.224 167.661 504.224 166.481V158.914Z" fill="#000F2E"/>
<path fill-rule="evenodd" clip-rule="evenodd" d="M502.122 157.224C501.108 157.224 500.287 158.033 500.287 159.03V166.556C500.287 167.554 501.108 168.363 502.122 168.363C503.135 168.363 503.957 167.554 503.957 166.556V159.03C503.957 158.033 503.135 157.224 502.122 157.224ZM499.639 159.03C499.639 157.681 500.751 156.587 502.122 156.587C503.493 156.587 504.605 157.681 504.605 159.03V166.556C504.605 167.906 503.493 169 502.122 169C500.751 169 499.639 167.906 499.639 166.556V159.03Z" fill="white"/>
<path d="M505.084 155.632C509.566 155.632 513.2 152.297 513.2 148.184C513.2 144.07 509.566 140.736 505.084 140.736C500.601 140.736 496.967 144.07 496.967 148.184C496.967 152.297 500.601 155.632 505.084 155.632Z" fill="#000F2E"/>
<path d="M511.238 146.274H498.929C497.845 146.274 496.967 147.152 496.967 148.236V160.545C496.967 161.628 497.845 162.507 498.929 162.507H511.238C512.321 162.507 513.2 161.628 513.2 160.545V148.236C513.2 147.152 512.321 146.274 511.238 146.274Z" fill="#000F2E"/>
<path fill-rule="evenodd" clip-rule="evenodd" d="M513.581 148.757H496.585V148.184H513.581V148.757Z" fill="white"/>
<path d="M501.359 144.937C501.57 144.937 501.741 144.766 501.741 144.555C501.741 144.344 501.57 144.173 501.359 144.173C501.148 144.173 500.977 144.344 500.977 144.555C500.977 144.766 501.148 144.937 501.359 144.937Z" fill="white"/>
<path fill-rule="evenodd" clip-rule="evenodd" d="M501.455 144.424C501.436 144.424 501.42 144.44 501.42 144.46C501.42 144.479 501.436 144.495 501.455 144.495C501.475 144.495 501.491 144.479 501.491 144.46C501.491 144.44 501.475 144.424 501.455 144.424ZM500.787 144.46C500.787 144.09 501.086 143.791 501.455 143.791C501.824 143.791 502.124 144.09 502.124 144.46C502.124 144.829 501.824 145.128 501.455 145.128C501.086 145.128 500.787 144.829 500.787 144.46Z" fill="white"/>
<path d="M508.902 144.937C509.06 144.937 509.189 144.766 509.189 144.555C509.189 144.344 509.06 144.173 508.902 144.173C508.744 144.173 508.616 144.344 508.616 144.555C508.616 144.766 508.744 144.937 508.902 144.937Z" fill="white"/>
<path fill-rule="evenodd" clip-rule="evenodd" d="M508.903 144.424C508.883 144.424 508.868 144.44 508.868 144.46C508.868 144.479 508.883 144.495 508.903 144.495C508.922 144.495 508.938 144.479 508.938 144.46C508.938 144.44 508.922 144.424 508.903 144.424ZM508.234 144.46C508.234 144.09 508.534 143.791 508.903 143.791C509.272 143.791 509.571 144.09 509.571 144.46C509.571 144.829 509.272 145.128 508.903 145.128C508.534 145.128 508.234 144.829 508.234 144.46Z" fill="white"/>
<circle cx="98.2371" cy="390.769" r="29.1155" fill="white" stroke="#CCCFD5"/>
<path d="M89.4054 387V381.718C89.4054 380.141 89.0064 379.229 88.2844 378.545C87.5434 377.861 86.5364 377.462 84.7884 377.462C83.0404 377.462 81.5774 378.013 80.7794 378.412L81.5774 380.388C82.0524 380.084 83.2494 379.552 84.4464 379.552C85.6624 379.552 86.3654 380.065 86.3654 381.053V381.262L84.0094 381.357C82.2804 381.433 80.3614 382.136 80.3614 384.226C80.3614 386.316 82.1094 387.209 83.7624 387.209C85.2824 387.209 86.0424 386.411 86.4414 386.012L86.4984 387H89.4054ZM86.3844 382.877V384.416C86.1944 384.739 85.6434 385.271 84.8264 385.271C83.9904 385.271 83.4014 384.834 83.4014 384.112C83.4014 383.409 83.9524 383.01 84.8834 382.972L86.3844 382.877ZM100.483 387V381.471C100.483 379.21 99.7797 377.462 97.0627 377.462C95.7137 377.462 94.8587 378.146 94.3457 378.982H94.3077L94.3267 377.633H91.2867V387H94.3267V382.364C94.3267 381.015 94.6877 379.951 95.9987 379.951C97.2527 379.951 97.4427 380.882 97.4427 382.117V387H100.483ZM112.318 387V373.89H109.278V378.773C108.974 378.317 108.024 377.462 106.314 377.462C103.597 377.462 101.887 379.571 101.887 382.326C101.887 385.081 103.597 387.209 106.314 387.209C107.568 387.209 108.689 386.734 109.392 385.784L109.449 385.765L109.43 387H112.318ZM109.373 382.288C109.373 383.732 108.499 384.72 107.188 384.72C105.877 384.72 104.984 383.732 104.984 382.288C104.984 380.844 105.877 379.856 107.188 379.856C108.499 379.856 109.373 380.844 109.373 382.288ZM87.3344 396.633C87.3344 396.633 87.0114 396.462 86.3844 396.462C85.3774 396.462 84.5984 396.937 84.0664 397.963H84.0284L84.0474 396.633H81.0074V406H84.0474V401.839C84.0474 400.794 84.2944 400.186 84.5224 399.882C84.7504 399.578 85.2444 399.198 85.9284 399.198C86.4604 399.198 86.8594 399.331 87.0304 399.426H87.1634L87.3344 396.633ZM98.1043 401.345C98.1043 398.324 95.8813 396.462 92.9173 396.462C89.9533 396.462 87.7113 398.324 87.7113 401.345C87.7113 404.366 89.9533 406.209 92.9173 406.209C95.8813 406.209 98.1043 404.366 98.1043 401.345ZM95.0453 401.288C95.0453 402.675 94.2473 403.72 92.9173 403.72C91.5683 403.72 90.7893 402.675 90.7893 401.288C90.7893 399.901 91.5683 398.856 92.9173 398.856C94.2473 398.856 95.0453 399.901 95.0453 401.288ZM102.868 393.973C102.868 393.042 102.165 392.396 101.139 392.396C100.113 392.396 99.4097 393.042 99.4097 393.973C99.4097 394.923 100.113 395.55 101.139 395.55C102.165 395.55 102.868 394.923 102.868 393.973ZM102.659 406V396.633H99.6187V406H102.659ZM114.582 406V392.89H111.542V397.773C111.238 397.317 110.288 396.462 108.578 396.462C105.861 396.462 104.151 398.571 104.151 401.326C104.151 404.081 105.861 406.209 108.578 406.209C109.832 406.209 110.953 405.734 111.656 404.784L111.713 404.765L111.694 406H114.582ZM111.637 401.288C111.637 402.732 110.763 403.72 109.452 403.72C108.141 403.72 107.248 402.732 107.248 401.288C107.248 399.844 108.141 398.856 109.452 398.856C110.763 398.856 111.637 399.844 111.637 401.288Z" fill="black"/>
<path d="M300.5 184.324C323.972 184.324 343 166.863 343 145.324C343 123.785 323.972 106.324 300.5 106.324C277.028 106.324 258 123.785 258 145.324C258 166.863 277.028 184.324 300.5 184.324Z" fill="#A4C639"/>
<path fill-rule="evenodd" clip-rule="evenodd" d="M301 109.113C279.061 109.113 261.745 125.576 261.745 145.324C261.745 165.072 279.061 181.534 301 181.534C322.939 181.534 340.254 165.072 340.254 145.324C340.254 125.576 322.939 109.113 301 109.113ZM255 145.324C255 121.325 275.854 102.324 301 102.324C326.145 102.324 347 121.325 347 145.324C347 169.323 326.145 188.324 301 188.324C275.854 188.324 255 169.323 255 145.324Z" fill="white"/>
<path d="M332.725 135.324H268.274C262.6 135.324 258 139.924 258 145.599V210.049C258 215.724 262.6 220.324 268.274 220.324H332.725C338.399 220.324 343 215.724 343 210.049V145.599C343 139.924 338.399 135.324 332.725 135.324Z" fill="#A4C639"/>
<path fill-rule="evenodd" clip-rule="evenodd" d="M268.678 138.996C264.849 138.996 261.745 142.066 261.745 145.853V209.794C261.745 213.582 264.849 216.652 268.678 216.652H333.321C337.15 216.652 340.254 213.582 340.254 209.794V145.853C340.254 142.066 337.15 138.996 333.321 138.996H268.678ZM255 145.853C255 138.381 261.124 132.324 268.678 132.324H333.321C340.876 132.324 347 138.381 347 145.853V209.794C347 217.267 340.876 223.324 333.321 223.324H268.678C261.124 223.324 255 217.267 255 209.794V145.853Z" fill="white"/>
<path d="M271.797 99.8761C270.985 98.4112 271.515 96.5655 272.979 95.7535C274.444 94.9415 276.29 95.4708 277.102 96.9356L293.614 126.724C294.426 128.188 293.896 130.034 292.432 130.846C290.967 131.658 289.121 131.129 288.309 129.664L271.797 99.8761Z" fill="#A4C639"/>
<path fill-rule="evenodd" clip-rule="evenodd" d="M273.794 97.2225C274.447 96.8602 275.271 97.0963 275.633 97.7499L292.145 127.538C292.507 128.191 292.271 129.015 291.617 129.377C290.964 129.739 290.14 129.503 289.778 128.85L273.266 99.0618C272.904 98.4082 273.14 97.5848 273.794 97.2225ZM278.571 96.1213C277.309 93.8452 274.441 93.0228 272.165 94.2845C269.889 95.5462 269.067 98.4142 270.328 100.69L286.84 130.478C288.102 132.754 290.97 133.577 293.246 132.315C295.522 131.053 296.344 128.185 295.083 125.909L278.571 96.1213Z" fill="white"/>
<path d="M345 156.512C345 150.333 350.149 145.324 356.5 145.324C362.851 145.324 368 150.333 368 156.512V196.136C368 202.315 362.851 207.324 356.5 207.324C350.149 207.324 345 202.315 345 196.136V156.512Z" fill="#A4C639"/>
<path fill-rule="evenodd" clip-rule="evenodd" d="M356 146.713C361.307 146.713 365.609 151.013 365.609 156.317V196.331C365.609 201.635 361.307 205.934 356 205.934C350.693 205.934 346.391 201.635 346.391 196.331V156.317C346.391 151.013 350.693 146.713 356 146.713ZM369 156.317C369 149.141 363.18 143.324 356 143.324C348.82 143.324 343 149.141 343 156.317V196.331C343 203.507 348.82 209.324 356 209.324C363.18 209.324 369 203.507 369 196.331V156.317Z" fill="white"/>
<path d="M305 201.512C305 195.333 310.149 190.324 316.5 190.324C322.851 190.324 328 195.333 328 201.512V241.136C328 247.315 322.851 252.324 316.5 252.324C310.149 252.324 305 247.315 305 241.136V201.512Z" fill="#A4C639"/>
<path fill-rule="evenodd" clip-rule="evenodd" d="M317 192.662C322.307 192.662 326.609 196.896 326.609 202.12V241.528C326.609 246.751 322.307 250.986 317 250.986C311.693 250.986 307.391 246.751 307.391 241.528V202.12C307.391 196.896 311.693 192.662 317 192.662ZM330 202.12C330 195.053 324.18 189.324 317 189.324C309.82 189.324 304 195.053 304 202.12V241.528C304 248.595 309.82 254.324 317 254.324C324.18 254.324 330 248.595 330 241.528V202.12Z" fill="white"/>
<path d="M329.796 99.8761C330.608 98.4112 330.079 96.5655 328.614 95.7535C327.149 94.9415 325.303 95.4708 324.491 96.9356L307.979 126.724C307.168 128.188 307.697 130.034 309.162 130.846C310.626 131.658 312.472 131.129 313.284 129.664L329.796 99.8761Z" fill="#A4C639"/>
<path fill-rule="evenodd" clip-rule="evenodd" d="M327.799 97.2225C327.146 96.8602 326.322 97.0963 325.96 97.7499L309.448 127.538C309.086 128.191 309.322 129.015 309.976 129.377C310.629 129.739 311.453 129.503 311.815 128.85L328.327 99.0618C328.689 98.4082 328.453 97.5848 327.799 97.2225ZM323.022 96.1213C324.284 93.8452 327.152 93.0228 329.428 94.2845C331.704 95.5462 332.527 98.4142 331.265 100.69L314.753 130.478C313.491 132.754 310.623 133.577 308.347 132.315C306.071 131.053 305.249 128.185 306.51 125.909L323.022 96.1213Z" fill="white"/>
<path d="M256 156.512C256 150.333 251.075 145.324 245 145.324C238.925 145.324 234 150.333 234 156.512V196.136C234 202.315 238.925 207.324 245 207.324C251.075 207.324 256 202.315 256 196.136V156.512Z" fill="#A4C639"/>
<path fill-rule="evenodd" clip-rule="evenodd" d="M245 146.713C239.693 146.713 235.391 151.013 235.391 156.317V196.331C235.391 201.635 239.693 205.934 245 205.934C250.307 205.934 254.609 201.635 254.609 196.331V156.317C254.609 151.013 250.307 146.713 245 146.713ZM232 156.317C232 149.141 237.82 143.324 245 143.324C252.18 143.324 258 149.141 258 156.317V196.331C258 203.507 252.18 209.324 245 209.324C237.82 209.324 232 203.507 232 196.331V156.317Z" fill="white"/>
<path d="M296 201.512C296 195.333 291.075 190.324 285 190.324C278.925 190.324 274 195.333 274 201.512V241.136C274 247.315 278.925 252.324 285 252.324C291.075 252.324 296 247.315 296 241.136V201.512Z" fill="#A4C639"/>
<path fill-rule="evenodd" clip-rule="evenodd" d="M285 192.662C279.693 192.662 275.391 196.896 275.391 202.12V241.528C275.391 246.751 279.693 250.986 285 250.986C290.307 250.986 294.609 246.751 294.609 241.528V202.12C294.609 196.896 290.307 192.662 285 192.662ZM272 202.12C272 195.053 277.82 189.324 285 189.324C292.18 189.324 298 195.053 298 202.12V241.528C298 248.595 292.18 254.324 285 254.324C277.82 254.324 272 248.595 272 241.528V202.12Z" fill="white"/>
<path d="M300.5 184.324C323.972 184.324 343 166.863 343 145.324C343 123.785 323.972 106.324 300.5 106.324C277.028 106.324 258 123.785 258 145.324C258 166.863 277.028 184.324 300.5 184.324Z" fill="#A4C639"/>
<path d="M332.726 135.324H268.275C262.601 135.324 258 139.924 258 145.599V210.049C258 215.724 262.601 220.324 268.275 220.324H332.726C338.4 220.324 343 215.724 343 210.049V145.599C343 139.924 338.4 135.324 332.726 135.324Z" fill="#A4C639"/>
<path fill-rule="evenodd" clip-rule="evenodd" d="M345 148.324H256V145.324H345V148.324Z" fill="white"/>
<path d="M281 128.324C282.105 128.324 283 127.429 283 126.324C283 125.219 282.105 124.324 281 124.324C279.895 124.324 279 125.219 279 126.324C279 127.429 279.895 128.324 281 128.324Z" fill="white"/>
<path fill-rule="evenodd" clip-rule="evenodd" d="M281.5 125.64C281.398 125.64 281.316 125.722 281.316 125.824C281.316 125.926 281.398 126.008 281.5 126.008C281.602 126.008 281.684 125.926 281.684 125.824C281.684 125.722 281.602 125.64 281.5 125.64ZM278 125.824C278 123.891 279.567 122.324 281.5 122.324C283.433 122.324 285 123.891 285 125.824C285 127.757 283.433 129.324 281.5 129.324C279.567 129.324 278 127.757 278 125.824Z" fill="white"/>
<path d="M320.5 128.324C321.328 128.324 322 127.429 322 126.324C322 125.219 321.328 124.324 320.5 124.324C319.672 124.324 319 125.219 319 126.324C319 127.429 319.672 128.324 320.5 128.324Z" fill="white"/>
<path fill-rule="evenodd" clip-rule="evenodd" d="M320.5 125.64C320.398 125.64 320.316 125.722 320.316 125.824C320.316 125.926 320.398 126.008 320.5 126.008C320.602 126.008 320.684 125.926 320.684 125.824C320.684 125.722 320.602 125.64 320.5 125.64ZM317 125.824C317 123.891 318.567 122.324 320.5 122.324C322.433 122.324 324 123.891 324 125.824C324 127.757 322.433 129.324 320.5 129.324C318.567 129.324 317 127.757 317 125.824Z" fill="white"/>
</g>
<defs>
<clipPath id="clip0_1_11">
<rect width="579.958" height="598.781" fill="white"/>
</clipPath>
</defs>
</svg>
