<svg width="82" height="82" viewBox="0 0 82 82" fill="none" xmlns="http://www.w3.org/2000/svg">
<path d="M2.54168 21.5393C2.04138 19.6722 3.14942 17.753 5.01655 17.2527L62.9721 1.7236C64.8392 1.2233 66.7584 2.33134 67.2587 4.19847L70.4939 16.2725L5.77691 33.6134L2.54168 21.5393Z" fill="white"/>
<circle cx="11.4337" cy="23.8155" r="0.5" transform="rotate(-15 11.4337 23.8155)" fill="white"/>
<circle cx="16.2637" cy="22.5214" r="0.5" transform="rotate(-15 16.2637 22.5214)" fill="white"/>
<circle cx="21.0928" cy="21.2272" r="0.5" transform="rotate(-15 21.0928 21.2272)" fill="white"/>
<path d="M2.54168 21.5393C2.04138 19.6722 3.14942 17.753 5.01655 17.2527L62.9721 1.7236C64.8392 1.2233 66.7584 2.33134 67.2587 4.19847L70.4939 16.2725L5.77691 33.6134L2.54168 21.5393Z" stroke="#F2F3F5"/>
<path d="M5.51765 32.6475L70.2347 15.3066L80.7168 54.4266C81.0742 55.7603 80.2827 57.1311 78.9491 57.4885L19.0617 73.5353C17.728 73.8926 16.3572 73.1012 15.9998 71.7675L5.51765 32.6475Z" fill="white" stroke="#F2F3F5"/>
<path d="M15.2182 3.99311C15.7185 2.12598 17.6377 1.01794 19.5048 1.51824L77.4604 17.0474C79.3275 17.5477 80.4355 19.4669 79.9352 21.334L76.7 33.4081L11.983 16.0672L15.2182 3.99311Z" fill="white"/>
<circle cx="21.7813" cy="10.4103" r="0.5" transform="rotate(15 21.7813 10.4103)" fill="white"/>
<circle cx="26.6104" cy="11.7044" r="0.5" transform="rotate(15 26.6104 11.7044)" fill="white"/>
<circle cx="31.4405" cy="12.9985" r="0.5" transform="rotate(15 31.4405 12.9985)" fill="white"/>
<path d="M15.2182 3.99311C15.7185 2.12598 17.6377 1.01794 19.5048 1.51824L77.4604 17.0474C79.3275 17.5477 80.4355 19.4669 79.9352 21.334L76.7 33.4081L11.983 16.0672L15.2182 3.99311Z" stroke="#CCCFD5"/>
<path d="M12.2422 15.1013L76.9593 32.4421L66.4771 71.5621C66.1197 72.8958 64.7489 73.6873 63.4152 73.3299L3.52782 57.2831C2.19415 56.9258 1.4027 55.5549 1.76005 54.2213L12.2422 15.1013Z" fill="white" stroke="#CCCFD5"/>
<path d="M8 12C8 10.067 9.567 8.5 11.5 8.5H71.5C73.433 8.5 75 10.067 75 12V24.5H8V12Z" fill="white"/>
<circle cx="16" cy="16.5" r="0.5" fill="white"/>
<circle cx="21" cy="16.5" r="0.5" fill="white"/>
<circle cx="26" cy="16.5" r="0.5" fill="white"/>
<path d="M8 12C8 10.067 9.567 8.5 11.5 8.5H71.5C73.433 8.5 75 10.067 75 12V24.5H8V12Z" stroke="#717783"/>
<path d="M8 23.5H75V64C75 65.3807 73.8807 66.5 72.5 66.5H10.5C9.11929 66.5 8 65.3807 8 64V23.5Z" fill="white" stroke="#717783"/>
<path d="M39.268 57C40.0378 55.6667 41.9622 55.6667 42.732 57L52.6913 74.25C53.4611 75.5833 52.4989 77.25 50.9593 77.25H31.0407C29.5011 77.25 28.5389 75.5833 29.3087 74.25L39.268 57Z" fill="#CCCFD5"/>
<rect x="3.99902" y="49.6034" width="75" height="6" fill="#CCCFD5"/>
<path d="M13.5958 49.0181L9.72649 34.8305C9.62552 34.4603 9.96199 34.119 10.3336 34.2147L24.492 37.8616C24.8981 37.9662 25.0027 38.4941 24.6673 38.7458L20.6148 41.7851C20.3759 41.9643 20.3463 42.3114 20.5513 42.5284L23.9636 46.1415C24.1456 46.3342 24.1456 46.6355 23.9636 46.8282L22.5754 48.298C22.384 48.5008 22.0636 48.5077 21.8636 48.3133L18.3909 44.9399C18.1753 44.7304 17.8248 44.7573 17.6436 44.9971L14.4772 49.188C14.2268 49.5193 13.7051 49.4187 13.5958 49.0181Z" fill="black" stroke="black"/>
<path d="M54.0502 43.4968L63.5412 48.5712C63.9181 48.7728 64.1066 48.8736 64.2912 48.8295C64.3 48.8273 64.3088 48.825 64.3175 48.8224C64.4994 48.7683 64.6123 48.5868 64.838 48.2238L70.5202 39.0837C72.124 36.5039 71.4977 33.127 69.0754 31.2939L68.6321 30.9584C65.7397 28.7696 61.555 30.3888 60.8893 33.9545C60.7952 34.4582 60.1595 34.6286 59.8262 34.2393C57.4669 31.4842 53.0332 32.1743 51.6227 35.516L51.4065 36.0283C50.2253 38.8269 51.3713 42.0646 54.0502 43.4968Z" fill="#5D51F2" stroke="#5D51F2" stroke-width="2"/>
</svg>
