<svg width="82" height="82" viewBox="0 0 82 82" fill="none" xmlns="http://www.w3.org/2000/svg">
<rect x="11.5" y="9.5" width="49" height="66" rx="3.5" fill="white"/>
<rect x="19" y="17" width="34" height="3" fill="#CCCFD5"/>
<rect x="19" y="24" width="34" height="3" fill="#CCCFD5"/>
<rect x="19" y="31" width="34" height="3" fill="#CCCFD5"/>
<rect x="19" y="38" width="34" height="3" fill="#CCCFD5"/>
<rect x="19" y="45" width="34" height="3" fill="#CCCFD5"/>
<rect x="19" y="52" width="17" height="3" fill="#CCCFD5"/>
<rect x="11.5" y="9.5" width="49" height="66" rx="3.5" stroke="#F2F3F5"/>
<rect x="6.5" y="5.5" width="49" height="66" rx="3.5" fill="white"/>
<rect x="14" y="13" width="34" height="3" fill="#CCCFD5"/>
<rect x="14" y="20" width="34" height="3" fill="#CCCFD5"/>
<rect x="14" y="27" width="34" height="3" fill="#CCCFD5"/>
<rect x="14" y="34" width="34" height="3" fill="#CCCFD5"/>
<rect x="14" y="41" width="34" height="3" fill="#CCCFD5"/>
<rect x="14" y="48" width="17" height="3" fill="#CCCFD5"/>
<rect x="6.5" y="5.5" width="49" height="66" rx="3.5" stroke="#CCCFD5"/>
<rect x="0.5" y="0.5" width="49" height="66" rx="3.5" fill="white"/>
<rect x="8" y="8" width="34" height="3" fill="#CCCFD5"/>
<rect x="8" y="15" width="34" height="3" fill="#CCCFD5"/>
<rect x="8" y="22" width="34" height="3" fill="#CCCFD5"/>
<rect x="8" y="29" width="34" height="3" fill="#CCCFD5"/>
<rect x="8" y="36" width="34" height="3" fill="#CCCFD5"/>
<rect x="8" y="43" width="17" height="3" fill="#CCCFD5"/>
<rect x="0.5" y="0.5" width="49" height="66" rx="3.5" stroke="#717783"/>
<path d="M58 35L62.2177 38.1573L67.3549 36.9885L69.9238 41.5883L75.0923 42.61L75.5682 47.857L79.8743 50.8926L78.1749 55.8795L80.874 60.4042L77.2931 64.2687L77.9186 69.5L73.0754 71.574L71.5191 76.6074L66.2511 76.5322L62.782 80.4974L58 78.286L53.218 80.4974L49.7489 76.5322L44.4809 76.6074L42.9246 71.574L38.0814 69.5L38.7069 64.2687L35.126 60.4042L37.8251 55.8795L36.1257 50.8926L40.4318 47.857L40.9077 42.61L46.0762 41.5883L48.6451 36.9885L53.7823 38.1573L58 35Z" fill="#5D51F2"/>
<path d="M53.667 57L53.667 52.6667C53.667 50.2734 55.6071 48.3333 58.0003 48.3333V48.3333C60.3936 48.3333 62.3337 50.2734 62.3337 52.6667L62.3337 57" stroke="white" stroke-width="2" stroke-linecap="round"/>
<path d="M49.0277 57.4178C49.1728 55.6769 49.2453 54.8065 49.8194 54.2782C50.3935 53.75 51.2669 53.75 53.0139 53.75H62.9861C64.7331 53.75 65.6065 53.75 66.1806 54.2782C66.7547 54.8065 66.8272 55.6769 66.9723 57.4178L67.5695 64.5839C67.654 65.5975 67.6962 66.1042 67.3991 66.4271C67.102 66.75 66.5935 66.75 65.5764 66.75H50.4236C49.4065 66.75 48.898 66.75 48.6009 66.4271C48.3038 66.1042 48.346 65.5974 48.4305 64.5839L49.0277 57.4178Z" fill="white"/>
</svg>
