<svg width="82" height="82" viewBox="0 0 82 82" fill="none" xmlns="http://www.w3.org/2000/svg">
<rect width="82" height="82" fill="white"/>
<path d="M19 29.0821L22.0796 24.3407L22.2847 24.0248L22.645 24.1349L28.0518 25.7875L27.3632 20.1759L27.3173 19.802L27.664 19.6548L32.8681 17.4453L28.7336 13.5892L28.4581 13.3323L28.6291 12.9966L31.1954 7.95897L25.5495 7.66268L25.1733 7.64293L25.0885 7.27588L23.8163 1.76719L19.3009 5.16934L19 5.39603L18.6991 5.16934L14.1837 1.76719L12.9115 7.27588L12.8267 7.64293L12.4505 7.66268L6.80458 7.95897L9.37094 12.9966L9.54194 13.3323L9.26644 13.5892L5.13188 17.4453L10.336 19.6548L10.6827 19.802L10.6368 20.1759L9.94823 25.7875L15.355 24.1349L15.7153 24.0248L15.9205 24.3407L19 29.0821Z" stroke="#CCCFD5"/>
<rect x="0.5" y="33.5" width="25" height="25" rx="12.5" fill="white"/>
<path d="M18.7956 52.3353C18.4537 51.3785 17.7004 50.533 16.6526 49.9299C15.6047 49.3269 14.3208 49 13 49C11.6792 49 10.3953 49.3269 9.34743 49.9299C8.29957 50.533 7.5463 51.3785 7.20445 52.3353" stroke="#CCCFD5" stroke-linecap="round"/>
<circle cx="13" cy="43" r="3" stroke="#CCCFD5" stroke-linecap="round"/>
<rect x="0.5" y="33.5" width="25" height="25" rx="12.5" stroke="#717783"/>
<rect x="56.5" y="0.5" width="25" height="25" rx="12.5" fill="white"/>
<path d="M74.7956 19.3353C74.4537 18.3785 73.7004 17.533 72.6526 16.9299C71.6047 16.3269 70.3208 16 69 16C67.6792 16 66.3953 16.3269 65.3474 16.9299C64.2996 17.533 63.5463 18.3785 63.2044 19.3353" stroke="#CCCFD5" stroke-linecap="round"/>
<circle cx="69" cy="10" r="3" stroke="#CCCFD5" stroke-linecap="round"/>
<rect x="56.5" y="0.5" width="25" height="25" rx="12.5" stroke="#717783"/>
<rect x="16.5" y="6.5" width="49" height="49" rx="24.5" fill="white"/>
<path d="M55.1026 45.561C55.6922 45.4382 56.0429 44.8236 55.7859 44.2789C54.7612 42.1076 52.963 40.1986 50.5884 38.7814C47.8378 37.1398 44.4676 36.25 41.0004 36.25C37.5333 36.25 34.1631 37.1398 31.4125 38.7814C29.0379 40.1986 27.2397 42.1076 26.215 44.2789C25.958 44.8235 26.3086 45.4382 26.8983 45.561L32.8396 46.7992C38.2223 47.921 43.7786 47.921 49.1613 46.7992L55.1026 45.561Z" fill="black"/>
<circle cx="41" cy="24" r="8.75" fill="black"/>
<rect x="16.5" y="6.5" width="49" height="49" rx="24.5" stroke="#717783"/>
<path d="M59 82L62.4905 74.2927L68.9793 79.7223L68.7801 71.2638L76.9821 73.3403L73.1326 65.8059L81.4233 64.118L74.686 59L81.4233 53.882L73.1326 52.1941L76.9821 44.6597L68.7801 46.7362L68.9793 38.2777L62.4905 43.7073L59 36L55.5095 43.7073L49.0207 38.2777L49.2199 46.7362L41.0179 44.6597L44.8674 52.1941L36.5767 53.882L43.314 59L36.5767 64.118L44.8674 65.8059L41.0179 73.3403L49.2199 71.2638L49.0207 79.7223L55.5095 74.2927L59 82Z" fill="#5D51F2"/>
</svg>
