<svg width="99" height="98" viewBox="0 0 99 98" fill="none" xmlns="http://www.w3.org/2000/svg">
<circle cx="49.5" cy="49" r="36.75" fill="#06C569" fill-opacity="0.1"/>
<path d="M49.5 85.75C58.0023 85.75 66.2416 82.8019 72.814 77.4081C79.3863 72.0143 83.8851 64.5085 85.5439 56.1696C87.2026 47.8306 85.9186 39.1745 81.9106 31.6762C77.9027 24.1778 71.4187 18.3011 63.5636 15.0474C55.7085 11.7937 46.9682 11.3644 38.832 13.8324C30.6958 16.3005 23.6671 21.5134 18.9435 28.5828C14.2199 35.6522 12.0936 44.1408 12.927 52.6021C13.7603 61.0635 17.5018 68.9741 23.5138 74.9862" stroke="#06C569" stroke-width="5" stroke-linecap="round"/>
<path d="M65.834 40.8334L46.8194 63.6509C46.1638 64.4376 45.836 64.831 45.3954 64.8509C44.9549 64.8709 44.5928 64.5089 43.8687 63.7848L33.1673 53.0834" stroke="#06C569" stroke-width="5" stroke-linecap="round"/>
</svg>
