<svg width="515" height="515" viewBox="0 0 515 515" fill="none" xmlns="http://www.w3.org/2000/svg">
<rect width="515" height="515" fill="white"/>
<mask id="path-2-inside-1_777_8808" fill="white">
<path fill-rule="evenodd" clip-rule="evenodd" d="M21.6719 288.384C21.6719 326.269 52.3836 356.981 90.2684 356.981H353.719C407.526 356.981 451.146 313.361 451.146 259.554C451.146 205.747 407.526 162.127 353.719 162.127C345.729 162.127 337.965 163.089 330.534 164.903C312.512 122.061 270.144 91.981 220.751 91.981C155.002 91.981 101.701 145.281 101.701 211.031C101.701 214.321 101.835 217.581 102.097 220.804C98.2541 220.136 94.3019 219.788 90.2684 219.788C52.3836 219.788 21.6719 250.5 21.6719 288.384Z"/>
</mask>
<path fill-rule="evenodd" clip-rule="evenodd" d="M21.6719 288.384C21.6719 326.269 52.3836 356.981 90.2684 356.981H353.719C407.526 356.981 451.146 313.361 451.146 259.554C451.146 205.747 407.526 162.127 353.719 162.127C345.729 162.127 337.965 163.089 330.534 164.903C312.512 122.061 270.144 91.981 220.751 91.981C155.002 91.981 101.701 145.281 101.701 211.031C101.701 214.321 101.835 217.581 102.097 220.804C98.2541 220.136 94.3019 219.788 90.2684 219.788C52.3836 219.788 21.6719 250.5 21.6719 288.384Z" fill="white"/>
<path d="M330.534 164.903L329.613 165.29L329.943 166.076L330.771 165.874L330.534 164.903ZM102.097 220.804L101.925 221.789L103.198 222.01L103.093 220.723L102.097 220.804ZM90.2684 355.981C52.9359 355.981 22.6719 325.717 22.6719 288.384H20.6719C20.6719 326.822 51.8313 357.981 90.2684 357.981V355.981ZM353.719 355.981H90.2684V357.981H353.719V355.981ZM450.146 259.554C450.146 312.809 406.974 355.981 353.719 355.981V357.981C408.078 357.981 452.146 313.914 452.146 259.554H450.146ZM353.719 163.127C406.974 163.127 450.146 206.299 450.146 259.554H452.146C452.146 205.194 408.078 161.127 353.719 161.127V163.127ZM330.771 165.874C338.125 164.079 345.81 163.127 353.719 163.127V161.127C345.649 161.127 337.805 162.098 330.297 163.931L330.771 165.874ZM220.751 92.981C269.728 92.981 311.741 122.807 329.613 165.29L331.456 164.515C313.283 121.316 270.561 90.981 220.751 90.981V92.981ZM102.701 211.031C102.701 145.834 155.554 92.981 220.751 92.981V90.981C154.449 90.981 100.701 144.729 100.701 211.031H102.701ZM103.093 220.723C102.834 217.527 102.701 214.294 102.701 211.031H100.701C100.701 214.348 100.836 217.635 101.1 220.885L103.093 220.723ZM90.2684 220.788C94.2442 220.788 98.1392 221.131 101.925 221.789L102.268 219.819C98.369 219.141 94.3595 218.788 90.2684 218.788V220.788ZM22.6719 288.384C22.6719 251.052 52.9359 220.788 90.2684 220.788V218.788C51.8313 218.788 20.6719 249.947 20.6719 288.384H22.6719Z" fill="#717783" mask="url(#path-2-inside-1_777_8808)"/>
<path d="M424.672 193.322C476.549 117.746 497.97 51.1886 473.754 23.6215C438.035 -17.0386 316.558 42.5218 202.427 156.653C88.2953 270.785 24.7289 396.268 60.4472 436.928C90.1144 470.7 178.945 435.331 273.589 356.981" stroke="#CCCFD5" stroke-width="3" stroke-linecap="round" stroke-dasharray="0.5 15"/>
<path d="M257.172 97.7143C169.617 26.2208 87.2763 -7.96101 55.0195 19.1476C13.5874 53.9673 70.4744 176.719 182.08 293.321C293.686 409.924 417.748 476.222 459.18 441.402C483.597 420.882 473.867 369.823 438.915 307.481" stroke="#CCCFD5" stroke-width="3" stroke-linecap="round" stroke-dasharray="0.5 15"/>
<path d="M268.136 473.544C268.155 476.953 268.881 480.326 270.32 483.42C271.865 486.741 274.192 489.678 277.068 491.948C279.891 494.175 283.23 495.736 286.749 496.476C288.625 496.871 290.516 496.981 292.426 496.981C294.494 496.981 296.562 496.981 298.631 496.981C302.317 496.981 306.004 496.981 309.69 496.981C314.505 496.981 319.319 496.981 324.133 496.981C329.611 496.981 335.09 496.981 340.568 496.981C346.253 496.981 351.937 496.981 357.623 496.981C363.024 496.981 368.426 496.981 373.827 496.981C378.446 496.981 383.065 496.981 387.684 496.981C391.098 496.981 394.512 496.981 397.926 496.981C399.63 496.981 401.335 496.981 403.039 496.981C405.463 496.981 407.86 496.673 410.183 495.967C413.649 494.914 416.858 493.052 419.487 490.561C422.128 488.059 424.168 484.952 425.41 481.533C426.346 478.956 426.809 476.232 426.815 473.492C426.816 472.863 426.815 472.234 426.815 471.605C426.815 470.128 426.815 468.65 426.815 467.173C426.815 464.918 426.815 462.662 426.815 460.407C426.815 457.456 426.815 454.505 426.815 451.554C426.815 448.006 426.815 444.458 426.815 440.91C426.815 436.804 426.815 432.699 426.815 428.593C426.815 424.026 426.815 419.46 426.815 414.893C426.815 409.944 426.815 404.994 426.815 400.045C426.815 394.82 426.815 389.596 426.815 384.371C426.815 378.893 426.815 373.414 426.815 367.936C426.815 362.31 426.815 356.683 426.815 351.057C426.815 345.377 426.815 339.697 426.815 334.018C426.815 328.347 426.815 322.676 426.815 317.005C426.815 311.405 426.815 305.806 426.815 300.207C426.815 294.773 426.815 289.34 426.815 283.906C426.815 278.744 426.815 273.582 426.815 268.421C426.815 263.552 426.815 258.684 426.815 253.815C426.815 249.347 426.815 244.88 426.815 240.412C426.815 236.423 426.815 232.434 426.815 228.446C426.815 225.032 426.815 221.619 426.815 218.204C426.815 215.406 426.815 212.608 426.815 209.809C426.815 207.725 426.815 205.64 426.815 203.556C426.815 202.267 426.815 200.978 426.815 199.689C426.815 199.148 426.82 198.607 426.812 198.067C426.761 194.651 425.953 191.256 424.46 188.182C422.85 184.869 420.454 181.951 417.513 179.729C414.685 177.593 411.379 176.11 407.9 175.424C406.077 175.065 404.244 174.981 402.394 174.981C400.255 174.981 398.116 174.981 395.977 174.981C392.238 174.981 388.499 174.981 384.76 174.981C379.926 174.981 375.091 174.981 370.257 174.981C364.749 174.981 359.24 174.981 353.732 174.981C348.049 174.981 342.366 174.981 336.683 174.981C331.302 174.981 325.921 174.981 320.54 174.981C315.959 174.981 311.378 174.981 306.797 174.981C303.44 174.981 300.083 174.981 296.726 174.981C295.096 174.981 293.467 174.981 291.837 174.981C289.304 174.981 286.793 175.336 284.379 176.116C280.943 177.227 277.784 179.134 275.199 181.654C272.578 184.21 270.574 187.384 269.392 190.848C268.552 193.31 268.14 195.892 268.135 198.492C268.134 199.152 268.135 199.812 268.135 200.472C268.135 201.984 268.135 203.495 268.135 205.006C268.135 207.289 268.135 209.573 268.135 211.856C268.135 214.832 268.135 217.808 268.135 220.785C268.135 224.355 268.135 227.925 268.135 231.494C268.135 235.619 268.135 239.744 268.135 243.869C268.135 248.451 268.135 253.034 268.135 257.617C268.135 262.565 268.135 267.514 268.135 272.462C268.135 277.711 268.135 282.959 268.135 288.208C268.135 293.694 268.135 299.179 268.135 304.665C268.135 310.295 268.135 315.925 268.135 321.556C268.135 327.221 268.135 332.886 268.135 338.552C268.135 344.236 268.135 349.921 268.135 355.606C268.135 361.2 268.135 366.795 268.135 372.389C268.135 377.815 268.135 383.241 268.135 388.666C268.135 393.817 268.135 398.968 268.135 404.119C268.135 408.974 268.135 413.829 268.135 418.683C268.135 423.134 268.135 427.585 268.135 432.036C268.135 435.994 268.135 439.953 268.135 443.912C268.135 447.313 268.135 450.714 268.135 454.116C268.135 456.888 268.135 459.661 268.135 462.434C268.135 464.489 268.135 466.544 268.135 468.599C268.135 469.854 268.135 471.11 268.135 472.364C268.136 472.758 268.136 473.151 268.136 473.544Z" fill="white" stroke="#717783" stroke-miterlimit="10" stroke-linecap="round" stroke-linejoin="round"/>
<path d="M364.66 187.758C364.659 186.689 363.969 185.71 362.961 185.35C361.954 184.99 360.797 185.309 360.118 186.135C359.439 186.96 359.35 188.155 359.9 189.072C360.45 189.988 361.546 190.474 362.596 190.267C363.642 190.06 364.468 189.198 364.63 188.146C364.65 188.017 364.66 187.888 364.66 187.758Z" stroke="#717783" stroke-miterlimit="10" stroke-linecap="round" stroke-linejoin="round"/>
<path d="M354.868 187.748C354.868 186.936 354.377 186.204 353.691 185.996C353.416 185.913 353.125 185.936 352.842 185.936C352.087 185.936 351.331 185.936 350.575 185.936C348.309 185.936 346.043 185.936 343.777 185.936C342.596 185.936 341.26 185.936 340.172 185.946C338.6 186.138 338.247 188.675 339.699 189.407C339.96 189.538 340.226 189.559 340.505 189.56C341.117 189.563 341.73 189.56 342.342 189.56C344.569 189.56 346.796 189.56 349.023 189.56C350.437 189.56 351.861 189.614 353.275 189.56C353.953 189.534 354.56 189.084 354.783 188.332C354.84 188.144 354.868 187.946 354.868 187.748Z" stroke="#717783" stroke-miterlimit="10" stroke-linecap="round" stroke-linejoin="round"/>
<path d="M309.462 183.751C305.372 183.751 301.282 183.751 297.192 183.751C295.374 183.751 293.555 183.75 291.737 183.751C290.472 183.751 289.222 183.877 287.993 184.18C285.058 184.905 282.382 186.552 280.417 188.84C278.451 191.129 277.231 194.017 276.966 197.017C276.9 197.77 276.91 198.523 276.91 199.277C276.91 200.436 276.91 201.594 276.91 202.752C276.91 204.678 276.91 206.604 276.91 208.53C276.91 211.158 276.91 213.786 276.91 216.414C276.91 219.666 276.91 222.918 276.91 226.17C276.91 229.961 276.91 233.751 276.91 237.542C276.91 241.807 276.91 246.072 276.91 250.336C276.91 255.014 276.91 259.693 276.91 264.371C276.91 269.378 276.91 274.385 276.91 279.393C276.91 284.64 276.91 289.886 276.91 295.133C276.91 300.56 276.91 305.987 276.91 311.414C276.91 316.978 276.91 322.543 276.91 328.108C276.91 333.675 276.91 339.242 276.91 344.809C276.91 350.335 276.91 355.862 276.91 361.389C276.91 366.801 276.91 372.215 276.91 377.627C276.91 382.882 276.91 388.136 276.91 393.391C276.91 398.355 276.91 403.319 276.91 408.283C276.91 412.913 276.91 417.543 276.91 422.173C276.91 426.396 276.91 430.618 276.91 434.841C276.91 438.603 276.91 442.364 276.91 446.125C276.91 449.31 276.91 452.495 276.91 455.68C276.91 458.237 276.91 460.794 276.91 463.351C276.91 465.211 276.91 467.071 276.91 468.932C276.91 470.013 276.91 471.094 276.91 472.176C276.91 473.157 276.926 474.131 277.073 475.106C277.52 478.069 278.9 480.861 280.985 483.022C283.079 485.192 285.843 486.682 288.813 487.237C290.236 487.503 291.658 487.489 293.095 487.489C295.442 487.489 297.789 487.489 300.136 487.489C303.956 487.489 307.777 487.489 311.597 487.489C316.458 487.489 321.32 487.489 326.182 487.489C331.626 487.489 337.071 487.489 342.515 487.489C348.077 487.489 353.64 487.489 359.202 487.489C364.45 487.489 369.698 487.489 374.946 487.489C379.456 487.489 383.965 487.489 388.475 487.489C391.748 487.489 395.022 487.489 398.295 487.489C399.913 487.489 401.531 487.489 403.149 487.489C405.372 487.489 407.545 487.075 409.569 486.144C412.323 484.877 414.641 482.747 416.138 480.12C417.392 477.923 418.031 475.429 418.04 472.905C418.042 472.321 418.04 471.737 418.04 471.153C418.04 469.751 418.04 468.349 418.04 466.947C418.04 464.786 418.04 462.625 418.04 460.464C418.04 457.642 418.04 454.82 418.04 451.998C418.04 448.578 418.04 445.159 418.04 441.739C418.04 437.783 418.04 433.827 418.04 429.872C418.04 425.463 418.04 421.053 418.04 416.643C418.04 411.868 418.04 407.093 418.04 402.318C418.04 397.239 418.04 392.16 418.04 387.081C418.04 381.756 418.04 376.431 418.04 371.105C418.04 365.622 418.04 360.139 418.04 354.656C418.04 349.104 418.04 343.552 418.04 338C418.04 332.438 418.04 326.875 418.04 321.313C418.04 315.783 418.04 310.253 418.04 304.723C418.04 299.361 418.04 293.999 418.04 288.636C418.04 283.484 418.04 278.332 418.04 273.179C418.04 268.31 418.04 263.441 418.04 258.572C418.04 254.035 418.04 249.498 418.04 244.962C418.04 240.882 418.04 236.801 418.04 232.721C418.04 229.144 418.04 225.568 418.04 221.991C418.04 218.992 418.04 215.992 418.04 212.992C418.04 210.631 418.04 208.271 418.04 205.91C418.04 204.288 418.04 202.666 418.04 201.045C418.04 200.22 418.04 199.396 418.04 198.571C418.04 196.826 417.792 195.108 417.208 193.458C416.198 190.608 414.291 188.108 411.805 186.376C409.356 184.671 406.42 183.764 403.435 183.751C399.317 183.733 395.198 183.751 391.08 183.751C389.276 183.751 387.472 183.749 385.668 183.751C384.989 183.751 384.351 183.891 383.912 184.451C383.196 185.366 383.283 186.762 383.03 187.837C382.685 189.301 382.108 190.754 381.113 191.905C379.465 193.81 377.036 193.965 374.639 193.965C370.266 193.965 365.894 193.965 361.521 193.965C357.083 193.965 352.645 193.965 348.206 193.965C345.953 193.965 343.699 193.965 341.446 193.965C336.156 193.965 330.866 193.965 325.575 193.965C323.782 193.965 321.989 193.965 320.196 193.965C319.204 193.965 318.326 194.206 317.351 193.982C314.361 193.295 312.657 190.826 311.956 187.985C311.568 186.409 311.738 183.748 309.462 183.751Z" stroke="#717783" stroke-miterlimit="10" stroke-linecap="round" stroke-linejoin="round"/>
<path fill-rule="evenodd" clip-rule="evenodd" d="M330.867 241.409C331.283 242.126 332.201 242.37 332.917 241.954C337.403 239.351 342.492 237.981 347.671 237.981C352.851 237.981 357.939 239.351 362.426 241.954C363.142 242.37 364.06 242.126 364.476 241.409C364.892 240.693 364.648 239.775 363.931 239.359C358.988 236.491 353.38 234.981 347.671 234.981C341.963 234.981 336.355 236.491 331.412 239.359C330.695 239.775 330.451 240.693 330.867 241.409ZM335.428 248.348C335.844 249.064 336.762 249.308 337.478 248.892C340.578 247.094 344.093 246.148 347.672 246.148C351.25 246.148 354.765 247.094 357.865 248.892C358.582 249.308 359.5 249.064 359.915 248.348C360.331 247.631 360.087 246.713 359.371 246.298C355.814 244.234 351.779 243.148 347.672 243.148C343.564 243.148 339.529 244.234 335.973 246.298C335.256 246.713 335.012 247.631 335.428 248.348ZM342.977 255.804C342.268 256.233 341.346 256.007 340.916 255.299C340.487 254.591 340.712 253.668 341.421 253.239C343.316 252.089 345.472 251.481 347.672 251.481C349.871 251.481 352.027 252.089 353.923 253.239C354.631 253.668 354.857 254.591 354.427 255.299C353.998 256.007 353.075 256.233 352.367 255.804C350.934 254.935 349.315 254.481 347.672 254.481C346.028 254.481 344.409 254.935 342.977 255.804Z" fill="#06C569"/>
<rect x="325.172" y="222.481" width="45" height="45" rx="22.5" stroke="#CCCFD5"/>
<circle cx="340.172" cy="44.481" r="29" fill="white" stroke="#CCCFD5"/>
<path fill-rule="evenodd" clip-rule="evenodd" d="M352.095 34.7871L343.191 30.971C341.902 30.4185 340.443 30.4185 339.153 30.971L330.249 34.7871C329.621 35.0563 329.214 35.6739 329.214 36.3573V45.331C329.214 48.6412 330.813 51.7477 333.506 53.6717L339.186 57.729C340.374 58.5775 341.97 58.5775 343.158 57.729L348.838 53.6717C351.532 51.7477 353.131 48.6412 353.131 45.331V36.3573C353.131 35.6739 352.723 35.0563 352.095 34.7871ZM347.078 40.9809C347.423 40.5496 347.353 39.9203 346.922 39.5753C346.491 39.2303 345.861 39.3002 345.516 39.7315L339.381 47.4007L336.754 44.7741C336.364 44.3836 335.731 44.3836 335.34 44.7741C334.95 45.1646 334.95 45.7978 335.34 46.1883L338.362 49.21C338.994 49.8421 340.035 49.7845 340.594 49.0863L347.078 40.9809Z" fill="#06C569"/>
<circle cx="73.1719" cy="145.481" r="29" fill="white" stroke="#CCCFD5"/>
<rect x="63.0215" y="135.331" width="20.3" height="20.3" rx="2" fill="#E5ECFF" stroke="#002EAA" stroke-width="2"/>
<path d="M68.6719 135.981L68.6719 130.981" stroke="#002EAA" stroke-width="2"/>
<path d="M68.6719 159.981L68.6719 154.981" stroke="#002EAA" stroke-width="2"/>
<path d="M77.5215 159.981V154.981" stroke="#002EAA" stroke-width="2"/>
<path d="M87.6719 149.981L82.6719 149.981" stroke="#002EAA" stroke-width="2"/>
<path d="M63.6719 149.981L58.6719 149.981" stroke="#002EAA" stroke-width="2"/>
<path d="M63.6719 140.981L58.6719 140.981" stroke="#002EAA" stroke-width="2"/>
<path d="M77.5215 132.431H78.2215C81.9927 132.431 83.8783 132.431 85.0499 133.603C86.2215 134.774 86.2215 136.66 86.2215 140.431V141.131" stroke="#002EAA" stroke-width="2"/>
<circle cx="63.1719" cy="346.481" r="29" fill="white" stroke="#CCCFD5"/>
<path fill-rule="evenodd" clip-rule="evenodd" d="M49.3827 337.817C48.7969 338.403 48.7969 339.345 48.7969 341.231V353.731C48.7969 355.617 48.7969 356.559 49.3827 357.145C49.9684 357.731 50.9113 357.731 52.7969 357.731H75.5469C77.4325 357.731 78.3753 357.731 78.9611 357.145C79.5469 356.559 79.5469 355.617 79.5469 353.731V341.231C79.5469 339.345 79.5469 338.403 78.9611 337.817C78.3753 337.231 77.4325 337.231 75.5469 337.231H52.7969C50.9113 337.231 49.9684 337.231 49.3827 337.817ZM64.1719 352.606C67.0023 352.606 69.2969 350.311 69.2969 347.481C69.2969 344.65 67.0023 342.356 64.1719 342.356C61.3414 342.356 59.0469 344.65 59.0469 347.481C59.0469 350.311 61.3414 352.606 64.1719 352.606Z" fill="#E48038"/>
<rect x="48.7969" y="337.231" width="30.75" height="20.5" rx="2" stroke="white" stroke-width="1.2"/>
<path d="M53.9219 342.356H57.3385" stroke="white" stroke-width="1.2" stroke-linecap="round"/>
<path d="M71.0049 352.606H74.4215" stroke="white" stroke-width="1.2" stroke-linecap="round"/>
<circle cx="64.1719" cy="347.481" r="4.525" stroke="white" stroke-width="1.2"/>
<rect x="288.172" y="439.481" width="36" height="36" rx="1.5" fill="#E5ECFF" stroke="#0045FF"/>
<rect x="329.172" y="439.481" width="36" height="36" rx="1.5" fill="#E5ECFF" stroke="#0045FF"/>
<rect x="370.172" y="439.481" width="36" height="36" rx="1.5" fill="#E5ECFF" stroke="#0045FF"/>
<rect x="288.172" y="398.481" width="36" height="36" rx="1.5" fill="#E5ECFF" stroke="#0045FF"/>
<rect x="329.172" y="398.481" width="36" height="36" rx="1.5" fill="#E5ECFF" stroke="#0045FF"/>
<rect x="288.172" y="357.481" width="36" height="36" rx="1.5" fill="#E5ECFF" stroke="#0045FF"/>
<path d="M347.61 308.634L347.61 307.632L348.608 307.632L348.608 308.634L347.61 308.634ZM319.15 338.607C318.761 338.998 318.129 338.998 317.739 338.607C317.349 338.216 317.349 337.582 317.739 337.19L319.15 338.607ZM321.133 307.633L347.61 307.632L347.61 309.635L321.134 309.636L321.133 307.633ZM348.608 308.634L348.608 337.899L346.612 337.899L346.612 308.634L348.608 308.634ZM348.316 309.342L319.15 338.607L317.739 337.19L346.904 307.925L348.316 309.342Z" fill="#0045FF"/>
</svg>
