<svg width="100" height="100" viewBox="0 0 100 100" fill="none" xmlns="http://www.w3.org/2000/svg">
<g clip-path="url(#clip0_527_7224)">
<g opacity="0.9" filter="url(#filter0_bd_527_7224)">
<rect x="22" y="22" width="56" height="56" rx="28" fill="white" fill-opacity="0.6" shape-rendering="crispEdges"/>
<path d="M39.3332 50C39.3332 44.109 44.1088 39.3333 49.9998 39.3333C55.8909 39.3333 60.6665 44.109 60.6665 50V58.8889C60.6665 59.6176 60.6665 59.982 60.4857 60.2402C60.4187 60.3358 60.3356 60.4189 60.2401 60.4858C59.9818 60.6667 59.6174 60.6667 58.8887 60.6667H49.9998C44.1088 60.6667 39.3332 55.891 39.3332 50Z" fill="#0045FF"/>
<path d="M45.3335 48H54.6668" stroke="#F2F3F5" stroke-width="2" stroke-linecap="round" stroke-linejoin="round"/>
<path d="M45.3335 52H52.0002" stroke="#F2F3F5" stroke-width="2" stroke-linecap="round" stroke-linejoin="round"/>
<rect x="22.5" y="22.5" width="55" height="55" rx="27.5" stroke="#0045FF" shape-rendering="crispEdges"/>
</g>
<g clip-path="url(#clip1_527_7224)">
<path d="M37.8887 91.5073L38.2129 92.1838C38.8609 91.691 39.7447 91.4502 40.7982 91.6367C42.5993 91.9555 43.6921 93.5041 43.3492 95.4411C43.0064 97.3782 41.4824 98.4637 39.6473 98.1389C38.5599 97.9464 37.7499 97.2423 37.4789 96.727L36.9302 97.3191C37.3404 97.9058 38.131 98.6532 39.5357 98.9018C41.7672 99.2968 43.8004 97.9744 44.2255 95.5729C44.6525 93.16 43.3193 91.2535 40.9972 90.8425C39.5472 90.5858 38.5121 91.0218 37.8887 91.5073Z" fill="#0045FF"/>
<path d="M33.4237 88.4101C31.3819 87.5983 29.0763 88.3529 28.137 90.7153C27.2019 93.0671 28.377 95.218 30.3974 96.0213C32.4285 96.8289 34.749 96.0679 35.684 93.7161C36.6234 91.3537 35.4547 89.2177 33.4237 88.4101ZM33.1346 89.137C34.7167 89.7661 35.6217 91.4753 34.8567 93.3995C34.0831 95.3451 32.2749 95.9384 30.6822 95.3051C29.0787 94.6675 28.1865 92.9882 28.9559 91.0533C29.7209 89.1291 31.5311 88.4995 33.1346 89.137Z" fill="#0045FF"/>
<path d="M23.6637 82.8985L22.9746 82.439L18.5711 89.0433L19.2794 89.5156L22.9106 84.0694L23.3281 92.2151L24.0747 92.7128L28.4781 86.1086L27.7603 85.6299L25.6288 88.8268C25.0161 89.7456 24.4066 90.6804 24.0876 91.159L23.6637 82.8985Z" fill="#0045FF"/>
<path d="M20.5355 79.9357L19.9137 79.3376L14.9217 84.528L13.2634 82.9331L12.753 83.4637L16.6997 87.2596L17.2101 86.7289L15.5435 85.1261L20.5355 79.9357Z" fill="#0045FF"/>
<path d="M14.0138 72.0172L13.4301 71.2328L9.02137 78.6431L9.41282 79.1691L17.7703 77.0656L17.2347 76.3457L14.9246 76.9605L12.7614 74.0533L14.0138 72.0172ZM12.3308 74.7465L14.137 77.1738L10.1756 78.2287L12.3308 74.7465Z" fill="#0045FF"/>
<path d="M9.29963 64.8475L8.94441 65.5083C9.72453 65.741 10.4402 66.3128 10.9108 67.2735C11.7155 68.9161 11.1092 70.7119 9.34264 71.5773C7.57606 72.4427 5.80075 71.852 4.9809 70.1784C4.49506 69.1867 4.58608 68.1173 4.84243 67.5946L4.04059 67.5006C3.80871 68.1778 3.67131 69.2571 4.29885 70.5382C5.29583 72.5734 7.56284 73.4355 9.75299 72.3627C11.9535 71.2847 12.7071 69.0837 11.6696 66.9659C11.0218 65.6435 10.0593 65.0646 9.29963 64.8475Z" fill="#0045FF"/>
<path d="M9.54355 61.3918L9.30179 60.5635L2.38886 62.5814L1.74418 60.3728L1.03742 60.5791L2.57178 65.8356L3.27853 65.6293L2.63062 63.4096L9.54355 61.3918Z" fill="#0045FF"/>
<path d="M0.00934026 47.612L4.70264 47.561C5.33531 47.5541 6.03726 47.5695 6.53589 47.9322C7.0114 48.2837 7.31661 48.8441 7.32474 49.5918C7.33261 50.3165 7.01715 50.9296 6.58353 51.2565C6.08152 51.6416 5.38007 51.6722 4.7474 51.6791L0.0540996 51.7301L0.0634766 52.5928L4.77978 52.5416C5.72304 52.5313 6.53914 52.4649 7.18895 51.9172C7.816 51.3926 8.11795 50.5956 8.10695 49.5833C8.09607 48.5825 7.75373 47.7809 7.11543 47.2701C6.4655 46.748 5.65953 46.6877 4.71627 46.698L-3.66861e-05 46.7492L0.00934026 47.612Z" fill="#0045FF"/>
<path d="M6.5429 43.9669L7.00123 44.6391C7.66938 44.3434 8.60685 43.6265 8.80763 42.4354C9.06385 40.9153 8.38337 39.6923 6.99942 39.459C5.87638 39.2697 5.20376 39.938 4.63477 40.822L4.00128 41.8119C3.69779 42.2974 3.2959 42.8129 2.47914 42.6752C1.70776 42.5452 1.37625 41.8127 1.51775 40.9733C1.65733 40.1452 2.1877 39.6979 2.6421 39.4245L2.15904 38.8298C1.96594 38.9372 1.00794 39.4991 0.788048 40.8036C0.585365 42.006 1.07466 43.3251 2.39054 43.5469C3.34342 43.7076 3.99653 43.3627 4.51811 42.5523L5.21227 41.4793C5.65228 40.8069 6.16021 40.2159 6.97697 40.3535C7.86179 40.5027 8.24619 41.2674 8.08749 42.209C7.94599 43.0484 7.12208 43.7145 6.5429 43.9669Z" fill="#0045FF"/>
<path d="M9.0344 28.542C8.2202 28.1649 7.19687 28.5403 6.81974 29.3545C6.4426 30.1687 6.81803 31.192 7.63222 31.5692C8.44642 31.9463 9.48019 31.5757 9.85732 30.7615C10.2345 29.9473 9.84859 28.9192 9.0344 28.542Z" fill="black"/>
<path d="M20.3454 18.5319L19.5983 18.4635C19.6894 19.2725 19.4432 20.1548 18.7432 20.9639C17.5464 22.3471 15.6566 22.4918 14.169 21.2047C12.6814 19.9175 12.5303 18.0526 13.7497 16.6433C14.4723 15.8082 15.492 15.4735 16.0734 15.5049L15.8461 14.7302C15.1321 14.7818 14.0851 15.0777 13.1518 16.1564C11.6689 17.8702 11.7625 20.2938 13.6068 21.8896C15.4598 23.4928 17.7802 23.3252 19.3233 21.5418C20.2867 20.4282 20.4429 19.3159 20.3454 18.5319Z" fill="#0045FF"/>
<path d="M25.2939 16.2845C27.0374 14.9474 27.571 12.5809 26.0238 10.5635C24.4836 8.55533 22.0344 8.46204 20.3092 9.78522C18.5748 11.1154 18.039 13.498 19.5793 15.5062C21.1265 17.5236 23.5595 17.6147 25.2939 16.2845ZM24.8178 15.6638C23.4668 16.7 21.5353 16.6011 20.2751 14.958C19.001 13.2967 19.4181 11.44 20.7783 10.3968C22.1475 9.34667 24.0468 9.44127 25.3139 11.0935C26.5741 12.7366 26.1871 14.6137 24.8178 15.6638Z" fill="#0045FF"/>
<path d="M35.0282 10.7288L35.7759 10.3725L32.3617 3.20669L31.5932 3.57286L34.4087 9.48207L27.2002 5.66596L26.3901 6.05193L29.8044 13.2178L30.5833 12.8466L28.9306 9.37796C28.4556 8.38098 27.9652 7.37855 27.7178 6.85929L35.0282 10.7288Z" fill="#0045FF"/>
<path d="M39.1756 9.56085L40.0079 9.33339L38.1094 2.38674L40.3288 1.78018L40.1347 1.06998L34.8525 2.5136L35.0466 3.2238L37.2771 2.6142L39.1756 9.56085Z" fill="#0045FF"/>
<path d="M49.3178 8.0188L50.2906 7.91959L46.1869 0.336145L45.5346 0.402673L43.0577 8.65724L43.9503 8.5662L44.6063 6.26754L48.2113 5.89989L49.3178 8.0188ZM47.8367 5.1749L44.8268 5.48186L45.9512 1.53967L47.8367 5.1749Z" fill="#0045FF"/>
<path d="M57.8902 7.64522L57.5049 7.00153C56.9052 7.55215 56.0475 7.87363 54.9813 7.78538C53.1584 7.63451 51.9271 6.19359 52.0894 4.23314C52.2516 2.27268 53.6687 1.05095 55.5259 1.20467C56.6265 1.29576 57.4982 1.92198 57.8156 2.40998L58.3073 1.76962C57.8446 1.22342 56.9882 0.5523 55.5666 0.43464C53.308 0.247712 51.4058 1.7525 51.2047 4.183C51.0026 6.62498 52.5063 8.40011 54.8566 8.59463C56.3241 8.71609 57.3145 8.18627 57.8902 7.64522Z" fill="#0045FF"/>
<path d="M60.7326 9.62574L61.5677 9.8426L63.3778 2.8724L65.6047 3.45071L65.7898 2.7381L60.4897 1.36171L60.3047 2.07432L62.5427 2.65553L60.7326 9.62574Z" fill="#0045FF"/>
<path d="M77.4513 8.50116L75.0898 12.5574C74.7714 13.1042 74.3985 13.6991 73.8314 13.9413C73.2859 14.1695 72.6483 14.1444 72.0021 13.7682C71.3758 13.4035 71.0109 12.8184 70.9525 12.2785C70.8791 11.6501 71.2123 11.0321 71.5306 10.4853L73.8921 6.42906L73.1465 5.99496L70.7734 10.0711C70.2988 10.8863 69.9376 11.6211 70.0749 12.4598C70.2039 13.2671 70.7336 13.9349 71.6085 14.4442C72.4734 14.9478 73.3372 15.0646 74.1029 14.7783C74.8844 14.4878 75.3492 13.8266 75.8238 13.0114L78.1969 8.93526L77.4513 8.50116Z" fill="#0045FF"/>
<path d="M77.2329 15.9796L76.4208 16.0286C76.3323 16.7539 76.4675 17.9263 77.3874 18.7091C78.5613 19.7082 79.9602 19.7507 80.8698 18.6818C81.6079 17.8145 81.3788 16.8945 80.9113 15.9528L80.386 14.9015C80.1246 14.3921 79.8879 13.7828 80.4247 13.152C80.9317 12.5563 81.7306 12.647 82.3789 13.1987C83.0184 13.743 83.1307 14.4276 83.1325 14.9579L83.8908 14.8479C83.8975 14.627 83.906 13.5165 82.8985 12.6591C81.9699 11.8688 80.5864 11.6129 79.7216 12.6292C79.0953 13.3651 79.0568 14.1027 79.4853 14.9659L80.0509 16.1118C80.4028 16.8343 80.65 17.5733 80.1132 18.2041C79.5317 18.8875 78.678 18.8256 77.9508 18.2068C77.3025 17.6551 77.1528 16.6062 77.2329 15.9796Z" fill="#0045FF"/>
<path d="M89.2013 26.0241C89.9424 25.5182 90.1445 24.4471 89.6386 23.706C89.1328 22.9649 88.0616 22.7628 87.3205 23.2687C86.5794 23.7745 86.3678 24.8521 86.8737 25.5932C87.3796 26.3344 88.4602 26.53 89.2013 26.0241Z" fill="black"/>
<path d="M91.9995 40.8672L92.4411 40.2607C91.6997 39.9243 91.0683 39.2607 90.7323 38.245C90.1579 36.5084 91.0022 34.8115 92.8698 34.1937C94.7375 33.576 96.4162 34.402 97.0015 36.1714C97.3483 37.2199 97.1131 38.267 96.7882 38.7501L97.5698 38.952C97.8915 38.3125 98.174 37.2618 97.726 35.9075C97.0143 33.7559 94.8853 32.5941 92.5698 33.36C90.2434 34.1295 89.1982 36.2079 89.9388 38.4469C90.4012 39.8449 91.2763 40.549 91.9995 40.8672Z" fill="#0045FF"/>
<path d="M91.3938 46.2679C91.6484 48.4503 93.407 50.1213 95.9322 49.8266C98.446 49.5333 99.7813 47.478 99.5293 45.3184C99.2759 43.1474 97.5046 41.4663 94.9908 41.7597C92.4656 42.0543 91.1404 44.0969 91.3938 46.2679ZM92.1707 46.1772C91.9734 44.4861 93.0482 42.8782 95.1049 42.6382C97.1845 42.3955 98.5651 43.7053 98.7637 45.4078C98.9637 47.1217 97.9091 48.7041 95.841 48.9455C93.7842 49.1855 92.3708 47.8911 92.1707 46.1772Z" fill="#0045FF"/>
<path d="M91.1757 57.4741L91.0984 58.2987L99.0014 59.0394L99.0809 58.1918L92.5637 57.5811L99.5349 53.3469L99.6187 52.4535L91.7156 51.7129L91.6351 52.5719L95.4606 52.9304C96.5602 53.0335 97.6723 53.1261 98.245 53.1798L91.1757 57.4741Z" fill="#0045FF"/>
<path d="M90.0528 61.6341L89.8216 62.4653L96.7596 64.3952L96.1431 66.6118L96.8524 66.8091L98.3198 61.5336L97.6105 61.3363L96.9908 63.564L90.0528 61.6341Z" fill="#0045FF"/>
<path d="M86.1792 71.1331L85.7659 72.0192L94.3808 72.3819L94.658 71.7877L88.8393 65.4304L88.46 66.2435L90.0976 67.9849L88.5658 71.2689L86.1792 71.1331ZM89.3803 71.3188L90.6593 68.5769L93.4682 71.5627L89.3803 71.3188Z" fill="#0045FF"/>
<path d="M82.1066 78.6858L82.8568 78.6847C82.6913 77.8876 82.8548 76.9864 83.477 76.116C84.5408 74.6281 86.4091 74.3092 88.0094 75.4533C89.6097 76.5974 89.9325 78.4403 88.8487 79.9563C88.2064 80.8547 87.222 81.2822 86.6403 81.3047L86.9382 82.0551C87.6443 81.9377 88.6595 81.5463 89.4891 80.3859C90.8071 78.5423 90.4898 76.1377 88.5059 74.7193C86.5125 73.2943 84.2176 73.6758 82.846 75.5942C81.9897 76.7921 81.9371 77.9141 82.1066 78.6858Z" fill="#0045FF"/>
<path d="M78.9492 80.1114L78.335 80.7174L83.3926 85.8439L81.7547 87.4597L82.2718 87.9839L86.1699 84.1382L85.6529 83.6141L84.0068 85.238L78.9492 80.1114Z" fill="#0045FF"/>
<path d="M71.3464 95.0439L69.0736 90.9373C68.7672 90.3838 68.4475 89.7586 68.5301 89.1476C68.6137 88.5622 68.9621 88.0276 69.6163 87.6655C70.2504 87.3145 70.9399 87.3011 71.4334 87.5276C72.0106 87.7867 72.3705 88.3895 72.6769 88.9431L74.9497 93.0497L75.7046 92.6319L73.4207 88.5052C72.9639 87.6798 72.5181 86.9931 71.7275 86.6812C70.9682 86.3782 70.1233 86.4908 69.2375 86.9811C68.3618 87.4657 67.8188 88.1475 67.6723 88.9518C67.5212 89.7717 67.8508 90.5097 68.3076 91.335L70.5915 95.4617L71.3464 95.0439Z" fill="#0045FF"/>
<path d="M65.0371 91.0238L65.4112 90.3012C64.8337 89.8535 63.7577 89.3687 62.6141 89.7574C61.1545 90.2535 60.4012 91.433 60.8528 92.7618C61.2193 93.8401 62.1267 94.1149 63.1749 94.196L64.3468 94.2837C64.9182 94.3204 65.5628 94.4294 65.8293 95.2136C66.081 95.9543 65.5937 96.5937 64.7877 96.8677C63.9925 97.1379 63.3471 96.8834 62.8908 96.6133L62.5967 97.3208C62.7829 97.4397 63.7321 98.0162 64.9847 97.5905C66.1393 97.1981 67.068 96.1413 66.6386 94.8778C66.3276 93.9629 65.714 93.5518 64.7532 93.4774L63.4793 93.3757C62.6786 93.3077 61.9173 93.1412 61.6507 92.3569C61.362 91.5074 61.8526 90.806 62.7567 90.4987C63.5627 90.2248 64.54 90.6338 65.0371 91.0238Z" fill="#0045FF"/>
<path d="M50.2781 96.153C50.3327 97.0486 51.1489 97.7711 52.0445 97.7165C52.9401 97.662 53.6626 96.8458 53.6081 95.9501C53.5535 95.0545 52.7366 94.3205 51.841 94.3751C50.9453 94.4297 50.2235 95.2573 50.2781 96.153Z" fill="black"/>
</g>
</g>
<defs>
<filter id="filter0_bd_527_7224" x="-2" y="-2" width="106" height="128" filterUnits="userSpaceOnUse" color-interpolation-filters="sRGB">
<feFlood flood-opacity="0" result="BackgroundImageFix"/>
<feGaussianBlur in="BackgroundImageFix" stdDeviation="12"/>
<feComposite in2="SourceAlpha" operator="in" result="effect1_backgroundBlur_527_7224"/>
<feColorMatrix in="SourceAlpha" type="matrix" values="0 0 0 0 0 0 0 0 0 0 0 0 0 0 0 0 0 0 127 0" result="hardAlpha"/>
<feMorphology radius="10" operator="erode" in="SourceAlpha" result="effect2_dropShadow_527_7224"/>
<feOffset dx="2" dy="24"/>
<feGaussianBlur stdDeviation="17"/>
<feComposite in2="hardAlpha" operator="out"/>
<feColorMatrix type="matrix" values="0 0 0 0 0 0 0 0 0 0 0 0 0 0 0 0 0 0 0.04 0"/>
<feBlend mode="normal" in2="effect1_backgroundBlur_527_7224" result="effect2_dropShadow_527_7224"/>
<feBlend mode="normal" in="SourceGraphic" in2="effect2_dropShadow_527_7224" result="shape"/>
</filter>
<clipPath id="clip0_527_7224">
<rect width="100" height="100" fill="white"/>
</clipPath>
<clipPath id="clip1_527_7224">
<rect width="100" height="100" fill="white"/>
</clipPath>
</defs>
</svg>
