<svg width="997" height="549" viewBox="0 0 997 549" fill="none" xmlns="http://www.w3.org/2000/svg">
<path d="M58.5 80C58.5 71.4396 65.4396 64.5 74 64.5H923C931.56 64.5 938.5 71.4396 938.5 80V115.5H58.5V80Z" fill="white"/>
<circle cx="96" cy="90" r="8" fill="#717783"/>
<circle cx="124" cy="90" r="8" fill="#717783"/>
<circle cx="152" cy="90" r="8" fill="#717783"/>
<path d="M58.5 80C58.5 71.4396 65.4396 64.5 74 64.5H923C931.56 64.5 938.5 71.4396 938.5 80V115.5H58.5V80Z" stroke="#717783"/>
<rect x="58.5" y="114.5" width="880" height="359" fill="white" stroke="#717783"/>
<rect x="356.5" y="219.5" width="73" height="73" rx="5.5" stroke="#717783"/>
<rect x="462.5" y="219.5" width="73" height="73" rx="5.5" stroke="#717783"/>
<rect x="568.5" y="219.5" width="73" height="73" rx="5.5" stroke="#717783"/>
<rect x="674.5" y="219.5" width="73" height="73" rx="5.5" stroke="#717783"/>
<rect x="780.5" y="219.5" width="73" height="73" rx="5.5" stroke="#717783"/>
<rect x="144.5" y="333.5" width="73" height="73" rx="5.5" stroke="#717783"/>
<rect x="250" y="333" width="74" height="74" rx="6" fill="#06C569"/>
<rect x="356" y="333" width="74" height="74" rx="6" fill="#06C569"/>
<rect x="462" y="333" width="74" height="74" rx="6" fill="#06C569"/>
<rect x="568" y="333" width="74" height="74" rx="6" fill="#06C569"/>
<rect x="674" y="333" width="74" height="74" rx="6" fill="#06C569"/>
<rect x="780.5" y="333.5" width="73" height="73" rx="5.5" stroke="#717783"/>
<g clip-path="url(#clip0_609_9749)">
<rect x="144.5" y="447.5" width="73" height="73" rx="5.5" stroke="#717783"/>
<rect x="250.5" y="447.5" width="73" height="73" rx="5.5" stroke="#717783"/>
<rect x="356.5" y="447.5" width="73" height="73" rx="5.5" stroke="#717783"/>
<rect x="462.5" y="447.5" width="73" height="73" rx="5.5" stroke="#717783"/>
<rect x="568.5" y="447.5" width="73" height="73" rx="5.5" stroke="#717783"/>
</g>
<path d="M831.5 158L824 165.5L831.5 173" stroke="#717783"/>
<rect x="-0.5" y="0.5" width="38.5" height="38" rx="19" transform="matrix(-1 0 0 1 846.5 146)" stroke="#717783"/>
<path d="M883.5 173L891 165.5L883.5 158" stroke="#717783"/>
<rect x="0.5" y="-0.5" width="38.5" height="38" rx="19" transform="matrix(1 0 0 -1 867.5 184)" stroke="#717783"/>
<line x1="352.263" y1="305.5" x2="260.822" y2="305.5" stroke="#000F2E" stroke-width="3" stroke-linecap="round"/>
<line x1="372.5" y1="305.5" x2="363.695" y2="305.5" stroke="#000F2E" stroke-width="3" stroke-linecap="round"/>
<line x1="325.28" y1="335.5" x2="176.5" y2="335.5" stroke="#000F2E" stroke-width="3" stroke-linecap="round"/>
<line x1="365.754" y1="363.5" x2="291.178" y2="363.5" stroke="#000F2E" stroke-width="3" stroke-linecap="round"/>
<line x1="267.5" y1="363.5" x2="255.5" y2="363.5" stroke="#000F2E" stroke-width="3" stroke-linecap="round"/>
<rect x="1" y="472" width="996" height="2" fill="#717783"/>
<path d="M828.631 524.547L828.61 437.614C828.609 432.216 822.755 428.85 818.09 431.566L743.146 475.176C737.439 478.496 739.081 487.146 745.607 488.145L785.921 494.316C787.649 494.581 789.215 495.482 790.312 496.843L816.181 528.941C820.325 534.084 828.633 531.152 828.631 524.547Z" fill="black" stroke="black" stroke-width="2"/>
<line x1="742.5" y1="453.5" x2="689.5" y2="453.5" stroke="#CCCFD5" stroke-width="3" stroke-linecap="round"/>
<line x1="754.5" y1="453.5" x2="750.5" y2="453.5" stroke="#CCCFD5" stroke-width="3" stroke-linecap="round"/>
<line x1="726.5" y1="483.5" x2="639.5" y2="483.5" stroke="#CCCFD5" stroke-width="3" stroke-linecap="round"/>
<line x1="750.5" y1="511.5" x2="707.5" y2="511.5" stroke="#CCCFD5" stroke-width="3" stroke-linecap="round"/>
<line x1="692.5" y1="511.5" x2="685.5" y2="511.5" stroke="#CCCFD5" stroke-width="3" stroke-linecap="round"/>
<path d="M317.79 64.5C316.565 35.0902 322.753 14.3449 337.247 6.10132C381.294 -18.9497 485.36 80.9359 569.685 229.202C654.011 377.468 686.664 517.97 642.618 543.021C616.767 557.723 570.242 529.391 519.168 473.5" stroke="#CCCFD5" stroke-width="2" stroke-dasharray="1 15"/>
<path d="M58.5448 164.326L69.2209 149.124L73.6049 167.175L73.7602 167.815L74.3348 167.494L90.5496 158.429L86.6671 176.596L86.5295 177.239L87.1865 177.199L105.729 176.067L94.3485 190.75L93.9452 191.27L94.5546 191.519L111.751 198.545L95.1277 206.836L94.5387 207.13L94.9796 207.618L107.425 221.41L88.8504 221.667L88.1922 221.676L88.3775 222.307L93.6067 240.133L76.7598 232.305L76.1629 232.028L76.0558 232.677L73.0331 251.006L61.2508 236.644L60.8333 236.135L60.455 236.674L49.779 251.876L45.3949 233.825L45.2396 233.185L44.6651 233.506L28.4503 242.571L32.3328 224.405L32.4703 223.761L31.8134 223.801L13.2713 224.933L24.6514 210.25L25.0546 209.73L24.4453 209.481L7.24848 202.455L23.8722 194.164L24.4612 193.87L24.0202 193.382L11.5747 179.59L30.1495 179.333L30.8076 179.324L30.6223 178.693L25.3931 160.867L42.24 168.695L42.8369 168.972L42.944 168.323L45.9668 149.994L57.7491 164.356L58.1665 164.865L58.5448 164.326Z" fill="#E48038" stroke="black"/>
<path d="M48.0254 186.493C47.6863 185.227 46.6256 184.901 45.4665 185.211L43.6603 185.695L45.4461 192.36L46.1705 192.166L45.3734 189.191L46.1654 188.979L48.8075 191.459L49.7058 191.219L46.913 188.716C47.7789 188.277 48.292 187.488 48.0254 186.493ZM45.3521 185.904C46.1924 185.679 47.0202 185.716 47.2842 186.702C47.5637 187.745 46.77 188.144 45.9103 188.374L45.2052 188.563L44.5503 186.119L45.3521 185.904ZM53.9543 189.387L53.5314 189.045C53.5314 189.045 53.0465 189.785 52.1579 190.023C51.192 190.282 50.3688 189.799 50.1081 188.864L53.682 187.907C53.682 187.907 53.6541 187.686 53.6101 187.522C53.2762 186.276 52.1758 185.608 50.9298 185.942C49.5775 186.304 48.9806 187.593 49.3248 188.878C49.7156 190.336 50.8598 191.013 52.1928 190.656C53.0814 190.418 53.671 189.991 53.9543 189.387ZM52.8416 187.552L49.9728 188.321C49.8418 187.6 50.1507 186.782 51.0612 186.549C52.0587 186.292 52.6708 186.915 52.8416 187.552ZM57.9849 189L58.69 188.811L57.9783 186.155C57.6366 184.88 56.883 184.347 55.5596 184.702C54.8448 184.893 54.3184 185.324 54.0656 185.578L54.4443 186.025C54.5465 185.905 55.015 185.489 55.6911 185.308C56.3769 185.124 56.9795 185.325 57.1839 186.088L57.2383 186.291L56.0271 186.678C54.8062 187.067 54.3813 187.761 54.5883 188.534C54.8109 189.364 55.6539 189.728 56.5136 189.498C57.3732 189.268 57.6926 188.644 57.8148 188.404L57.9849 189ZM57.3877 186.81L57.675 187.882C57.5401 188.229 57.124 188.724 56.5058 188.889C55.9262 189.045 55.4511 188.779 55.3295 188.325C55.2053 187.861 55.3948 187.448 56.2248 187.184L57.3877 186.81ZM63.506 187.521L64.2014 187.335L62.4156 180.67L61.7008 180.861L62.4798 183.769L62.4605 183.774C61.9872 183.321 61.2932 183.165 60.5978 183.352C59.2648 183.709 58.6672 184.956 59.027 186.299C59.3919 187.661 60.4409 188.446 61.8222 188.076C62.5852 187.871 63.1032 187.37 63.2867 186.741L63.2963 186.739L63.506 187.521ZM61.8014 187.419C60.8065 187.685 60.0147 187.048 59.7533 186.073C59.4893 185.088 59.8722 184.198 60.8671 183.932C61.8716 183.662 62.6312 184.256 62.8952 185.241C63.1566 186.217 62.806 187.149 61.8014 187.419ZM66.8088 186.636L66.7156 187.292C66.6204 187.981 66.4588 188.034 66.227 188.096C66.0241 188.151 65.7445 188.112 65.7445 188.112L65.7627 188.759C65.7627 188.759 66.1035 188.833 66.5092 188.725C66.9922 188.595 67.2418 188.29 67.3669 187.366L68.145 181.423L67.3987 181.612L66.9611 185.736L64.4938 182.401L63.7475 182.59L66.8088 186.636Z" fill="#F2F3F5"/>
<path d="M52.9751 202.849L52.5361 203.575C53.1064 204.081 54.1932 204.659 55.4102 204.333C56.9634 203.917 57.8285 202.741 57.4496 201.327C57.1422 200.179 56.2165 199.831 55.131 199.675L53.9172 199.503C53.325 199.426 52.6616 199.268 52.438 198.433C52.2268 197.645 52.7779 197.013 53.6357 196.783C54.4818 196.556 55.1361 196.866 55.5926 197.178L55.9473 196.462C55.7616 196.325 54.8131 195.66 53.4802 196.017C52.2515 196.347 51.2123 197.383 51.5726 198.727C51.8335 199.701 52.4439 200.171 53.4389 200.314L54.7579 200.508C55.5867 200.633 56.3677 200.859 56.5913 201.694C56.8335 202.598 56.2747 203.294 55.3127 203.552C54.4549 203.782 53.4657 203.289 52.9751 202.849ZM63.746 201.118L63.2384 200.708C63.2384 200.708 62.6567 201.596 61.5903 201.882C60.4312 202.193 59.4434 201.613 59.1305 200.491L63.4192 199.342C63.4192 199.342 63.3857 199.078 63.3329 198.881C62.9322 197.386 61.6118 196.584 60.1165 196.985C58.4937 197.42 57.7775 198.966 58.1906 200.507C58.6595 202.257 60.0326 203.07 61.6321 202.641C62.6985 202.355 63.406 201.843 63.746 201.118ZM62.4107 198.917L58.9682 199.839C58.811 198.974 59.1816 197.993 60.2743 197.713C61.4713 197.404 62.2057 198.152 62.4107 198.917ZM67.7353 200.819L67.5026 200.136C67.5026 200.136 67.2701 200.335 66.934 200.425C66.679 200.494 66.4517 200.48 66.3217 200.366C66.0795 200.157 65.977 199.775 65.859 199.335L65.1105 196.541L66.4551 196.181L66.2625 195.462L64.9295 195.819L64.4792 194.139L63.6099 194.372L64.0602 196.052L63.2488 196.27L63.4414 196.988L64.2528 196.771L64.9547 199.39C65.2187 200.376 65.5448 201.593 66.843 201.245C67.2139 201.146 67.5113 201.004 67.7353 200.819Z" fill="#F2F3F5"/>
<path d="M62.5037 217.297L61.4674 213.429L57.37 214.527L57.8157 216.191L59.7765 215.665L60.1461 217.045C60.1461 217.045 59.8728 217.756 58.3582 218.161C56.8436 218.567 55.3601 217.791 54.8528 215.897C54.3455 214.004 55.215 212.597 56.7161 212.195C57.9872 211.854 58.8878 212.294 59.3959 212.622L60.5059 210.977C60.1214 210.732 58.7052 209.72 56.2305 210.383C53.6206 211.082 51.8017 213.381 52.6351 216.492C53.4685 219.602 56.1969 220.697 58.7798 220.005C61.3491 219.317 62.1428 217.843 62.5037 217.297ZM70.4034 213.18C69.8272 211.03 67.8899 210.129 65.7804 210.694C63.6708 211.259 62.4302 213.012 63.0063 215.162C63.5824 217.312 65.5296 218.196 67.6392 217.631C69.7488 217.066 70.9795 215.33 70.4034 213.18ZM68.2153 213.723C68.4798 214.71 68.1111 215.606 67.1645 215.86C66.2044 216.117 65.4507 215.522 65.1862 214.535C64.9216 213.547 65.2768 212.655 66.2369 212.398C67.1835 212.144 67.9508 212.736 68.2153 213.723ZM72.4651 206.178L70.1933 206.787L72.1146 213.2L73.9943 212.696L72.4651 206.178ZM74.8288 214.458C74.6331 213.728 73.9898 213.437 73.246 213.636C72.4887 213.839 72.0773 214.413 72.273 215.143C72.4686 215.873 73.112 216.165 73.8693 215.962C74.613 215.763 75.0245 215.189 74.8288 214.458Z" fill="#000F2E"/>
<path d="M417.793 300.013L418.226 300.263L418.476 299.83L427.379 284.408C429.367 280.965 432.127 277.981 435.805 276.806C448.123 272.873 461.942 277.886 468.671 289.542L502.61 348.324L478.702 362.128L446.976 307.178L446.543 306.428L446.11 307.178L442.413 313.582C434.735 326.881 417.831 331.531 404.454 324.116L404.582 323.894L404.055 323.676C402.92 323.207 401.803 322.658 400.711 322.028L370.007 304.301L383.81 280.393L417.793 300.013Z" fill="white" stroke="#717783"/>
<path d="M341.257 339.841L379.283 273.979L377.752 273.095C373.925 270.886 369.033 272.197 366.824 276.023L336.798 328.029C334.589 331.855 335.9 336.748 339.726 338.957L341.257 339.841Z" fill="#000F2E"/>
<path d="M341.944 339.652C349.885 343.967 359.8 342.134 365.668 335.2L378.782 319.704C380.913 317.186 381.734 313.813 380.999 310.598L380.27 307.409C378.653 300.339 380.34 292.917 384.853 287.239L385.665 286.217C387.954 283.338 387.148 279.097 383.963 277.258L379.466 274.662L341.944 339.652Z" fill="white" stroke="#000F2E"/>
<path d="M545.278 331.921L479.416 369.946L480.3 371.478C482.509 375.304 487.402 376.615 491.228 374.406L543.234 344.38C547.06 342.171 548.371 337.278 546.162 333.452L545.278 331.921Z" fill="#000F2E"/>
<path d="M544.59 331.741C539.87 324.033 530.367 320.664 521.818 323.735L502.713 330.597C499.609 331.712 497.211 334.224 496.24 337.376L495.277 340.501C493.142 347.433 487.97 353.017 481.223 355.677L480.009 356.156C476.587 357.505 475.164 361.581 477.003 364.767L479.599 369.263L544.59 331.741Z" fill="white" stroke="#000F2E"/>
<path d="M614.182 183.91L764.922 224.301L751.078 275.967L623.037 241.659C610.501 238.3 603.061 225.414 606.42 212.877L614.182 183.91Z" fill="white" stroke="#000F2E"/>
<path d="M606.207 213.674L616.23 176.268C619.589 163.732 632.475 156.292 645.011 159.651L709.273 176.87L702.009 203.98C698.65 216.516 685.765 223.956 673.228 220.597L673.118 220.567L673.007 220.538L672.896 220.508L672.785 220.478L672.673 220.448L672.562 220.419L672.451 220.389L672.339 220.359L672.227 220.329L672.115 220.299L672.003 220.269L671.891 220.239L671.779 220.209L671.667 220.179L671.554 220.149L671.442 220.118L671.329 220.088L671.216 220.058L671.103 220.028L670.99 219.997L670.877 219.967L670.764 219.937L670.651 219.906L670.537 219.876L670.424 219.846L670.31 219.815L670.196 219.785L670.082 219.754L669.968 219.724L669.854 219.693L669.74 219.662L669.626 219.632L669.511 219.601L669.397 219.57L669.282 219.54L669.168 219.509L669.053 219.478L668.938 219.447L668.823 219.417L668.708 219.386L668.593 219.355L668.478 219.324L668.362 219.293L668.247 219.262L668.132 219.231L668.016 219.2L667.9 219.169L667.785 219.138L667.669 219.107L667.553 219.076L667.437 219.045L667.321 219.014L667.205 218.983L667.089 218.952L666.972 218.921L666.856 218.89L666.74 218.858L666.623 218.827L666.507 218.796L666.39 218.765L666.273 218.733L666.156 218.702L666.04 218.671L665.923 218.64L665.806 218.608L665.689 218.577L665.572 218.545L665.454 218.514L665.337 218.483L665.22 218.451L665.103 218.42L664.985 218.388L664.868 218.357L664.75 218.325L664.633 218.294L664.515 218.262L664.397 218.231L664.28 218.199L664.162 218.168L664.044 218.136L663.926 218.105L663.808 218.073L663.69 218.041L663.572 218.01L663.454 217.978L663.336 217.946L663.218 217.915L663.1 217.883L662.982 217.851L662.864 217.82L662.745 217.788L662.627 217.756L662.509 217.725L662.39 217.693L662.272 217.661L662.153 217.63L662.035 217.598L661.916 217.566L661.798 217.534L661.679 217.502L661.561 217.471L661.442 217.439L661.323 217.407L661.205 217.375L661.086 217.344L660.967 217.312L660.848 217.28L660.73 217.248L660.611 217.216L660.492 217.184L660.373 217.153L660.254 217.121L660.136 217.089L660.017 217.057L659.898 217.025L659.779 216.993L659.66 216.961L659.541 216.93L659.422 216.898L659.303 216.866L659.184 216.834L659.066 216.802L658.947 216.77L658.828 216.738L658.709 216.707L658.59 216.675L658.471 216.643L658.352 216.611L658.233 216.579L658.114 216.547L657.995 216.515L657.876 216.483L657.757 216.452L657.638 216.42L657.52 216.388L657.401 216.356L657.282 216.324L657.163 216.292L657.044 216.26L656.925 216.229L656.806 216.197L656.688 216.165L656.569 216.133L656.45 216.101L656.331 216.069L656.213 216.038L656.094 216.006L655.975 215.974L655.856 215.942L655.738 215.91L655.619 215.879L655.501 215.847L655.382 215.815L655.263 215.783L655.145 215.752L655.026 215.72L654.908 215.688L654.79 215.656L654.671 215.625L654.553 215.593L654.435 215.561L654.316 215.53L654.198 215.498L654.08 215.466L653.962 215.435L653.844 215.403L653.726 215.371L653.608 215.34L653.49 215.308L653.372 215.276L653.254 215.245L653.136 215.213L653.018 215.182L652.9 215.15L652.783 215.119L652.665 215.087L652.547 215.056L652.43 215.024L652.312 214.993L652.195 214.961L652.078 214.93L651.96 214.898L651.843 214.867L651.726 214.835L651.609 214.804L651.492 214.773L651.375 214.741L651.258 214.71L651.141 214.679L651.024 214.647L650.907 214.616L650.79 214.585L650.674 214.554L650.557 214.522L650.441 214.491L650.324 214.46L650.208 214.429L650.092 214.398L649.976 214.367L649.86 214.335L649.744 214.304L649.628 214.273L649.512 214.242L649.396 214.211L649.28 214.18L649.165 214.149L649.049 214.118L648.934 214.087L648.818 214.056L648.703 214.026L648.588 213.995L648.473 213.964L648.358 213.933L648.243 213.902L648.128 213.871L648.013 213.841L647.899 213.81L647.784 213.779L647.67 213.749L647.555 213.718L647.441 213.687L647.327 213.657L647.213 213.626L647.099 213.596L646.985 213.565L646.871 213.535L646.758 213.504L646.644 213.474L646.531 213.443L646.417 213.413L646.304 213.383L646.191 213.352L646.078 213.322L645.965 213.292L645.853 213.262L645.74 213.232L645.627 213.201L645.515 213.171L645.403 213.141L645.29 213.111L645.178 213.081L645.066 213.051L644.955 213.021L644.843 212.991L644.731 212.961L644.62 212.931L644.509 212.902L644.397 212.872L644.286 212.842L644.175 212.812L644.065 212.783L643.954 212.753L643.843 212.723L643.733 212.694L643.623 212.664L643.513 212.635L643.403 212.605L643.293 212.576L643.183 212.546L643.073 212.517L642.964 212.488L642.855 212.458L642.745 212.429L642.636 212.4L642.528 212.371L642.419 212.342L642.31 212.313L642.202 212.284L642.094 212.255L641.985 212.226L641.877 212.197L641.77 212.168L641.662 212.139L641.554 212.11L641.447 212.081L641.34 212.053L641.233 212.024L641.126 211.995L641.019 211.967L640.913 211.938L640.806 211.91L640.7 211.881L640.594 211.853L640.488 211.824L640.382 211.796L640.276 211.768L640.171 211.739L640.066 211.711L639.961 211.683L639.856 211.655L639.751 211.627L639.646 211.599L639.542 211.571L639.438 211.543L639.334 211.515L639.23 211.487L639.126 211.459L639.023 211.432L638.919 211.404L638.816 211.376L638.713 211.349L638.61 211.321L638.508 211.294L638.405 211.266L638.303 211.239L638.201 211.212L638.099 211.184L637.998 211.157L637.896 211.13L637.795 211.103L637.694 211.076L637.593 211.049L637.492 211.022L637.392 210.995L637.291 210.968L637.191 210.941L637.091 210.914L636.992 210.887L636.892 210.861L636.793 210.834L636.694 210.808L636.595 210.781L636.496 210.755L636.397 210.728L636.299 210.702L636.201 210.676L636.103 210.649L636.006 210.623L635.908 210.597L635.811 210.571L635.714 210.545L635.617 210.519L635.521 210.493L635.424 210.467L635.328 210.442L635.232 210.416L635.136 210.39L635.041 210.365L634.946 210.339L634.851 210.314L634.756 210.288L634.661 210.263L634.567 210.238L634.473 210.212L634.379 210.187L634.285 210.162L634.192 210.137L634.098 210.112L634.005 210.087L633.913 210.062L633.82 210.038L633.728 210.013L633.636 209.988L633.544 209.964L633.452 209.939L633.361 209.915L633.27 209.89L633.179 209.866L633.088 209.842L632.998 209.817L632.908 209.793L632.818 209.769L632.728 209.745L632.639 209.721L632.55 209.697L632.461 209.673L632.372 209.65L632.284 209.626L632.196 209.602L632.108 209.579L632.02 209.555L631.933 209.532L631.846 209.509L631.759 209.485L631.673 209.462L631.586 209.439L631.5 209.416L631.414 209.393L631.329 209.37L631.244 209.347L631.159 209.324L631.074 209.302L630.989 209.279L630.905 209.257L630.821 209.234L630.738 209.212L630.654 209.189L630.571 209.167L630.488 209.145L630.406 209.123L630.323 209.101L630.241 209.079L630.16 209.057L630.078 209.035L629.997 209.013L629.916 208.992L629.836 208.97L629.755 208.948L629.675 208.927L629.595 208.906L629.516 208.884L629.437 208.863L629.358 208.842L629.279 208.821L629.201 208.8L629.123 208.779L629.045 208.758L628.968 208.738L628.891 208.717L628.814 208.696L628.737 208.676L628.661 208.655L628.585 208.635L628.51 208.615L628.434 208.595L628.359 208.574L628.285 208.554L628.21 208.534L628.136 208.515L628.062 208.495L627.989 208.475L627.915 208.456L627.843 208.436L627.77 208.417L627.698 208.397L627.626 208.378L627.554 208.359L627.483 208.34L627.412 208.321L627.341 208.302L627.271 208.283L627.201 208.264L627.131 208.245L627.062 208.227L626.993 208.208L626.924 208.19L626.855 208.171L626.787 208.153L626.719 208.135L626.652 208.117L626.585 208.099L626.518 208.081L626.452 208.063L626.385 208.046L626.32 208.028L626.254 208.01L626.189 207.993L626.124 207.976L626.06 207.958L625.996 207.941L625.932 207.924L625.869 207.907L625.805 207.89L625.743 207.873L625.68 207.857L625.618 207.84L625.556 207.823L625.495 207.807L625.434 207.791L625.373 207.774L625.313 207.758L625.253 207.742L625.193 207.726L625.134 207.71L625.075 207.694L625.017 207.679L624.958 207.663L624.901 207.648L624.843 207.632L624.786 207.617L624.729 207.602L624.673 207.587L624.617 207.572L624.561 207.557L624.506 207.542L624.451 207.527L624.396 207.513L624.342 207.498L624.288 207.484L624.235 207.469L624.182 207.455L624.129 207.441L624.076 207.427L624.024 207.413L623.973 207.399L623.922 207.385L623.871 207.372L623.82 207.358L623.77 207.345L623.72 207.331L623.671 207.318L623.622 207.305L623.573 207.292L623.525 207.279L623.477 207.266L623.43 207.254L623.383 207.241L623.336 207.229L623.29 207.216L623.244 207.204L623.199 207.192L623.154 207.18L623.109 207.168L623.065 207.156L623.021 207.144L622.977 207.132L622.934 207.121L622.891 207.109L622.849 207.098L622.807 207.087L622.766 207.076L622.725 207.065C616.627 205.431 612.026 207.824 608.984 210.589C607.844 211.625 606.918 212.716 606.207 213.674Z" fill="#06C569" stroke="#717783"/>
<path d="M655.101 163.442L638.103 134L692.631 148.611C705.434 152.041 713.032 165.201 709.602 178.004L701.71 207.455C701.71 207.455 701.202 200.682 695.01 199.023L625.659 180.44L655.101 163.442Z" fill="white" stroke="#000F2E"/>
<path d="M774.883 196.486C778.901 196.924 782.748 194.381 783.826 190.356C785.017 185.91 782.379 181.341 777.933 180.149C773.488 178.958 768.918 181.597 767.727 186.042C766.591 190.28 768.935 194.63 773.007 196.059L727.705 365.126L729.563 365.624L774.883 196.486Z" fill="#000F2E"/>
<defs>
<clipPath id="clip0_609_9749">
<rect width="710" height="25" fill="white" transform="translate(144 447)"/>
</clipPath>
</defs>
</svg>
