<svg width="25" height="24" viewBox="0 0 25 24" fill="none" xmlns="http://www.w3.org/2000/svg">
<path d="M15.5065 11.25H13.6635V9.75002C13.6635 8.97602 13.728 8.48852 14.8623 8.48852H15.528C15.9513 8.48852 16.2949 8.15252 16.2949 7.73852V6.79803C16.2949 6.40578 15.9874 6.07053 15.587 6.04428C15.1238 6.01353 14.6598 5.99928 14.195 6.00003C12.1143 6.00003 10.5958 7.24278 10.5958 9.52427V11.25H9.06187C8.63851 11.25 8.29492 11.586 8.29492 12V13.5C8.29492 13.914 8.63851 14.25 9.06187 14.25L10.5958 14.2493V20.25C10.5958 20.664 10.9393 21 11.3627 21H12.8966C13.3199 21 13.6635 20.664 13.6635 20.25V14.2478L15.3309 14.247C15.7205 14.247 16.048 13.9613 16.0924 13.5825L16.2681 12.0855C16.321 11.6408 15.9651 11.25 15.5065 11.25Z" fill="#F2F3F5"/>
<path d="M3.29492 11C3.29492 7.22876 3.29492 5.34315 4.46649 4.17157C5.63807 3 7.52369 3 11.2949 3H13.2949C17.0662 3 18.9518 3 20.1233 4.17157C21.2949 5.34315 21.2949 7.22876 21.2949 11V13C21.2949 16.7712 21.2949 18.6569 20.1233 19.8284C18.9518 21 17.0662 21 13.2949 21H11.2949C7.52369 21 5.63807 21 4.46649 19.8284C3.29492 18.6569 3.29492 16.7712 3.29492 13V11Z" stroke="#F2F3F5" stroke-width="2"/>
</svg>
