<svg width="24" height="24" viewBox="0 0 24 24" fill="none" xmlns="http://www.w3.org/2000/svg">
<path d="M15.2116 11.25H13.3686V9.75002C13.3686 8.97602 13.433 8.48852 14.5673 8.48852H15.2331C15.6564 8.48852 16 8.15252 16 7.73852V6.79803C16 6.40578 15.6925 6.07053 15.2921 6.04428C14.8289 6.01353 14.3649 5.99928 13.9001 6.00003C11.8194 6.00003 10.3008 7.24278 10.3008 9.52427V11.25H8.76694C8.34359 11.25 8 11.586 8 12V13.5C8 13.914 8.34359 14.25 8.76694 14.25L10.3008 14.2493V20.25C10.3008 20.664 10.6444 21 11.0678 21H12.6017C13.025 21 13.3686 20.664 13.3686 20.25V14.2478L15.036 14.247C15.4256 14.247 15.753 13.9613 15.7975 13.5825L15.9732 12.0855C16.0261 11.6408 15.6702 11.25 15.2116 11.25Z" fill="#000F2E"/>
<path d="M3 11C3 7.22876 3 5.34315 4.17157 4.17157C5.34315 3 7.22876 3 11 3H13C16.7712 3 18.6569 3 19.8284 4.17157C21 5.34315 21 7.22876 21 11V13C21 16.7712 21 18.6569 19.8284 19.8284C18.6569 21 16.7712 21 13 21H11C7.22876 21 5.34315 21 4.17157 19.8284C3 18.6569 3 16.7712 3 13V11Z" stroke="#000F2E" stroke-width="2"/>
</svg>
