<svg width="47" height="61" viewBox="0 0 47 61" fill="none" xmlns="http://www.w3.org/2000/svg">
<path d="M0.146039 39.761C-7.46654 22.0648 -17.1961 12.4822 -27.0227 13.0022C-29.4035 13.1284 -30.8905 13.5686 -32.9589 14.7608C-35.2247 16.0666 -37.3663 18.3482 -38.671 20.8457C-42.1744 27.5531 -40.4489 35.3896 -34.4066 40.2123C-27.8966 45.4084 -16.044 47.2982 -1.3149 45.4881C1.54735 45.1366 1.66874 45.1509 0.503037 45.7036C-0.184162 46.0294 -1.99483 46.6622 -3.52071 47.1097L-6.29494 47.9237L-2.46187 47.1855C2.76518 46.1789 2.88417 46.2079 -0.560553 47.6465C-20.3007 55.8913 -30.4104 67.6284 -27.4118 78.8195C-26.3188 82.8986 -23.5466 86.2985 -19.5994 88.4009C-12.7055 92.0728 -4.99851 89.8292 -0.541119 82.8535C3.63525 76.3176 5.07563 65.0154 3.40386 51.9023C3.20132 50.3134 3.01687 48.4649 2.99388 47.7945C2.957 46.7201 3.02672 46.8266 3.58167 48.6914C3.92766 49.8552 4.50745 51.4396 4.86944 52.2125C5.43606 53.4219 5.42105 53.1964 4.76141 50.5927C4.33991 48.929 4.09467 47.462 4.21691 47.3322C4.33891 47.2029 5.02757 48.5511 5.74703 50.3283C7.53248 54.7385 10.1607 59.7909 12.7402 63.7722C20.1359 75.1857 29.1844 80.1322 37.2306 77.1604C41.764 75.486 45.5754 70.6713 46.5414 65.3991C46.9759 63.0266 46.946 62.6853 45.9905 59.1191C45.012 55.4673 44.9217 55.2799 43.1428 53.2042C38.852 48.1979 31.4168 45.3452 21.4 44.8621C17.4512 44.6718 10.3786 45.0447 6.29963 45.6586C3.47373 46.084 3.83936 45.864 8.74022 44.1906C12.7332 42.8272 12.7399 42.8233 9.94475 43.4964C8.39867 43.8685 6.44081 44.2475 5.59396 44.3388C4.17977 44.491 4.37609 44.3671 7.99697 42.8173C12.9359 40.7038 19.1127 37.2457 22.5801 34.6538C28.8602 29.9586 32.7125 24.6621 33.8112 19.2123L34.4492 16.0465L33.4321 12.2504C32.4691 8.65669 32.3271 8.35136 30.7626 6.51169C26.3693 1.34627 18.9817 -0.577292 13.5302 2.02499C4.18387 6.48667 0.250296 20.8329 3.0346 40.3026C3.3071 42.209 3.36728 43.6122 3.16882 43.4298C2.97053 43.2482 2.43161 41.7769 1.97138 40.1604C1.24286 37.6019 1.15156 37.4215 1.26689 38.7676C1.33984 39.6179 1.64203 41.2634 1.93874 42.4246C2.23535 43.5854 2.39492 44.4871 2.29292 44.4283C2.19101 44.3698 1.22474 42.2693 0.146039 39.761Z" fill="#79D6B0"/>
</svg>
