<svg width="132" height="59" viewBox="0 0 132 59" fill="none" xmlns="http://www.w3.org/2000/svg">
<path fill-rule="evenodd" clip-rule="evenodd" d="M3.54367 52.767C3.7248 43.7529 7.25434 34.7951 14.1326 27.9169C26.814 15.2355 46.5677 13.9367 60.6977 24.0205C58.5712 29.6368 57.8531 35.6643 58.5432 41.5577L58.6094 41.5499C58.9117 45.2842 60.3881 49.5352 62.408 52.807C63.4252 54.4548 64.5946 55.8776 65.8446 56.8625C67.0921 57.8454 68.4645 58.4252 69.8639 58.2862C72.5798 58.0166 74.4605 55.9094 75.4338 53.1943C76.4096 50.4722 76.5229 47.0352 75.6526 43.8442L75.6252 43.8517C73.9935 37.755 70.7856 31.9923 66.0031 27.2098C64.7062 25.9129 63.3375 24.7319 61.9096 23.6668C63.6756 19.2848 66.3344 15.1788 69.8858 11.6273C84.0142 -2.50104 106.921 -2.50105 121.049 11.6273C125.709 16.2874 128.832 21.9013 130.418 27.8401L131.384 27.5821C129.754 21.478 126.544 15.708 121.756 10.9202C107.237 -3.59868 83.6976 -3.59868 69.1787 10.9202C65.5913 14.5076 62.8903 18.6459 61.0757 23.0626C46.5694 12.8558 26.3971 14.2381 13.4255 27.2098C6.33805 34.2972 2.71026 43.5353 2.54243 52.8227L0.126729 52.957L3.28662 57.7891L5.89133 52.6365L3.54367 52.767ZM74.6919 44.1223L74.6644 44.1296C73.0784 38.1908 69.9561 32.577 65.296 27.9169C64.1015 26.7224 62.8443 25.6289 61.535 24.6364C59.5458 30.0152 58.8782 35.7721 59.5322 41.4054L59.6007 41.4001C59.876 44.9776 61.3011 49.1106 63.2589 52.2817C64.2371 53.8662 65.3339 55.187 66.4635 56.077C67.5955 56.9689 68.7159 57.3953 69.7651 57.2911C71.9464 57.0745 73.5893 55.3763 74.4924 52.8569C75.3916 50.3487 75.5086 47.129 74.6919 44.1223Z" fill="#000F2E"/>
</svg>
