<svg width="118" height="85" viewBox="0 0 118 85" fill="none" xmlns="http://www.w3.org/2000/svg">
<path fill-rule="evenodd" clip-rule="evenodd" d="M4.26054 12.0649C10.7626 5.81906 19.5924 1.98069 29.3198 1.98069C47.254 1.98069 62.1403 15.0303 65.0014 32.1521C59.5264 34.6197 54.7565 38.374 51.0773 43.0293L51.1296 43.0706C48.7028 45.9249 46.7408 49.9748 45.8556 53.7166C45.4098 55.601 45.2306 57.4339 45.418 59.0142C45.6051 60.5914 46.1656 61.9717 47.2534 62.8631C49.3645 64.5928 52.1844 64.4327 54.7924 63.2011C57.4072 61.9662 59.9177 59.616 61.5586 56.7443L61.534 56.7302C64.6912 51.2653 66.4977 44.9222 66.4977 38.1586C66.4977 36.3247 66.3649 34.5217 66.1084 32.7588C70.4557 30.9091 75.2392 29.8857 80.2617 29.8857C100.242 29.8857 116.44 46.0831 116.44 66.0637C116.44 72.6541 114.678 78.8315 111.6 84.1523L112.466 84.653C115.629 79.1841 117.44 72.8346 117.44 66.0637C117.44 45.5309 100.795 28.8857 80.2617 28.8857C75.1883 28.8857 70.3523 29.902 65.9461 31.742C62.9058 14.2671 47.6644 0.98069 29.3198 0.98069C19.2966 0.98069 10.1991 4.94775 3.51319 11.3963L1.71005 9.78312L0.527679 15.4343L6.01289 13.6327L4.26054 12.0649ZM60.6827 56.2615L60.6581 56.2473C63.736 50.9265 65.4977 44.7491 65.4977 38.1586C65.4977 36.4694 65.382 34.8072 65.1579 33.1796C59.948 35.5765 55.4052 39.1751 51.8843 43.6209L51.9365 43.6656C49.6015 46.3899 47.6868 50.3201 46.8287 53.9468C46.4 55.7588 46.2417 57.4684 46.4111 58.8964C46.5808 60.3276 47.0716 61.4213 47.8872 62.0896C49.5827 63.4788 51.9453 63.4397 54.3654 62.2968C56.7747 61.159 59.1342 58.9651 60.6827 56.2615Z" fill="#000F2E"/>
</svg>
