<svg width="50" height="79" viewBox="0 0 50 79" fill="none" xmlns="http://www.w3.org/2000/svg">
<path d="M54.4868 21.2566C62.5266 11.1695 67.9849 0.194406 67.3039 -4.51364C67.1251 -5.74903 66.1307 -6.66668 64.7591 -6.86273C64.0587 -6.96251 61.5452 -5.31506 59.7421 -3.57329C57.6642 -1.56659 52.0216 7.63089 49.8634 12.5292C46.9568 19.1257 41.7315 34.5984 42.4775 34.3989C43.2046 34.2049 50.7364 25.9622 54.4868 21.2566Z" fill="#5D51F2"/>
<path d="M35.72 30.7676C29.8646 25.2031 26.5735 22.4357 21.7258 18.9994C13.7088 13.3174 6.44332 10.3255 2.54252 11.1004C0.412829 11.5237 -0.243806 12.4592 0.264067 14.3476C1.94845 20.615 15.8829 28.474 34.9919 33.9347C40.0037 35.3669 40.7167 35.6569 40.798 36.2943C40.8804 36.9409 40.9796 36.9964 41.6933 36.7955C42.4069 36.5947 42.4706 36.4758 42.2681 35.7224C42.0604 34.9498 41.9836 34.9051 41.3971 35.2132C40.8228 35.5151 40.2139 35.0378 35.72 30.7676Z" fill="#5D51F2"/>
<path d="M78.8752 61.0833C84.0042 61.3727 84.2477 57.5724 79.3952 52.9641C77.0688 50.7545 69.6809 46.1433 65.4027 44.2302C59.6412 41.6544 47.6638 37.6598 43.7625 37.0132C42.8518 36.8623 42.8734 36.9414 44.0658 38.1183C44.7721 38.8155 45.7223 39.7887 46.1776 40.2806C47.5426 41.7553 55.086 48.4074 58.0529 50.7524C61.7481 53.6727 71.5621 59.3379 74.5188 60.2572C75.7721 60.6472 77.7326 61.0191 78.8752 61.0833Z" fill="#5D51F2"/>
<path d="M26.9637 70.8317C31.1653 64.7369 35.5307 54.8866 38.9817 43.7108C39.8523 40.8921 40.5705 38.3056 40.578 37.9628C40.5915 37.3296 35.6448 42.3689 31.3543 47.3589C23.5858 56.395 16.9766 67.5514 15.9524 73.3577C15.4266 76.3388 15.6932 77.6812 16.956 78.4103C19.2822 79.7534 22.4848 77.3282 26.9637 70.8317Z" fill="#5D51F2"/>
</svg>
