<svg width="74" height="46" viewBox="0 0 74 46" fill="none" xmlns="http://www.w3.org/2000/svg">
<path d="M37 0L37.8004 38.6346C37.8184 39.5037 38.7527 40.043 39.5143 39.6241L73.3731 21L40.3147 41.0105C39.5711 41.4606 39.5711 42.5394 40.3147 42.9895L73.3731 63L39.5143 44.3759C38.7527 43.957 37.8184 44.4963 37.8004 45.3654L37 84L36.1996 45.3654C36.1816 44.4963 35.2473 43.957 34.4857 44.3759L0.626934 63L33.6853 42.9895C34.4289 42.5394 34.4289 41.4606 33.6853 41.0105L0.626934 21L34.4857 39.6241C35.2473 40.043 36.1816 39.5037 36.1996 38.6346L37 0Z" fill="#E48038"/>
</svg>
