<svg width="996" height="180" viewBox="0 0 996 180" fill="none" xmlns="http://www.w3.org/2000/svg">
<g opacity="0.05">
<path d="M-191.812 -403.515L1171.7 362.601" stroke="black" stroke-linecap="square"/>
<path d="M-191.812 362.601L1171.7 -403.515" stroke="black" stroke-linecap="square"/>
<path d="M490.36 -403.515L1172.12 362.601" stroke="black" stroke-linecap="square"/>
<path d="M490.36 362.601L1172.12 -403.515" stroke="black" stroke-linecap="square"/>
<path d="M-192.228 -403.515L489.528 362.601" stroke="black" stroke-linecap="square"/>
<path d="M-192.228 362.601L489.528 -403.515" stroke="black" stroke-linecap="square"/>
<path d="M17.6536 57.8151V56.1837H15.9491V56.6646H17.0813V57.5959C17.0813 57.5959 16.7709 57.9794 15.9004 57.9794C15.0238 57.9794 14.3359 57.3585 14.3359 56.3237C14.3359 55.2888 14.9995 54.6679 15.8639 54.6679C16.5213 54.6679 16.9109 54.9723 17.1605 55.2645L17.5622 54.8931C17.404 54.7288 16.9413 54.1626 15.8639 54.1626C14.6707 54.1626 13.7272 55.0149 13.7272 56.3237C13.7272 57.6325 14.6707 58.4969 15.87 58.4969C17.0631 58.4969 17.5744 57.8942 17.6536 57.8151Z" fill="black"/>
<path d="M-192.207 673.622L287.207 -404.198" stroke="black" stroke-linecap="square"/>
<path d="M286.792 -403.91L765.918 673.91" stroke="black" stroke-linecap="square"/>
<path d="M286.792 673.91L765.918 -403.91" stroke="black" stroke-linecap="square"/>
<path d="M767.792 -403.91L1245.92 673.91" stroke="black" stroke-linecap="square"/>
<path d="M767.792 673.91L1245.92 -403.91" stroke="black" stroke-linecap="square"/>
<path d="M766.922 -404.5V675.5" stroke="black" stroke-linecap="square"/>
<path d="M286.871 -404.5V675.5" stroke="black" stroke-linecap="square"/>
<path d="M523.84 -404.5V675.5" stroke="black" stroke-linecap="square"/>
<path d="M45.8398 -404.5V675.5" stroke="black" stroke-linecap="square"/>
</g>
</svg>
