<svg width="25" height="24" viewBox="0 0 25 24" fill="none" xmlns="http://www.w3.org/2000/svg">
<path d="M3.29492 11C3.29492 7.22876 3.29492 5.34315 4.46649 4.17157C5.63807 3 7.52369 3 11.2949 3H13.2949C17.0662 3 18.9518 3 20.1233 4.17157C21.2949 5.34315 21.2949 7.22876 21.2949 11V13C21.2949 16.7712 21.2949 18.6569 20.1233 19.8284C18.9518 21 17.0662 21 13.2949 21H11.2949C7.52369 21 5.63807 21 4.46649 19.8284C3.29492 18.6569 3.29492 16.7712 3.29492 13V11Z" stroke="#F2F3F5" stroke-width="2"/>
<circle cx="16.7949" cy="7.5" r="1.5" fill="#F2F3F5"/>
<circle cx="12.2949" cy="12" r="3" stroke="#F2F3F5" stroke-width="2"/>
</svg>
