<svg width="24" height="24" viewBox="0 0 24 24" fill="none" xmlns="http://www.w3.org/2000/svg">
<path d="M8.6087 17C8.6087 17.5523 8.16098 18 7.6087 18H7C6.44772 18 6 17.5523 6 17V10.8182C6 10.2659 6.44772 9.81818 7 9.81818H7.6087C8.16098 9.81818 8.6087 10.2659 8.6087 10.8182V17ZM7.30487 8.72727C6.5833 8.72727 6 8.11582 6 7.36309C6 6.61036 6.58435 6 7.30487 6C8.02383 6 8.6087 6.61145 8.6087 7.36309C8.6087 8.11582 8.02383 8.72727 7.30487 8.72727ZM18 17.001C18 17.5532 17.5523 18 17 18H16.492C15.9397 18 15.492 17.5523 15.492 17V14.0182C15.492 13.0685 15.4748 11.8473 14.1882 11.8473C12.8823 11.8473 12.6814 12.8815 12.6814 13.9495V17C12.6814 17.5523 12.2337 18 11.6814 18H11.1739C10.6216 18 10.1739 17.5523 10.1739 17V10.8122C10.1739 10.2599 10.6216 9.81218 11.1739 9.81218H12.0219C12.3308 9.81218 12.5812 10.0626 12.5812 10.3715V10.9098C12.5812 10.9215 12.5907 10.9309 12.6023 10.9309C12.6102 10.9309 12.6174 10.9266 12.621 10.9197C12.9596 10.2794 13.7758 9.60873 14.9896 9.60873C16.4881 9.60873 17.2662 10.1986 17.6524 11.1349C17.9921 11.9585 18 15.0327 18 15.9236C18 16.3038 18 16.6776 18 17.001Z" fill="#000F2E"/>
<path d="M3 11C3 7.22876 3 5.34315 4.17157 4.17157C5.34315 3 7.22876 3 11 3H13C16.7712 3 18.6569 3 19.8284 4.17157C21 5.34315 21 7.22876 21 11V13C21 16.7712 21 18.6569 19.8284 19.8284C18.6569 21 16.7712 21 13 21H11C7.22876 21 5.34315 21 4.17157 19.8284C3 18.6569 3 16.7712 3 13V11Z" stroke="#000F2E" stroke-width="2"/>
</svg>
