<svg width="25" height="24" viewBox="0 0 25 24" fill="none" xmlns="http://www.w3.org/2000/svg">
<path d="M8.90362 17C8.90362 17.5523 8.4559 18 7.90362 18H7.29492C6.74264 18 6.29492 17.5523 6.29492 17V10.8182C6.29492 10.2659 6.74264 9.81818 7.29492 9.81818H7.90362C8.4559 9.81818 8.90362 10.2659 8.90362 10.8182V17ZM7.59979 8.72727C6.87823 8.72727 6.29492 8.11582 6.29492 7.36309C6.29492 6.61036 6.87927 6 7.59979 6C8.31875 6 8.90362 6.61145 8.90362 7.36309C8.90362 8.11582 8.31875 8.72727 7.59979 8.72727ZM18.2949 17.001C18.2949 17.5532 17.8472 18 17.2949 18H16.7869C16.2346 18 15.7869 17.5523 15.7869 17V14.0182C15.7869 13.0685 15.7697 11.8473 14.4831 11.8473C13.1772 11.8473 12.9763 12.8815 12.9763 13.9495V17C12.9763 17.5523 12.5286 18 11.9763 18H11.4688C10.9166 18 10.4688 17.5523 10.4688 17V10.8122C10.4688 10.2599 10.9166 9.81218 11.4688 9.81218H12.3168C12.6257 9.81218 12.8761 10.0626 12.8761 10.3715V10.9098C12.8761 10.9215 12.8856 10.9309 12.8972 10.9309C12.9051 10.9309 12.9123 10.9266 12.916 10.9197C13.2546 10.2794 14.0707 9.60873 15.2845 9.60873C16.7831 9.60873 17.5611 10.1986 17.9473 11.1349C18.287 11.9585 18.2949 15.0327 18.2949 15.9236C18.2949 16.3038 18.2949 16.6776 18.2949 17.001Z" fill="#F2F3F5"/>
<path d="M3.29492 11C3.29492 7.22876 3.29492 5.34315 4.46649 4.17157C5.63807 3 7.52369 3 11.2949 3H13.2949C17.0662 3 18.9518 3 20.1233 4.17157C21.2949 5.34315 21.2949 7.22876 21.2949 11V13C21.2949 16.7712 21.2949 18.6569 20.1233 19.8284C18.9518 21 17.0662 21 13.2949 21H11.2949C7.52369 21 5.63807 21 4.46649 19.8284C3.29492 18.6569 3.29492 16.7712 3.29492 13V11Z" stroke="#F2F3F5" stroke-width="2"/>
</svg>
