<svg width="28" height="28" viewBox="0 0 28 28" fill="none" xmlns="http://www.w3.org/2000/svg">
<path fill-rule="evenodd" clip-rule="evenodd" d="M14.3983 20.8052C16.0366 19.9658 22.1663 16.4291 22.1663 10.5C22.1663 5.98967 18.51 2.33333 13.9997 2.33333C9.48935 2.33333 5.83301 5.98967 5.83301 10.5C5.83301 16.4291 11.9627 19.9658 13.6011 20.8052C13.8546 20.9351 14.1447 20.9351 14.3983 20.8052ZM13.9997 14C15.9327 14 17.4997 12.433 17.4997 10.5C17.4997 8.567 15.9327 7 13.9997 7C12.0667 7 10.4997 8.567 10.4997 10.5C10.4997 12.433 12.0667 14 13.9997 14Z" fill="#D91818"/>
<path d="M21.0722 19.25C21.789 19.7821 22.1663 20.3856 22.1663 21C22.1663 21.6144 21.789 22.2179 21.0722 22.75C20.3554 23.2821 19.3245 23.7239 18.083 24.0311C16.8415 24.3383 15.4332 24.5 13.9997 24.5C12.5661 24.5 11.1578 24.3383 9.91634 24.0311C8.67485 23.7239 7.64391 23.2821 6.92713 22.75C6.21036 22.2179 5.83301 21.6144 5.83301 21C5.83301 20.3856 6.21036 19.7821 6.92713 19.25" stroke="#D91818" stroke-width="2" stroke-linecap="round"/>
</svg>
