<svg width="32" height="32" viewBox="0 0 32 32" fill="none" xmlns="http://www.w3.org/2000/svg">
<path fill-rule="evenodd" clip-rule="evenodd" d="M16.4019 23.8044C18.1908 22.8962 25.3327 18.8418 25.3327 12C25.3327 6.84535 21.154 2.66667 15.9993 2.66667C10.8447 2.66667 6.66602 6.84535 6.66602 12C6.66602 18.8418 13.8079 22.8962 15.5968 23.8044C15.8508 23.9334 16.1479 23.9334 16.4019 23.8044ZM15.9993 16C18.2085 16 19.9993 14.2091 19.9993 12C19.9993 9.79087 18.2085 8 15.9993 8C13.7902 8 11.9993 9.79087 11.9993 12C11.9993 14.2091 13.7902 16 15.9993 16Z" fill="#D91818"/>
<path d="M24.0823 22C24.9014 22.6081 25.3327 23.2979 25.3327 24C25.3327 24.7021 24.9014 25.3919 24.0823 26C23.2631 26.6081 22.0849 27.113 20.666 27.4641C19.2472 27.8152 17.6377 28 15.9994 28C14.361 28 12.7515 27.8152 11.3327 27.4641C9.91384 27.113 8.73562 26.6081 7.91645 26C7.09727 25.3919 6.66602 24.7021 6.66602 24C6.66602 23.2979 7.09727 22.6081 7.91644 22" stroke="#D91818" stroke-width="2" stroke-linecap="round"/>
</svg>
