<svg width="22" height="20" viewBox="0 0 22 20" fill="none" xmlns="http://www.w3.org/2000/svg">
<path fill-rule="evenodd" clip-rule="evenodd" d="M12.8221 0L21.295 16.3933L17.702 19.9564C13.6808 15.9566 7.68497 16.0127 3.61537 19.9564L0 16.3944L8.43677 0H12.8221ZM10.6025 6.62774L7.75163 12.3363L7.87533 12.3098C9.69324 11.9322 11.5646 11.9017 13.3936 12.2199L13.5444 12.2471L10.6021 6.62809L10.6025 6.62774Z" fill="#717783"/>
<path d="M10.8468 10.1484C14.1289 10.1484 16.8577 10.9348 19.5722 13.0388L21.295 16.3941L17.6391 19.9565C13.7516 16.3129 7.98116 15.8563 3.59853 19.9998L0 16.3941L1.59259 13.2549C4.27199 11.2743 7.36989 10.1484 10.8468 10.1484Z" fill="url(#paint0_radial_6118_9707)"/>
<path fill-rule="evenodd" clip-rule="evenodd" d="M17.6977 19.9994L21.2691 16.3767C15.4035 10.4265 5.89295 10.4265 0.0273438 16.3767L3.59873 19.9997C7.49172 16.05 13.8044 16.05 17.6977 19.9997V19.9994Z" fill="#717783"/>
<defs>
<radialGradient id="paint0_radial_6118_9707" cx="0" cy="0" r="1" gradientUnits="userSpaceOnUse" gradientTransform="translate(12.5167 -10.2442) rotate(-90) scale(13.7288 4.77543)">
<stop/>
<stop offset="1" stop-color="#001A61" stop-opacity="0"/>
</radialGradient>
</defs>
</svg>
