<svg width="200" height="36" viewBox="0 0 200 36" fill="none" xmlns="http://www.w3.org/2000/svg">
<path d="M154.312 1.99756H156.75V26.045H154.312V21.7341C153.731 23.0761 152.779 24.1778 151.456 25.0379C150.133 25.898 148.576 26.3274 146.789 26.3274C145.047 26.3274 143.485 25.9151 142.104 25.091C140.722 24.2662 139.642 23.0999 138.865 21.5926C138.087 20.0847 137.698 18.3413 137.698 16.3631C137.698 14.3842 138.093 12.6469 138.882 11.1512C139.672 9.6555 140.757 8.50077 142.139 7.68825C143.52 6.87573 145.082 6.46947 146.823 6.46947C148.495 6.46947 150.004 6.88122 151.351 7.70594C152.653 8.50321 153.619 9.53106 154.248 10.7901L154.312 10.9213V1.99756ZM147.241 8.6246C145.895 8.6246 144.687 8.93082 143.619 9.54326C142.551 10.1557 141.709 11.0451 141.094 12.2114C140.479 13.3771 140.171 14.7612 140.171 16.3631C140.171 17.9411 140.479 19.3252 141.094 20.5147C141.709 21.7042 142.551 22.6113 143.619 23.2353C144.687 23.86 145.895 24.1723 147.241 24.1723C148.542 24.1723 149.732 23.8539 150.811 23.2183C151.891 22.582 152.745 21.675 153.372 20.4977C153.998 19.3191 154.312 17.9533 154.312 16.3984C154.312 14.8436 153.998 13.4772 153.372 12.2992C152.745 11.1219 151.891 10.2149 150.811 9.57864C149.732 8.94241 148.542 8.6246 147.241 8.6246H147.241Z" fill="#000F2E"/>
<path d="M154.312 1.99756H156.75V26.045H154.312V21.7341C153.731 23.0761 152.779 24.1778 151.456 25.0379C150.133 25.898 148.576 26.3274 146.789 26.3274C145.047 26.3274 143.485 25.9151 142.104 25.091C140.722 24.2662 139.642 23.0999 138.865 21.5926C138.087 20.0847 137.698 18.3413 137.698 16.3631C137.698 14.3842 138.093 12.6469 138.882 11.1512C139.672 9.6555 140.757 8.50077 142.139 7.68825C143.52 6.87573 145.082 6.46947 146.823 6.46947C148.495 6.46947 150.004 6.88122 151.351 7.70594C152.653 8.50321 153.619 9.53106 154.248 10.7901L154.312 10.9213V1.99756ZM147.241 8.6246C145.895 8.6246 144.687 8.93082 143.619 9.54326C142.551 10.1557 141.709 11.0451 141.094 12.2114C140.479 13.3771 140.171 14.7612 140.171 16.3631C140.171 17.9411 140.479 19.3252 141.094 20.5147C141.709 21.7042 142.551 22.6113 143.619 23.2353C144.687 23.86 145.895 24.1723 147.241 24.1723C148.542 24.1723 149.732 23.8539 150.811 23.2183C151.891 22.582 152.745 21.675 153.372 20.4977C153.998 19.3191 154.312 17.9533 154.312 16.3984C154.312 14.8436 153.998 13.4772 153.372 12.2992C152.745 11.1219 151.891 10.2149 150.811 9.57864C149.732 8.94241 148.542 8.6246 147.241 8.6246H147.241Z" fill="#000F2E"/>
<path d="M184.144 1.99756V6.61831H189.369V8.83688H184.144V18.4554H184.153V21.4578C184.153 22.7351 185.156 23.7758 186.407 23.8124L186.475 23.813H189.369V26.3293H186.475C185.217 26.3293 184.009 25.8283 183.111 24.9339C182.213 24.0395 181.696 22.8233 181.673 21.5469L181.673 21.4578V20.8142H181.671V1.99756H184.144Z" fill="#000F2E"/>
<path d="M184.144 1.99756V6.61831H189.369V8.83688H184.144V18.4554H184.153V21.4578C184.153 22.7351 185.156 23.7758 186.407 23.8124L186.475 23.813H189.369V26.3293H186.475C185.217 26.3293 184.009 25.8283 183.111 24.9339C182.213 24.0395 181.696 22.8233 181.673 21.5469L181.673 21.4578V20.8142H181.671V1.99756H184.144Z" fill="#000F2E"/>
<path d="M194.775 1.99756V18.456H194.784V21.4584C194.784 22.7357 195.787 23.7764 197.038 23.813L197.107 23.8136H200V26.3299H197.107C195.848 26.3298 194.64 25.8286 193.742 24.9343C192.844 24.0399 192.328 22.8238 192.305 21.5475L192.304 21.4584V20.8149H192.302V1.99756H194.775Z" fill="#000F2E"/>
<path d="M194.775 1.99756V18.456H194.784V21.4584C194.784 22.7357 195.787 23.7764 197.038 23.813L197.107 23.8136H200V26.3299H197.107C195.848 26.3298 194.64 25.8286 193.742 24.9343C192.844 24.0399 192.328 22.8238 192.305 21.5475L192.304 21.4584V20.8149H192.302V1.99756H194.775Z" fill="#000F2E"/>
<path d="M168.247 6.46887C170.035 6.46887 171.591 6.89343 172.915 7.74133C174.238 8.58923 175.19 9.661 175.771 10.9566V8.58984C175.771 7.06789 177.077 6.46948 178.209 6.61832V26.1383C178.209 27.9049 177.831 29.4714 177.077 30.8372C176.584 31.7314 176.184 32.3329 175.445 32.9539C175.055 33.2814 174.569 33.6151 173.925 34C172.682 34.7418 170.443 35.1133 167.209 35.1133V32.9575C169.879 32.9575 171.687 32.6928 172.636 32.1627C173.289 31.7973 173.71 31.4911 174.028 31.1654C174.402 30.7823 174.634 30.3736 174.935 29.813C175.492 28.776 175.771 27.5511 175.771 26.1377V21.7695C175.167 23.0883 174.209 24.1778 172.897 25.0379C171.585 25.898 170.035 26.3274 168.247 26.3274C166.506 26.3274 164.944 25.9151 163.563 25.091C162.181 24.2662 161.101 23.0999 160.323 21.5926C159.545 20.0847 159.157 18.3413 159.157 16.3631C159.157 14.3842 159.545 12.647 160.323 11.1512C161.101 9.65551 162.181 8.50078 163.562 7.68826C164.944 6.87574 166.506 6.46948 168.247 6.46948V6.46887ZM168.7 8.62461C167.353 8.62461 166.146 8.93083 165.078 9.54327C164.01 10.1557 163.168 11.0451 162.552 12.2114C161.937 13.3771 161.629 14.7612 161.629 16.3631C161.629 17.9412 161.937 19.3252 162.552 20.5147C163.168 21.7042 164.01 22.6113 165.078 23.2353C166.146 23.86 167.353 24.1723 168.7 24.1723C170.001 24.1723 171.191 23.8539 172.271 23.2183C173.35 22.582 174.204 21.675 174.83 20.4977C175.457 19.3191 175.771 17.9534 175.771 16.3985C175.771 14.8436 175.457 13.4772 174.83 12.2993C174.204 11.122 173.35 10.2149 172.271 9.57866C171.191 8.94242 170.001 8.62461 168.7 8.62461Z" fill="#000F2E"/>
<path d="M168.247 6.46887C170.035 6.46887 171.591 6.89343 172.915 7.74133C174.238 8.58923 175.19 9.661 175.771 10.9566V8.58984C175.771 7.06789 177.077 6.46948 178.209 6.61832V26.1383C178.209 27.9049 177.831 29.4714 177.077 30.8372C176.584 31.7314 176.184 32.3329 175.445 32.9539C175.055 33.2814 174.569 33.6151 173.925 34C172.682 34.7418 170.443 35.1133 167.209 35.1133V32.9575C169.879 32.9575 171.687 32.6928 172.636 32.1627C173.289 31.7973 173.71 31.4911 174.028 31.1654C174.402 30.7823 174.634 30.3736 174.935 29.813C175.492 28.776 175.771 27.5511 175.771 26.1377V21.7695C175.167 23.0883 174.209 24.1778 172.897 25.0379C171.585 25.898 170.035 26.3274 168.247 26.3274C166.506 26.3274 164.944 25.9151 163.563 25.091C162.181 24.2662 161.101 23.0999 160.323 21.5926C159.545 20.0847 159.157 18.3413 159.157 16.3631C159.157 14.3842 159.545 12.647 160.323 11.1512C161.101 9.65551 162.181 8.50078 163.562 7.68826C164.944 6.87574 166.506 6.46948 168.247 6.46948V6.46887ZM168.7 8.62461C167.353 8.62461 166.146 8.93083 165.078 9.54327C164.01 10.1557 163.168 11.0451 162.552 12.2114C161.937 13.3771 161.629 14.7612 161.629 16.3631C161.629 17.9412 161.937 19.3252 162.552 20.5147C163.168 21.7042 164.01 22.6113 165.078 23.2353C166.146 23.86 167.353 24.1723 168.7 24.1723C170.001 24.1723 171.191 23.8539 172.271 23.2183C173.35 22.582 174.204 21.675 174.83 20.4977C175.457 19.3191 175.771 17.9534 175.771 16.3985C175.771 14.8436 175.457 13.4772 174.83 12.2993C174.204 11.122 173.35 10.2149 172.271 9.57866C171.191 8.94242 170.001 8.62461 168.7 8.62461Z" fill="#000F2E"/>
<path d="M45.788 6.53046C48.533 6.53046 50.3856 7.46132 51.3458 9.32243C52.7998 7.08434 55 6.23339 57.9481 6.76958V25.9401H51.3452V23.2744C50.8287 24.1631 50.0933 24.8695 49.1385 25.3935C48.1848 25.9175 47.0676 26.1792 45.7874 26.1792C44.283 26.1792 42.9192 25.7802 41.695 24.9836C40.4713 24.1857 39.5056 23.0413 38.7985 21.5493C38.0914 20.0566 37.7378 18.3193 37.7378 16.3374C37.7378 14.3555 38.0914 12.6244 38.7991 11.1433C39.5056 9.66281 40.4719 8.52455 41.6956 7.72667C42.9192 6.9294 44.2836 6.53107 45.788 6.53107V6.53046ZM47.9106 12.3737C46.9221 12.3737 46.1025 12.7214 45.4513 13.4161C44.8001 14.1109 44.4742 15.0845 44.4742 16.3374C44.4742 17.5678 44.8001 18.5414 45.4513 19.2593C46.1025 19.9767 46.9221 20.3354 47.9106 20.3354C48.8757 20.3354 49.6899 19.9822 50.3519 19.2764C51.0145 18.57 51.3458 17.5904 51.3458 16.3374C51.3458 15.1071 51.0151 14.139 50.3519 13.4332C49.6899 12.7268 48.8757 12.3737 47.9106 12.3737Z" fill="#000F2E"/>
<path d="M45.788 6.53046C48.533 6.53046 50.3856 7.46132 51.3458 9.32243C52.7998 7.08434 55 6.23339 57.9481 6.76958V25.9401H51.3452V23.2744C50.8287 24.1631 50.0933 24.8695 49.1385 25.3935C48.1848 25.9175 47.0676 26.1792 45.7874 26.1792C44.283 26.1792 42.9192 25.7802 41.695 24.9836C40.4713 24.1857 39.5056 23.0413 38.7985 21.5493C38.0914 20.0566 37.7378 18.3193 37.7378 16.3374C37.7378 14.3555 38.0914 12.6244 38.7991 11.1433C39.5056 9.66281 40.4719 8.52455 41.6956 7.72667C42.9192 6.9294 44.2836 6.53107 45.788 6.53107V6.53046ZM47.9106 12.3737C46.9221 12.3737 46.1025 12.7214 45.4513 13.4161C44.8001 14.1109 44.4742 15.0845 44.4742 16.3374C44.4742 17.5678 44.8001 18.5414 45.4513 19.2593C46.1025 19.9767 46.9221 20.3354 47.9106 20.3354C48.8757 20.3354 49.6899 19.9822 50.3519 19.2764C51.0145 18.57 51.3458 17.5904 51.3458 16.3374C51.3458 15.1071 51.0151 14.139 50.3519 13.4332C49.6899 12.7268 48.8757 12.3737 47.9106 12.3737Z" fill="#000F2E"/>
<path d="M101.927 6.53046C104.673 6.53046 106.525 7.46132 107.485 9.32243C108.939 7.08434 111.14 6.23339 114.087 6.76958V25.9401H107.485V23.2744C106.968 24.1631 106.233 24.8695 105.279 25.3935C104.325 25.9175 103.207 26.1792 101.927 26.1792C100.423 26.1792 99.059 25.7802 97.8347 24.9836C96.6111 24.1857 95.646 23.0413 94.9382 21.5493C94.2305 20.0572 93.877 18.3199 93.877 16.338C93.877 14.3562 94.2305 12.625 94.9382 11.1439C95.6454 9.66342 96.6111 8.52455 97.8347 7.72728C99.059 6.93001 100.423 6.53168 101.927 6.53168V6.53046ZM104.05 12.3737C103.061 12.3737 102.242 12.7214 101.59 13.4161C100.939 14.1109 100.614 15.0845 100.614 16.3374C100.614 17.5678 100.939 18.5414 101.59 19.2593C102.242 19.9767 103.061 20.3354 104.05 20.3354C105.015 20.3354 105.829 19.9822 106.491 19.2764C107.154 18.57 107.485 17.5904 107.485 16.3374C107.485 15.1071 107.154 14.139 106.492 13.4332C105.829 12.7268 105.015 12.3737 104.049 12.3737H104.05Z" fill="#000F2E"/>
<path d="M101.927 6.53046C104.673 6.53046 106.525 7.46132 107.485 9.32243C108.939 7.08434 111.14 6.23339 114.087 6.76958V25.9401H107.485V23.2744C106.968 24.1631 106.233 24.8695 105.279 25.3935C104.325 25.9175 103.207 26.1792 101.927 26.1792C100.423 26.1792 99.059 25.7802 97.8347 24.9836C96.6111 24.1857 95.646 23.0413 94.9382 21.5493C94.2305 20.0572 93.877 18.3199 93.877 16.338C93.877 14.3562 94.2305 12.625 94.9382 11.1439C95.6454 9.66342 96.6111 8.52455 97.8347 7.72728C99.059 6.93001 100.423 6.53168 101.927 6.53168V6.53046ZM104.05 12.3737C103.061 12.3737 102.242 12.7214 101.59 13.4161C100.939 14.1109 100.614 15.0845 100.614 16.3374C100.614 17.5678 100.939 18.5414 101.59 19.2593C102.242 19.9767 103.061 20.3354 104.05 20.3354C105.015 20.3354 105.829 19.9822 106.491 19.2764C107.154 18.57 107.485 17.5904 107.485 16.3374C107.485 15.1071 107.154 14.139 106.492 13.4332C105.829 12.7268 105.015 12.3737 104.049 12.3737H104.05Z" fill="#000F2E"/>
<path d="M66.8253 25.9395V15.6542C66.8253 14.6294 67.1061 13.8316 67.6671 13.2618C68.2288 12.6927 69.0038 12.4078 69.9918 12.4078C70.9575 12.4078 71.7151 12.6927 72.2647 13.2618C72.8155 13.8316 73.0903 14.6288 73.0903 15.6542V25.9389H79.6926V15.6542C79.6926 14.6294 79.9734 13.8316 80.5344 13.2618C81.096 12.6927 81.8591 12.4078 82.8253 12.4078C83.7904 12.4078 84.5541 12.6927 85.1151 13.2618C85.6767 13.8316 85.9569 14.6288 85.9569 15.6542V25.9389H92.5592V14.7661C92.5592 12.2376 91.8797 10.2441 90.5214 8.78625C89.1625 7.32835 87.2936 6.5994 84.9131 6.5994C83.5884 6.5994 82.3756 6.92392 81.2752 7.57357C80.1748 8.22261 79.2879 9.07112 78.6144 10.1191C77.9855 9.0028 77.1268 8.1366 76.0379 7.52233C74.9489 6.90684 73.7078 6.5994 72.3158 6.5994C71.103 6.5994 70.0309 6.84462 69.0988 7.33384C68.1668 7.82367 67.4092 8.47881 66.8259 9.29865V6.76959H60.2236V25.9401H66.8259L66.8253 25.9395Z" fill="#000F2E"/>
<path d="M66.8253 25.9395V15.6542C66.8253 14.6294 67.1061 13.8316 67.6671 13.2618C68.2288 12.6927 69.0038 12.4078 69.9918 12.4078C70.9575 12.4078 71.7151 12.6927 72.2647 13.2618C72.8155 13.8316 73.0903 14.6288 73.0903 15.6542V25.9389H79.6926V15.6542C79.6926 14.6294 79.9734 13.8316 80.5344 13.2618C81.096 12.6927 81.8591 12.4078 82.8253 12.4078C83.7904 12.4078 84.5541 12.6927 85.1151 13.2618C85.6767 13.8316 85.9569 14.6288 85.9569 15.6542V25.9389H92.5592V14.7661C92.5592 12.2376 91.8797 10.2441 90.5214 8.78625C89.1625 7.32835 87.2936 6.5994 84.9131 6.5994C83.5884 6.5994 82.3756 6.92392 81.2752 7.57357C80.1748 8.22261 79.2879 9.07112 78.6144 10.1191C77.9855 9.0028 77.1268 8.1366 76.0379 7.52233C74.9489 6.90684 73.7078 6.5994 72.3158 6.5994C71.103 6.5994 70.0309 6.84462 69.0988 7.33384C68.1668 7.82367 67.4092 8.47881 66.8259 9.29865V6.76959H60.2236V25.9401H66.8259L66.8253 25.9395Z" fill="#000F2E"/>
<path d="M122.676 25.9395V15.6542C122.676 14.5605 122.957 13.7004 123.518 13.0739C124.079 12.4475 124.854 12.1345 125.842 12.1345C126.785 12.1345 127.538 12.4475 128.099 13.0739C128.66 13.7004 128.941 14.5605 128.941 15.6542V25.9389H135.543V14.7661C135.543 12.2602 134.903 10.2728 133.623 8.80333C132.343 7.33384 130.614 6.5994 128.436 6.5994C127.156 6.5994 126.022 6.86719 125.034 7.40277C124.046 7.93774 123.26 8.63802 122.676 9.50422V6.76959H116.074V25.9401H122.676V25.9395Z" fill="#000F2E"/>
<path d="M122.676 25.9395V15.6542C122.676 14.5605 122.957 13.7004 123.518 13.0739C124.079 12.4475 124.854 12.1345 125.842 12.1345C126.785 12.1345 127.538 12.4475 128.099 13.0739C128.66 13.7004 128.941 14.5605 128.941 15.6542V25.9389H135.543V14.7661C135.543 12.2602 134.903 10.2728 133.623 8.80333C132.343 7.33384 130.614 6.5994 128.436 6.5994C127.156 6.5994 126.022 6.86719 125.034 7.40277C124.046 7.93774 123.26 8.63802 122.676 9.50422V6.76959H116.074V25.9401H122.676V25.9395Z" fill="#000F2E"/>
<path fill-rule="evenodd" clip-rule="evenodd" d="M22.4388 0.5L37.2662 29.1883L30.9784 35.4237C23.9414 28.424 13.4487 28.5222 6.32689 35.4237L0 29.1902L14.7644 0.5H22.4388ZM18.5544 12.0985L13.5654 22.0885L13.7818 22.0422C16.9632 21.3813 20.2381 21.328 23.4387 21.8848L23.7027 21.9324L18.5538 12.0992L18.5544 12.0985Z" fill="#0045FF"/>
<path d="M18.9819 18.2602C24.7255 18.2602 29.501 19.6363 34.2513 23.3183L37.2662 29.1902L30.8684 35.4244C24.0653 29.048 13.967 28.2489 6.29743 35.5L0 29.1902L2.78703 23.6965C7.47598 20.2305 12.8973 18.2602 18.9819 18.2602Z" fill="url(#paint0_radial_6063_6692)"/>
<path fill-rule="evenodd" clip-rule="evenodd" d="M30.9705 35.4994L37.2204 29.1597C26.9556 18.747 10.3122 18.747 0.0473633 29.1597L6.29729 35.5C13.11 28.5881 24.1571 28.5881 30.9705 35.5V35.4994Z" fill="#0045FF"/>
<defs>
<radialGradient id="paint0_radial_6063_6692" cx="0" cy="0" r="1" gradientUnits="userSpaceOnUse" gradientTransform="translate(21.9042 -17.4269) rotate(-90) scale(24.0253 8.357)">
<stop/>
<stop offset="1" stop-color="#001A61" stop-opacity="0"/>
</radialGradient>
</defs>
</svg>
