<svg width="927" height="672" viewBox="0 0 927 672" fill="none" xmlns="http://www.w3.org/2000/svg">
<path d="M463.709 671.552C335.822 671.552 225.742 649.882 136.555 607.12C74.5875 577.421 0.719727 526.186 0.719727 450.731C0.719727 375.276 74.5875 324.019 136.555 294.321C225.764 251.58 335.822 230 463.709 230C591.595 230 701.675 251.691 790.885 294.321C852.852 324.019 926.72 375.276 926.72 450.731C926.72 526.186 852.852 577.421 790.885 607.12C701.72 649.882 591.617 671.552 463.709 671.552ZM463.709 232.107C336.155 232.107 226.408 253.71 137.509 296.317C76.1194 325.749 2.93998 376.43 2.93998 450.731C2.93998 525.033 76.2082 575.713 137.509 605.124C226.319 647.731 336.155 669.334 463.709 669.334C591.262 669.334 701.031 647.731 789.908 605.124C851.32 575.713 924.5 525.033 924.5 450.731C924.5 376.43 851.231 325.749 789.908 296.317C701.031 253.71 591.262 232.107 463.709 232.107Z" fill="url(#paint0_linear_1_46)"/>
<path d="M463.709 661.083C342.438 661.083 237.598 640.456 152.119 599.734C45.1691 548.721 22.7224 490.588 22.7224 450.731C22.7224 410.875 45.1691 352.675 152.119 301.729C237.598 261.007 342.438 240.358 463.709 240.358C585.956 240.358 690.796 261.007 775.321 301.729C834.357 330.163 904.717 379.091 904.717 450.731C904.717 522.371 834.357 571.3 775.321 599.734C690.796 640.456 585.956 661.083 463.709 661.083ZM463.709 242.576C342.772 242.576 238.242 263.158 153.073 303.725C47.1673 354.161 24.9426 411.518 24.9426 450.731C24.9426 489.945 47.1451 547.279 153.073 597.738C238.242 638.304 342.772 658.865 463.709 658.865C585.623 658.865 690.174 638.304 774.366 597.738C832.825 569.57 902.497 521.218 902.497 450.731C902.497 380.244 832.825 331.893 774.366 303.725C690.13 263.158 585.6 242.576 463.709 242.576V242.576Z" fill="url(#paint1_linear_1_46)"/>
<path d="M463.709 650.636C348.411 650.636 248.855 630.985 167.816 592.259C111.643 565.422 44.7029 519.067 44.7029 450.731C44.7029 382.396 111.643 336.018 167.816 309.181C248.855 270.455 348.411 250.826 463.709 250.826C579.006 250.826 678.584 270.455 759.624 309.181C815.774 336.018 882.714 382.374 882.714 450.731C882.714 519.089 815.774 565.422 759.624 592.259C678.584 630.985 579.028 650.636 463.709 650.636ZM463.709 253.044C348.744 253.044 249.521 272.607 168.77 311.199C113.264 337.815 46.9231 383.527 46.9231 450.731C46.9231 517.936 113.175 563.714 168.859 590.33C249.61 628.922 348.833 648.485 463.797 648.485C578.762 648.485 678.007 628.922 758.758 590.33C814.264 563.714 880.583 518.002 880.583 450.798C880.583 383.594 814.33 337.815 758.758 311.266C677.918 272.607 578.673 253.044 463.709 253.044Z" fill="url(#paint2_linear_1_46)"/>
<path d="M463.709 640.168C353.673 640.168 259.312 621.581 183.224 584.918C130.072 559.278 66.7278 515.252 66.7278 450.731C66.7278 386.211 130.094 342.051 183.247 316.523C259.335 279.882 353.695 261.295 463.731 261.295C573.034 261.295 667.394 279.882 744.237 316.523C840.53 362.479 860.756 414.867 860.756 450.731C860.756 486.596 840.53 538.984 744.237 584.918C667.372 621.581 572.945 640.168 463.709 640.168ZM463.709 263.513C354.006 263.513 259.956 282.011 184.179 318.519C131.604 343.848 68.948 387.364 68.948 450.731C68.948 514.099 131.626 557.593 184.201 582.922C260.001 619.43 354.028 637.95 463.731 637.95C572.701 637.95 666.751 619.43 743.283 582.922C838.531 537.476 858.536 485.953 858.536 450.731C858.536 415.51 838.554 363.965 743.283 318.519C666.728 282.033 572.679 263.513 463.709 263.513V263.513Z" fill="url(#paint3_linear_1_46)"/>
<path d="M463.709 629.699C404.494 629.699 314.13 621.049 238.087 596.74C193.304 582.434 158.002 564.136 133.113 542.378C103.651 516.583 88.7082 485.753 88.7082 450.731C88.7082 415.71 103.651 384.858 133.113 359.085C158.002 337.327 193.304 319.029 238.087 304.723C314.13 280.325 404.494 271.742 463.709 271.742C522.923 271.742 613.575 280.17 688.642 303.836C788.243 335.198 838.731 384.636 838.731 450.731C838.731 516.827 788.243 566.243 688.642 597.627C613.598 621.381 523.233 629.699 463.709 629.699ZM463.709 273.96C404.672 273.96 314.552 282.61 238.753 306.83C140.662 338.192 90.9285 386.677 90.9285 450.731C90.9285 514.786 140.662 563.271 238.753 594.633C314.552 618.853 404.672 627.481 463.709 627.481C523.078 627.481 613.154 619.097 687.954 595.52C786.511 564.468 836.489 515.673 836.489 450.731C836.489 385.789 786.511 336.994 687.954 305.943C613.154 282.366 523.078 273.96 463.709 273.96Z" fill="url(#paint4_linear_1_46)"/>
<path d="M463.709 619.163C407.869 619.163 322.7 610.979 251.097 588.112C157.847 558.258 110.689 512.036 110.689 450.598C110.689 389.161 157.936 343.005 251.097 313.085C322.7 290.151 407.869 282.033 463.709 282.033C519.548 282.033 604.983 289.974 675.609 312.242C769.259 341.785 816.751 388.318 816.751 450.554C816.751 512.79 769.259 559.234 675.609 588.866C604.983 611.312 519.836 619.163 463.709 619.163ZM463.709 284.251C408.047 284.251 323.122 292.391 251.786 315.303C159.645 344.824 112.909 390.336 112.909 450.598C112.909 510.86 159.534 556.395 251.786 585.894C323.122 608.739 408.047 616.945 463.709 616.945C519.37 616.945 604.539 609.027 674.943 586.826C767.55 557.615 814.53 511.792 814.53 450.643C814.53 389.493 767.55 343.648 674.943 314.438C604.539 292.347 519.659 284.429 463.709 284.429V284.251Z" fill="url(#paint5_linear_1_46)"/>
<path d="M463.709 608.783C411.444 608.783 331.648 601.109 264.441 579.573C177.008 551.56 132.691 508.265 132.691 450.731C132.691 393.198 177.096 349.881 264.441 321.89C331.648 300.354 411.444 292.68 463.709 292.68C515.973 292.68 596.058 300.11 662.31 321.003C750.188 348.705 794.748 392.355 794.748 450.731C794.748 509.108 750.188 552.758 662.31 580.46C596.058 601.42 516.284 608.783 463.709 608.783ZM463.709 294.897C411.622 294.897 332.092 302.527 265.107 323.997C178.717 351.677 134.912 394.307 134.912 450.731C134.912 507.156 178.717 549.786 265.107 577.466C332.092 598.914 411.644 606.565 463.709 606.565C515.774 606.565 595.614 599.202 661.755 578.331C748.589 550.961 792.639 508.021 792.639 450.731C792.639 393.442 748.478 350.502 661.755 323.11C595.614 302.305 516.107 294.897 463.709 294.897V294.897Z" fill="url(#paint6_linear_1_46)"/>
<path d="M463.709 598.315C414.863 598.315 340.263 591.173 277.629 571.122C196.035 544.995 154.672 504.584 154.672 450.731C154.672 396.879 196.08 356.756 277.74 330.54C340.707 310.334 415.085 303.148 463.709 303.148C512.332 303.148 586.91 310.334 649.81 330.54C731.382 356.734 772.745 397.079 772.745 450.731C772.745 504.384 731.426 545.017 649.921 571.122C587.354 591.173 512.709 598.315 463.709 598.315ZM463.709 305.366C415.263 305.366 341.129 312.53 278.429 332.669C197.789 358.553 156.892 398.277 156.892 450.731C156.892 565.711 357.603 596.097 463.709 596.097C569.814 596.097 770.547 565.711 770.547 450.731C770.547 398.232 729.717 358.509 649.144 332.647C586.488 312.53 512.265 305.366 463.709 305.366Z" fill="url(#paint7_linear_1_46)"/>
<path d="M463.709 587.846C417.86 587.846 348.145 581.192 289.974 562.383C214.796 538.119 176.741 500.547 176.741 450.731C176.741 338.236 383.935 313.595 463.775 313.595C506.737 313.595 577.807 320.359 636.733 339.434C712.443 363.832 750.831 401.359 750.831 450.731C750.831 501.012 712.599 538.718 637.221 562.849C579.606 581.28 509.757 587.846 463.709 587.846ZM463.709 315.813C384.49 315.813 178.895 340.055 178.895 450.731C178.895 557.437 365.196 585.628 463.709 585.628C509.601 585.628 579.162 579.085 636.466 560.72C710.822 536.943 748.545 499.926 748.545 450.731C748.545 402.424 710.667 365.695 636 341.541C577.385 322.555 506.515 315.813 463.709 315.813Z" fill="url(#paint8_linear_1_46)"/>
<path d="M463.709 577.399C421.701 577.399 357.914 571.433 304.85 554.709C234.401 532.53 198.677 497.53 198.677 450.731C198.677 403.932 234.379 368.844 304.827 346.687C357.78 330.008 421.635 324.063 463.709 324.063C505.782 324.063 569.659 330.008 622.612 346.687C693.038 368.866 728.762 403.866 728.762 450.731C728.762 497.597 693.038 532.507 622.568 554.709C569.526 571.433 505.738 577.399 463.709 577.399ZM463.709 326.281C421.79 326.281 358.202 332.203 305.494 348.794C236.088 370.641 200.898 404.93 200.898 450.82C200.898 496.71 236.089 530.8 305.516 552.691C358.336 569.326 421.879 575.27 463.709 575.27C505.538 575.27 569.104 569.326 621.901 552.691C691.329 530.8 726.542 496.532 726.542 450.82C726.542 405.108 691.351 370.729 621.946 348.794C569.237 332.203 505.649 326.392 463.709 326.392V326.281Z" fill="url(#paint9_linear_1_46)"/>
<path d="M463.709 566.931C410.112 566.931 220.658 539.095 220.658 450.732C220.658 373.613 302.43 334.533 463.709 334.533C624.988 334.533 706.759 373.613 706.759 450.732C706.759 539.095 517.305 566.931 463.709 566.931ZM463.709 336.75C303.851 336.75 222.878 375.099 222.878 450.732C222.878 537.409 410.6 564.713 463.709 564.713C516.817 564.713 704.539 537.409 704.539 450.732C704.539 375.188 623.522 336.75 463.709 336.75Z" fill="url(#paint10_linear_1_46)"/>
<path d="M463.709 552.891C419.193 552.891 372.945 530.711 328.273 509.285C321.613 506.047 314.752 502.809 308.025 499.659C304.095 497.819 299.388 495.955 294.415 493.981C272.456 485.287 242.394 473.377 242.727 447.404C243.105 418.282 252.119 394.949 269.526 378.049C309.49 339.19 386.2 340.343 442.172 341.142C449.832 341.142 457.048 341.363 463.775 341.363C469.97 341.363 476.608 341.363 483.602 341.186C540.885 340.521 619.326 339.567 659.379 379.202C676.364 396.014 684.912 418.948 684.846 447.426C684.846 472.955 655.982 484.577 632.914 494.004C628.052 495.955 623.456 497.818 619.592 499.637C612.932 502.787 606.271 506.025 599.433 509.241C554.517 530.711 508.18 552.891 463.709 552.891ZM415.64 343.16C364.286 343.16 304.406 347.263 271.013 379.712C254.05 396.191 245.258 418.992 244.881 447.493C244.57 471.891 272.612 482.98 295.169 491.852C300.187 493.826 304.916 495.711 308.891 497.575C315.551 500.746 322.412 503.984 329.161 507.223C373.677 528.559 419.703 550.606 463.709 550.606C507.714 550.606 553.784 528.537 598.367 507.178C605.102 503.94 611.822 500.739 618.527 497.575C622.501 495.711 627.119 493.848 632.004 491.874C654.495 482.781 682.492 471.469 682.559 447.515C682.559 419.658 674.299 397.234 657.759 380.865C618.349 341.874 540.441 342.805 483.558 343.493C476.564 343.493 469.925 343.67 463.709 343.67C457.048 343.67 449.743 343.559 442.083 343.448C433.669 343.293 424.788 343.16 415.64 343.16Z" fill="url(#paint11_linear_1_46)"/>
<path d="M463.709 519.688C431.626 519.688 393.282 500.414 356.204 481.761C345.303 476.282 334.002 470.671 323.233 465.614C319.437 463.839 314.685 462.043 309.645 460.135C290.085 452.75 265.729 443.545 264.663 425.247C263.198 400.295 269.748 380.001 284.135 364.918C319.659 327.745 396.479 328.522 447.368 329.032C453.14 329.032 458.602 329.143 463.709 329.143C468.815 329.143 473.678 329.143 479.095 329.143C530.472 328.699 608.114 328.012 643.66 365.495C657.892 380.533 664.33 400.65 662.776 425.38C661.622 443.811 637.532 452.861 618.194 460.135C612.998 462.065 608.114 463.906 604.184 465.747C593.793 470.582 582.825 476.083 572.234 481.406C534.623 500.17 495.747 519.688 463.709 519.688ZM427.63 331.161C378.673 331.161 316.262 334.51 285.756 366.493C271.812 381.132 265.462 400.849 266.883 425.158C267.86 442.015 291.462 450.953 310.423 458.117C315.507 460.025 320.303 461.843 324.188 463.64C335.001 468.652 346.28 474.33 357.203 479.831C394.037 498.351 432.137 517.536 463.775 517.536C495.414 517.536 533.935 498.129 571.302 479.365C581.915 474.02 592.883 468.519 603.318 463.662C607.337 461.799 612.199 459.958 617.461 457.984C636.222 450.953 659.646 442.17 660.623 425.18C662.155 401.138 655.916 381.575 642.106 367.003C607.248 330.207 530.183 330.895 479.184 331.338C473.766 331.338 468.615 331.338 463.775 331.338C458.935 331.338 453.185 331.338 447.412 331.228C441.106 331.183 434.512 331.117 427.63 331.117V331.161Z" fill="url(#paint12_linear_1_46)"/>
<path d="M463.709 469.407C435.067 469.407 398.922 451.663 363.975 434.429C355.227 430.127 346.968 426.068 338.797 422.253C335.578 420.767 331.803 419.214 327.807 417.595C310.378 410.498 288.686 401.67 286.666 385.723C284.113 365.761 288.642 349.016 300.121 336.018C332.336 299.533 410.645 299.777 457.492 299.777H468.882C515.507 299.777 593.571 299.622 626.231 335.752C637.998 348.75 642.905 365.562 640.818 385.679C639.175 401.692 617.594 410.365 600.254 417.351C596.058 419.059 592.083 420.656 588.686 422.231C580.472 426.068 572.168 430.149 563.376 434.474C528.54 451.663 492.394 469.407 463.709 469.407ZM449.899 301.995C403.007 301.995 331.692 303.614 301.786 337.482C290.684 349.992 286.399 366.116 288.864 385.457C290.729 400.095 311.755 408.657 328.629 415.532C332.669 417.174 336.488 418.726 339.73 420.234C347.923 424.049 356.204 428.13 364.952 432.433C399.677 449.534 435.6 467.189 463.709 467.189C491.817 467.189 527.696 449.445 562.332 432.5C571.213 428.175 579.45 424.072 587.687 420.234C591.151 418.638 595.147 417.018 599.388 415.333C616.173 408.679 637.132 400.14 638.576 385.479C640.574 366.005 635.867 349.792 624.544 337.26C592.55 301.862 515.218 301.995 468.837 301.995L449.899 301.995Z" fill="url(#paint13_linear_1_46)"/>
<path d="M463.709 406.66C435.112 406.66 311.066 372.859 308.646 333.467C307.603 316.478 312.465 302.15 323.056 290.883C354.139 258.012 428.118 258.012 463.709 258.012C502.008 258.012 573.3 258.012 604.206 290.727C614.863 302.017 619.748 316.389 618.793 333.467C616.395 374.633 494.237 406.66 463.709 406.66ZM463.709 260.275C428.429 260.275 354.916 260.275 324.676 292.435C314.508 303.237 309.867 317.01 310.867 333.379C313.087 371.705 435.511 404.531 463.709 404.531C492.86 404.531 614.308 372.57 616.573 333.379H617.683H616.573C617.528 316.944 612.821 303.104 602.607 292.302C572.345 260.186 498.966 260.186 463.709 260.186V260.275Z" fill="url(#paint14_linear_1_46)"/>
<path d="M463.709 335.996C433.58 335.996 333.18 316.412 330.649 273.161C330.152 267.003 330.97 260.809 333.049 254.99C335.127 249.17 338.418 243.858 342.705 239.404C356.026 225.165 388.02 208.219 463.709 208.219C539.397 208.219 571.302 225.187 584.734 239.404C589.021 243.858 592.313 249.17 594.391 254.99C596.469 260.809 597.287 267.003 596.79 273.161C594.237 316.412 493.86 335.996 463.709 335.996ZM463.709 210.437C429.872 210.437 369.348 214.408 344.326 240.912C340.247 245.149 337.114 250.203 335.135 255.739C333.157 261.276 332.377 267.169 332.847 273.028C335.201 312.952 431.004 333.778 463.709 333.778C496.413 333.778 592.239 312.885 594.57 273.028C595.043 267.17 594.267 261.278 592.292 255.742C590.317 250.206 587.189 245.151 583.114 240.912C558.069 214.408 497.567 210.437 463.709 210.437V210.437Z" fill="url(#paint15_linear_1_46)"/>
<path d="M463.709 262.071C443.46 262.071 385.778 256.881 362.532 233.127C359.338 230.077 356.809 226.4 355.105 222.328C353.401 218.255 352.558 213.875 352.629 209.461C353.606 164.969 433.158 155.232 463.642 155.232C494.126 155.232 573.766 164.969 574.654 209.461C574.72 213.874 573.875 218.253 572.171 222.325C570.467 226.396 567.942 230.074 564.752 233.127C541.662 256.815 483.979 262.071 463.709 262.071ZM463.709 157.45C441.537 157.626 419.509 161.034 398.322 167.564C369.881 176.968 355.249 191.074 354.85 209.506C354.787 213.623 355.577 217.709 357.171 221.506C358.764 225.304 361.126 228.732 364.108 231.574C386.843 254.708 443.726 259.853 463.709 259.853C483.691 259.853 540.596 254.774 563.331 231.574C566.309 228.729 568.668 225.3 570.261 221.503C571.854 217.706 572.647 213.622 572.59 209.506C572.168 191.074 557.536 176.968 529.095 167.564C507.912 161.008 485.884 157.578 463.709 157.384V157.45Z" fill="url(#paint16_linear_1_46)"/>
<path d="M464.974 189.3H463.709C447.567 189.078 397.589 183.977 380.272 164.104C378.121 161.813 376.502 159.078 375.527 156.092C374.553 153.106 374.247 149.943 374.632 146.826C376.519 131.655 395.591 121.098 411.244 114.91C430.96 107.103 452.252 103.465 463.709 103.376C485.423 103.177 549.654 117.904 552.807 146.848C553.188 150.281 552.804 153.755 551.683 157.022C550.563 160.289 548.732 163.268 546.324 165.745C528.651 185.13 481.915 189.3 464.974 189.3ZM464.153 105.594H463.775C452.518 105.594 431.559 109.276 412.11 116.973C390.751 125.401 378.251 136.114 376.875 147.115C376.546 149.918 376.832 152.759 377.714 155.44C378.596 158.121 380.052 160.578 381.981 162.64C397.523 180.384 443.793 186.772 463.775 187.038C483.18 187.282 528.429 182.07 544.725 164.193C546.912 161.946 548.576 159.244 549.597 156.28C550.617 153.316 550.971 150.164 550.631 147.048C549.388 135.603 536.733 124.691 514.996 116.329C496.502 109.254 475.542 105.594 464.153 105.594Z" fill="url(#paint17_linear_1_46)"/>
<path d="M461.622 122.473C445.458 122.473 412.776 117.239 400.942 103.842C399.222 102.048 397.938 99.8827 397.191 97.5133C396.444 95.1439 396.254 92.6344 396.635 90.1795C399.699 71.0163 448.766 57.4424 463.709 57.4424C478.651 57.4424 527.763 71.0163 530.76 90.1795C531.151 92.5385 531.015 94.9545 530.363 97.255C529.71 99.5555 528.557 101.684 526.986 103.487C515.64 117.194 481.87 121.874 463.709 122.451L461.622 122.473ZM463.709 59.6603C447.279 59.6603 401.542 73.6779 398.833 90.5344C398.501 92.6657 398.669 94.8449 399.324 96.9002C399.979 98.9556 401.103 100.831 402.607 102.378C414.486 115.841 448.766 120.699 463.686 120.122C481.448 119.545 514.486 115.065 525.321 101.979C526.684 100.417 527.686 98.5728 528.254 96.5792C528.822 94.5855 528.942 92.4912 528.607 90.4457V90.4457C525.942 73.6779 480.161 59.6603 463.709 59.6603V59.6603Z" fill="url(#paint18_linear_1_46)"/>
<path d="M463.709 66.0037C453.14 66.0037 418.615 64.4511 418.615 44.1789C418.615 35.7285 443.815 21.9993 463.709 21.9993C483.602 21.9993 508.824 35.795 508.824 44.1789C508.824 64.4511 474.299 66.0037 463.709 66.0037ZM463.709 24.1508C443.26 24.1508 420.836 38.2126 420.836 44.1124C420.836 62.3219 453.651 63.7192 463.709 63.7192C473.766 63.7192 506.604 62.3219 506.604 44.1124C506.604 38.2126 484.135 24.1508 463.709 24.1508V24.1508Z" fill="url(#paint19_linear_1_46)"/>
<path d="M463.709 24.6165C453.051 24.6165 440.618 21.6001 440.618 13.1053C440.618 7.78219 453.14 1.461 463.709 1.461C474.277 1.461 486.821 7.78219 486.821 13.1053C486.821 21.6001 474.366 24.6165 463.709 24.6165ZM463.709 3.67896C452.94 3.67896 442.838 10.1554 442.838 13.1053C442.838 19.5152 453.318 22.3986 463.709 22.3986C474.099 22.3986 484.601 19.5152 484.601 13.1053C484.601 10.1554 474.499 3.67896 463.709 3.67896Z" fill="url(#paint20_linear_1_46)"/>
<path d="M464.819 1.70502L462.598 1.70502L462.598 670.443H464.819L464.819 1.70502Z" fill="url(#paint21_linear_1_46)"/>
<path d="M605.538 660.329C598.877 650.592 591.639 640.877 583.98 630.608C564.752 604.857 544.859 578.22 534.046 550.14C514.064 498.506 510.334 436.714 506.648 376.962C505.36 356.046 504.139 336.284 502.208 317.254C499.477 289.53 497.945 260.386 496.324 229.534C492.217 150.685 487.954 69.153 462.643 2.10404L464.708 1.32776C490.152 68.6873 494.415 150.397 498.544 229.401C500.165 260.23 501.675 289.286 504.428 317.032C506.315 336.107 507.536 355.891 508.868 376.917C512.554 436.492 516.351 498.129 536.111 549.43C546.835 577.244 566.617 603.748 585.756 629.277C593.438 639.568 600.698 649.239 607.359 659.064L605.538 660.329Z" fill="url(#paint22_linear_1_46)"/>
<path d="M734.601 629.41C724.077 622.534 712.399 615.725 699.988 608.539C661.533 586.182 617.838 560.853 598.478 524.767C569.215 470.471 557.004 405.662 545.192 343.005C542.772 330.207 540.507 318.119 538.065 306.031C532.914 280.525 527.896 254.53 523.056 229.401C518.105 203.65 512.976 177.035 507.692 150.907C505.849 141.791 504.184 132.187 502.43 122.074C495.236 80.642 487.154 33.6213 462.843 2.39236L464.597 1.0394C489.241 32.7784 497.412 79.9988 504.561 121.652C506.315 131.788 507.958 141.392 509.801 150.486C515.085 176.635 520.214 203.251 525.187 229.002C530.027 254.131 535.023 280.015 540.174 305.61C542.616 317.72 544.881 329.808 547.301 342.606C559.113 405.108 571.302 469.739 600.387 523.746C619.526 559.234 662.843 584.43 701.076 606.632C713.487 613.84 725.21 620.671 735.778 627.569L734.601 629.41Z" fill="url(#paint23_linear_1_46)"/>
<path d="M837.022 580.926C823.189 576.135 807.159 571.721 790.196 567.041C738.354 552.735 679.584 536.522 649.699 501.456C609.179 453.903 589.752 381.043 572.767 316.744C569.437 304.213 566.284 292.347 563.065 281.057C557.359 260.962 551.764 240.469 546.346 220.64C538.731 192.827 530.805 164.06 522.567 135.936C520.347 128.617 518.327 120.676 516.106 112.27C505.96 73.7444 493.327 25.7699 463.043 2.59216L464.397 0.839966C495.281 24.5056 508.025 72.8572 518.26 111.738C520.48 120.122 522.545 128.04 524.699 135.315C533.003 163.461 540.885 192.25 548.478 220.085C553.895 239.892 559.579 260.386 565.218 280.481C568.416 291.792 571.568 303.636 574.921 316.212C591.928 380.267 611.2 452.861 651.409 500.037C680.827 534.592 739.242 550.695 790.774 564.912C807.781 569.614 823.855 574.05 837.754 578.841L837.022 580.926Z" fill="url(#paint24_linear_1_46)"/>
<path d="M902.83 519.71L780.716 500.857C773.145 499.682 764.708 498.861 755.805 497.974C730.316 495.468 701.431 492.606 682.67 480.43C636.511 450.51 613.842 375.387 595.791 315.036C591.884 302.061 588.198 289.796 584.579 279.061C577.918 259.565 571.524 239.67 565.241 220.44C555.694 191.208 545.836 160.955 535.467 131.434C533.247 125.467 531.226 118.902 528.962 111.96C515.64 71.1715 499.21 20.4024 463.131 2.70306L464.108 0.706909C501.031 18.8277 517.705 70.0847 531.093 111.294C533.313 118.215 535.534 124.757 537.554 130.702C547.945 160.245 557.803 190.587 567.35 219.753C573.633 238.983 580.116 258.878 586.688 278.351C590.329 289.131 594.015 301.396 597.923 314.393C615.951 374.411 638.398 449.09 683.869 478.522C702.186 490.388 730.782 493.205 756.027 495.712C764.908 496.577 773.411 497.419 781.071 498.595L903.185 517.47L902.83 519.71Z" fill="url(#paint25_linear_1_46)"/>
<path d="M726.142 455.456C715.462 455.71 704.799 454.478 694.459 451.796C641.306 436.27 614.819 345.179 597.301 284.85C593.416 271.431 590.041 259.809 586.866 250.649C584.202 242.997 581.582 235.345 578.94 227.693C564.597 185.973 549.743 142.812 532.758 101.269C531.004 96.8333 529.206 92.3974 527.363 87.5179C514.486 54.2485 498.5 12.95 463.509 2.76957L464.13 0.551605C500.143 11.0204 516.373 52.9621 529.428 86.6307C531.271 91.3993 533.047 96.0127 534.823 100.338C551.83 141.947 566.684 185.13 581.049 226.762C583.669 234.421 586.303 242.073 588.953 249.717C592.15 258.944 595.614 270.566 599.432 284.029C616.817 343.914 643.105 434.363 695.081 449.445C713.909 454.923 738.42 452.994 762.11 451.108C773.212 450.243 783.647 449.423 792.972 449.423H925.721V451.641H792.861C783.624 451.641 773.212 452.461 762.177 453.326C750.054 454.48 737.732 455.456 726.142 455.456Z" fill="url(#paint26_linear_1_46)"/>
<path d="M702.852 416.464C696.113 416.626 689.395 415.651 682.981 413.58C635.445 396.569 608.802 315.236 591.173 261.428C587.443 250.05 583.935 239.249 580.738 230.754C575.121 215.716 569.637 200.323 564.286 185.419C552.141 151.395 539.552 116.218 524.81 82.7715C523.256 79.208 521.672 75.5114 520.059 71.6817C508.513 44.2233 494.126 10.0445 463.464 2.92487L463.975 0.706909C495.725 8.13708 510.356 42.8482 522.101 70.8389C523.722 74.6537 525.298 78.3799 526.852 81.9287C541.617 115.464 554.206 150.685 566.395 184.753C571.702 199.636 577.208 215.029 582.803 230.044C586.022 238.65 589.464 249.407 593.282 260.807C610.778 314.194 637.221 394.905 683.735 411.629C702.763 418.46 734.113 411.229 759.224 405.441C768.571 403.223 777.408 401.271 784.69 400.14L902.83 381.841L903.163 384.059L785.112 402.313C777.918 403.422 769.126 405.441 759.823 407.592C741.795 411.584 720.658 416.464 702.852 416.464Z" fill="url(#paint27_linear_1_46)"/>
<path d="M675.254 376.785C666.562 377.068 657.926 375.289 650.054 371.595C606.226 349.082 583.802 277.952 567.439 226.03C564.375 216.293 561.466 207.11 558.735 199.237C555.183 189.012 551.453 174.839 547.101 158.404C531.559 99.6502 508.158 10.843 463.509 2.79184L463.908 0.573883C509.934 8.86906 533.602 98.4969 549.255 157.805C553.584 174.174 557.314 188.324 560.845 198.46C563.575 206.356 566.484 215.561 569.548 225.298C585.8 276.865 608.047 347.485 651.053 369.576C683.469 386.189 749.743 357.444 798.145 336.44C813.465 329.786 826.675 324.064 837.022 320.493L837.754 322.578C827.497 326.126 814.308 331.849 799.033 338.48C760.556 355.226 710.889 376.785 675.254 376.785Z" fill="url(#paint28_linear_1_46)"/>
<path d="M609.69 348.572C606.042 348.628 602.419 347.957 599.033 346.598C564.641 332.181 547.701 254.996 537.576 208.885C535.356 198.727 533.425 189.988 531.693 183.533C528.984 173.353 526.475 160.045 523.589 144.52C513.709 91.6433 500.187 19.2712 463.265 2.56996L464.175 0.551605C502.163 17.6077 515.796 90.6452 525.765 143.987C528.651 159.513 531.138 172.821 533.846 182.824C535.578 189.322 537.51 198.105 539.752 208.264C549.766 253.976 566.573 330.451 599.899 344.402C625.143 354.982 676.053 316.012 709.735 290.217C719.637 282.632 728.207 276.067 734.601 271.897L735.822 273.738C729.495 277.886 720.947 284.429 711.089 291.992C679.384 316.434 637.332 348.572 609.69 348.572Z" fill="url(#paint29_linear_1_46)"/>
<path d="M535.689 338.791C535.409 338.825 535.126 338.825 534.845 338.791C514.863 334.554 505.56 255.24 499.654 186.616C499.033 179.452 498.589 174.285 498.278 172.089C496.457 158.892 495.347 144.52 494.148 129.326C490.685 84.9673 486.777 34.553 462.82 2.45907L464.597 1.1283C489.019 33.7545 492.883 84.4349 496.368 129.149C497.545 144.32 498.589 158.648 500.476 171.778C500.787 173.996 501.253 179.231 501.875 186.439C504.961 222.481 514.419 332.181 535.312 336.617C545.569 338.835 581.737 279.815 597.168 254.553C601.164 248.032 604.028 243.463 605.538 241.245L607.359 242.509C605.893 244.727 602.918 249.562 599.077 255.817C572.545 298.956 546.591 338.791 535.689 338.791Z" fill="url(#paint30_linear_1_46)"/>
<path d="M464.819 1.70502L462.598 1.70502L462.598 340.366H464.819L464.819 1.70502Z" fill="url(#paint31_linear_1_46)"/>
<path d="M391.728 338.791C380.627 338.791 353.984 297.138 329.783 257.88C325.343 250.76 321.946 245.149 320.058 242.354L321.901 241.09C323.811 243.884 327.274 249.518 331.67 256.615C346.768 281.146 382.114 338.68 392.128 336.462C411.2 332.403 416.706 265.687 419.681 229.845C420.414 220.751 421.013 213.565 421.657 209.062C423.877 192.672 425.232 174.107 426.564 154.434C430.227 100.382 434.401 39.1 462.82 0.973206L464.597 2.30398C436.577 40.0093 432.425 100.826 428.784 154.589C427.452 174.285 426.186 192.893 423.855 209.373C423.233 213.809 422.634 220.973 421.879 230.022C418.66 268.992 413.264 334.266 392.572 338.702C392.295 338.766 392.012 338.796 391.728 338.791V338.791Z" fill="url(#paint32_linear_1_46)"/>
<path d="M317.971 348.572C290.529 348.572 248.211 316.345 216.284 292.036C206.426 284.539 197.922 278.063 191.617 273.915L192.838 272.075C199.21 276.244 207.758 282.743 217.638 290.262C251.497 316.057 302.674 355.048 327.541 344.58C357.381 332.026 372.123 268.903 380.938 231.198C382.78 223.235 384.401 216.382 385.867 210.992C391.106 192.028 396.191 172.71 401.12 154.012C406.559 133.363 412.221 112.026 418.016 91.111C419.281 86.6751 420.525 81.3742 421.835 75.8737C428.362 48.4153 437.376 10.8208 463.309 0.70694L464.13 2.76963C439.219 12.4621 430.427 49.3468 423.988 76.3838C422.678 81.9065 421.435 87.1409 420.147 91.7099C414.33 112.625 408.713 133.851 403.273 154.567C398.344 173.264 393.238 192.605 388.02 211.569C386.533 216.914 384.934 223.767 383.091 231.685C373.611 272.296 359.268 333.712 328.406 346.642C325.09 347.968 321.543 348.624 317.971 348.572V348.572Z" fill="url(#paint33_linear_1_46)"/>
<path d="M252.296 376.762C216.772 376.762 166.817 355.16 128.184 338.414C112.976 331.76 99.8539 326.149 89.6851 322.622L90.3956 320.537C100.653 324.086 113.819 329.786 129.072 336.396C177.651 357.422 244.17 386.255 276.364 369.665C315.196 349.703 335.933 287.822 351.075 242.709C353.495 235.434 355.804 228.58 357.98 222.525C361.488 212.744 365.618 197.884 370.414 180.65C388.997 113.823 417.039 12.8393 463.442 0.684875L463.997 2.90284C418.86 14.7246 390.995 114.976 372.545 181.316C367.749 198.571 363.664 213.476 360.067 223.324C357.847 229.379 355.627 236.232 353.162 243.485C337.909 288.953 317.017 351.234 277.385 371.706C269.543 375.357 260.943 377.091 252.296 376.762V376.762Z" fill="url(#paint34_linear_1_46)"/>
<path d="M223.744 416.353C206.337 416.353 186.866 411.917 169.081 407.747C159.49 405.529 150.409 403.311 142.438 402.18L24.3876 383.926L24.7206 381.708L142.771 399.962C150.942 401.226 160.045 403.334 169.703 405.552C194.703 411.34 222.989 417.883 243.859 411.451C288.686 397.567 318.526 307.939 336.355 254.397C339.552 244.749 342.327 236.41 344.725 230C348.766 219.087 353.273 204.028 358.491 186.594C379.184 117.505 410.467 13.1054 463.575 0.662598L464.086 2.88056C412.221 15.035 381.182 118.703 360.622 187.304C355.405 204.782 350.875 219.864 346.812 230.821C344.437 237.253 341.661 245.57 338.464 255.218C320.48 309.181 290.418 399.386 244.525 413.691C237.772 415.62 230.766 416.517 223.744 416.353Z" fill="url(#paint35_linear_1_46)"/>
<path d="M198.788 455.7C185.467 455.7 171.413 454.613 158.202 453.615C146.413 452.683 135.245 451.84 125.92 451.84H1.8298L1.8298 449.622H125.92C135.333 449.622 146.524 450.487 158.38 451.397C183.89 453.349 212.82 455.589 232.447 449.667C280.871 435.05 303.207 361.436 319.503 307.717C323.145 295.696 326.586 284.34 329.938 274.98C336.755 255.861 343.46 236.321 349.921 217.313C360.511 186.439 371.479 154.5 383.224 123.449C385.112 118.503 387.066 113.025 389.13 107.214C403.384 67.2902 422.923 12.3291 463.331 0.573914L463.953 2.79188C424.654 14.2366 405.316 68.4436 391.217 108.034C389.153 113.867 387.177 119.368 385.312 124.314C373.522 155.365 362.576 187.26 352.008 218.112C345.525 237.009 338.819 256.571 332.026 275.779C328.695 285.094 325.254 296.428 321.613 308.449C305.183 362.678 282.647 436.936 233.091 451.885C221.895 454.772 210.346 456.057 198.788 455.7V455.7Z" fill="url(#paint36_linear_1_46)"/>
<path d="M24.543 519.71L24.21 517.492L146.324 498.617C154.317 497.397 162.953 496.554 172.123 495.689C196.834 493.316 224.854 490.633 243.526 478.522C288.198 449.578 312.643 369.332 330.494 310.756C334.113 298.956 337.51 287.8 340.707 278.307C347.367 258.833 353.762 238.96 360.023 219.731C369.57 190.476 379.45 160.201 389.841 130.657C391.928 124.713 394.059 118.17 396.302 111.25C409.623 70.0404 426.342 18.7833 463.265 0.662598L464.241 2.65877C428.162 20.4025 411.666 71.1273 398.411 111.916C396.191 118.858 393.971 125.423 391.928 131.389C381.559 160.91 371.679 191.274 362.132 220.418C355.871 239.648 349.366 259.521 342.794 279.017C339.619 288.465 336.133 299.6 332.625 311.399C314.663 370.308 290.085 450.998 244.725 480.386C225.609 492.784 197.301 495.512 172.323 497.885C163.198 498.772 154.561 499.593 146.657 500.813L24.543 519.71Z" fill="url(#paint37_linear_1_46)"/>
<path d="M90.3956 580.926L89.6851 578.819C103.584 574.028 119.636 569.592 136.643 564.89C188.22 550.628 246.657 534.482 276.031 500.014C316.55 452.461 335.489 380.799 352.185 317.565C355.627 304.545 358.846 292.258 362.221 280.458C367.927 260.497 373.522 239.958 378.917 220.174C386.533 192.294 394.459 163.483 402.74 135.293C404.961 128.018 406.981 120.1 409.179 111.716C419.415 72.8571 432.159 24.5056 463.043 0.817719L464.397 2.56991C434.113 25.7698 421.479 73.7221 411.333 112.248C409.113 120.654 407.026 128.594 404.872 135.914C396.546 164.06 388.664 192.871 381.071 220.729C375.653 240.513 369.97 260.985 364.352 281.035C361 292.835 357.692 305.1 354.339 318.119C337.576 381.575 318.571 453.415 277.718 501.434C247.922 536.411 189.108 552.669 137.221 566.997C120.258 571.721 104.228 576.135 90.3956 580.926Z" fill="url(#paint38_linear_1_46)"/>
<path d="M192.838 629.41L191.617 627.547C202.052 620.716 213.686 613.951 225.986 606.787C264.33 584.408 307.958 559.034 326.986 523.791C355.849 470.05 368.327 404.709 380.272 341.497C382.625 329.054 384.845 317.321 387.199 305.654C392.35 280.148 397.345 254.153 402.185 229.002C407.159 203.273 412.288 176.658 417.572 150.53C419.392 141.459 421.058 131.855 422.812 121.697C430.005 80.0434 438.153 32.823 462.776 1.08398L464.53 2.43694C440.285 33.6215 432.159 80.6423 425.01 122.029C423.256 132.188 421.613 141.791 419.77 150.863C414.486 176.968 409.357 203.584 404.406 229.312C399.565 254.464 394.548 280.458 389.397 305.987C387.043 317.631 384.823 329.364 382.47 341.785C371.035 402.225 358.047 470.693 328.939 524.723C309.623 560.587 265.795 586.138 227.119 608.65C214.818 615.859 203.229 622.623 192.838 629.41Z" fill="url(#paint39_linear_1_46)"/>
<path d="M321.901 660.329L320.058 659.064C326.719 649.35 333.957 639.635 341.617 629.344C360.8 603.66 380.627 577.066 391.306 549.342C410.844 498.617 414.996 433.032 418.637 375.187C419.947 354.671 421.169 335.264 422.967 317.032C425.698 289.352 427.23 260.23 428.851 229.401C432.98 150.397 437.243 68.6873 462.687 1.32779L464.752 2.10407C439.441 69.1531 435.178 150.708 431.049 229.534C429.45 260.386 427.918 289.419 425.187 317.254C423.367 335.486 422.145 354.827 420.858 375.32C417.194 433.342 413.042 499.105 393.393 550.14C382.603 578.153 362.665 604.857 343.415 630.674C335.756 640.944 328.517 650.636 321.901 660.329Z" fill="url(#paint40_linear_1_46)"/>
<defs>
<linearGradient id="paint0_linear_1_46" x1="463.72" y1="230" x2="463.72" y2="671.552" gradientUnits="userSpaceOnUse">
<stop stop-color="#CCCFD5"/>
<stop offset="1" stop-color="#CCCFD5" stop-opacity="0"/>
</linearGradient>
<linearGradient id="paint1_linear_1_46" x1="463.72" y1="240.358" x2="463.72" y2="661.083" gradientUnits="userSpaceOnUse">
<stop stop-color="#CCCFD5"/>
<stop offset="1" stop-color="#CCCFD5" stop-opacity="0"/>
</linearGradient>
<linearGradient id="paint2_linear_1_46" x1="463.709" y1="250.826" x2="463.709" y2="650.636" gradientUnits="userSpaceOnUse">
<stop stop-color="#CCCFD5"/>
<stop offset="1" stop-color="#CCCFD5" stop-opacity="0"/>
</linearGradient>
<linearGradient id="paint3_linear_1_46" x1="463.742" y1="261.295" x2="463.742" y2="640.168" gradientUnits="userSpaceOnUse">
<stop stop-color="#CCCFD5"/>
<stop offset="1" stop-color="#CCCFD5" stop-opacity="0"/>
</linearGradient>
<linearGradient id="paint4_linear_1_46" x1="463.72" y1="271.742" x2="463.72" y2="629.699" gradientUnits="userSpaceOnUse">
<stop stop-color="#CCCFD5"/>
<stop offset="1" stop-color="#CCCFD5" stop-opacity="0"/>
</linearGradient>
<linearGradient id="paint5_linear_1_46" x1="463.72" y1="282.033" x2="463.72" y2="619.163" gradientUnits="userSpaceOnUse">
<stop stop-color="#CCCFD5"/>
<stop offset="1" stop-color="#CCCFD5" stop-opacity="0"/>
</linearGradient>
<linearGradient id="paint6_linear_1_46" x1="463.72" y1="292.68" x2="463.72" y2="608.783" gradientUnits="userSpaceOnUse">
<stop stop-color="#CCCFD5"/>
<stop offset="1" stop-color="#CCCFD5" stop-opacity="0"/>
</linearGradient>
<linearGradient id="paint7_linear_1_46" x1="463.709" y1="303.148" x2="463.709" y2="598.315" gradientUnits="userSpaceOnUse">
<stop stop-color="#CCCFD5"/>
<stop offset="1" stop-color="#CCCFD5" stop-opacity="0"/>
</linearGradient>
<linearGradient id="paint8_linear_1_46" x1="463.786" y1="313.595" x2="463.786" y2="587.846" gradientUnits="userSpaceOnUse">
<stop stop-color="#CCCFD5"/>
<stop offset="1" stop-color="#CCCFD5" stop-opacity="0"/>
</linearGradient>
<linearGradient id="paint9_linear_1_46" x1="463.72" y1="324.063" x2="463.72" y2="577.399" gradientUnits="userSpaceOnUse">
<stop stop-color="#CCCFD5"/>
<stop offset="1" stop-color="#CCCFD5" stop-opacity="0"/>
</linearGradient>
<linearGradient id="paint10_linear_1_46" x1="463.709" y1="334.533" x2="463.709" y2="566.931" gradientUnits="userSpaceOnUse">
<stop stop-color="#CCCFD5"/>
<stop offset="1" stop-color="#CCCFD5" stop-opacity="0"/>
</linearGradient>
<linearGradient id="paint11_linear_1_46" x1="463.785" y1="340.895" x2="463.785" y2="552.891" gradientUnits="userSpaceOnUse">
<stop stop-color="#CCCFD5"/>
<stop offset="1" stop-color="#CCCFD5" stop-opacity="0"/>
</linearGradient>
<linearGradient id="paint12_linear_1_46" x1="463.733" y1="328.903" x2="463.733" y2="519.688" gradientUnits="userSpaceOnUse">
<stop stop-color="#CCCFD5"/>
<stop offset="1" stop-color="#CCCFD5" stop-opacity="0"/>
</linearGradient>
<linearGradient id="paint13_linear_1_46" x1="463.63" y1="299.777" x2="463.63" y2="469.407" gradientUnits="userSpaceOnUse">
<stop stop-color="#CCCFD5"/>
<stop offset="1" stop-color="#CCCFD5" stop-opacity="0"/>
</linearGradient>
<linearGradient id="paint14_linear_1_46" x1="463.709" y1="258.012" x2="463.709" y2="406.66" gradientUnits="userSpaceOnUse">
<stop stop-color="#CCCFD5"/>
<stop offset="1" stop-color="#CCCFD5" stop-opacity="0"/>
</linearGradient>
<linearGradient id="paint15_linear_1_46" x1="463.72" y1="208.219" x2="463.72" y2="335.996" gradientUnits="userSpaceOnUse">
<stop stop-color="#CCCFD5"/>
<stop offset="1" stop-color="#CCCFD5" stop-opacity="0"/>
</linearGradient>
<linearGradient id="paint16_linear_1_46" x1="463.642" y1="155.232" x2="463.642" y2="262.071" gradientUnits="userSpaceOnUse">
<stop stop-color="#CCCFD5"/>
<stop offset="1" stop-color="#CCCFD5" stop-opacity="0"/>
</linearGradient>
<linearGradient id="paint17_linear_1_46" x1="463.71" y1="103.374" x2="463.71" y2="189.3" gradientUnits="userSpaceOnUse">
<stop stop-color="#CCCFD5"/>
<stop offset="1" stop-color="#CCCFD5" stop-opacity="0"/>
</linearGradient>
<linearGradient id="paint18_linear_1_46" x1="463.711" y1="57.4424" x2="463.711" y2="122.473" gradientUnits="userSpaceOnUse">
<stop stop-color="#CCCFD5"/>
<stop offset="1" stop-color="#CCCFD5" stop-opacity="0"/>
</linearGradient>
<linearGradient id="paint19_linear_1_46" x1="463.72" y1="21.9993" x2="463.72" y2="66.0037" gradientUnits="userSpaceOnUse">
<stop stop-color="#CCCFD5"/>
<stop offset="1" stop-color="#CCCFD5" stop-opacity="0"/>
</linearGradient>
<linearGradient id="paint20_linear_1_46" x1="463.72" y1="1.461" x2="463.72" y2="24.6165" gradientUnits="userSpaceOnUse">
<stop stop-color="#CCCFD5"/>
<stop offset="1" stop-color="#CCCFD5" stop-opacity="0"/>
</linearGradient>
<linearGradient id="paint21_linear_1_46" x1="463.709" y1="1.70502" x2="463.709" y2="670.443" gradientUnits="userSpaceOnUse">
<stop stop-color="#CCCFD5"/>
<stop offset="1" stop-color="#CCCFD5" stop-opacity="0"/>
</linearGradient>
<linearGradient id="paint22_linear_1_46" x1="535.001" y1="1.32776" x2="535.001" y2="660.329" gradientUnits="userSpaceOnUse">
<stop stop-color="#CCCFD5"/>
<stop offset="1" stop-color="#CCCFD5" stop-opacity="0"/>
</linearGradient>
<linearGradient id="paint23_linear_1_46" x1="599.31" y1="1.0394" x2="599.31" y2="629.41" gradientUnits="userSpaceOnUse">
<stop stop-color="#CCCFD5"/>
<stop offset="1" stop-color="#CCCFD5" stop-opacity="0"/>
</linearGradient>
<linearGradient id="paint24_linear_1_46" x1="650.398" y1="0.839966" x2="650.398" y2="580.926" gradientUnits="userSpaceOnUse">
<stop stop-color="#CCCFD5"/>
<stop offset="1" stop-color="#CCCFD5" stop-opacity="0"/>
</linearGradient>
<linearGradient id="paint25_linear_1_46" x1="683.158" y1="0.706909" x2="683.158" y2="519.71" gradientUnits="userSpaceOnUse">
<stop stop-color="#CCCFD5"/>
<stop offset="1" stop-color="#CCCFD5" stop-opacity="0"/>
</linearGradient>
<linearGradient id="paint26_linear_1_46" x1="694.615" y1="0.551605" x2="694.615" y2="455.488" gradientUnits="userSpaceOnUse">
<stop stop-color="#CCCFD5"/>
<stop offset="1" stop-color="#CCCFD5" stop-opacity="0"/>
</linearGradient>
<linearGradient id="paint27_linear_1_46" x1="683.314" y1="0.706909" x2="683.314" y2="416.481" gradientUnits="userSpaceOnUse">
<stop stop-color="#CCCFD5"/>
<stop offset="1" stop-color="#CCCFD5" stop-opacity="0"/>
</linearGradient>
<linearGradient id="paint28_linear_1_46" x1="650.631" y1="0.573883" x2="650.631" y2="376.814" gradientUnits="userSpaceOnUse">
<stop stop-color="#CCCFD5"/>
<stop offset="1" stop-color="#CCCFD5" stop-opacity="0"/>
</linearGradient>
<linearGradient id="paint29_linear_1_46" x1="599.544" y1="0.551605" x2="599.544" y2="348.575" gradientUnits="userSpaceOnUse">
<stop stop-color="#CCCFD5"/>
<stop offset="1" stop-color="#CCCFD5" stop-opacity="0"/>
</linearGradient>
<linearGradient id="paint30_linear_1_46" x1="535.09" y1="1.1283" x2="535.09" y2="338.816" gradientUnits="userSpaceOnUse">
<stop stop-color="#CCCFD5"/>
<stop offset="1" stop-color="#CCCFD5" stop-opacity="0"/>
</linearGradient>
<linearGradient id="paint31_linear_1_46" x1="463.709" y1="1.70502" x2="463.709" y2="340.366" gradientUnits="userSpaceOnUse">
<stop stop-color="#CCCFD5"/>
<stop offset="1" stop-color="#CCCFD5" stop-opacity="0"/>
</linearGradient>
<linearGradient id="paint32_linear_1_46" x1="392.327" y1="0.973206" x2="392.327" y2="338.791" gradientUnits="userSpaceOnUse">
<stop stop-color="#CCCFD5"/>
<stop offset="1" stop-color="#CCCFD5" stop-opacity="0"/>
</linearGradient>
<linearGradient id="paint33_linear_1_46" x1="327.874" y1="0.70694" x2="327.874" y2="348.575" gradientUnits="userSpaceOnUse">
<stop stop-color="#CCCFD5"/>
<stop offset="1" stop-color="#CCCFD5" stop-opacity="0"/>
</linearGradient>
<linearGradient id="paint34_linear_1_46" x1="276.841" y1="0.684875" x2="276.841" y2="376.802" gradientUnits="userSpaceOnUse">
<stop stop-color="#CCCFD5"/>
<stop offset="1" stop-color="#CCCFD5" stop-opacity="0"/>
</linearGradient>
<linearGradient id="paint35_linear_1_46" x1="244.237" y1="0.662598" x2="244.237" y2="416.372" gradientUnits="userSpaceOnUse">
<stop stop-color="#CCCFD5"/>
<stop offset="1" stop-color="#CCCFD5" stop-opacity="0"/>
</linearGradient>
<linearGradient id="paint36_linear_1_46" x1="232.891" y1="0.573914" x2="232.891" y2="455.758" gradientUnits="userSpaceOnUse">
<stop stop-color="#CCCFD5"/>
<stop offset="1" stop-color="#CCCFD5" stop-opacity="0"/>
</linearGradient>
<linearGradient id="paint37_linear_1_46" x1="244.226" y1="0.662598" x2="244.226" y2="519.71" gradientUnits="userSpaceOnUse">
<stop stop-color="#CCCFD5"/>
<stop offset="1" stop-color="#CCCFD5" stop-opacity="0"/>
</linearGradient>
<linearGradient id="paint38_linear_1_46" x1="277.041" y1="0.817719" x2="277.041" y2="580.926" gradientUnits="userSpaceOnUse">
<stop stop-color="#CCCFD5"/>
<stop offset="1" stop-color="#CCCFD5" stop-opacity="0"/>
</linearGradient>
<linearGradient id="paint39_linear_1_46" x1="328.073" y1="1.08398" x2="328.073" y2="629.41" gradientUnits="userSpaceOnUse">
<stop stop-color="#CCCFD5"/>
<stop offset="1" stop-color="#CCCFD5" stop-opacity="0"/>
</linearGradient>
<linearGradient id="paint40_linear_1_46" x1="392.405" y1="1.32779" x2="392.405" y2="660.329" gradientUnits="userSpaceOnUse">
<stop stop-color="#CCCFD5"/>
<stop offset="1" stop-color="#CCCFD5" stop-opacity="0"/>
</linearGradient>
</defs>
</svg>
