<svg width="1363" height="1070" viewBox="0 0 1363 1070" fill="none" xmlns="http://www.w3.org/2000/svg">
<ellipse rx="656.081" ry="219.988" transform="matrix(-0.837043 0.547136 0.60004 0.79997 681.171 535.05)" stroke="#CCCFD5" stroke-width="4" stroke-linecap="round" stroke-dasharray="0.5 15"/>
<ellipse rx="22.6446" ry="32.0889" transform="matrix(-0.831769 -0.555122 -0.610946 0.791673 1141.44 432.974)" fill="#0045FF"/>
<path d="M112.5 798L120.619 814.736L135.713 802.946L135.249 821.313L154.328 816.804L145.374 833.164L164.659 836.83L148.987 847.943L164.659 859.056L145.374 862.722L154.328 879.082L135.249 874.573L135.713 892.94L120.619 881.15L112.5 897.886L104.381 881.15L89.2872 892.94L89.7507 874.573L70.672 879.082L79.6264 862.722L60.3414 859.056L76.013 847.943L60.3414 836.83L79.6264 833.164L70.672 816.804L89.7507 821.313L89.2872 802.946L104.381 814.736L112.5 798Z" fill="#E48038"/>
</svg>
