<svg width="1351" height="643" viewBox="0 0 1351 643" fill="none" xmlns="http://www.w3.org/2000/svg">
<mask id="path-1-inside-1_6063_10133" fill="white">
<path fill-rule="evenodd" clip-rule="evenodd" d="M734.705 350C734.655 350 734.605 350 734.556 350C695.037 350 663 317.964 663 278.445C663 238.925 695.037 206.889 734.556 206.889C738.619 206.889 742.603 207.228 746.482 207.878C746.647 139.434 802.183 84 870.667 84C918.552 84 960.106 111.102 980.829 150.804C989.884 148.159 999.462 146.741 1009.37 146.741C1065.5 146.741 1111 192.242 1111 248.371C1111 304.499 1065.5 350 1009.37 350C1009.28 350 1009.19 350 1009.11 350H734.705Z"/>
</mask>
<path fill-rule="evenodd" clip-rule="evenodd" d="M734.705 350C734.655 350 734.605 350 734.556 350C695.037 350 663 317.964 663 278.445C663 238.925 695.037 206.889 734.556 206.889C738.619 206.889 742.603 207.228 746.482 207.878C746.647 139.434 802.183 84 870.667 84C918.552 84 960.106 111.102 980.829 150.804C989.884 148.159 999.462 146.741 1009.37 146.741C1065.5 146.741 1111 192.242 1111 248.371C1111 304.499 1065.5 350 1009.37 350C1009.28 350 1009.19 350 1009.11 350H734.705Z" fill="white"/>
<path d="M734.705 350V349H734.703L734.705 350ZM746.482 207.878L746.316 208.865L747.479 209.06L747.482 207.881L746.482 207.878ZM980.829 150.804L979.942 151.266L980.322 151.994L981.109 151.764L980.829 150.804ZM1009.11 350L1009.11 349H1009.11V350ZM734.703 349C734.654 349 734.605 349 734.556 349V351C734.606 351 734.657 351 734.707 351L734.703 349ZM734.556 349C695.589 349 664 317.411 664 278.445H662C662 318.516 694.484 351 734.556 351V349ZM664 278.445C664 239.478 695.589 207.889 734.556 207.889V205.889C694.484 205.889 662 238.373 662 278.445H664ZM734.556 207.889C738.563 207.889 742.492 208.223 746.316 208.865L746.647 206.892C742.714 206.232 738.675 205.889 734.556 205.889V207.889ZM747.482 207.881C747.646 139.987 802.735 85 870.667 85V83C801.632 83 745.649 138.88 745.482 207.876L747.482 207.881ZM870.667 85C918.165 85 959.385 111.882 979.942 151.266L981.715 150.341C960.827 110.322 918.939 83 870.667 83V85ZM981.109 151.764C990.074 149.145 999.557 147.741 1009.37 147.741V145.741C999.366 145.741 989.693 147.173 980.548 149.844L981.109 151.764ZM1009.37 147.741C1064.95 147.741 1110 192.794 1110 248.371H1112C1112 191.69 1066.05 145.741 1009.37 145.741V147.741ZM1110 248.371C1110 303.947 1064.95 349 1009.37 349V351C1066.05 351 1112 305.051 1112 248.371H1110ZM1009.37 349C1009.28 349 1009.2 349 1009.11 349L1009.1 351C1009.19 351 1009.28 351 1009.37 351V349ZM1009.11 349H734.705V351H1009.11V349Z" fill="#717783" mask="url(#path-1-inside-1_6063_10133)"/>
<rect x="870.5" y="365.5" width="64" height="35" rx="17.5" fill="white" stroke="#717783"/>
<path d="M980.195 461.795C1007.71 541.958 1094.4 566.049 1131.81 569V523.757L1184.01 511.535C1190.34 510.053 1194.82 504.406 1194.82 497.904V430.322H1239.01C1243.01 430.322 1245.89 426.507 1244.78 422.668C1234.56 387.381 1216.17 323.356 1209.59 298.528C1200.73 265.088 1166.98 163.338 1056 178.537C933.922 195.256 932.81 309.719 940.814 340.82C949.674 375.244 956.565 392.947 980.195 461.795Z" fill="#000F2E" stroke="#000F2E"/>
<path d="M1170.46 136.753L1171.42 136.933L1218.1 26.344L1178.1 139.519L1178.93 140.033L1262.41 53.7749L1184.22 144.856L1184.81 145.635L1293.81 95.3576L1188 152.043L1188.27 152.983L1308.07 145.476L1188.93 160.111L1188.84 161.084L1303.26 197.361L1186.88 167.969L1186.44 168.843L1280.03 244.006L1182.13 174.556L1181.41 175.214L1241.53 279.111L1175.32 178.982L1174.42 179.405L1192.89 239.467L1167.34 180.558L1166.88 179.5L1166.42 180.558L1140.87 239.467L1159.34 179.405L1158.45 178.982L1092.24 279.111L1152.36 175.214L1151.64 174.556L1053.73 244.006L1147.33 168.843L1146.89 167.969L1030.51 197.361L1144.93 161.084L1144.84 160.111L1025.7 145.476L1145.5 152.983L1145.77 152.043L1039.96 95.3576L1148.96 145.635L1149.55 144.856L1071.36 53.7749L1154.84 140.033L1155.67 139.519L1115.66 26.3438L1162.34 136.933L1163.3 136.753L1166.88 16.7688L1170.46 136.753Z" stroke="#717783"/>
<path d="M1196.94 243.88C1196.88 246.365 1196.08 249.954 1194.52 252.901C1192.95 255.874 1190.73 257.964 1187.94 257.964H1145.93C1143.55 257.964 1141.33 255.899 1139.64 252.885C1137.97 249.92 1136.98 246.335 1136.92 243.88C1136.66 233.193 1134.09 225.557 1130.36 219.362C1126.94 213.696 1122.57 209.258 1118.21 204.84C1117.83 204.447 1117.44 204.055 1117.05 203.663C1112.31 198.828 1107.66 193.866 1104.19 187.126C1100.72 180.398 1098.4 171.853 1098.4 159.85C1098.4 121.999 1129.08 91.3148 1166.93 91.3148C1204.79 91.3148 1235.47 121.999 1235.47 159.85C1235.47 171.853 1233.15 180.398 1229.68 187.126C1226.21 193.866 1221.56 198.828 1216.81 203.663C1216.43 204.055 1216.04 204.447 1215.65 204.839C1211.3 209.258 1206.92 213.696 1203.51 219.362C1199.78 225.557 1197.21 233.193 1196.94 243.88Z" fill="#FCF089" stroke="#717783" stroke-width="1.5" stroke-miterlimit="2.6131" stroke-linecap="round" stroke-linejoin="round"/>
<path fill-rule="evenodd" clip-rule="evenodd" d="M1160.46 197.572V189.168C1160.46 183.863 1156.27 179.563 1151.11 179.563C1145.95 179.563 1141.76 183.863 1141.76 189.168C1141.76 194.473 1145.95 198.773 1151.11 198.773H1159.29V257.812H1160.46V198.773H1173.31V257.812H1174.48V198.773H1182.66C1187.82 198.773 1192 194.473 1192 189.168C1192 183.863 1187.82 179.563 1182.66 179.563C1177.49 179.563 1173.31 183.863 1173.31 189.168V197.572H1160.46ZM1159.29 189.168V197.572H1151.11C1146.59 197.572 1142.93 193.809 1142.93 189.168C1142.93 184.526 1146.59 180.763 1151.11 180.763C1155.63 180.763 1159.29 184.526 1159.29 189.168ZM1174.48 189.168V197.572H1182.66C1187.17 197.572 1190.84 193.809 1190.84 189.168C1190.84 184.526 1187.17 180.763 1182.66 180.763C1178.14 180.763 1174.48 184.526 1174.48 189.168Z" fill="#717783"/>
<path d="M1192.24 275.289H1141.63" stroke="#717783" stroke-width="1.5" stroke-miterlimit="2.6131" stroke-linecap="round" stroke-linejoin="round"/>
<path d="M1192.24 289.144H1141.63" stroke="#717783" stroke-width="1.5" stroke-miterlimit="2.6131" stroke-linejoin="round"/>
<path d="M1186.18 303H1147.68" stroke="#717783" stroke-width="1.5" stroke-miterlimit="2.6131" stroke-linecap="round" stroke-linejoin="round"/>
<path d="M-92 595.713C27.2216 586.25 316.354 569.122 519.112 576.324C721.869 583.526 913.593 622.951 984.111 641.763" stroke="#CCCFD5"/>
<circle cx="958" cy="621" r="18.5" stroke="#717783"/>
<path d="M1236.33 431.5C1297.23 506.96 1329.55 566.001 1314.27 581.276C1291.21 604.342 1168.34 518.871 1039.84 390.371C911.34 261.872 825.87 139.003 848.936 115.937C864.298 100.575 923.924 133.353 1000 194.92" stroke="#CCCFD5" stroke-width="2" stroke-linecap="round" stroke-dasharray="2 10"/>
<rect x="913.5" y="412.5" width="36" height="23" rx="11.5" fill="white" stroke="#717783"/>
<path d="M846.631 502.602L846.61 415.669C846.609 410.27 840.755 406.905 836.09 409.62L761.146 453.23C755.439 456.551 757.081 465.201 763.607 466.2L803.921 472.371C805.649 472.635 807.215 473.537 808.312 474.898L834.181 506.996C838.325 512.139 846.633 509.207 846.631 502.602Z" fill="black" stroke="black" stroke-width="2"/>
<line x1="760.5" y1="431.555" x2="707.5" y2="431.555" stroke="#CCCFD5" stroke-width="3" stroke-linecap="round"/>
<line x1="772.5" y1="431.555" x2="768.5" y2="431.555" stroke="#CCCFD5" stroke-width="3" stroke-linecap="round"/>
<line x1="744.5" y1="461.555" x2="657.5" y2="461.555" stroke="#CCCFD5" stroke-width="3" stroke-linecap="round"/>
<line x1="768.5" y1="489.555" x2="725.5" y2="489.555" stroke="#CCCFD5" stroke-width="3" stroke-linecap="round"/>
<line x1="710.5" y1="489.555" x2="703.5" y2="489.555" stroke="#CCCFD5" stroke-width="3" stroke-linecap="round"/>
</svg>
