<svg width="83" height="82" viewBox="0 0 83 82" fill="none" xmlns="http://www.w3.org/2000/svg">
<path d="M19.5 29.0821L22.5796 24.3407L22.7847 24.0248L23.145 24.1349L28.5518 25.7875L27.8632 20.1759L27.8173 19.802L28.164 19.6548L33.3681 17.4453L29.2336 13.5892L28.9581 13.3323L29.1291 12.9966L31.6954 7.95897L26.0495 7.66268L25.6733 7.64293L25.5885 7.27588L24.3163 1.76719L19.8009 5.16934L19.5 5.39603L19.1991 5.16934L14.6837 1.76719L13.4115 7.27588L13.3267 7.64293L12.9505 7.66268L7.30458 7.95897L9.87094 12.9966L10.0419 13.3323L9.76644 13.5892L5.63188 17.4453L10.836 19.6548L11.1827 19.802L11.1368 20.1759L10.4482 25.7875L15.855 24.1349L16.2153 24.0248L16.4205 24.3407L19.5 29.0821Z" stroke="#CCCFD5"/>
<rect x="1" y="33.5" width="25" height="25" rx="12.5" fill="white"/>
<path d="M19.2956 52.3353C18.9537 51.3785 18.2004 50.533 17.1526 49.9299C16.1047 49.3269 14.8208 49 13.5 49C12.1792 49 10.8953 49.3269 9.84743 49.9299C8.79957 50.533 8.0463 51.3785 7.70445 52.3353" stroke="#CCCFD5" stroke-linecap="round"/>
<circle cx="13.5" cy="43" r="3" stroke="#CCCFD5" stroke-linecap="round"/>
<rect x="1" y="33.5" width="25" height="25" rx="12.5" stroke="#717783"/>
<rect x="57" y="0.5" width="25" height="25" rx="12.5" fill="white"/>
<path d="M75.2956 19.3353C74.9537 18.3785 74.2004 17.533 73.1526 16.9299C72.1047 16.3269 70.8208 16 69.5 16C68.1792 16 66.8953 16.3269 65.8474 16.9299C64.7996 17.533 64.0463 18.3785 63.7044 19.3353" stroke="#CCCFD5" stroke-linecap="round"/>
<circle cx="69.5" cy="10" r="3" stroke="#CCCFD5" stroke-linecap="round"/>
<rect x="57" y="0.5" width="25" height="25" rx="12.5" stroke="#717783"/>
<rect x="17" y="6.5" width="49" height="49" rx="24.5" fill="white"/>
<path d="M55.6021 45.561C56.1918 45.4382 56.5424 44.8236 56.2854 44.2789C55.2607 42.1076 53.4625 40.1986 51.0879 38.7814C48.3373 37.1398 44.9671 36.25 41.5 36.25C38.0328 36.25 34.6626 37.1398 31.912 38.7814C29.5374 40.1986 27.7392 42.1076 26.7145 44.2789C26.4575 44.8235 26.8081 45.4382 27.3978 45.561L33.3391 46.7992C38.7218 47.921 44.2781 47.921 49.6608 46.7992L55.6021 45.561Z" fill="black"/>
<circle cx="41.5" cy="24" r="8.75" fill="black"/>
<rect x="17" y="6.5" width="49" height="49" rx="24.5" stroke="#717783"/>
<path d="M59.5 82L62.9905 74.2927L69.4793 79.7223L69.2801 71.2638L77.4821 73.3403L73.6326 65.8059L81.9233 64.118L75.186 59L81.9233 53.882L73.6326 52.1941L77.4821 44.6597L69.2801 46.7362L69.4793 38.2777L62.9905 43.7073L59.5 36L56.0095 43.7073L49.5207 38.2777L49.7199 46.7362L41.5179 44.6597L45.3674 52.1941L37.0767 53.882L43.814 59L37.0767 64.118L45.3674 65.8059L41.5179 73.3403L49.7199 71.2638L49.5207 79.7223L56.0095 74.2927L59.5 82Z" fill="#E48038"/>
</svg>
