<svg width="84" height="82" viewBox="0 0 84 82" fill="none" xmlns="http://www.w3.org/2000/svg">
<path d="M18.7594 10.342L19.2569 10.2923V10.2923L18.7594 10.342ZM18.3748 8.86577L18.0267 9.22463L18.0267 9.22463L18.3748 8.86577ZM19.502 12.9132L19.7165 12.4615L19.7165 12.4615L19.502 12.9132ZM19.5959 12.9521L19.7635 12.481L19.7635 12.481L19.5959 12.9521ZM21.9391 11.6591L22.2557 12.0461L22.2557 12.0461L21.9391 11.6591ZM23.2548 10.8872L23.2624 10.3872L23.2624 10.3872L23.2548 10.8872ZM23.3241 10.8906L23.2819 11.3888L23.2819 11.3888L23.3241 10.8906ZM24.5565 11.7897L24.9101 11.4361L24.5565 11.7897ZM25.7106 12.9437L26.0642 12.5902L25.7106 12.9437ZM26.6097 14.1762L26.1115 14.2184V14.2184L26.6097 14.1762ZM26.6131 14.2454L26.1132 14.253V14.253L26.6131 14.2454ZM25.8411 15.5612L26.2281 15.8778V15.8778L25.8411 15.5612ZM24.5482 17.9044L25.0193 17.7368L25.0192 17.7368L24.5482 17.9044ZM24.5871 17.9983L24.1355 18.2129L24.1355 18.2129L24.5871 17.9983ZM27.1583 18.741L27.1085 19.2385L27.1583 18.741ZM28.6346 19.1255L28.2757 19.4737L28.2757 19.4737L28.6346 19.1255ZM28.6811 19.1769L29.0632 18.8545L29.0632 18.8545L28.6811 19.1769ZM28.6812 23.8233L29.0634 24.1457V24.1457L28.6812 23.8233ZM28.6345 23.8749L28.2757 23.5267L28.2757 23.5267L28.6345 23.8749ZM27.1584 24.2593L27.1086 23.7618L27.1584 24.2593ZM24.5877 25.0017L25.0392 25.2164L25.0392 25.2164L24.5877 25.0017ZM24.5486 25.0961L24.0775 24.9286L24.0775 24.9286L24.5486 25.0961ZM25.8413 27.4387L25.4544 27.7553V27.7553L25.8413 27.4387ZM26.6132 28.7541L26.1132 28.7467V28.7467L26.6132 28.7541ZM26.6097 28.8238L27.1079 28.8661L27.1079 28.8661L26.6097 28.8238ZM24.5566 31.2101L24.203 30.8565V30.8565L24.5566 31.2101ZM23.3242 32.1091L23.3664 32.6074H23.3664L23.3242 32.1091ZM23.2549 32.1126L23.2473 31.6126H23.2473L23.2549 32.1126ZM21.9391 31.3406L22.2558 30.9536H22.2558L21.9391 31.3406ZM19.596 30.0477L19.4284 29.5766H19.4284L19.596 30.0477ZM19.502 30.0866L19.2874 29.635L19.2874 29.635L19.502 30.0866ZM18.7594 32.658L19.2569 32.7077L18.7594 32.658ZM18.3747 34.1347L18.0266 33.7757H18.0266L18.3747 34.1347ZM18.3235 34.181L18.646 34.5631L18.646 34.5631L18.3235 34.181ZM13.6769 34.1811L13.9994 33.799L13.9994 33.799L13.6769 34.1811ZM13.6255 34.1346L13.9737 33.7757L13.9737 33.7757L13.6255 34.1346ZM13.241 32.6583L12.7435 32.708V32.708L13.241 32.6583ZM12.4983 30.0871L12.7129 29.6355L12.7129 29.6355L12.4983 30.0871ZM12.4044 30.0482L12.2368 30.5193L12.2368 30.5193L12.4044 30.0482ZM10.0612 31.3412L9.74456 30.9542H9.74456L10.0612 31.3412ZM8.74536 32.1132L8.73777 32.6131H8.73777L8.74536 32.1132ZM8.67612 32.1097L8.71833 31.6115L8.71833 31.6115L8.67612 32.1097ZM7.44366 31.2106L7.0901 31.5642L7.44366 31.2106ZM6.28963 30.0566L5.93608 30.4102L6.28963 30.0566ZM5.39055 28.8242L4.89234 28.8664H4.89234L5.39055 28.8242ZM5.3871 28.7549L4.88716 28.7625V28.7625L5.3871 28.7549ZM6.15909 27.4391L6.54607 27.7557L6.15909 27.4391ZM7.45207 25.0959L6.981 25.2635L6.981 25.2635L7.45207 25.0959ZM7.41315 25.002L7.86477 24.7874H7.86477L7.41315 25.002ZM4.84201 24.2593L4.79226 24.7569H4.79226L4.84201 24.2593ZM3.36577 23.8748L3.0069 24.223L3.0069 24.223L3.36577 23.8748ZM3.31921 23.8234L2.93707 24.1458L2.93707 24.1458L3.31921 23.8234ZM3.3193 19.1768L3.7014 19.4993L3.7014 19.4993L3.3193 19.1768ZM3.36568 19.1256L3.72459 19.4737H3.72459L3.36568 19.1256ZM4.84217 18.741L4.89192 19.2385L4.84217 18.741ZM7.41372 17.9981L7.86537 18.2126L7.41372 17.9981ZM7.45249 17.9045L6.98145 17.7368L6.98145 17.7368L7.45249 17.9045ZM6.15932 15.5608L6.5463 15.2442L6.5305 15.2249L6.51287 15.2073L6.15932 15.5608ZM6.15931 15.5608L5.77234 15.8775L5.78813 15.8968L5.80576 15.9144L6.15931 15.5608ZM5.38716 14.2447L5.88711 14.2523V14.2523L5.38716 14.2447ZM5.3906 14.1758L5.88882 14.2179L5.88882 14.2179L5.3906 14.1758ZM6.28985 12.943L5.93629 12.5894L6.28985 12.943ZM7.44372 11.7891L7.79727 12.1427V12.1427L7.44372 11.7891ZM8.67618 10.89L8.63398 10.3918V10.3918L8.67618 10.89ZM8.74542 10.8866L8.753 11.3865H8.753L8.74542 10.8866ZM10.0613 11.6586L10.3868 11.2789L10.378 11.2717L10.0613 11.6586ZM10.0613 11.6587L9.73586 12.0384L9.74472 12.0456L10.0613 11.6587ZM12.4043 12.9516L12.2368 12.4805L12.2368 12.4805L12.4043 12.9516ZM12.4986 12.9126L12.2839 12.461L12.2839 12.461L12.4986 12.9126ZM13.241 10.3418L13.7385 10.3916V10.3916L13.241 10.3418ZM13.6254 8.86586L13.2772 8.50704L13.2772 8.50704L13.6254 8.86586ZM13.677 8.81913L13.3547 8.43694L13.3546 8.43695L13.677 8.81913ZM18.3234 8.81921L18.6458 8.43708L18.6458 8.43707L18.3234 8.81921ZM19.2569 10.2923C19.2174 9.89765 19.1841 9.55617 19.1227 9.28379C19.0583 8.9987 18.9509 8.72801 18.723 8.5069L18.0267 9.22463C18.0611 9.25804 18.1053 9.31824 18.1472 9.50402C18.192 9.70251 18.2198 9.9719 18.2618 10.3918L19.2569 10.2923ZM19.7165 12.4615C19.6711 12.44 19.5756 12.3765 19.4834 12C19.3913 11.6242 19.3361 11.0846 19.2569 10.2923L18.2618 10.3918C18.3379 11.152 18.3991 11.7769 18.5121 12.238C18.6249 12.6984 18.8231 13.1441 19.2874 13.3648L19.7165 12.4615ZM19.7635 12.481C19.7475 12.4753 19.7319 12.4688 19.7165 12.4615L19.2874 13.3648C19.3333 13.3866 19.3804 13.4061 19.4283 13.4232L19.7635 12.481ZM21.6225 11.2721C21.0062 11.7764 20.5856 12.1189 20.2548 12.3195C19.9233 12.5205 19.8109 12.4979 19.7635 12.481L19.4283 13.4232C19.9126 13.5955 20.368 13.4204 20.7733 13.1746C21.1792 12.9285 21.6644 12.5299 22.2557 12.0461L21.6225 11.2721ZM23.2624 10.3872C22.9449 10.3824 22.6776 10.4979 22.4305 10.654C22.1944 10.8031 21.9294 11.021 21.6225 11.2721L22.2557 12.0461C22.5823 11.7789 22.7924 11.6081 22.9645 11.4994C23.1255 11.3977 23.1993 11.3864 23.2473 11.3871L23.2624 10.3872ZM23.3664 10.3924C23.3318 10.3895 23.2971 10.3877 23.2624 10.3872L23.2473 11.3871C23.2588 11.3873 23.2704 11.3879 23.2819 11.3888L23.3664 10.3924ZM24.9101 11.4361C24.6297 11.1557 24.3877 10.9125 24.1676 10.7406C23.9373 10.5607 23.6828 10.4192 23.3664 10.3924L23.2819 11.3888C23.3297 11.3929 23.402 11.4115 23.5521 11.5287C23.7125 11.654 23.9046 11.8449 24.203 12.1432L24.9101 11.4361ZM26.0642 12.5902L24.9101 11.4361L24.203 12.1432L25.357 13.2973L26.0642 12.5902ZM27.1079 14.1339C27.0811 13.8175 26.9396 13.563 26.7597 13.3327C26.5878 13.1126 26.3446 12.8706 26.0642 12.5902L25.357 13.2973C25.6554 13.5957 25.8463 13.7878 25.9715 13.9482C26.0888 14.0983 26.1074 14.1706 26.1115 14.2184L27.1079 14.1339ZM27.1131 14.2379C27.1125 14.2032 27.1108 14.1685 27.1079 14.1339L26.1115 14.2184C26.1124 14.2299 26.113 14.2414 26.1132 14.253L27.1131 14.2379ZM26.2281 15.8778C26.4793 15.5709 26.6972 15.3059 26.8463 15.0698C27.0024 14.8227 27.1179 14.5554 27.1131 14.2379L26.1132 14.253C26.1139 14.301 26.1026 14.3748 26.0009 14.5358C25.8922 14.7078 25.7214 14.918 25.4542 15.2446L26.2281 15.8778ZM25.0192 17.7368C25.0024 17.6894 24.9797 17.577 25.1807 17.2456C25.3813 16.9147 25.7239 16.4942 26.2281 15.8778L25.4542 15.2446C24.9703 15.8359 24.5718 16.3212 24.3256 16.7271C24.0799 17.1324 23.9048 17.5877 24.0771 18.072L25.0192 17.7368ZM25.0387 17.7838C25.0314 17.7685 25.0249 17.7528 25.0193 17.7368L24.0771 18.072C24.0942 18.12 24.1136 18.167 24.1355 18.2129L25.0387 17.7838ZM27.208 18.2435C26.4156 18.1642 25.8761 18.109 25.5002 18.0169C25.1237 17.9247 25.0603 17.8292 25.0387 17.7838L24.1355 18.2129C24.3561 18.6773 24.8019 18.8754 25.2623 18.9882C25.7233 19.1012 26.3482 19.1625 27.1085 19.2385L27.208 18.2435ZM28.9934 18.7774C28.7723 18.5494 28.5016 18.442 28.2165 18.3777C27.9441 18.3162 27.6027 18.2829 27.208 18.2435L27.1085 19.2385C27.5284 19.2805 27.7978 19.3083 27.9963 19.3531C28.1821 19.3951 28.2423 19.4392 28.2757 19.4737L28.9934 18.7774ZM29.0632 18.8545C29.0409 18.828 29.0176 18.8023 28.9934 18.7774L28.2757 19.4737C28.2837 19.482 28.2915 19.4905 28.299 19.4994L29.0632 18.8545ZM29.4168 20.6841C29.4168 20.2875 29.4177 19.9444 29.3836 19.6673C29.3479 19.3772 29.268 19.0972 29.0632 18.8545L28.299 19.4994C28.3299 19.536 28.3678 19.6003 28.3911 19.7894C28.4159 19.9913 28.4168 20.2622 28.4168 20.6841H29.4168ZM29.4168 22.3163V20.6841H28.4168V22.3163H29.4168ZM29.0634 24.1457C29.2681 23.903 29.348 23.623 29.3836 23.333C29.4177 23.0559 29.4168 22.7129 29.4168 22.3163H28.4168C28.4168 22.7382 28.4159 23.009 28.3911 23.2109C28.3679 23.4 28.3299 23.4642 28.299 23.5009L29.0634 24.1457ZM28.9933 24.2231C29.0176 24.1981 29.0409 24.1723 29.0634 24.1457L28.299 23.5009C28.2915 23.5098 28.2837 23.5184 28.2757 23.5267L28.9933 24.2231ZM27.2081 24.7569C27.6027 24.7174 27.9442 24.6841 28.2165 24.6227C28.5015 24.5583 28.7722 24.451 28.9933 24.2231L28.2757 23.5267C28.2422 23.5611 28.1821 23.6053 27.9963 23.6472C27.7978 23.692 27.5285 23.7198 27.1086 23.7618L27.2081 24.7569ZM25.0392 25.2164C25.0608 25.171 25.1243 25.0755 25.5007 24.9833C25.8765 24.8912 26.4159 24.8361 27.2081 24.7569L27.1086 23.7618C26.3485 23.8378 25.7238 23.8991 25.2628 24.012C24.8025 24.1248 24.3568 24.3229 24.1361 24.787L25.0392 25.2164ZM25.0197 25.2636C25.0254 25.2475 25.0319 25.2318 25.0392 25.2164L24.1361 24.787C24.1142 24.8332 24.0946 24.8804 24.0775 24.9286L25.0197 25.2636ZM26.2283 27.1221C25.7242 26.5059 25.3818 26.0855 25.1812 25.7547C24.9802 25.4234 25.0029 25.3109 25.0197 25.2636L24.0775 24.9286C23.9053 25.4129 24.0804 25.8681 24.3261 26.2733C24.5722 26.6791 24.9707 27.1641 25.4544 27.7553L26.2283 27.1221ZM27.1131 28.7616C27.1179 28.4442 27.0024 28.1769 26.8464 27.9299C26.6973 27.6939 26.4794 27.429 26.2283 27.1221L25.4544 27.7553C25.7215 28.0818 25.8923 28.2919 26.0009 28.4639C26.1026 28.6249 26.114 28.6987 26.1132 28.7467L27.1131 28.7616ZM27.1079 28.8661C27.1109 28.8313 27.1126 28.7965 27.1131 28.7616L26.1132 28.7467C26.1131 28.7583 26.1125 28.7699 26.1115 28.7815L27.1079 28.8661ZM26.0644 30.4094C26.3447 30.1291 26.5879 29.8871 26.7597 29.6671C26.9396 29.4368 27.0811 29.1824 27.1079 28.8661L26.1115 28.7815C26.1074 28.8293 26.0888 28.9015 25.9716 29.0516C25.8464 29.2119 25.6556 29.404 25.3573 29.7023L26.0644 30.4094ZM24.9102 31.5636L26.0644 30.4094L25.3573 29.7023L24.203 30.8565L24.9102 31.5636ZM23.3664 32.6074C23.6828 32.5805 23.9373 32.439 24.1677 32.2592C24.3878 32.0873 24.6297 31.8441 24.9102 31.5636L24.203 30.8565C23.9047 31.1549 23.7126 31.3458 23.5522 31.471C23.4021 31.5882 23.3298 31.6069 23.282 31.6109L23.3664 32.6074ZM23.2624 32.6125C23.2972 32.612 23.3318 32.6103 23.3664 32.6074L23.282 31.6109C23.2704 31.6119 23.2589 31.6125 23.2473 31.6126L23.2624 32.6125ZM21.6225 31.7276C21.9295 31.9787 22.1944 32.1967 22.4305 32.3458C22.6776 32.5019 22.945 32.6173 23.2625 32.6125L23.2473 31.6126C23.1993 31.6134 23.1256 31.602 22.9645 31.5003C22.7925 31.3917 22.5823 31.2209 22.2558 30.9536L21.6225 31.7276ZM19.7636 30.5187C19.8109 30.5019 19.9234 30.4792 20.2548 30.6802C20.5857 30.8808 21.0062 31.2234 21.6225 31.7276L22.2558 30.9536C21.6644 30.4698 21.1792 30.0713 20.7733 29.8251C20.368 29.5794 19.9127 29.4043 19.4284 29.5766L19.7636 30.5187ZM19.7166 30.5382C19.7319 30.5309 19.7476 30.5244 19.7636 30.5187L19.4284 29.5766C19.3804 29.5937 19.3334 29.6131 19.2874 29.635L19.7166 30.5382ZM19.2569 32.7077C19.3361 31.9153 19.3913 31.3757 19.4834 30.9998C19.5757 30.6232 19.6712 30.5598 19.7166 30.5382L19.2874 29.635C18.8231 29.8556 18.625 30.3014 18.5122 30.7618C18.3992 31.2229 18.3379 31.8479 18.2619 32.6082L19.2569 32.7077ZM18.7228 34.4936C18.9508 34.2725 19.0583 34.0017 19.1226 33.7165C19.1842 33.4441 19.2174 33.1025 19.2569 32.7077L18.2619 32.6082C18.2199 33.0282 18.192 33.2977 18.1472 33.4963C18.1052 33.6821 18.0611 33.7423 18.0266 33.7757L18.7228 34.4936ZM18.646 34.5631C18.6724 34.5408 18.698 34.5176 18.7228 34.4936L18.0266 33.7757C18.0184 33.7838 18.0098 33.7915 18.001 33.7989L18.646 34.5631ZM16.816 34.9168C17.2127 34.9168 17.5559 34.9177 17.8331 34.8836C18.1232 34.8479 18.4033 34.768 18.646 34.5631L18.001 33.7989C17.9643 33.8299 17.9 33.8678 17.711 33.8911C17.509 33.9159 17.2381 33.9168 16.816 33.9168V34.9168ZM15.1841 34.9168H16.816V33.9168H15.1841V34.9168ZM13.3545 34.5632C13.5972 34.768 13.8772 34.8479 14.1673 34.8836C14.4444 34.9177 14.7875 34.9168 15.1841 34.9168V33.9168C14.7622 33.9168 14.4913 33.9159 14.2894 33.8911C14.1003 33.8678 14.036 33.8299 13.9994 33.799L13.3545 34.5632ZM13.2774 34.4934C13.3022 34.5176 13.328 34.5409 13.3545 34.5632L13.9994 33.799C13.9905 33.7915 13.982 33.7838 13.9737 33.7757L13.2774 34.4934ZM12.7435 32.708C12.7829 33.1027 12.8162 33.4442 12.8777 33.7165C12.942 34.0016 13.0494 34.2723 13.2774 34.4934L13.9737 33.7757C13.9392 33.7423 13.8951 33.6821 13.8531 33.4963C13.8083 33.2978 13.7805 33.0284 13.7385 32.6085L12.7435 32.708ZM12.2838 30.5387C12.3292 30.5603 12.4247 30.6238 12.517 31.0003C12.609 31.3761 12.6642 31.9157 12.7435 32.708L13.7385 32.6085C13.6625 31.8482 13.6012 31.2233 13.4882 30.7623C13.3754 30.3019 13.1772 29.8561 12.7129 29.6355L12.2838 30.5387ZM12.2368 30.5193C12.2528 30.5249 12.2684 30.5314 12.2838 30.5387L12.7129 29.6355C12.667 29.6137 12.62 29.5942 12.572 29.5771L12.2368 30.5193ZM10.3778 31.7282C10.9941 31.2239 11.4147 30.8814 11.7456 30.6807C12.077 30.4797 12.1895 30.5024 12.2368 30.5193L12.5721 29.5771C12.0877 29.4048 11.6324 29.5799 11.2271 29.8257C10.8211 30.0718 10.3359 30.4704 9.74456 30.9542L10.3778 31.7282ZM8.73777 32.6131C9.05529 32.6179 9.32264 32.5025 9.56976 32.3464C9.80585 32.1973 10.0708 31.9793 10.3778 31.7282L9.74456 30.9542C9.41796 31.2214 9.20779 31.3922 9.03574 31.5009C8.8747 31.6026 8.80092 31.614 8.75294 31.6132L8.73777 32.6131ZM8.63391 32.6079C8.66849 32.6109 8.70313 32.6126 8.73777 32.6131L8.75295 31.6132C8.74137 31.6131 8.72982 31.6125 8.71833 31.6115L8.63391 32.6079ZM7.0901 31.5642C7.37054 31.8446 7.61253 32.0879 7.83261 32.2597C8.06297 32.4396 8.3175 32.5811 8.63392 32.6079L8.71833 31.6115C8.67051 31.6075 8.59822 31.5888 8.44811 31.4716C8.28772 31.3464 8.09559 31.1555 7.79721 30.8571L7.0901 31.5642ZM5.93608 30.4102L7.0901 31.5642L7.79721 30.8571L6.64318 29.7031L5.93608 30.4102ZM4.89234 28.8664C4.91914 29.1828 5.06065 29.4373 5.24054 29.6677C5.41241 29.8878 5.65564 30.1297 5.93608 30.4102L6.64318 29.7031C6.3448 29.4047 6.15393 29.2126 6.02868 29.0522C5.91145 28.9021 5.89282 28.8298 5.88877 28.782L4.89234 28.8664ZM4.88716 28.7625C4.88768 28.7972 4.88941 28.8318 4.89234 28.8664L5.88877 28.782C5.88779 28.7704 5.88722 28.7589 5.88704 28.7473L4.88716 28.7625ZM5.77211 27.1225C5.52097 27.4294 5.30302 27.6944 5.1539 27.9305C4.99782 28.1776 4.88235 28.445 4.88716 28.7625L5.88704 28.7473C5.88632 28.6994 5.89766 28.6256 5.99937 28.4645C6.10804 28.2925 6.27886 28.0823 6.54607 27.7557L5.77211 27.1225ZM6.981 25.2635C6.99785 25.3109 7.02051 25.4233 6.81952 25.7548C6.61889 26.0856 6.27638 26.5062 5.77211 27.1225L6.54607 27.7557C7.0299 27.1644 7.42846 26.6792 7.67459 26.2733C7.92036 25.868 8.09546 25.4126 7.92314 24.9283L6.981 25.2635ZM6.96154 25.2165C6.96882 25.2319 6.97531 25.2475 6.981 25.2635L7.92314 24.9283C7.90609 24.8804 7.8866 24.8333 7.86477 24.7874L6.96154 25.2165ZM4.79226 24.7569C5.58463 24.8361 6.12419 24.8913 6.5 24.9834C6.87649 25.0756 6.93997 25.1711 6.96154 25.2165L7.86477 24.7874C7.64414 24.3231 7.19836 24.1249 6.738 24.0121C6.27694 23.8991 5.65203 23.8379 4.89176 23.7618L4.79226 24.7569ZM3.0069 24.223C3.22801 24.4509 3.4987 24.5583 3.78379 24.6226C4.05617 24.6841 4.39765 24.7174 4.79226 24.7569L4.89176 23.7618C4.47189 23.7198 4.20251 23.692 4.00402 23.6472C3.81824 23.6053 3.75804 23.5611 3.72463 23.5267L3.0069 24.223ZM2.93707 24.1458C2.95945 24.1724 2.98274 24.1981 3.0069 24.223L3.72463 23.5267C3.71657 23.5184 3.70881 23.5098 3.70135 23.5009L2.93707 24.1458ZM2.5835 22.3162C2.5835 22.7128 2.58261 23.0559 2.6167 23.333C2.65238 23.6231 2.7323 23.9031 2.93707 24.1458L3.70136 23.5009C3.67041 23.4643 3.63247 23.4 3.60922 23.211C3.58438 23.009 3.5835 22.7382 3.5835 22.3162H2.5835ZM2.5835 20.6843V22.3162H3.5835V20.6843H2.5835ZM2.9372 18.8543C2.73235 19.0971 2.6524 19.3771 2.61671 19.6673C2.58261 19.9445 2.5835 20.2876 2.5835 20.6843H3.5835C3.5835 20.2622 3.58438 19.9914 3.60923 19.7894C3.63249 19.6003 3.67044 19.536 3.7014 19.4993L2.9372 18.8543ZM3.00677 18.7775C2.98269 18.8023 2.95949 18.8279 2.9372 18.8543L3.7014 19.4993C3.70883 19.4905 3.71657 19.482 3.72459 19.4737L3.00677 18.7775ZM4.79242 18.2434C4.39773 18.2829 4.05619 18.3162 3.78376 18.3777C3.49862 18.4421 3.22789 18.5495 3.00677 18.7775L3.72459 19.4737C3.758 19.4392 3.8182 19.3951 4.00401 19.3531C4.20254 19.3083 4.47197 19.2805 4.89192 19.2385L4.79242 18.2434ZM6.96207 17.7836C6.9405 17.8291 6.87703 17.9246 6.50048 18.0169C6.12461 18.109 5.58494 18.1642 4.79242 18.2434L4.89192 19.2385C5.65234 19.1624 6.27736 19.1012 6.7385 18.9882C7.19895 18.8753 7.64479 18.6771 7.86537 18.2126L6.96207 17.7836ZM6.98145 17.7368C6.97578 17.7528 6.96931 17.7684 6.96207 17.7836L7.86537 18.2126C7.88712 18.1669 7.90653 18.12 7.92353 18.0722L6.98145 17.7368ZM5.77234 15.8775C6.27672 16.4939 6.61932 16.9146 6.81998 17.2455C7.021 17.577 6.99831 17.6895 6.98145 17.7368L7.92353 18.0722C8.09598 17.5878 7.92087 17.1324 7.67506 16.727C7.42889 16.321 7.03024 15.8357 6.5463 15.2442L5.77234 15.8775ZM5.80576 15.9144L5.80576 15.9144L6.51287 15.2073L6.51287 15.2073L5.80576 15.9144ZM4.88722 14.237C4.88235 14.5546 4.99784 14.822 5.15395 15.0692C5.30311 15.3054 5.52112 15.5704 5.77234 15.8775L6.54629 15.2442C6.279 14.9175 6.10814 14.7073 5.99944 14.5352C5.89771 14.3741 5.88637 14.3003 5.88711 14.2523L4.88722 14.237ZM4.89238 14.1336C4.88947 14.168 4.88775 14.2025 4.88722 14.237L5.88711 14.2523C5.88728 14.2408 5.88785 14.2293 5.88882 14.2179L4.89238 14.1336ZM5.93629 12.5894C5.65579 12.8699 5.41249 13.112 5.24058 13.3321C5.06065 13.5625 4.91913 13.8171 4.89238 14.1336L5.88882 14.2179C5.89287 14.17 5.91149 14.0977 6.02874 13.9476C6.15402 13.7872 6.34494 13.595 6.6434 13.2965L5.93629 12.5894ZM7.09016 11.4356L5.93629 12.5894L6.6434 13.2965L7.79727 12.1427L7.09016 11.4356ZM8.63398 10.3918C8.31756 10.4186 8.06303 10.5601 7.83268 10.74C7.61259 10.9119 7.3706 11.1551 7.09016 11.4356L7.79727 12.1427C8.09566 11.8443 8.28778 11.6534 8.44817 11.5282C8.59828 11.4109 8.67057 11.3923 8.71838 11.3882L8.63398 10.3918ZM8.73784 10.3866C8.70317 10.3872 8.66853 10.3889 8.63398 10.3918L8.71838 11.3882C8.7299 11.3873 8.74145 11.3867 8.753 11.3865L8.73784 10.3866ZM10.378 11.2717C10.071 11.0205 9.80595 10.8025 9.56985 10.6534C9.32272 10.4973 9.05536 10.3818 8.73784 10.3866L8.753 11.3865C8.80097 11.3858 8.87476 11.3971 9.03582 11.4989C9.20789 11.6075 9.41809 11.7784 9.74472 12.0456L10.378 11.2717ZM10.3867 11.279L10.3867 11.279L9.73594 12.0383L9.73594 12.0383L10.3867 11.279ZM12.2368 12.4805C12.1894 12.4974 12.077 12.52 11.7456 12.319C11.4147 12.1184 10.9942 11.7759 10.378 11.2717L9.74472 12.0456C10.336 12.5294 10.8212 12.9279 11.227 13.1741C11.6323 13.4198 12.0875 13.5949 12.5718 13.4227L12.2368 12.4805ZM12.2839 12.461C12.2685 12.4683 12.2528 12.4748 12.2368 12.4805L12.5718 13.4227C12.6199 13.4056 12.6671 13.3861 12.7133 13.3641L12.2839 12.461ZM12.7435 10.2921C12.6643 11.0843 12.6091 11.6238 12.517 11.9995C12.4248 12.3759 12.3293 12.4394 12.2839 12.461L12.7133 13.3641C13.1774 13.1435 13.3755 12.6978 13.4883 12.2375C13.6012 11.7765 13.6625 11.1517 13.7385 10.3916L12.7435 10.2921ZM13.2772 8.50704C13.0494 8.72814 12.942 8.99878 12.8777 9.28382C12.8162 9.55615 12.7829 9.89756 12.7435 10.2921L13.7385 10.3916C13.7805 9.97181 13.8083 9.70248 13.8531 9.50403C13.8951 9.31827 13.9392 9.25809 13.9736 9.22468L13.2772 8.50704ZM13.3546 8.43695C13.328 8.4594 13.3022 8.48278 13.2772 8.50704L13.9736 9.22468C13.9819 9.21659 13.9906 9.2088 13.9994 9.20131L13.3546 8.43695ZM15.184 8.0835C14.7875 8.0835 14.4444 8.08261 14.1673 8.11669C13.8773 8.15235 13.5973 8.23224 13.3547 8.43694L13.9994 9.20131C14.0361 9.17038 14.1004 9.13245 14.2894 9.10921C14.4913 9.08438 14.7621 9.0835 15.184 9.0835V8.0835ZM16.8162 8.0835H15.184V9.0835H16.8162V8.0835ZM18.6458 8.43707C18.4031 8.2323 18.1231 8.15238 17.833 8.1167C17.5559 8.08261 17.2128 8.0835 16.8162 8.0835V9.0835C17.2382 9.0835 17.509 9.08438 17.711 9.10922C17.9 9.13247 17.9643 9.17041 18.001 9.20136L18.6458 8.43707ZM18.723 8.5069C18.6981 8.48274 18.6724 8.45945 18.6458 8.43708L18.0009 9.20135C18.0098 9.20881 18.0184 9.21658 18.0267 9.22463L18.723 8.5069ZM20.6668 21.5002C20.6668 24.0775 18.5775 26.1668 16.0002 26.1668V27.1668C19.1298 27.1668 21.6668 24.6298 21.6668 21.5002H20.6668ZM16.0002 16.8335C18.5775 16.8335 20.6668 18.9228 20.6668 21.5002H21.6668C21.6668 18.3705 19.1298 15.8335 16.0002 15.8335V16.8335ZM11.3335 21.5002C11.3335 18.9228 13.4228 16.8335 16.0002 16.8335V15.8335C12.8706 15.8335 10.3335 18.3705 10.3335 21.5002H11.3335ZM16.0002 26.1668C13.4228 26.1668 11.3335 24.0775 11.3335 21.5002H10.3335C10.3335 24.6298 12.8706 27.1668 16.0002 27.1668V26.1668Z" fill="#717783"/>
<path d="M23.7999 39.209L24.2934 39.2898L23.7999 39.209ZM23.8649 38.3777L23.3764 38.4841L23.3764 38.4841L23.8649 38.3777ZM23.7078 40.6922L24.1703 40.5022L24.1703 40.5022L23.7078 40.6922ZM24.5051 41.304L24.5689 40.8081L24.5689 40.8081L24.5051 41.304ZM25.9139 40.8311L26.1195 41.2869L26.1195 41.2869L25.9139 40.8311ZM26.7 40.5532L26.7237 41.0526L26.7 40.5532ZM27.369 40.7687L27.6797 40.377L27.6797 40.377L27.369 40.7687ZM27.8451 41.4532L27.4121 41.7032L27.4121 41.7032L27.8451 41.4532ZM28.4769 42.5475L28.9099 42.2975L28.9099 42.2975L28.4769 42.5475ZM28.8317 43.3021L29.3263 43.2289L29.3263 43.2289L28.8317 43.3021ZM28.6838 43.9892L29.1045 44.2594L29.1045 44.2594L28.6838 43.9892ZM28.05 44.531L27.7582 44.1251L27.7582 44.1251L28.05 44.531ZM26.9361 45.5147L26.4747 45.3221L26.4747 45.3221L26.9361 45.5147ZM27.0672 46.511L26.6714 46.8165L27.0672 46.511ZM28.3978 47.1728L28.5746 46.7051L28.3978 47.1728ZM29.1503 47.5322L29.4867 47.1623L29.4867 47.1623L29.1503 47.5322ZM29.4709 48.1576L29.9676 48.1003L29.9676 48.1003L29.4709 48.1576ZM29.3235 48.9783L28.8406 48.8489L29.3235 48.9783ZM28.9965 50.1989L29.4794 50.3283L28.9965 50.1989ZM28.7138 50.9832L28.3123 50.6853L28.3123 50.6853L28.7138 50.9832ZM28.1233 51.3646L28.2297 51.8531L28.2297 51.8531L28.1233 51.3646ZM27.2922 51.2996L27.3729 50.8061L27.3567 50.8035L27.3404 50.8019L27.2922 51.2996ZM27.2921 51.2996L27.2114 51.793L27.2276 51.7957L27.2439 51.7972L27.2921 51.2996ZM25.8094 51.2074L25.6194 50.7449L25.8094 51.2074ZM25.1975 52.0049L24.7015 51.9412L24.7015 51.9412L25.1975 52.0049ZM25.6702 53.4132L25.2144 53.6189L25.6702 53.4132ZM25.9481 54.1991L25.4486 54.2229L25.4486 54.2229L25.9481 54.1991ZM25.7325 54.8683L25.3408 54.5575L25.3408 54.5575L25.7325 54.8683ZM25.0482 55.3442L25.2982 55.7772L25.0482 55.3442ZM23.9537 55.9761L23.7037 55.5431L23.7037 55.5431L23.9537 55.9761ZM23.1991 56.3309L23.2724 56.8255L23.2724 56.8255L23.1991 56.3309ZM22.5121 56.183L22.2418 56.6037L22.2418 56.6037L22.5121 56.183ZM21.9702 55.5492L22.3762 55.2574L22.373 55.253L21.9702 55.5492ZM21.9702 55.5492L21.5642 55.8411L21.5674 55.8455L21.9702 55.5492ZM20.9866 54.4354L21.1792 53.974L21.1792 53.974L20.9866 54.4354ZM19.9903 54.5665L20.2958 54.9623L20.2958 54.9623L19.9903 54.5665ZM19.3284 55.8972L18.8607 55.7204L19.3284 55.8972ZM18.9688 56.65L18.599 56.3136L18.599 56.3136L18.9688 56.65ZM18.3437 56.9705L18.2864 56.4738L18.2864 56.4738L18.3437 56.9705ZM17.5227 56.8231L17.3933 57.3061L17.5227 56.8231ZM16.3023 56.4961L16.4317 56.0132L16.3023 56.4961ZM15.5178 56.2134L15.8158 55.8118L15.8158 55.8118L15.5178 56.2134ZM15.1366 55.6231L15.6251 55.5167L15.1366 55.6231ZM15.2016 54.7917L14.7081 54.711L15.2016 54.7917ZM15.2937 53.3084L14.8312 53.4985L14.8312 53.4985L15.2937 53.3084ZM14.4965 52.6967L14.5604 52.2008L14.5604 52.2008L14.4965 52.6967ZM13.0876 53.1696L12.8819 52.7139L12.8726 52.7181L12.8635 52.7227L13.0876 53.1696ZM13.0876 53.1696L13.2933 53.6253L13.3026 53.6211L13.3117 53.6166L13.0876 53.1696ZM12.3014 53.4476L12.3251 53.947L12.3251 53.947L12.3014 53.4476ZM11.6325 53.2321L11.3217 53.6238L11.3217 53.6238L11.6325 53.2321ZM11.1563 52.5475L11.5893 52.2975L11.5893 52.2975L11.1563 52.5475ZM10.5246 51.4533L10.0916 51.7033L10.0916 51.7033L10.5246 51.4533ZM10.1698 50.6986L10.6644 50.6253L10.1698 50.6986ZM10.3176 50.0116L10.7383 50.2818L10.3176 50.0116ZM10.9514 49.4697L11.2433 49.8757L10.9514 49.4697ZM12.0654 48.486L12.5268 48.6787L12.0654 48.486ZM11.9342 47.4897L12.33 47.1842L12.33 47.1842L11.9342 47.4897ZM10.6037 46.8279L10.4268 47.2956L10.4268 47.2956L10.6037 46.8279ZM9.85122 46.4685L10.1876 46.0986L10.1876 46.0986L9.85122 46.4685ZM9.53059 45.8432L9.03387 45.9004L9.03387 45.9004L9.53059 45.8432ZM10.2878 43.0174L9.88627 42.7194L9.88627 42.7194L10.2878 43.0174ZM10.878 42.6362L10.7716 42.1477L10.7716 42.1477L10.878 42.6362ZM11.7095 42.7012L11.8389 42.2183L11.8149 42.2118L11.7902 42.2078L11.7095 42.7012ZM11.7095 42.7012L11.8389 42.2183L11.8389 42.2183L11.7095 42.7012ZM11.7095 42.7012L11.5801 43.1842L11.6042 43.1906L11.6288 43.1947L11.7095 42.7012ZM13.1931 42.7933L13.003 42.3308L13.003 42.3308L13.1931 42.7933ZM13.8047 41.9963L14.3006 42.0602L14.3006 42.0602L13.8047 41.9963ZM13.3317 40.587L13.7875 40.3813L13.3317 40.587ZM13.0537 39.8005L13.5531 39.7768L13.5531 39.7768L13.0537 39.8005ZM13.2691 39.1318L12.8773 38.8211L12.8773 38.8211L13.2691 39.1318ZM13.9539 38.6555L14.2039 39.0885L14.2039 39.0885L13.9539 38.6555ZM15.048 38.0238L14.798 37.5908L14.798 37.5908L15.048 38.0238ZM15.048 38.0238L15.298 38.4568L15.298 38.4568L15.048 38.0238ZM15.8026 37.669L15.7294 37.1744L15.7294 37.1744L15.8026 37.669ZM16.4897 37.8168L16.7599 37.3962L16.4897 37.8168ZM17.0316 38.4508L17.4376 38.1589L17.4376 38.1589L17.0316 38.4508ZM18.0151 39.5646L18.2078 39.1032L18.0151 39.5646ZM19.0116 39.4334L18.7061 39.0376L19.0116 39.4334ZM19.6733 38.1032L20.141 38.28L20.141 38.28L19.6733 38.1032ZM20.0325 37.3509L19.6626 37.0146L19.6626 37.0146L20.0325 37.3509ZM20.6581 37.0302L20.7152 37.5269L20.7152 37.5269L20.6581 37.0302ZM23.4837 37.7874L23.7816 37.3858L23.7816 37.3858L23.4837 37.7874ZM24.2934 39.2898C24.3275 39.0812 24.3573 38.9008 24.3717 38.7495C24.3867 38.5933 24.3892 38.4354 24.3535 38.2713L23.3764 38.4841C23.3812 38.5062 23.3864 38.5489 23.3763 38.6542C23.3657 38.7646 23.3427 38.9067 23.3065 39.1283L24.2934 39.2898ZM24.1703 40.5022C24.1632 40.4849 24.1436 40.4164 24.1618 40.1995C24.1796 39.9875 24.2254 39.7051 24.2934 39.2898L23.3065 39.1283C23.2413 39.5271 23.1872 39.8554 23.1653 40.1159C23.1439 40.3715 23.1448 40.6376 23.2454 40.8823L24.1703 40.5022ZM24.5689 40.8081C24.3908 40.7851 24.2386 40.6684 24.1703 40.5022L23.2454 40.8823C23.4502 41.3808 23.9067 41.731 24.4412 41.7999L24.5689 40.8081ZM25.7082 40.3754C25.3245 40.5485 25.0637 40.6658 24.8635 40.7379C24.6587 40.8116 24.5874 40.8104 24.5689 40.8081L24.4412 41.7999C24.7036 41.8337 24.9608 41.7657 25.2022 41.6788C25.4482 41.5903 25.7513 41.4531 26.1195 41.2869L25.7082 40.3754ZM26.6763 40.0538C26.5086 40.0617 26.3567 40.105 26.2097 40.1599C26.0674 40.213 25.9008 40.2885 25.7082 40.3754L26.1195 41.2869C26.3242 41.1945 26.4556 41.1355 26.5594 41.0968C26.6586 41.0597 26.7012 41.0537 26.7237 41.0526L26.6763 40.0538ZM27.6797 40.377C27.3954 40.1514 27.0389 40.0365 26.6763 40.0538L26.7237 41.0526C26.8446 41.0469 26.9634 41.0852 27.0582 41.1604L27.6797 40.377ZM28.2781 41.2032C28.1725 41.0203 28.0812 40.8618 27.9967 40.7355C27.9093 40.6051 27.8113 40.4813 27.6797 40.377L27.0582 41.1604C27.0759 41.1744 27.107 41.2042 27.1659 41.2921C27.2276 41.3842 27.2998 41.5088 27.4121 41.7032L28.2781 41.2032ZM28.9099 42.2975L28.2781 41.2032L27.4121 41.7032L28.0438 42.7975L28.9099 42.2975ZM29.3263 43.2289C29.3016 43.0627 29.2435 42.9159 29.1742 42.7751C29.1072 42.6387 29.0155 42.4805 28.9099 42.2975L28.0438 42.7975C28.1561 42.992 28.2279 43.1168 28.2768 43.2163C28.3235 43.3113 28.3337 43.3531 28.3371 43.3754L29.3263 43.2289ZM29.1045 44.2594C29.3006 43.954 29.3794 43.5879 29.3263 43.2289L28.3371 43.3754C28.3548 43.4951 28.3285 43.6171 28.2631 43.7189L29.1045 44.2594ZM28.3418 44.937C28.5134 44.8137 28.662 44.7072 28.7792 44.6105C28.9003 44.5106 29.0137 44.4007 29.1045 44.2594L28.2631 43.7189C28.2509 43.7379 28.2244 43.7718 28.1427 43.8392C28.0573 43.9097 27.9405 43.994 27.7582 44.1251L28.3418 44.937ZM27.3975 45.7074C27.4047 45.6901 27.4393 45.6278 27.6055 45.4873C27.768 45.35 28.0001 45.1827 28.3418 44.937L27.7582 44.1251C27.4301 44.3609 27.1597 44.5548 26.96 44.7236C26.7641 44.8892 26.5766 45.0779 26.4747 45.3221L27.3975 45.7074ZM27.4631 46.2055C27.3533 46.0633 27.3283 45.8731 27.3975 45.7074L26.4747 45.3221C26.2671 45.8194 26.3422 46.3898 26.6714 46.8165L27.4631 46.2055ZM28.5746 46.7051C28.1809 46.5563 27.9135 46.4548 27.721 46.3642C27.524 46.2715 27.4745 46.2203 27.4631 46.2055L26.6714 46.8165C26.8331 47.0259 27.063 47.1597 27.2951 47.269C27.5317 47.3803 27.843 47.4976 28.221 47.6405L28.5746 46.7051ZM29.4867 47.1623C29.3625 47.0493 29.2245 46.9726 29.0817 46.9074C28.9434 46.8443 28.7723 46.7799 28.5746 46.7051L28.221 47.6405C28.4311 47.7199 28.5657 47.7711 28.6665 47.8171C28.7628 47.8611 28.7972 47.8869 28.8139 47.9021L29.4867 47.1623ZM29.9676 48.1003C29.9261 47.7398 29.7552 47.4065 29.4867 47.1623L28.8139 47.9021C28.9034 47.9835 28.9604 48.0946 28.9742 48.2148L29.9676 48.1003ZM29.8065 49.1077C29.8612 48.9037 29.9088 48.7271 29.9382 48.578C29.9686 48.424 29.9869 48.2672 29.9676 48.1003L28.9742 48.2148C28.9768 48.2373 28.9777 48.2803 28.9572 48.3841C28.9357 48.4929 28.8987 48.632 28.8406 48.8489L29.8065 49.1077ZM29.4794 50.3283L29.8065 49.1077L28.8406 48.8489L28.5135 50.0695L29.4794 50.3283ZM29.1154 51.2811C29.2154 51.1463 29.2781 51.0014 29.3287 50.8528C29.3777 50.709 29.4248 50.5324 29.4794 50.3283L28.5135 50.0695C28.4554 50.2864 28.4179 50.4254 28.3821 50.5302C28.348 50.6304 28.3257 50.6672 28.3123 50.6853L29.1154 51.2811ZM28.2297 51.8531C28.5844 51.7759 28.8991 51.5727 29.1154 51.2811L28.3123 50.6853C28.2402 50.7825 28.1353 50.8503 28.017 50.876L28.2297 51.8531ZM27.2114 51.793C27.4199 51.8271 27.6003 51.8569 27.7516 51.8714C27.9078 51.8863 28.0656 51.8888 28.2297 51.8531L28.017 50.876C27.9949 50.8808 27.9522 50.886 27.8469 50.8759C27.7366 50.8654 27.5944 50.8424 27.3729 50.8061L27.2114 51.793ZM27.2439 51.7972L27.2439 51.7972L27.3404 50.8019L27.3404 50.8019L27.2439 51.7972ZM25.9993 51.67C26.0166 51.6629 26.0851 51.6433 26.3019 51.6615C26.5139 51.6793 26.7962 51.7251 27.2114 51.793L27.3728 50.8061C26.9742 50.7409 26.646 50.6869 26.3856 50.665C26.13 50.6435 25.8641 50.6444 25.6194 50.7449L25.9993 51.67ZM25.6934 52.0687C25.7163 51.8905 25.8331 51.7382 25.9993 51.67L25.6194 50.7449C25.1207 50.9497 24.7703 51.4064 24.7015 51.9412L25.6934 52.0687ZM26.1259 53.2076C25.9528 52.8241 25.8356 52.5633 25.7635 52.3631C25.6898 52.1584 25.691 52.0872 25.6934 52.0687L24.7015 51.9412C24.6678 52.2035 24.7357 52.4606 24.8226 52.7019C24.9112 52.9478 25.0483 53.2508 25.2144 53.6189L26.1259 53.2076ZM26.4475 54.1754C26.4395 54.0077 26.3962 53.8559 26.3414 53.7089C26.2882 53.5666 26.2128 53.4001 26.1259 53.2076L25.2144 53.6189C25.3068 53.8235 25.3658 53.9548 25.4045 54.0586C25.4415 54.1578 25.4475 54.2003 25.4486 54.2229L26.4475 54.1754ZM26.1241 55.1791C26.3499 54.8947 26.4647 54.5381 26.4475 54.1754L25.4486 54.2229C25.4544 54.3438 25.4161 54.4627 25.3408 54.5575L26.1241 55.1791ZM25.2982 55.7772C25.4811 55.6716 25.6395 55.5805 25.7657 55.4959C25.896 55.4086 26.0198 55.3106 26.1242 55.1791L25.3408 54.5575C25.3268 54.5752 25.297 54.6062 25.2091 54.6651C25.1171 54.7268 24.9926 54.799 24.7982 54.9112L25.2982 55.7772ZM24.2037 56.4091L25.2982 55.7772L24.7982 54.9112L23.7037 55.5431L24.2037 56.4091ZM23.2724 56.8255C23.4385 56.8009 23.5853 56.7427 23.7262 56.6734C23.8625 56.6064 24.0208 56.5147 24.2037 56.4091L23.7037 55.5431C23.5093 55.6554 23.3844 55.7271 23.285 55.776C23.19 55.8227 23.1482 55.833 23.1258 55.8363L23.2724 56.8255ZM22.2418 56.6037C22.5472 56.7999 22.9134 56.8787 23.2724 56.8255L23.1258 55.8363C23.0062 55.854 22.8841 55.8277 22.7823 55.7624L22.2418 56.6037ZM21.5642 55.8411C21.6875 56.0126 21.7941 56.1613 21.8908 56.2785C21.9907 56.3995 22.1006 56.5129 22.2418 56.6037L22.7823 55.7624C22.7633 55.7501 22.7294 55.7236 22.6621 55.642C22.5915 55.5565 22.5073 55.4397 22.3762 55.2574L21.5642 55.8411ZM21.5674 55.8455L21.5675 55.8455L22.373 55.253L22.373 55.2529L21.5674 55.8455ZM20.7939 54.8968C20.8111 54.9039 20.8735 54.9385 21.0139 55.1048C21.1513 55.2673 21.3185 55.4993 21.5642 55.8411L22.3762 55.2574C22.1404 54.9293 21.9465 54.659 21.7777 54.4593C21.6121 54.2633 21.4234 54.0759 21.1792 53.974L20.7939 54.8968ZM20.2958 54.9623C20.438 54.8526 20.6281 54.8275 20.7939 54.8968L21.1792 53.974C20.6819 53.7663 20.1114 53.8414 19.6848 54.1707L20.2958 54.9623ZM19.7961 56.0741C19.9449 55.6803 20.0465 55.4128 20.1371 55.2203C20.2298 55.0233 20.281 54.9737 20.2958 54.9623L19.6848 54.1707C19.4753 54.3324 19.3415 54.5623 19.2323 54.7945C19.1209 55.031 19.0036 55.3424 18.8607 55.7204L19.7961 56.0741ZM19.3387 56.9864C19.4517 56.8622 19.5285 56.7241 19.5937 56.5813C19.6568 56.443 19.7213 56.2718 19.7961 56.0741L18.8607 55.7204C18.7812 55.9306 18.73 56.0652 18.684 56.1661C18.64 56.2624 18.6142 56.2969 18.599 56.3136L19.3387 56.9864ZM18.401 57.4672C18.7614 57.4257 19.0946 57.2549 19.3387 56.9864L18.599 56.3136C18.5176 56.403 18.4065 56.46 18.2864 56.4738L18.401 57.4672ZM17.3933 57.3061C17.5974 57.3608 17.774 57.4084 17.9232 57.4378C18.0772 57.4683 18.2341 57.4865 18.401 57.4672L18.2864 56.4738C18.2639 56.4764 18.2209 56.4773 18.117 56.4568C18.0083 56.4353 17.8691 56.3983 17.6521 56.3402L17.3933 57.3061ZM16.1729 56.9791L17.3933 57.3061L17.6521 56.3402L16.4317 56.0132L16.1729 56.9791ZM15.2199 56.6149C15.3548 56.715 15.4997 56.7777 15.6483 56.8283C15.7921 56.8773 15.9688 56.9244 16.1729 56.9791L16.4317 56.0132C16.2148 55.955 16.0758 55.9175 15.9709 55.8818C15.8707 55.8476 15.8339 55.8253 15.8158 55.8118L15.2199 56.6149ZM14.648 55.7294C14.7252 56.0841 14.9284 56.3987 15.2199 56.6149L15.8158 55.8118C15.7186 55.7398 15.6509 55.6349 15.6251 55.5167L14.648 55.7294ZM14.7081 54.711C14.674 54.9195 14.6443 55.1 14.6298 55.2512C14.6148 55.4075 14.6123 55.5654 14.648 55.7294L15.6251 55.5167C15.6203 55.4946 15.6151 55.4519 15.6252 55.3465C15.6358 55.2362 15.6588 55.094 15.695 54.8724L14.7081 54.711ZM14.8312 53.4985C14.8383 53.5158 14.8579 53.5843 14.8397 53.8012C14.8219 54.0132 14.7761 54.2956 14.7081 54.711L15.695 54.8724C15.7602 54.4736 15.8143 54.1454 15.8362 53.8848C15.8576 53.6291 15.8567 53.3631 15.7561 53.1184L14.8312 53.4985ZM14.4326 53.1926C14.6108 53.2156 14.7629 53.3323 14.8312 53.4985L15.7561 53.1184C15.5513 52.62 15.0948 52.2697 14.5604 52.2008L14.4326 53.1926ZM13.2933 53.6253C13.6769 53.4522 13.9378 53.3349 14.138 53.2628C14.3428 53.1891 14.4141 53.1903 14.4326 53.1926L14.5604 52.2008C14.2979 52.167 14.0407 52.235 13.7993 52.3219C13.5533 52.4104 13.2502 52.5476 12.8819 52.7139L13.2933 53.6253ZM13.3117 53.6166L13.3117 53.6165L12.8635 52.7227L12.8634 52.7227L13.3117 53.6166ZM12.3251 53.947C12.4928 53.939 12.6447 53.8957 12.7917 53.8409C12.9341 53.7877 13.1007 53.7123 13.2933 53.6253L12.8819 52.7139C12.6772 52.8062 12.5459 52.8652 12.442 52.904C12.3429 52.941 12.3002 52.947 12.2777 52.9481L12.3251 53.947ZM11.3217 53.6238C11.6061 53.8494 11.9625 53.9642 12.3251 53.947L12.2777 52.9481C12.1568 52.9539 12.038 52.9156 11.9432 52.8404L11.3217 53.6238ZM10.7233 52.7975C10.829 52.9805 10.9202 53.139 11.0048 53.2652C11.0921 53.3956 11.1902 53.5194 11.3217 53.6238L11.9432 52.8404C11.9255 52.8263 11.8945 52.7966 11.8356 52.7086C11.7739 52.6165 11.7016 52.492 11.5893 52.2975L10.7233 52.7975ZM10.0916 51.7033L10.7233 52.7975L11.5893 52.2975L10.9576 51.2032L10.0916 51.7033ZM9.67517 50.7719C9.69978 50.938 9.75798 51.0848 9.82722 51.2256C9.89426 51.362 9.98593 51.5203 10.0916 51.7033L10.9576 51.2033C10.8453 51.0088 10.7735 50.8839 10.7246 50.7845C10.6779 50.6895 10.6677 50.6477 10.6644 50.6253L9.67517 50.7719ZM9.89694 49.7413C9.70078 50.0467 9.62199 50.4129 9.67517 50.7719L10.6644 50.6253C10.6466 50.5057 10.6729 50.3836 10.7383 50.2818L9.89694 49.7413ZM10.6596 49.0637C10.488 49.187 10.3394 49.2936 10.2222 49.3903C10.1011 49.4902 9.98771 49.6001 9.89694 49.7413L10.7383 50.2818C10.7505 50.2628 10.777 50.2289 10.8587 50.1616C10.9442 50.091 11.0609 50.0068 11.2433 49.8757L10.6596 49.0637ZM11.604 48.2934C11.5968 48.3106 11.5622 48.3729 11.3959 48.5134C11.2334 48.6508 11.0014 48.818 10.6596 49.0637L11.2433 49.8757C11.5714 49.6398 11.8417 49.4459 12.0414 49.2772C12.2374 49.1116 12.4248 48.9228 12.5268 48.6787L11.604 48.2934ZM11.5384 47.7952C11.6481 47.9375 11.6732 48.1276 11.604 48.2934L12.5268 48.6787C12.7344 48.1814 12.6593 47.6109 12.33 47.1842L11.5384 47.7952ZM10.4268 47.2956C10.8206 47.4445 11.088 47.5459 11.2805 47.6366C11.4774 47.7292 11.527 47.7805 11.5384 47.7952L12.33 47.1842C12.1684 46.9748 11.9385 46.841 11.7063 46.7317C11.4698 46.6204 11.1584 46.5031 10.7805 46.3602L10.4268 47.2956ZM9.51482 46.8385C9.63906 46.9514 9.77705 47.0282 9.91982 47.0934C10.0581 47.1564 10.2292 47.2209 10.4268 47.2956L10.7805 46.3602C10.5704 46.2808 10.4359 46.2296 10.335 46.1836C10.2387 46.1397 10.2043 46.1138 10.1876 46.0986L9.51482 46.8385ZM9.03387 45.9004C9.07542 46.261 9.24629 46.5943 9.51482 46.8385L10.1876 46.0986C10.0981 46.0172 10.0411 45.9061 10.0273 45.7859L9.03387 45.9004ZM9.19502 44.893C9.14034 45.0971 9.09275 45.2737 9.06329 45.4228C9.03287 45.5767 9.01465 45.7336 9.03387 45.9004L10.0273 45.7859C10.0247 45.7635 10.0238 45.7205 10.0443 45.6166C10.0658 45.5079 10.1028 45.3688 10.1609 45.1518L9.19502 44.893ZM9.52202 43.6726L9.19502 44.893L10.1609 45.1518L10.4879 43.9315L9.52202 43.6726ZM9.88627 42.7194C9.78617 42.8543 9.7235 42.9993 9.67285 43.1479C9.62381 43.2917 9.57672 43.4685 9.52202 43.6726L10.4879 43.9315C10.5461 43.7145 10.5836 43.5754 10.6194 43.4705C10.6535 43.3703 10.6758 43.3335 10.6893 43.3153L9.88627 42.7194ZM10.7716 42.1477C10.417 42.2249 10.1025 42.428 9.88627 42.7194L10.6893 43.3153C10.7614 43.2182 10.8662 43.1505 10.9844 43.1248L10.7716 42.1477ZM11.7902 42.2078C11.5817 42.1737 11.4012 42.1439 11.2499 42.1294C11.0936 42.1144 10.9357 42.1119 10.7716 42.1477L10.9844 43.1248C11.0065 43.12 11.0492 43.1148 11.1546 43.1248C11.265 43.1354 11.4072 43.1584 11.6288 43.1947L11.7902 42.2078ZM11.8389 42.2183L11.8389 42.2183L11.5801 43.1842L11.5801 43.1842L11.8389 42.2183ZM11.8389 42.2183L11.8389 42.2183L11.5801 43.1842L11.5801 43.1842L11.8389 42.2183ZM13.003 42.3308C12.9857 42.3379 12.9172 42.3576 12.7003 42.3394C12.4882 42.3216 12.2058 42.2757 11.7902 42.2078L11.6288 43.1947C12.0277 43.2599 12.3561 43.314 12.6166 43.3359C12.8724 43.3573 13.1385 43.3564 13.3832 43.2557L13.003 42.3308ZM13.3088 41.9323C13.2858 42.1105 13.1691 42.2626 13.003 42.3308L13.3832 43.2557C13.8815 43.0509 14.2317 42.5946 14.3006 42.0602L13.3088 41.9323ZM12.876 40.7927C13.0492 41.1765 13.1665 41.4374 13.2386 41.6377C13.3124 41.8426 13.3112 41.9138 13.3088 41.9323L14.3006 42.0602C14.3344 41.7977 14.2665 41.5405 14.1795 41.299C14.091 41.0529 13.9537 40.7497 13.7875 40.3813L12.876 40.7927ZM12.5542 39.8241C12.5622 39.9919 12.6055 40.1438 12.6604 40.2909C12.7135 40.4334 12.789 40.6 12.876 40.7927L13.7875 40.3813C13.6951 40.1766 13.636 40.0451 13.5973 39.9413C13.5602 39.842 13.5542 39.7994 13.5531 39.7768L12.5542 39.8241ZM12.8773 38.8211C12.6519 39.1054 12.5371 39.4617 12.5542 39.8241L13.5531 39.7768C13.5474 39.6561 13.5857 39.5373 13.6608 39.4425L12.8773 38.8211ZM13.7039 38.2225C13.5209 38.3282 13.3623 38.4194 13.236 38.504C13.1056 38.5914 12.9817 38.6895 12.8773 38.8211L13.6608 39.4425C13.6749 39.4248 13.7046 39.3937 13.7926 39.3348C13.8847 39.2731 14.0094 39.2008 14.2039 39.0885L13.7039 38.2225ZM14.798 37.5908L13.7039 38.2225L14.2039 39.0885L15.298 38.4568L14.798 37.5908ZM14.798 37.5908L14.798 37.5908L15.298 38.4568L15.298 38.4568L14.798 37.5908ZM15.7294 37.1744C15.5633 37.199 15.4165 37.2572 15.2756 37.3264C15.1392 37.3935 14.981 37.4852 14.798 37.5908L15.298 38.4568C15.4925 38.3445 15.6173 38.2728 15.7168 38.2239C15.8118 38.1772 15.8536 38.1669 15.8759 38.1636L15.7294 37.1744ZM16.7599 37.3962C16.4545 37.2 16.0884 37.1212 15.7294 37.1744L15.8759 38.1636C15.9956 38.1459 16.1176 38.1721 16.2194 38.2375L16.7599 37.3962ZM17.4376 38.1589C17.3143 37.9873 17.2077 37.8387 17.111 37.7214C17.0111 37.6004 16.9012 37.4869 16.7599 37.3962L16.2194 38.2375C16.2384 38.2497 16.2723 38.2763 16.3397 38.3579C16.4103 38.4434 16.4945 38.5602 16.6256 38.7426L17.4376 38.1589ZM18.2078 39.1032C18.1906 39.096 18.1283 39.0614 17.9878 38.8952C17.8505 38.7327 17.6833 38.5006 17.4376 38.1589L16.6256 38.7426C16.8614 39.0706 17.0553 39.341 17.224 39.5406C17.3896 39.7366 17.5783 39.924 17.8224 40.0259L18.2078 39.1032ZM18.7061 39.0376C18.5639 39.1474 18.3736 39.1724 18.2078 39.1032L17.8224 40.0259C18.3198 40.2337 18.8905 40.1586 19.3172 39.8291L18.7061 39.0376ZM19.2056 37.9263C19.0568 38.32 18.9553 38.5873 18.8647 38.7798C18.7721 38.9767 18.7209 39.0262 18.7061 39.0376L19.3172 39.8291C19.5266 39.6675 19.6603 39.4377 19.7695 39.2056C19.8808 38.9691 19.9981 38.6578 20.141 38.28L19.2056 37.9263ZM19.6626 37.0146C19.5496 37.1388 19.4729 37.2767 19.4078 37.4195C19.3447 37.5577 19.2803 37.7288 19.2056 37.9263L20.141 38.28C20.2204 38.07 20.2715 37.9354 20.3175 37.8346C20.3614 37.7384 20.3873 37.704 20.4025 37.6873L19.6626 37.0146ZM20.6009 36.5335C20.2402 36.575 19.9068 36.7459 19.6626 37.0146L20.4025 37.6873C20.4839 37.5977 20.595 37.5408 20.7152 37.5269L20.6009 36.5335ZM21.608 36.6946C21.404 36.6399 21.2274 36.5924 21.0784 36.5629C20.9245 36.5325 20.7677 36.5143 20.6009 36.5335L20.7152 37.5269C20.7377 37.5243 20.7807 37.5234 20.8845 37.5439C20.9932 37.5654 21.1323 37.6024 21.3492 37.6605L21.608 36.6946ZM22.8286 37.0217L21.608 36.6946L21.3492 37.6605L22.5698 37.9876L22.8286 37.0217ZM23.7816 37.3858C23.6467 37.2857 23.5018 37.2231 23.3532 37.1725C23.2094 37.1234 23.0327 37.0764 22.8286 37.0217L22.5698 37.9876C22.7867 38.0457 22.9257 38.0832 23.0306 38.119C23.1308 38.1531 23.1676 38.1754 23.1857 38.1889L23.7816 37.3858ZM24.3535 38.2713C24.2763 37.9167 24.0731 37.6021 23.7816 37.3858L23.1857 38.1889C23.2829 38.261 23.3506 38.3659 23.3764 38.4841L24.3535 38.2713ZM22.8815 47.9062C22.3812 49.7734 20.462 50.8814 18.5949 50.3811L18.3361 51.347C20.7367 51.9903 23.2042 50.5657 23.8474 48.1651L22.8815 47.9062ZM20.4066 43.6196C22.2738 44.1199 23.3818 46.0391 22.8815 47.9062L23.8474 48.1651C24.4907 45.7645 23.066 43.297 20.6654 42.6537L20.4066 43.6196ZM16.12 46.0945C16.6203 44.2274 18.5395 43.1193 20.4066 43.6196L20.6654 42.6537C18.2648 42.0105 15.7973 43.4351 15.1541 45.8357L16.12 46.0945ZM18.5949 50.3811C16.7278 49.8808 15.6197 47.9616 16.12 46.0945L15.1541 45.8357C14.5109 48.2363 15.9355 50.7038 18.3361 51.347L18.5949 50.3811Z" fill="#F2F3F5"/>
<path d="M22.5 4.5H79.5C81.433 4.5 83 6.067 83 8V16.5H19V8C19 6.067 20.567 4.5 22.5 4.5Z" fill="white"/>
<rect x="36.5" y="9" width="29" height="3" rx="1" fill="#CCCFD5"/>
<path d="M22.5 4.5H79.5C81.433 4.5 83 6.067 83 8V16.5H19V8C19 6.067 20.567 4.5 22.5 4.5Z" stroke="#717783"/>
<path d="M19 16.5H83V56C83 57.3807 81.8807 58.5 80.5 58.5H21.5C20.1193 58.5 19 57.3807 19 56V16.5Z" fill="white" stroke="#717783"/>
<rect x="26.5" y="24" width="6" height="6" fill="white"/>
<rect x="37.25" y="24" width="6" height="6" fill="white"/>
<rect x="48" y="24" width="6" height="6" fill="#CCCFD5"/>
<rect x="58.75" y="24" width="6" height="6" fill="#CCCFD5"/>
<rect x="69.5" y="24" width="6" height="6" fill="#F2F3F5"/>
<rect x="26.5" y="35" width="6" height="6" fill="#F2F3F5"/>
<rect x="37.25" y="35" width="6" height="6" fill="#CCCFD5"/>
<rect x="48" y="35" width="6" height="6" fill="#CCCFD5"/>
<rect x="58.75" y="35" width="6" height="6" fill="#CCCFD5"/>
<rect x="69.5" y="35" width="6" height="6" fill="#F2F3F5"/>
<rect x="26.5" y="46" width="6" height="6" fill="#F2F3F5"/>
<rect x="37.25" y="46" width="6" height="6" fill="#CCCFD5"/>
<rect x="48" y="46" width="6" height="6" fill="#CCCFD5"/>
<rect x="58.75" y="46" width="6" height="6" fill="#CCCFD5"/>
<rect x="69.5" y="46" width="6" height="6" fill="white"/>
<path d="M76.6654 76.5194L79.4856 45.8572C79.5208 45.4751 79.1302 45.1974 78.7808 45.3562L50.8593 58.0479C50.4775 58.2214 50.4661 58.7595 50.8402 58.9491L61.1359 64.1656C61.4022 64.3005 61.4917 64.6372 61.3275 64.8866L55.3878 73.9071C55.242 74.1284 55.2944 74.4251 55.507 74.5833L59.4658 77.5272C59.6907 77.6945 60.0092 77.6442 60.1716 77.4157L66.4521 68.5832C66.6294 68.3339 66.9869 68.3008 67.207 68.5133L75.8201 76.8332C76.1219 77.1247 76.627 76.9372 76.6654 76.5194Z" fill="#E48038" stroke="#E48038"/>
</svg>
