<svg width="82" height="82" viewBox="0 0 82 82" fill="none" xmlns="http://www.w3.org/2000/svg">
<path d="M5.01655 17.2529L62.9721 1.72372C64.8392 1.22342 66.7584 2.33146 67.2587 4.19859L70.4939 16.2727L5.77691 33.6135L2.54168 21.5395C2.04138 19.6723 3.14942 17.7532 5.01655 17.2529Z" fill="white"/>
<circle cx="11.4337" cy="23.8155" r="0.5" transform="rotate(-15 11.4337 23.8155)" fill="white"/>
<circle cx="16.2633" cy="22.5215" r="0.5" transform="rotate(-15 16.2633 22.5215)" fill="white"/>
<circle cx="21.0928" cy="21.2276" r="0.5" transform="rotate(-15 21.0928 21.2276)" fill="white"/>
<path d="M5.01655 17.2529L62.9721 1.72372C64.8392 1.22342 66.7584 2.33146 67.2587 4.19859L70.4939 16.2727L5.77691 33.6135L2.54168 21.5395C2.04138 19.6723 3.14942 17.7532 5.01655 17.2529Z" stroke="#F2F3F5"/>
<path d="M5.51813 32.6475L70.2352 15.3066L80.7173 54.4266C81.0747 55.7603 80.2832 57.1311 78.9496 57.4885L19.0622 73.5353C17.7285 73.8926 16.3577 73.1012 16.0003 71.7675L5.51813 32.6475Z" fill="white" stroke="#F2F3F5"/>
<path d="M19.5048 1.51824L77.4604 17.0474C79.3275 17.5477 80.4355 19.4669 79.9352 21.334L76.7 33.4081L11.983 16.0672L15.2182 3.99311C15.7185 2.12598 17.6377 1.01794 19.5048 1.51824Z" fill="white"/>
<circle cx="21.7808" cy="10.4102" r="0.5" transform="rotate(15 21.7808 10.4102)" fill="white"/>
<circle cx="26.6104" cy="11.7047" r="0.5" transform="rotate(15 26.6104 11.7047)" fill="white"/>
<circle cx="31.44" cy="12.9986" r="0.5" transform="rotate(15 31.44 12.9986)" fill="white"/>
<path d="M19.5048 1.51824L77.4604 17.0474C79.3275 17.5477 80.4355 19.4669 79.9352 21.334L76.7 33.4081L11.983 16.0672L15.2182 3.99311C15.7185 2.12598 17.6377 1.01794 19.5048 1.51824Z" stroke="#CCCFD5"/>
<path d="M12.2417 15.1011L76.9588 32.442L66.4766 71.562C66.1192 72.8957 64.7484 73.6871 63.4147 73.3298L3.52733 57.283C2.19367 56.9256 1.40221 55.5548 1.75956 54.2211L12.2417 15.1011Z" fill="white" stroke="#CCCFD5"/>
<path d="M11.5 8.5H71.5C73.433 8.5 75 10.067 75 12V24.5H8V12C8 10.067 9.567 8.5 11.5 8.5Z" fill="white"/>
<circle cx="16" cy="16.5" r="0.5" fill="white"/>
<circle cx="21" cy="16.5" r="0.5" fill="white"/>
<circle cx="26" cy="16.5" r="0.5" fill="white"/>
<path d="M11.5 8.5H71.5C73.433 8.5 75 10.067 75 12V24.5H8V12C8 10.067 9.567 8.5 11.5 8.5Z" stroke="#717783"/>
<path d="M8 23.5H75V64C75 65.3807 73.8807 66.5 72.5 66.5H10.5C9.11929 66.5 8 65.3807 8 64V23.5Z" fill="white" stroke="#717783"/>
<path d="M39.2679 57C40.0378 55.6667 41.9623 55.6667 42.7321 57L52.6913 74.25C53.4611 75.5833 52.4989 77.25 50.9593 77.25H31.0407C29.5011 77.25 28.5389 75.5833 29.3087 74.25L39.2679 57Z" fill="#CCCFD5"/>
<rect x="4.5" y="59.4111" width="75" height="6" transform="rotate(-15 4.5 59.4111)" fill="#CCCFD5"/>
<path d="M54.0502 38.4968L63.5412 43.5712C63.9181 43.7728 64.1066 43.8736 64.2912 43.8295C64.3 43.8273 64.3088 43.825 64.3175 43.8224C64.4994 43.7683 64.6123 43.5868 64.838 43.2238L70.5202 34.0837C72.124 31.5039 71.4977 28.127 69.0754 26.2939L68.6321 25.9584C65.7397 23.7696 61.555 25.3888 60.8893 28.9545C60.7952 29.4582 60.1595 29.6286 59.8262 29.2393C57.4669 26.4842 53.0332 27.1743 51.6227 30.516L51.4065 31.0283C50.2253 33.8269 51.3713 37.0646 54.0502 38.4968Z" fill="#D91818" stroke="#D91818" stroke-width="2"/>
<path d="M13.5958 57.0181L9.72649 42.8305C9.62552 42.4603 9.96199 42.119 10.3336 42.2147L24.492 45.8616C24.8981 45.9662 25.0027 46.4941 24.6673 46.7458L20.6148 49.7851C20.3759 49.9643 20.3463 50.3114 20.5513 50.5284L23.9636 54.1415C24.1456 54.3342 24.1456 54.6355 23.9636 54.8282L22.5754 56.298C22.384 56.5008 22.0636 56.5077 21.8636 56.3133L18.3909 52.9399C18.1753 52.7304 17.8248 52.7573 17.6436 52.9971L14.4772 57.188C14.2268 57.5193 13.7051 57.4187 13.5958 57.0181Z" fill="black" stroke="black"/>
</svg>
