<svg width="582" height="480" viewBox="0 0 582 480" fill="none" xmlns="http://www.w3.org/2000/svg">
<g clip-path="url(#clip0_769_8132)">
<rect width="582" height="480" fill="white"/>
<ellipse cx="291.5" cy="240" rx="139.5" ry="139" stroke="#CCCFD5" stroke-width="2" stroke-linecap="round" stroke-dasharray="2 10"/>
<ellipse cx="291.5" cy="240" rx="240.5" ry="240" stroke="#CCCFD5" stroke-width="2" stroke-linecap="round" stroke-dasharray="2 10"/>
<path d="M0.5 8C0.5 3.85786 3.85786 0.5 8 0.5H404C408.142 0.5 411.5 3.85786 411.5 8V31.5H0.5V8Z" fill="white"/>
<rect x="36.5" y="12.5" width="79" height="7" rx="1.5" fill="#CCCFD5" stroke="#CCCFD5"/>
<rect x="166.5" y="12.5" width="79" height="7" rx="1.5" fill="#CCCFD5" stroke="#CCCFD5"/>
<rect x="296.5" y="12.5" width="79" height="7" rx="1.5" fill="#CCCFD5" stroke="#CCCFD5"/>
<path d="M0.5 8C0.5 3.85786 3.85786 0.5 8 0.5H404C408.142 0.5 411.5 3.85786 411.5 8V31.5H0.5V8Z" stroke="#717783"/>
<path d="M0.5 31.5H411.5V305C411.5 308.038 409.038 310.5 406 310.5H5.99999C2.96242 310.5 0.5 308.038 0.5 305V31.5Z" fill="white" stroke="#717783"/>
<line x1="140.5" y1="45" x2="140.5" y2="295" stroke="#CCCFD5" stroke-dasharray="2 2"/>
<line x1="273.5" y1="45" x2="273.5" y2="295" stroke="#CCCFD5" stroke-dasharray="2 2"/>
<rect x="15" y="69" width="3" height="50" fill="#0045FF"/>
<rect x="25.5" y="80.5" width="79" height="5" rx="1.5" stroke="#CCCFD5"/>
<rect x="25.5" y="91.5" width="53" height="5" rx="1.5" stroke="#CCCFD5"/>
<rect x="25.5" y="102.5" width="47" height="5" rx="1.5" stroke="#CCCFD5"/>
<circle cx="108.5" cy="102.5" r="7.5" fill="#F2F3F5"/>
<rect x="15.5" y="69.5" width="109" height="49" stroke="#CCCFD5"/>
<rect x="15" y="131" width="3" height="50" fill="#0045FF"/>
<rect x="25.5" y="142.5" width="79" height="5" rx="1.5" stroke="#CCCFD5"/>
<rect x="25.5" y="153.5" width="53" height="5" rx="1.5" stroke="#CCCFD5"/>
<rect x="25.5" y="164.5" width="47" height="5" rx="1.5" stroke="#CCCFD5"/>
<circle cx="108.5" cy="164.5" r="7.5" fill="#F2F3F5"/>
<rect x="15.5" y="131.5" width="109" height="49" stroke="#CCCFD5"/>
<rect x="15" y="193" width="3" height="50" fill="#0045FF"/>
<rect x="25.5" y="204.5" width="79" height="5" rx="1.5" stroke="#CCCFD5"/>
<rect x="25.5" y="215.5" width="53" height="5" rx="1.5" stroke="#CCCFD5"/>
<rect x="25.5" y="226.5" width="47" height="5" rx="1.5" stroke="#CCCFD5"/>
<circle cx="108.5" cy="226.5" r="7.5" fill="#F2F3F5"/>
<rect x="15.5" y="193.5" width="109" height="49" stroke="#CCCFD5"/>
<rect x="288" y="69" width="3" height="50" fill="#0045FF"/>
<rect x="298.5" y="80.5" width="79" height="5" rx="1.5" stroke="#CCCFD5"/>
<rect x="298.5" y="91.5" width="53" height="5" rx="1.5" stroke="#CCCFD5"/>
<rect x="298.5" y="102.5" width="47" height="5" rx="1.5" stroke="#CCCFD5"/>
<circle cx="381.5" cy="102.5" r="7.5" fill="#F2F3F5"/>
<rect x="288.5" y="69.5" width="109" height="49" stroke="#CCCFD5"/>
<rect x="288" y="131" width="3" height="50" fill="#0045FF"/>
<rect x="298.5" y="142.5" width="79" height="5" rx="1.5" stroke="#CCCFD5"/>
<rect x="298.5" y="153.5" width="53" height="5" rx="1.5" stroke="#CCCFD5"/>
<rect x="298.5" y="164.5" width="47" height="5" rx="1.5" stroke="#CCCFD5"/>
<circle cx="381.5" cy="164.5" r="7.5" fill="#F2F3F5"/>
<rect x="288.5" y="131.5" width="109" height="49" stroke="#CCCFD5"/>
<rect x="151" y="69" width="3" height="50" fill="#E48038"/>
<rect x="161.5" y="80.5" width="79" height="5" rx="1.5" stroke="#CCCFD5"/>
<rect x="161.5" y="91.5" width="53" height="5" rx="1.5" stroke="#CCCFD5"/>
<rect x="161.5" y="102.5" width="47" height="5" rx="1.5" stroke="#CCCFD5"/>
<circle cx="244.5" cy="102.5" r="7.5" fill="#F2F3F5"/>
<rect x="151.5" y="69.5" width="109" height="49" stroke="#CCCFD5"/>
<g clip-path="url(#clip1_769_8132)">
<path d="M560.252 268.126C560.906 259.146 553.796 251.5 544.793 251.5H312.877C304.754 251.5 298.008 257.772 297.418 265.874L284.748 439.874C284.094 448.854 291.204 456.5 300.207 456.5H532.123C540.246 456.5 546.992 450.228 547.582 442.126L560.252 268.126Z" fill="#F2F3F5" stroke="#717783"/>
<rect x="404.3" y="197" width="136.789" height="97.8909" transform="rotate(72.3822 404.3 197)" fill="#717783"/>
<rect x="336.707" y="309.856" width="148.488" height="113.946" transform="rotate(-44 336.707 309.856)" fill="white"/>
<rect x="336" y="309.843" width="3" height="98.3735" transform="rotate(-44 336 309.843)" fill="#06C569"/>
<rect x="351.542" y="310.822" width="106.521" height="7" rx="1.5" transform="rotate(-44 351.542 310.822)" stroke="#CCCFD5"/>
<rect x="362.656" y="322.331" width="80.2039" height="7" rx="1.5" transform="rotate(-44 362.656 322.331)" stroke="#CCCFD5"/>
<rect x="373.771" y="333.841" width="47" height="7" rx="1.5" transform="rotate(-44 373.771 333.841)" stroke="#CCCFD5"/>
<rect x="384.886" y="345.35" width="70.5812" height="7" rx="1.5" transform="rotate(-44 384.886 345.35)" stroke="#CCCFD5"/>
<rect x="396" y="356.86" width="70.5812" height="7" rx="1.5" transform="rotate(-44 396 356.86)" stroke="#CCCFD5"/>
<circle cx="473.933" cy="284.933" r="18.3399" transform="rotate(-44 473.933 284.933)" fill="#F2F3F5"/>
<rect x="336.707" y="309.856" width="148.488" height="113.946" transform="rotate(-44 336.707 309.856)" stroke="#CCCFD5"/>
<rect x="163.637" y="210.307" width="134.661" height="60.4339" transform="rotate(-19.2902 163.637 210.307)" fill="white"/>
<rect x="163" y="210" width="3" height="61.4045" transform="rotate(-19.2902 163 210)" fill="#06C569"/>
<rect x="176.709" y="217.386" width="79" height="7" rx="1.5" transform="rotate(-19.2902 176.709 217.386)" stroke="#CCCFD5"/>
<rect x="181.995" y="232.487" width="53" height="7" rx="1.5" transform="rotate(-19.2902 181.995 232.487)" stroke="#CCCFD5"/>
<rect x="187.281" y="247.589" width="47" height="7" rx="1.5" transform="rotate(-19.2902 187.281 247.589)" stroke="#CCCFD5"/>
<circle cx="281.181" cy="211.181" r="11.0902" transform="rotate(-19.2902 281.181 211.181)" fill="#F2F3F5"/>
<rect x="163.637" y="210.307" width="134.661" height="60.4339" transform="rotate(-19.2902 163.637 210.307)" stroke="#CCCFD5"/>
<rect x="270.087" y="199.141" width="148.488" height="97.6055" transform="rotate(37.5559 270.087 199.141)" fill="white"/>
<rect x="269.995" y="198.439" width="3" height="98.3735" transform="rotate(37.5559 269.995 198.439)" fill="#06C569"/>
<rect x="271.309" y="213.957" width="79" height="7" rx="1.5" transform="rotate(37.5559 271.309 213.957)" stroke="#CCCFD5"/>
<rect x="261.556" y="226.641" width="53" height="7" rx="1.5" transform="rotate(37.5559 261.556 226.641)" stroke="#CCCFD5"/>
<rect x="251.805" y="239.325" width="47" height="7" rx="1.5" transform="rotate(37.5559 251.805 239.325)" stroke="#CCCFD5"/>
<rect x="242.052" y="252.009" width="70.5812" height="7" rx="1.5" transform="rotate(37.5559 242.052 252.009)" stroke="#CCCFD5"/>
<rect x="232.299" y="264.693" width="70.5812" height="7" rx="1.5" transform="rotate(37.5559 232.299 264.693)" stroke="#CCCFD5"/>
<circle cx="333.638" cy="298.027" r="11.0902" transform="rotate(37.5559 333.638 298.027)" fill="#F2F3F5"/>
<rect x="270.087" y="199.141" width="148.488" height="97.6055" transform="rotate(37.5559 270.087 199.141)" stroke="#CCCFD5"/>
<path d="M246.051 304.511C243.79 294.792 251.169 285.5 261.148 285.5H492.294C499.502 285.5 505.758 290.469 507.391 297.489L539.949 437.489C542.21 447.208 534.831 456.5 524.852 456.5H293.706C286.498 456.5 280.242 451.531 278.609 444.511L246.051 304.511Z" fill="white" stroke="#717783"/>
<circle cx="392" cy="375" r="18.75" fill="#06C569" fill-opacity="0.1"/>
<path d="M392 393.75C396.338 393.75 400.542 392.246 403.895 389.494C407.248 386.742 409.543 382.913 410.39 378.658C411.236 374.403 410.581 369.987 408.536 366.161C406.491 362.336 403.183 359.337 399.175 357.677C395.168 356.017 390.708 355.798 386.557 357.057C382.406 358.317 378.82 360.976 376.41 364.583C374 368.19 372.915 372.521 373.34 376.838C373.765 381.155 375.674 385.191 378.742 388.258" stroke="#06C569" stroke-width="2" stroke-linecap="round"/>
<path d="M400.333 370.833L391.318 381.651C390.663 382.438 390.335 382.831 389.894 382.851C389.454 382.871 389.092 382.509 388.368 381.785L383.666 377.083" stroke="#06C569" stroke-width="2" stroke-linecap="round"/>
</g>
</g>
<defs>
<clipPath id="clip0_769_8132">
<rect width="582" height="480" fill="white"/>
</clipPath>
<clipPath id="clip1_769_8132">
<rect width="399" height="291.816" fill="white" transform="translate(163 165.184)"/>
</clipPath>
</defs>
</svg>
