<svg width="586" height="584" viewBox="0 0 586 584" fill="none" xmlns="http://www.w3.org/2000/svg">
<rect width="586" height="584" fill="white"/>
<rect x="9" y="311" width="301" height="417" rx="22" transform="rotate(-90 9 311)" fill="white"/>
<path d="M426.596 291.762C426.574 296.878 424.516 301.841 420.868 305.444C417.276 308.993 412.363 310.971 407.319 310.998C406.542 311.002 405.766 310.998 404.99 310.998C402.761 310.998 400.53 310.998 398.3 310.998C394.786 310.998 391.272 310.998 387.759 310.998C383.097 310.998 378.435 310.998 373.773 310.998C368.075 310.998 362.376 310.998 356.678 310.998C350.151 310.998 343.624 310.998 337.096 310.998C329.857 310.998 322.616 310.998 315.377 310.998C307.546 310.998 299.716 310.998 291.887 310.998C283.632 310.998 275.377 310.998 267.122 310.998C258.612 310.998 250.101 310.998 241.591 310.998C232.924 310.998 224.256 310.998 215.589 310.998C206.935 310.998 198.28 310.998 189.625 310.998C181.152 310.998 172.679 310.998 164.205 310.998C156.034 310.998 147.863 310.998 139.692 310.998C131.927 310.998 124.162 310.998 116.396 310.998C109.267 310.998 102.139 310.998 95.0102 310.998C88.6188 310.998 82.2273 310.998 75.8359 310.998C70.2991 310.998 64.7622 310.998 59.2247 310.998C54.7481 310.998 50.2715 310.998 45.7949 310.998C42.4907 310.998 39.1865 310.998 35.8829 310.998C33.8888 310.998 31.8947 310.998 29.9013 310.998C28.5291 310.998 27.1647 311.014 25.7981 310.836C20.7632 310.18 16.1074 307.51 13.0102 303.494C10.3964 300.105 9.02272 295.93 9.00987 291.663C9.00559 290.214 9.00987 288.765 9.00987 287.316C9.00987 283.939 9.00987 280.56 9.00987 277.183C9.00987 272.161 9.00987 267.14 9.00987 262.118C9.00987 255.764 9.00987 249.409 9.00987 243.055C9.00987 235.692 9.00987 228.33 9.00987 220.967C9.00987 212.881 9.00987 204.795 9.00987 196.71C9.00987 188.155 9.00987 179.6 9.00987 171.045C9.00987 162.417 9.00986 153.789 9.00986 145.161C9.00986 136.715 9.00986 128.269 9.00986 119.823C9.00986 111.818 9.00986 103.813 9.00986 95.8083C9.00986 88.6341 9.00986 81.4606 9.00986 74.2865C9.00986 68.1995 9.00986 62.1124 9.00986 56.0254C9.00986 51.3049 9.00986 46.5843 9.00986 41.8637C9.00986 38.8637 9.00986 35.8636 9.00986 32.8636C9.00986 31.651 8.98201 30.4342 9.01985 29.2216C9.17764 24.142 11.4124 19.2376 15.135 15.7709C18.6956 12.4553 23.4292 10.6229 28.2913 10.598C29.1252 10.5937 29.9591 10.598 30.793 10.598C33.0677 10.598 35.3417 10.598 37.6164 10.598C41.1856 10.598 44.754 10.598 48.3231 10.598C53.026 10.598 57.7289 10.598 62.4318 10.598C68.1321 10.598 73.8325 10.598 79.5328 10.598C86.1242 10.598 92.7148 10.598 99.3061 10.598C106.571 10.598 113.835 10.598 121.099 10.598C128.926 10.598 136.753 10.598 144.58 10.598C152.87 10.598 161.161 10.598 169.451 10.598C177.97 10.598 186.488 10.598 195.006 10.598C203.652 10.598 212.297 10.598 220.943 10.598C229.618 10.598 238.293 10.598 246.968 10.598C255.433 10.598 263.897 10.598 272.362 10.598C280.518 10.598 288.676 10.598 296.832 10.598C304.577 10.598 312.321 10.598 320.067 10.598C327.17 10.598 334.273 10.598 341.376 10.598C347.736 10.598 354.096 10.598 360.456 10.598C365.943 10.598 371.429 10.598 376.915 10.598C381.363 10.598 385.81 10.598 390.258 10.598C393.515 10.598 396.77 10.598 400.027 10.598C401.96 10.598 403.894 10.598 405.827 10.598C407.343 10.598 408.846 10.5972 410.352 10.838C415.391 11.6438 419.976 14.4636 422.961 18.5928C425.356 21.9064 426.585 25.8996 426.595 29.974C426.598 31.505 426.595 33.0367 426.595 34.5677C426.595 38.0137 426.595 41.4598 426.595 44.9058C426.595 49.9683 426.595 55.0302 426.595 60.0927C426.595 66.5081 426.595 72.9236 426.595 79.339C426.595 86.7355 426.595 94.1312 426.595 101.528C426.595 109.635 426.595 117.743 426.595 125.85C426.595 134.415 426.595 142.98 426.595 151.545C426.595 160.172 426.595 168.799 426.595 177.425C426.595 185.858 426.595 194.291 426.595 202.724C426.595 210.684 426.595 218.643 426.595 226.602C426.595 233.761 426.595 240.919 426.595 248.078C426.595 254.117 426.595 260.156 426.595 266.195C426.595 270.845 426.595 275.496 426.595 280.146C426.595 283.086 426.595 286.025 426.595 288.965C426.596 289.897 426.596 290.83 426.596 291.762Z" fill="white" stroke="#717783" stroke-miterlimit="10" stroke-linecap="round" stroke-linejoin="round"/>
<path d="M16.4477 168.545C14.8195 168.559 14.0319 170.64 15.2837 171.705C16.5284 172.764 18.4822 171.662 18.2201 170.051C18.0802 169.188 17.3175 168.552 16.4477 168.545Z" stroke="#717783" stroke-width="1.5" stroke-miterlimit="10" stroke-linecap="round" stroke-linejoin="round"/>
<path d="M16.4566 157.222C14.8666 157.249 14.8654 159.607 16.4566 159.606C18.0465 159.604 18.0489 157.228 16.4566 157.222Z" stroke="#717783" stroke-width="1.5" stroke-miterlimit="10" stroke-linecap="round" stroke-linejoin="round"/>
<path d="M411.681 289.893C411.68 292.174 410.383 294.321 408.36 295.382C407.247 295.966 406.072 296.093 404.844 296.093C403.385 296.093 401.925 296.093 400.465 296.093C397.726 296.093 394.988 296.093 392.25 296.093C388.364 296.093 384.479 296.093 380.593 296.093C375.691 296.093 370.79 296.093 365.889 296.093C360.103 296.093 354.318 296.093 348.533 296.093C341.995 296.093 335.457 296.093 328.92 296.093C321.761 296.093 314.602 296.093 307.444 296.093C299.818 296.093 292.193 296.093 284.567 296.093C276.561 296.093 268.556 296.093 260.552 296.093C252.343 296.093 244.135 296.093 235.928 296.093C227.601 296.093 219.274 296.093 210.947 296.093C202.657 296.093 194.366 296.093 186.075 296.093C177.952 296.093 169.829 296.093 161.706 296.093C153.883 296.093 146.059 296.093 138.235 296.093C130.842 296.093 123.449 296.093 116.055 296.093C109.225 296.093 102.394 296.093 95.5626 296.093C89.4258 296.093 83.2889 296.093 77.152 296.093C71.8404 296.093 66.5288 296.093 61.2171 296.093C56.863 296.093 52.5081 296.093 48.1539 296.093C44.8957 296.093 41.6369 296.093 38.3787 296.093C36.3288 296.093 34.2796 296.093 32.2297 296.093C31.5088 296.093 30.7864 296.107 30.0655 296.092C27.7741 296.047 25.6484 294.755 24.6038 292.705C23.9908 291.502 23.9279 290.255 23.9279 288.946C23.9279 286.857 23.9279 284.768 23.9279 282.679C23.9279 278.871 23.9279 275.062 23.9279 271.254C23.9279 266.004 23.9279 260.754 23.9279 255.503C23.9279 249.088 23.9279 242.673 23.9279 236.258C23.9279 228.955 23.9279 221.652 23.9279 214.349C23.9279 206.436 23.9279 198.522 23.9279 190.608C23.9279 182.362 23.9279 174.115 23.9279 165.867C23.9279 157.588 23.9279 149.308 23.9279 141.029C23.9279 132.945 23.9279 124.862 23.9279 116.779C23.9279 109.214 23.9279 101.649 23.9279 94.0829C23.9279 87.2688 23.9279 80.4547 23.9279 73.6405C23.9279 67.8772 23.9279 62.1145 23.9279 56.3511C23.9279 51.9162 23.9279 47.4812 23.9279 43.0462C23.9279 40.2167 23.9279 37.3864 23.9279 34.5568C23.9279 33.5297 23.8914 32.4946 23.9329 31.4674C24.0258 29.1761 25.4148 27.0739 27.494 26.0974C28.5757 25.5898 29.6954 25.5084 30.8614 25.5084C32.3748 25.5084 33.8881 25.5084 35.4014 25.5084C38.188 25.5084 40.9752 25.5084 43.7618 25.5084C47.678 25.5084 51.5942 25.5084 55.5097 25.5084C60.4305 25.5084 65.352 25.5084 70.2728 25.5084C76.086 25.5084 81.8992 25.5084 87.7124 25.5084C94.2737 25.5084 100.835 25.5084 107.396 25.5084C114.574 25.5084 121.751 25.5084 128.929 25.5084C136.592 25.5084 144.255 25.5084 151.917 25.5084C159.933 25.5084 167.949 25.5084 175.964 25.5084C184.202 25.5084 192.439 25.5084 200.678 25.5084C209.005 25.5084 217.333 25.5084 225.661 25.5084C233.948 25.5084 242.234 25.5084 250.521 25.5084C258.635 25.5084 266.748 25.5084 274.862 25.5084C282.67 25.5084 290.48 25.5084 298.289 25.5084C305.642 25.5084 312.995 25.5084 320.347 25.5084C327.136 25.5084 333.925 25.5084 340.714 25.5084C346.825 25.5084 352.935 25.5084 359.047 25.5084C364.328 25.5084 369.608 25.5084 374.889 25.5084C379.209 25.5084 383.528 25.5084 387.848 25.5084C391.074 25.5084 394.3 25.5084 397.527 25.5084C399.529 25.5084 401.53 25.5084 403.532 25.5084C404.282 25.5084 405.038 25.4784 405.787 25.5163C408.081 25.6319 410.173 27.0517 411.125 29.1418C411.663 30.3253 411.681 31.5338 411.681 32.7972C411.681 34.9601 411.681 37.123 411.681 39.2866C411.681 43.1576 411.681 47.0287 411.681 50.9004C411.681 56.1855 411.681 61.4706 411.681 66.7565C411.681 73.1901 411.681 79.6231 411.681 86.0567C411.681 93.3855 411.681 100.714 411.681 108.042C411.681 115.972 411.681 123.901 411.681 131.831C411.681 140.084 411.681 148.338 411.681 156.591C411.681 164.892 411.681 173.192 411.681 181.491C411.681 189.561 411.681 197.631 411.681 205.701C411.681 213.263 411.681 220.825 411.681 228.387C411.681 235.164 411.681 241.942 411.681 248.719C411.681 254.434 411.681 260.149 411.681 265.865C411.681 270.241 411.681 274.617 411.681 278.993C411.681 281.753 411.681 284.513 411.681 287.273C411.681 288.146 411.681 289.02 411.681 289.893Z" stroke="#717783" stroke-miterlimit="10" stroke-linecap="round" stroke-linejoin="round"/>
<rect x="60.5" y="175.5" width="97" height="94" rx="3.5" fill="#F2F3F5" stroke="#D91818"/>
<rect x="174.5" y="175.5" width="97" height="94" rx="3.5" fill="#F2F3F5" stroke="#CCCFD5"/>
<rect x="288.5" y="175.5" width="97" height="94" rx="3.5" fill="#F2F3F5" stroke="#CCCFD5"/>
<circle cx="109" cy="223" r="9" fill="white" stroke="#D91818"/>
<path d="M113 219L105 227" stroke="#D91818" stroke-width="1.2" stroke-linecap="square" stroke-linejoin="round"/>
<path d="M105 219L113 227" stroke="#D91818" stroke-width="1.2" stroke-linecap="square" stroke-linejoin="round"/>
<g clip-path="url(#clip0_777_8418)">
<rect x="60.5" y="63.5" width="31" height="31" rx="3.5" stroke="#06C569"/>
<circle cx="76" cy="79" r="6" stroke="#06C569"/>
<path d="M73.3337 79L75.3337 81L78.667 77" stroke="#06C569"/>
</g>
<rect x="108.5" y="65.5" width="230" height="5" rx="1.5" stroke="#CCCFD5"/>
<rect x="108.5" y="76.5" width="176" height="5" rx="1.5" stroke="#CCCFD5"/>
<rect x="108.5" y="87.5" width="156" height="5" rx="1.5" stroke="#CCCFD5"/>
<g clip-path="url(#clip1_777_8418)">
<rect x="60.5" y="119.5" width="31" height="31" rx="3.5" stroke="#06C569"/>
<circle cx="76" cy="135" r="6" stroke="#06C569"/>
<path d="M73.3337 135L75.3337 137L78.667 133" stroke="#06C569"/>
</g>
<rect x="108.5" y="121.5" width="186" height="5" rx="1.5" stroke="#CCCFD5"/>
<rect x="108.5" y="132.5" width="149" height="5" rx="1.5" stroke="#CCCFD5"/>
<rect x="108.5" y="143.5" width="132" height="5" rx="1.5" stroke="#CCCFD5"/>
<rect x="285.89" y="119.011" width="203.439" height="203.439" rx="101.719" fill="white"/>
<rect x="285.89" y="119.011" width="203.439" height="203.439" rx="101.719" stroke="#717783"/>
<circle cx="387.609" cy="220.731" r="75.3844" stroke="#717783"/>
<g clip-path="url(#clip2_777_8418)">
<line x1="463.864" y1="155.5" x2="312" y2="155.5" stroke="#717783"/>
<line x1="463.864" y1="186.5" x2="312" y2="186.5" stroke="#717783"/>
<line x1="463.864" y1="217.5" x2="312" y2="217.5" stroke="#717783"/>
<line x1="463.864" y1="248.5" x2="312" y2="248.5" stroke="#717783"/>
<line x1="463.864" y1="279.5" x2="312" y2="279.5" stroke="#717783"/>
</g>
<g clip-path="url(#clip3_777_8418)">
<line x1="322.5" y1="145.878" x2="322.5" y2="296.865" stroke="#717783"/>
<line x1="352.5" y1="145.878" x2="352.5" y2="296.865" stroke="#717783"/>
<line x1="382.5" y1="145.878" x2="382.5" y2="296.865" stroke="#717783"/>
<line x1="412.5" y1="145.878" x2="412.5" y2="296.865" stroke="#717783"/>
<line x1="442.5" y1="145.878" x2="442.5" y2="296.865" stroke="#717783"/>
</g>
<path fill-rule="evenodd" clip-rule="evenodd" d="M465.469 303.713L504.083 363.474C510.112 372.804 507.436 385.255 498.105 391.284C488.775 397.313 476.324 394.637 470.295 385.306L431.68 325.546L465.469 303.713Z" fill="white" stroke="#717783" stroke-linecap="round"/>
<rect x="322" y="217" width="30" height="31" rx="2" fill="#E48038"/>
<rect x="383" y="186" width="29" height="31" rx="2" fill="#E48038"/>
<rect x="413" y="218" width="29" height="30" rx="2" fill="#E48038"/>
<path d="M47.8574 286C47.8574 282.962 50.3199 280.5 53.3574 280.5H206.662C209.699 280.5 212.162 282.962 212.162 286V509C212.162 512.038 209.699 514.5 206.662 514.5H73.3574C59.2742 514.5 47.8574 503.083 47.8574 489V286Z" fill="white" stroke="#717783"/>
<rect x="102.363" y="309.093" width="79" height="5" rx="1.5" stroke="#CCCFD5"/>
<rect x="102.363" y="320.093" width="53" height="5" rx="1.5" stroke="#CCCFD5"/>
<rect x="102.363" y="331.093" width="47" height="5" rx="1.5" stroke="#CCCFD5"/>
<rect x="102.363" y="458.313" width="66" height="5" rx="1.5" stroke="#CCCFD5"/>
<rect x="102.363" y="402.021" width="88.3536" height="5" rx="1.5" stroke="#CCCFD5"/>
<rect x="102.363" y="413.021" width="88.3536" height="5" rx="1.5" stroke="#CCCFD5"/>
<rect x="102.363" y="424.021" width="88.3536" height="5" rx="1.5" stroke="#CCCFD5"/>
<rect x="102.363" y="435.021" width="47" height="5" rx="1.5" stroke="#CCCFD5"/>
<rect x="133.637" y="355.557" width="47" height="5" rx="1.5" stroke="#CCCFD5"/>
<rect x="133.637" y="366.557" width="59.7605" height="5" rx="1.5" stroke="#CCCFD5"/>
<rect x="133.637" y="377.557" width="66" height="5" rx="1.5" stroke="#CCCFD5"/>
<rect x="102.363" y="355.557" width="24.9125" height="24.019" rx="1.5" fill="#F2F3F5" stroke="#CCCFD5"/>
<path d="M220.362 514.5H72.4802C73.6438 513.963 75.0694 513.171 76.4965 512.041C79.84 509.395 83.1761 504.903 83.1761 497.576C83.1761 490.253 79.8437 485.544 76.5123 482.677C74.9355 481.32 73.3599 480.377 72.1392 479.759H220.346C220.368 479.764 220.397 479.772 220.432 479.781C220.526 479.806 220.667 479.845 220.848 479.901C221.209 480.012 221.73 480.188 222.356 480.447C223.609 480.965 225.28 481.809 226.948 483.115C230.272 485.716 233.607 490.159 233.607 497.576C233.607 504.991 230.276 509.203 226.965 511.578C225.301 512.772 223.634 513.506 222.383 513.942C221.757 514.159 221.238 514.301 220.877 514.389C220.697 514.432 220.556 514.462 220.462 514.481C220.419 514.49 220.385 514.496 220.362 514.5Z" fill="white" stroke="#717783"/>
<path d="M26.1859 342.715C26.8763 341.519 28.4053 341.109 29.601 341.8L63.8699 361.585C65.0657 362.275 65.4753 363.804 64.785 365L41.3958 405.511C40.4795 407.098 38.2237 407.193 37.1778 405.688L26.3101 390.051C25.7148 389.194 24.7684 388.648 23.7288 388.56L4.75269 386.967C2.92657 386.814 1.8805 384.813 2.79677 383.226L26.1859 342.715Z" fill="#F2F3F5" stroke="#717783"/>
<path d="M74.3365 342.715C73.6462 341.519 72.1172 341.109 70.9215 341.8L36.6525 361.585C35.4568 362.275 35.0471 363.804 35.7375 365L59.1266 405.511C60.0429 407.098 62.2988 407.193 63.3446 405.688L74.2124 390.051C74.8077 389.194 75.7541 388.648 76.7936 388.56L95.7698 386.967C97.5959 386.814 98.642 384.813 97.7257 383.226L74.3365 342.715Z" fill="white" stroke="#717783"/>
<path d="M50.4848 287.148L58.5693 298.709L71.2263 291.568L73.137 305.258L87.8597 303.951L83.2181 317.059L97.0905 321.844L86.816 331.774L97.0905 341.704L83.2181 346.49L87.8597 359.598L73.137 358.291L71.2263 371.981L58.5693 364.84L50.4848 376.4L42.4004 364.84L29.7434 371.981L27.8327 358.291L13.11 359.598L17.7516 346.49L3.87922 341.704L14.1537 331.774L3.87922 321.844L17.7516 317.059L13.11 303.951L27.8327 305.258L29.7434 291.568L42.4004 298.709L50.4848 287.148Z" fill="#06C569"/>
<path d="M50.9315 348.579C54.8076 348.579 58.5638 347.235 61.56 344.776C64.5563 342.317 66.6072 338.895 67.3634 335.094C68.1196 331.292 67.5342 327.346 65.7071 323.927C63.8799 320.509 60.924 317.83 57.3429 316.347C53.7619 314.863 49.7773 314.668 46.0682 315.793C42.359 316.918 39.1547 319.294 37.0013 322.517C34.8478 325.74 33.8785 329.61 34.2584 333.467C34.6383 337.325 36.344 340.931 39.0848 343.672" stroke="white" stroke-width="2" stroke-linecap="round"/>
<path d="M58.377 328.102L50.4713 337.589C49.8158 338.375 49.488 338.769 49.0474 338.789C48.6068 338.809 48.2448 338.447 47.5207 337.723L43.4847 333.687" stroke="white" stroke-width="2" stroke-linecap="round"/>
<path d="M362 339V453H244" stroke="#717783" stroke-width="2" stroke-linecap="round" stroke-dasharray="0.5 14"/>
<path d="M364.493 439.913L365.454 440.092L391.454 378.258L369.171 441.54L370.003 442.053L416.512 393.809L372.947 444.753L373.537 445.532L434.288 417.402L375.313 449.118L375.581 450.058L442.366 445.857L375.949 454.046L375.858 455.019L439.642 475.319L374.768 458.872L374.332 459.746L426.489 501.794L371.931 462.944L371.207 463.601L404.7 521.703L367.819 465.711L366.912 466.089L379.774 527.219L362.982 466.772L362.476 464.951L362.015 466.784L346.821 527.235L358.09 466.077L357.181 465.711L320.3 521.703L353.793 463.601L353.069 462.944L298.511 501.794L350.668 459.746L350.232 458.872L285.358 475.319L349.142 455.019L349.051 454.046L282.634 445.857L349.419 450.058L349.687 449.118L290.712 417.402L351.463 445.532L352.053 444.753L308.488 393.809L354.997 442.053L355.829 441.54L333.546 378.258L359.546 440.092L360.507 439.913L362.5 372.833L364.493 439.913Z" stroke="#F2F3F5"/>
<circle cx="361.5" cy="452.5" r="29" fill="white" stroke="#CCCFD5"/>
<path d="M351.129 443.129C348.729 445.529 347.236 448.686 346.904 452.063C346.571 455.439 347.42 458.827 349.305 461.649C351.19 464.47 353.995 466.55 357.242 467.535C360.489 468.52 363.977 468.349 367.112 467.05C370.247 465.752 372.835 463.407 374.435 460.414C376.034 457.421 376.547 453.967 375.885 450.639C375.223 447.311 373.427 444.315 370.804 442.163C368.181 440.01 364.893 438.833 361.5 438.833" stroke="#E48038" stroke-width="2" stroke-linecap="round"/>
<path d="M361.5 453.5L351.25 443.25" stroke="#E48038" stroke-width="2" stroke-linecap="round"/>
<path d="M361.5 438.125V441.542" stroke="#E48038" stroke-width="2" stroke-linecap="round"/>
<path d="M376.875 453.5L373.458 453.5" stroke="#E48038" stroke-width="2" stroke-linecap="round"/>
<path d="M361.5 465.458V468.875" stroke="#E48038" stroke-width="2" stroke-linecap="round"/>
<path d="M349.542 453.5L346.125 453.5" stroke="#E48038" stroke-width="2" stroke-linecap="round"/>
<defs>
<clipPath id="clip0_777_8418">
<rect width="32" height="32" fill="white" transform="translate(60 63)"/>
</clipPath>
<clipPath id="clip1_777_8418">
<rect width="32" height="32" fill="white" transform="translate(60 119)"/>
</clipPath>
<clipPath id="clip2_777_8418">
<rect x="463.864" y="145" width="151.865" height="151.865" rx="75.9323" transform="rotate(90 463.864 145)" fill="white"/>
</clipPath>
<clipPath id="clip3_777_8418">
<rect x="312" y="145.878" width="150.987" height="150.987" rx="75.4933" fill="white"/>
</clipPath>
</defs>
</svg>
