<svg width="24" height="17" viewBox="0 0 24 17" fill="none" xmlns="http://www.w3.org/2000/svg">
<path d="M12.3114 5.82838C12.3114 2.60962 14.9204 0 18.1398 0C21.3589 0 23.6954 2.51945 23.9681 5.72694C24.3843 10.6211 20.6664 14.7188 16.1523 16.0227C17.6909 15.0924 18.7641 13.4744 18.9431 11.5927C18.6797 11.6302 18.4131 11.6566 18.1399 11.6566C14.9208 11.6566 12.3115 9.04759 12.3115 5.82827L12.3114 5.82838Z" fill="#002EAA"/>
<path d="M0.000840187 5.82838C0.000840187 2.60962 2.6099 0 5.82922 0C9.04798 0 11.3849 2.51945 11.6576 5.72694C12.0738 10.6211 8.35585 14.7188 3.84174 16.0227C5.38034 15.0924 6.45334 13.4744 6.63257 11.5927C6.36913 11.6302 6.10213 11.6566 5.82932 11.6566C2.61 11.6566 0.00094223 9.04759 0.00094223 5.82827L0.000840187 5.82838Z" fill="#002EAA"/>
</svg>
