<svg width="141" height="139" viewBox="0 0 141 139" fill="none" xmlns="http://www.w3.org/2000/svg">
<path d="M52.6931 1.81239L69.0443 21.7436L83.8603 0.646194L89.9444 25.6981L112.447 13.1184L107.059 38.3292L132.791 36.7588L116.998 57.1352L140.863 66.8851L117.793 78.3912L135.065 97.5303L109.287 97.8873L116.544 122.625L93.1646 111.762L88.9697 137.199L72.6185 117.267L57.8025 138.365L51.7185 113.313L29.2159 125.893L34.6039 100.682L8.87167 102.252L24.6647 81.8758L0.799366 72.1259L23.8694 60.6198L6.59776 41.4806L32.3754 41.1237L25.1184 16.386L48.4982 27.2489L52.6931 1.81239Z" fill="#E48038"/>
</svg>
