<svg width="1204" height="379" viewBox="0 0 1204 379" fill="none" xmlns="http://www.w3.org/2000/svg">
<path d="M0.5 8C0.5 3.85786 3.85786 0.5 8 0.5H257C261.142 0.5 264.5 3.85786 264.5 8V31.5H0.5V8Z" fill="white"/>
<circle cx="20" cy="16" r="4" fill="#717783"/>
<circle cx="36" cy="16" r="4" fill="#717783"/>
<circle cx="52" cy="16" r="4" fill="#717783"/>
<path d="M0.5 8C0.5 3.85786 3.85786 0.5 8 0.5H257C261.142 0.5 264.5 3.85786 264.5 8V31.5H0.5V8Z" stroke="#717783"/>
<path d="M0.5 31.5H264.5V153C264.5 156.038 262.038 158.5 259 158.5H6.00001C2.96244 158.5 0.5 156.038 0.5 153V31.5Z" fill="white" stroke="#717783"/>
<path d="M29.5 51C29.5 46.8579 32.8579 43.5 37 43.5H286C290.142 43.5 293.5 46.8579 293.5 51V74.5H29.5V51Z" fill="white"/>
<circle cx="49" cy="59" r="4" fill="#717783"/>
<circle cx="65" cy="59" r="4" fill="#717783"/>
<circle cx="81" cy="59" r="4" fill="#717783"/>
<path d="M29.5 51C29.5 46.8579 32.8579 43.5 37 43.5H286C290.142 43.5 293.5 46.8579 293.5 51V74.5H29.5V51Z" stroke="#717783"/>
<path d="M29.5 74.5H293.5V196C293.5 199.038 291.038 201.5 288 201.5H35C31.9624 201.5 29.5 199.038 29.5 196V74.5Z" fill="white" stroke="#717783"/>
<path d="M58.5 94C58.5 89.8579 61.8579 86.5 66 86.5H315C319.142 86.5 322.5 89.8579 322.5 94V117.5H58.5V94Z" fill="white"/>
<circle cx="78" cy="102" r="4" fill="#717783"/>
<circle cx="94" cy="102" r="4" fill="#717783"/>
<circle cx="110" cy="102" r="4" fill="#717783"/>
<path d="M58.5 94C58.5 89.8579 61.8579 86.5 66 86.5H315C319.142 86.5 322.5 89.8579 322.5 94V117.5H58.5V94Z" stroke="#717783"/>
<path d="M58.5 117.5H322.5V239C322.5 242.038 320.038 244.5 317 244.5H64C60.9624 244.5 58.5 242.038 58.5 239V117.5Z" fill="white" stroke="#717783"/>
<path d="M87.5 137C87.5 132.858 90.8579 129.5 95 129.5H344C348.142 129.5 351.5 132.858 351.5 137V160.5H87.5V137Z" fill="white"/>
<circle cx="107" cy="145" r="4" fill="#717783"/>
<circle cx="123" cy="145" r="4" fill="#717783"/>
<circle cx="139" cy="145" r="4" fill="#717783"/>
<path d="M87.5 137C87.5 132.858 90.8579 129.5 95 129.5H344C348.142 129.5 351.5 132.858 351.5 137V160.5H87.5V137Z" stroke="#717783"/>
<path d="M87.5 160.5H351.5V282C351.5 285.038 349.038 287.5 346 287.5H93C89.9624 287.5 87.5 285.038 87.5 282V160.5Z" fill="white" stroke="#717783"/>
<path d="M115.5 180C115.5 175.858 118.858 172.5 123 172.5H372C376.142 172.5 379.5 175.858 379.5 180V203.5H115.5V180Z" fill="white"/>
<circle cx="135" cy="188" r="4" fill="#717783"/>
<circle cx="151" cy="188" r="4" fill="#717783"/>
<circle cx="167" cy="188" r="4" fill="#717783"/>
<path d="M115.5 180C115.5 175.858 118.858 172.5 123 172.5H372C376.142 172.5 379.5 175.858 379.5 180V203.5H115.5V180Z" stroke="#717783"/>
<path d="M115.5 203.5H379.5V325C379.5 328.038 377.038 330.5 374 330.5H121C117.962 330.5 115.5 328.038 115.5 325V203.5Z" fill="white" stroke="#717783"/>
<rect x="131.5" y="227.5" width="31" height="31" rx="3.5" fill="#F2F3F5" stroke="#717783"/>
<g clip-path="url(#clip0_769_7730)">
<rect x="181.75" y="227.5" width="31" height="31" rx="3.5" stroke="#06C569"/>
<circle cx="197.25" cy="243" r="6" stroke="#06C569"/>
<path d="M194.584 243L196.584 245L199.917 241" stroke="#06C569"/>
</g>
<g clip-path="url(#clip1_769_7730)">
<rect x="232" y="227.5" width="31" height="31" rx="3.5" stroke="#06C569"/>
<circle cx="247.5" cy="243" r="6" stroke="#06C569"/>
<path d="M244.834 243L246.834 245L250.167 241" stroke="#06C569"/>
</g>
<g clip-path="url(#clip2_769_7730)">
<rect x="282.25" y="227.5" width="31" height="31" rx="3.5" fill="#F2F3F5" stroke="#717783"/>
</g>
<g clip-path="url(#clip3_769_7730)">
<rect x="332.5" y="227.5" width="31" height="31" rx="3.5" stroke="#D91818"/>
<circle cx="348.5" cy="243" r="6" fill="#D91818" fill-opacity="0.15" stroke="#D91818"/>
</g>
<g clip-path="url(#clip4_769_7730)">
<rect x="131.5" y="275.5" width="31" height="31" rx="3.5" stroke="#06C569"/>
<circle cx="147" cy="291" r="6" stroke="#06C569"/>
<path d="M144.334 291L146.334 293L149.667 289" stroke="#06C569"/>
</g>
<rect x="181.75" y="275.5" width="31" height="31" rx="3.5" fill="#F2F3F5" stroke="#717783"/>
<g clip-path="url(#clip5_769_7730)">
<rect x="232" y="275.5" width="31" height="31" rx="3.5" fill="#F2F3F5" stroke="#717783"/>
</g>
<g clip-path="url(#clip6_769_7730)">
<rect x="282.25" y="275.5" width="31" height="31" rx="3.5" stroke="#D91818"/>
<circle cx="298.25" cy="291" r="6" fill="#D91818" fill-opacity="0.15" stroke="#D91818"/>
</g>
<g clip-path="url(#clip7_769_7730)">
<rect x="332.5" y="275.5" width="31" height="31" rx="3.5" stroke="#06C569"/>
<circle cx="348" cy="291" r="6" stroke="#06C569"/>
<path d="M345.334 291L347.334 293L350.667 289" stroke="#06C569"/>
</g>
<line y1="350.5" x2="380" y2="350.5" stroke="#717783"/>
<path d="M200.657 358.769L200.644 301.95C200.642 296.552 194.789 293.187 190.123 295.902L141.153 324.398C135.446 327.719 137.088 336.369 143.614 337.368L168.081 341.113C169.809 341.377 171.376 342.279 172.472 343.64L188.207 363.164C192.352 368.306 200.659 365.375 200.657 358.769Z" fill="black" stroke="black" stroke-width="2"/>
<g clip-path="url(#clip8_769_7730)">
<line x1="412" y1="350.5" x2="792" y2="350.5" stroke="#717783"/>
<path d="M601.5 350C690.694 350 763 277.694 763 188.5C763 99.306 690.694 27 601.5 27C512.306 27 440 99.306 440 188.5C440 231.914 457.13 271.327 485 300.348" stroke="#717783"/>
<path d="M460.2 298.2L484.855 300.357L487.012 275.703" stroke="#717783"/>
<circle cx="605.5" cy="349.5" r="29" fill="white" stroke="#CCCFD5"/>
<path fill-rule="evenodd" clip-rule="evenodd" d="M600.146 339.037C600.146 338.892 600.146 338.819 600.1 338.775C600.054 338.73 599.981 338.733 599.837 338.738C597.888 338.81 596.706 339.054 595.88 339.88C594.708 341.052 594.708 342.937 594.708 346.708V353.833C594.708 357.605 594.708 359.49 595.88 360.662C597.051 361.833 598.937 361.833 602.708 361.833H608.291C612.063 361.833 613.948 361.833 615.12 360.662C616.291 359.49 616.291 357.605 616.291 353.833V346.708C616.291 342.937 616.291 341.052 615.12 339.88C614.293 339.054 613.111 338.81 611.163 338.738C611.018 338.733 610.946 338.73 610.9 338.775C610.854 338.819 610.854 338.892 610.854 339.037V341.021C610.854 341.849 610.182 342.521 609.354 342.521C608.525 342.521 607.854 341.849 607.854 341.021V339.008C607.854 338.867 607.854 338.796 607.81 338.752C607.766 338.708 607.695 338.708 607.554 338.708H603.446C603.304 338.708 603.233 338.708 603.189 338.752C603.146 338.796 603.146 338.867 603.146 339.008V341.021C603.146 341.849 602.474 342.521 601.646 342.521C600.817 342.521 600.146 341.849 600.146 341.021V339.037Z" fill="#E48038"/>
<path d="M601.646 336.396V341.021" stroke="white" stroke-linecap="round"/>
<path d="M609.354 336.396V341.021" stroke="white" stroke-linecap="round"/>
<path d="M601.646 347.188L609.354 347.188" stroke="white" stroke-width="2" stroke-linecap="round"/>
<path d="M601.646 351.812L609.354 351.813" stroke="white" stroke-width="2" stroke-linecap="round"/>
<path d="M601.646 356.438L609.354 356.438" stroke="white" stroke-width="2" stroke-linecap="round"/>
<circle cx="601.5" cy="29.5" r="29" fill="white" stroke="#CCCFD5"/>
<ellipse cx="601.5" cy="30.2082" rx="13.6667" ry="13.6667" fill="#0045FF"/>
<path d="M590.396 15.6875L586.979 19.1042" stroke="white" stroke-linecap="round"/>
<path d="M612.604 15.6875L616.021 19.1042" stroke="white" stroke-linecap="round"/>
<path d="M601.5 21.6665V30.1325C601.5 30.1818 601.515 30.2301 601.542 30.2712L604.917 35.3332" stroke="white" stroke-width="2" stroke-linecap="round"/>
<circle cx="762.5" cy="189.5" r="29" fill="white" stroke="#CCCFD5"/>
<path fill-rule="evenodd" clip-rule="evenodd" d="M774.423 179.806L765.519 175.99C764.23 175.437 762.771 175.437 761.481 175.99L752.577 179.806C751.949 180.075 751.542 180.692 751.542 181.376V190.35C751.542 193.66 753.141 196.766 755.834 198.69L761.514 202.748C762.702 203.596 764.298 203.596 765.486 202.748L771.166 198.69C773.86 196.766 775.459 193.66 775.459 190.35V181.376C775.459 180.692 775.051 180.075 774.423 179.806ZM769.406 185.999C769.751 185.568 769.681 184.939 769.25 184.594C768.819 184.249 768.189 184.319 767.844 184.75L761.709 192.419L759.082 189.793C758.692 189.402 758.059 189.402 757.668 189.793C757.278 190.183 757.278 190.816 757.668 191.207L760.69 194.229C761.322 194.861 762.363 194.803 762.922 194.105L769.406 185.999Z" fill="#06C569"/>
<path d="M622.18 90.801H621.68V90.8259L621.683 90.8507L622.18 90.801ZM622.18 90.801H622.68V90.776L622.678 90.7512L622.18 90.801ZM625.795 126.948L626.292 126.899L625.795 126.948ZM626.593 129.628L626.401 130.09H626.401L626.593 129.628ZM629.051 128.297L628.735 127.91L629.051 128.297ZM657.167 105.293L656.851 104.906V104.906L657.167 105.293ZM658.551 104.496L658.526 104.995L658.551 104.496ZM659.848 105.427L659.494 105.781L659.494 105.781L659.848 105.427ZM685.573 131.152L685.219 131.505L685.573 131.152ZM686.504 132.449L686.005 132.474L686.504 132.449ZM685.706 133.832L685.319 133.516V133.516L685.706 133.832ZM662.702 161.949L662.315 161.632L662.702 161.949ZM661.372 164.407L660.91 164.599V164.599L661.372 164.407ZM664.051 165.205L664.101 164.708L664.051 165.205ZM700.199 168.82L700.149 169.317L700.199 168.82ZM701.741 169.234L701.371 169.569V169.569L701.741 169.234ZM701.741 208.766L701.371 208.431V208.431L701.741 208.766ZM700.199 209.18L700.149 208.683L700.199 209.18ZM664.055 212.795L664.005 212.297L664.055 212.795ZM661.375 213.592L660.914 213.401V213.401L661.375 213.592ZM662.706 216.051L662.319 216.368L662.706 216.051ZM685.707 244.163L685.32 244.48L685.707 244.163ZM686.505 245.547L687.004 245.572L686.505 245.547ZM659.848 272.568L659.495 272.215H659.495L659.848 272.568ZM658.551 273.5L658.576 273.999L658.551 273.5ZM657.168 272.702L657.484 272.315L657.168 272.702ZM629.052 249.698L629.368 249.311L629.052 249.698ZM626.593 248.368L626.402 247.906H626.402L626.593 248.368ZM625.795 251.047L625.298 250.997L625.795 251.047ZM622.18 287.199L622.678 287.249L622.18 287.199ZM581.82 287.199L581.322 287.249L581.82 287.199ZM578.205 251.051L577.708 251.101L578.205 251.051ZM577.407 248.372L577.599 247.91H577.599L577.407 248.372ZM574.949 249.702L575.265 250.089L574.949 249.702ZM546.832 272.707L547.149 273.094H547.149L546.832 272.707ZM544.151 272.573L544.505 272.219L544.151 272.573ZM518.427 246.848L518.073 247.202H518.073L518.427 246.848ZM517.495 245.551L517.994 245.526L517.495 245.551ZM518.293 244.168L518.68 244.484L518.293 244.168ZM541.297 216.051L540.91 215.735L541.297 216.051ZM542.628 213.593L542.166 213.784L542.166 213.784L542.628 213.593ZM539.948 212.795L539.899 213.292L539.948 212.795ZM503.801 209.18L503.851 208.683L503.826 208.68H503.801V209.18ZM503.801 209.18L503.751 209.678L503.776 209.68H503.801V209.18ZM502.259 208.766L502.629 208.43H502.629L502.259 208.766ZM502.259 169.234L502.629 169.569H502.629L502.259 169.234ZM503.801 168.82V168.32H503.776L503.751 168.322L503.801 168.82ZM503.801 168.82V169.32H503.826L503.851 169.317L503.801 168.82ZM539.952 165.205L539.902 164.707L539.952 165.205ZM542.631 164.407L542.169 164.216L542.169 164.216L542.631 164.407ZM541.301 161.948L540.914 162.265L541.301 161.948ZM518.293 133.828L518.68 133.511L518.293 133.828ZM517.496 132.444L517.995 132.469L517.496 132.444ZM518.427 131.147L518.781 131.501L518.427 131.147ZM544.152 105.423L543.798 105.069L544.152 105.423ZM545.449 104.491L545.474 104.99L545.449 104.491ZM546.832 105.289L546.516 105.676L546.832 105.289ZM574.949 128.293L575.266 127.906L574.949 128.293ZM577.408 129.624L577.599 130.086L577.599 130.086L577.408 129.624ZM578.206 126.944L577.708 126.895L578.206 126.944ZM581.82 90.801L581.322 90.7512V90.7512L581.82 90.801ZM621.766 89.2585L622.102 88.8878V88.8878L621.766 89.2585ZM622.68 90.801V90.801H621.68V90.801H622.68ZM626.292 126.899L622.678 90.7512L621.683 90.8507L625.297 126.998L626.292 126.899ZM626.784 129.166C626.733 129.145 626.631 129.085 626.533 128.693C626.434 128.3 626.376 127.732 626.292 126.899L625.297 126.998C625.377 127.798 625.442 128.455 625.563 128.937C625.684 129.419 625.9 129.882 626.401 130.09L626.784 129.166ZM628.735 127.91C628.086 128.441 627.644 128.801 627.296 129.009C626.949 129.216 626.835 129.187 626.784 129.166L626.401 130.09C626.903 130.297 627.383 130.123 627.809 129.867C628.236 129.613 628.746 129.193 629.368 128.684L628.735 127.91ZM656.851 104.906L628.735 127.91L629.368 128.684L657.484 105.68L656.851 104.906ZM658.576 103.996C658.242 103.979 657.96 104.096 657.7 104.259C657.452 104.413 657.173 104.643 656.851 104.906L657.484 105.68C657.827 105.4 658.048 105.22 658.229 105.107C658.398 105.002 658.475 104.992 658.526 104.995L658.576 103.996ZM660.202 105.074C659.907 104.779 659.653 104.523 659.421 104.345C659.178 104.157 658.909 104.013 658.576 103.996L658.526 104.995C658.577 104.997 658.653 105.015 658.81 105.136C658.979 105.266 659.181 105.467 659.494 105.781L660.202 105.074ZM685.926 130.798L660.202 105.074L659.494 105.781L685.219 131.505L685.926 130.798ZM687.004 132.424C686.987 132.09 686.843 131.821 686.655 131.579C686.476 131.347 686.221 131.093 685.926 130.798L685.219 131.505C685.533 131.819 685.733 132.021 685.863 132.19C685.985 132.347 686.002 132.423 686.005 132.474L687.004 132.424ZM686.093 134.149C686.357 133.826 686.586 133.548 686.741 133.3C686.903 133.039 687.02 132.758 687.004 132.424L686.005 132.474C686.007 132.525 685.998 132.602 685.892 132.771C685.78 132.952 685.6 133.173 685.319 133.516L686.093 134.149ZM663.089 162.265L686.093 134.149L685.319 133.516L662.315 161.632L663.089 162.265ZM661.834 164.216C661.812 164.165 661.783 164.05 661.99 163.704C662.198 163.356 662.559 162.914 663.089 162.265L662.315 161.632C661.806 162.254 661.387 162.764 661.132 163.19C660.877 163.617 660.702 164.097 660.91 164.599L661.834 164.216ZM664.101 164.708C663.267 164.624 662.699 164.566 662.307 164.467C661.915 164.369 661.855 164.267 661.834 164.216L660.91 164.599C661.118 165.1 661.581 165.316 662.063 165.437C662.544 165.558 663.201 165.623 664.001 165.703L664.101 164.708ZM700.249 168.322L664.101 164.708L664.001 165.703L700.149 169.317L700.249 168.322ZM702.112 168.898C701.888 168.651 701.606 168.534 701.307 168.465C701.022 168.399 700.663 168.364 700.249 168.322L700.149 169.317C700.591 169.362 700.874 169.391 701.081 169.439C701.275 169.484 701.336 169.531 701.371 169.569L702.112 168.898ZM702.5 170.81C702.5 170.393 702.501 170.033 702.464 169.743C702.424 169.438 702.336 169.146 702.112 168.898L701.371 169.569C701.405 169.608 701.446 169.673 701.472 169.87C701.499 170.082 701.5 170.367 701.5 170.81H702.5ZM702.5 207.19V170.81H701.5V207.19H702.5ZM702.112 209.102C702.336 208.854 702.424 208.562 702.464 208.257C702.501 207.967 702.5 207.607 702.5 207.19H701.5C701.5 207.633 701.499 207.918 701.472 208.13C701.446 208.327 701.405 208.392 701.371 208.431L702.112 209.102ZM700.249 209.678C700.663 209.636 701.022 209.601 701.307 209.535C701.606 209.466 701.888 209.349 702.112 209.102L701.371 208.431C701.336 208.469 701.275 208.516 701.081 208.561C700.874 208.609 700.591 208.638 700.149 208.683L700.249 209.678ZM664.105 213.292L700.249 209.678L700.149 208.683L664.005 212.297L664.105 213.292ZM661.837 213.784C661.859 213.732 661.919 213.631 662.31 213.532C662.703 213.434 663.271 213.375 664.105 213.292L664.005 212.297C663.205 212.377 662.548 212.441 662.066 212.563C661.584 212.684 661.121 212.899 660.914 213.401L661.837 213.784ZM663.093 215.734C662.562 215.086 662.202 214.643 661.994 214.296C661.787 213.949 661.816 213.835 661.837 213.784L660.914 213.401C660.706 213.903 660.881 214.382 661.136 214.809C661.391 215.235 661.81 215.746 662.319 216.368L663.093 215.734ZM686.094 243.847L663.093 215.734L662.319 216.368L685.32 244.48L686.094 243.847ZM687.004 245.572C687.021 245.238 686.904 244.956 686.741 244.696C686.587 244.448 686.358 244.169 686.094 243.847L685.32 244.48C685.601 244.823 685.78 245.044 685.893 245.225C685.998 245.394 686.008 245.471 686.005 245.522L687.004 245.572ZM685.927 247.197C686.221 246.903 686.477 246.649 686.656 246.417C686.843 246.174 686.987 245.905 687.004 245.572L686.005 245.522C686.003 245.573 685.985 245.649 685.864 245.806C685.734 245.975 685.533 246.177 685.219 246.49L685.927 247.197ZM660.202 272.922L685.927 247.197L685.219 246.49L659.495 272.215L660.202 272.922ZM658.576 273.999C658.91 273.983 659.179 273.838 659.422 273.651C659.653 273.472 659.907 273.217 660.202 272.922L659.495 272.215C659.181 272.529 658.979 272.729 658.811 272.859C658.653 272.981 658.578 272.998 658.526 273.001L658.576 273.999ZM656.851 273.089C657.174 273.353 657.452 273.582 657.7 273.737C657.961 273.899 658.243 274.016 658.576 273.999L658.526 273.001C658.475 273.003 658.398 272.994 658.229 272.888C658.049 272.776 657.828 272.596 657.484 272.315L656.851 273.089ZM628.735 250.085L656.851 273.089L657.484 272.315L629.368 249.311L628.735 250.085ZM626.784 248.83C626.836 248.809 626.95 248.779 627.297 248.986C627.644 249.194 628.087 249.555 628.735 250.085L629.368 249.311C628.746 248.802 628.236 248.383 627.81 248.128C627.383 247.873 626.903 247.698 626.402 247.906L626.784 248.83ZM626.293 251.097C626.376 250.263 626.434 249.695 626.533 249.303C626.632 248.911 626.733 248.851 626.784 248.83L626.402 247.906C625.9 248.114 625.685 248.577 625.563 249.059C625.442 249.54 625.378 250.198 625.298 250.997L626.293 251.097ZM622.678 287.249L626.293 251.097L625.298 250.997L621.683 287.149L622.678 287.249ZM622.102 289.112C622.349 288.888 622.466 288.606 622.535 288.307C622.601 288.022 622.636 287.663 622.678 287.249L621.683 287.149C621.638 287.591 621.609 287.874 621.561 288.081C621.516 288.275 621.469 288.336 621.431 288.371L622.102 289.112ZM620.19 289.5C620.607 289.5 620.967 289.501 621.257 289.464C621.562 289.424 621.854 289.336 622.102 289.112L621.431 288.371C621.392 288.405 621.327 288.446 621.13 288.472C620.918 288.499 620.633 288.5 620.19 288.5V289.5ZM583.81 289.5H620.19V288.5H583.81V289.5ZM581.898 289.112C582.146 289.336 582.438 289.424 582.743 289.464C583.033 289.501 583.393 289.5 583.81 289.5V288.5C583.367 288.5 583.082 288.499 582.87 288.472C582.673 288.446 582.608 288.405 582.569 288.371L581.898 289.112ZM581.322 287.249C581.364 287.663 581.399 288.022 581.465 288.307C581.534 288.606 581.651 288.888 581.898 289.112L582.569 288.371C582.531 288.336 582.484 288.275 582.439 288.081C582.391 287.874 582.362 287.591 582.317 287.149L581.322 287.249ZM577.708 251.101L581.322 287.249L582.317 287.149L578.703 251.001L577.708 251.101ZM577.216 248.834C577.267 248.855 577.369 248.915 577.467 249.307C577.566 249.699 577.624 250.267 577.708 251.101L578.703 251.001C578.623 250.201 578.558 249.544 578.437 249.063C578.316 248.581 578.1 248.118 577.599 247.91L577.216 248.834ZM575.265 250.089C575.914 249.559 576.356 249.198 576.704 248.99C577.05 248.783 577.165 248.812 577.216 248.834L577.599 247.91C577.097 247.702 576.617 247.877 576.19 248.132C575.764 248.387 575.254 248.806 574.632 249.315L575.265 250.089ZM547.149 273.094L575.265 250.089L574.632 249.315L546.515 272.32L547.149 273.094ZM545.424 274.004C545.757 274.021 546.039 273.904 546.299 273.741C546.548 273.587 546.826 273.358 547.149 273.094L546.515 272.32C546.172 272.601 545.951 272.78 545.77 272.893C545.601 272.998 545.525 273.008 545.473 273.005L545.424 274.004ZM543.798 272.927C544.092 273.221 544.347 273.477 544.578 273.656C544.821 273.843 545.09 273.987 545.424 274.004L545.473 273.005C545.422 273.003 545.347 272.985 545.189 272.864C545.02 272.734 544.818 272.533 544.505 272.219L543.798 272.927ZM518.073 247.202L543.798 272.927L544.505 272.219L518.78 246.495L518.073 247.202ZM516.996 245.576C517.012 245.91 517.157 246.179 517.344 246.422C517.523 246.653 517.778 246.907 518.073 247.202L518.78 246.495C518.467 246.181 518.266 245.979 518.136 245.811C518.014 245.653 517.997 245.578 517.994 245.526L516.996 245.576ZM517.906 243.851C517.642 244.174 517.413 244.452 517.258 244.7C517.096 244.961 516.979 245.243 516.996 245.576L517.994 245.526C517.992 245.475 518.002 245.398 518.107 245.229C518.22 245.049 518.399 244.828 518.68 244.484L517.906 243.851ZM540.91 215.735L517.906 243.851L518.68 244.484L541.684 216.368L540.91 215.735ZM542.166 213.784C542.187 213.835 542.216 213.949 542.009 214.296C541.801 214.644 541.441 215.086 540.91 215.735L541.684 216.368C542.193 215.746 542.612 215.236 542.867 214.809C543.122 214.383 543.297 213.903 543.09 213.401L542.166 213.784ZM539.899 213.292C540.732 213.376 541.3 213.434 541.693 213.533C542.085 213.631 542.144 213.733 542.166 213.784L543.09 213.401C542.882 212.9 542.419 212.684 541.937 212.563C541.455 212.442 540.798 212.377 539.998 212.297L539.899 213.292ZM503.751 209.678L539.899 213.292L539.998 212.297L503.851 208.683L503.751 209.678ZM503.801 209.68H503.801V208.68H503.801V209.68ZM501.888 209.102C502.112 209.349 502.394 209.466 502.693 209.535C502.978 209.601 503.337 209.636 503.751 209.678L503.851 208.683C503.409 208.638 503.126 208.609 502.919 208.561C502.725 208.516 502.664 208.469 502.629 208.43L501.888 209.102ZM501.5 207.19C501.5 207.607 501.499 207.967 501.536 208.257C501.576 208.562 501.664 208.854 501.888 209.102L502.629 208.43C502.595 208.392 502.554 208.327 502.528 208.13C502.501 207.918 502.5 207.633 502.5 207.19H501.5ZM501.5 170.81V207.19H502.5V170.81H501.5ZM501.888 168.898C501.664 169.146 501.576 169.438 501.536 169.743C501.499 170.033 501.5 170.393 501.5 170.81H502.5C502.5 170.367 502.501 170.082 502.528 169.87C502.554 169.673 502.595 169.608 502.629 169.569L501.888 168.898ZM503.751 168.322C503.337 168.364 502.978 168.399 502.693 168.465C502.394 168.534 502.112 168.651 501.888 168.898L502.629 169.569C502.664 169.531 502.725 169.484 502.919 169.439C503.126 169.391 503.409 169.362 503.851 169.317L503.751 168.322ZM503.801 168.32H503.801V169.32H503.801V168.32ZM539.902 164.707L503.751 168.322L503.851 169.317L540.002 165.702L539.902 164.707ZM542.169 164.216C542.148 164.267 542.088 164.368 541.696 164.467C541.304 164.566 540.736 164.624 539.902 164.707L540.002 165.702C540.802 165.622 541.459 165.558 541.94 165.437C542.423 165.315 542.886 165.1 543.093 164.598L542.169 164.216ZM540.914 162.265C541.445 162.913 541.805 163.356 542.013 163.703C542.22 164.05 542.191 164.164 542.169 164.216L543.093 164.598C543.301 164.097 543.126 163.617 542.871 163.19C542.616 162.764 542.197 162.254 541.688 161.632L540.914 162.265ZM517.906 134.144L540.914 162.265L541.688 161.632L518.68 133.511L517.906 134.144ZM516.996 132.419C516.979 132.753 517.096 133.035 517.259 133.295C517.413 133.544 517.643 133.822 517.906 134.144L518.68 133.511C518.4 133.168 518.22 132.947 518.107 132.766C518.002 132.597 517.992 132.521 517.995 132.469L516.996 132.419ZM518.074 130.794C517.779 131.088 517.523 131.342 517.345 131.574C517.157 131.817 517.013 132.086 516.996 132.419L517.995 132.469C517.997 132.418 518.015 132.342 518.136 132.185C518.266 132.016 518.467 131.814 518.781 131.501L518.074 130.794ZM543.798 105.069L518.074 130.794L518.781 131.501L544.505 105.776L543.798 105.069ZM545.424 103.992C545.09 104.008 544.821 104.153 544.579 104.34C544.347 104.519 544.093 104.774 543.798 105.069L544.505 105.776C544.819 105.463 545.021 105.262 545.19 105.132C545.347 105.01 545.423 104.993 545.474 104.99L545.424 103.992ZM547.149 104.902C546.826 104.638 546.548 104.409 546.3 104.254C546.039 104.092 545.758 103.975 545.424 103.992L545.474 104.99C545.525 104.988 545.602 104.997 545.771 105.103C545.952 105.216 546.173 105.395 546.516 105.676L547.149 104.902ZM575.266 127.906L547.149 104.902L546.516 105.676L574.632 128.68L575.266 127.906ZM577.216 129.162C577.165 129.183 577.051 129.213 576.704 129.005C576.357 128.797 575.914 128.437 575.266 127.906L574.632 128.68C575.255 129.189 575.765 129.609 576.191 129.863C576.618 130.119 577.097 130.293 577.599 130.086L577.216 129.162ZM577.708 126.895C577.625 127.728 577.567 128.296 577.468 128.689C577.369 129.081 577.268 129.141 577.216 129.162L577.599 130.086C578.101 129.878 578.316 129.415 578.438 128.933C578.559 128.451 578.623 127.794 578.703 126.994L577.708 126.895ZM581.322 90.7512L577.708 126.895L578.703 126.994L582.317 90.8507L581.322 90.7512ZM581.898 88.8878C581.651 89.1119 581.534 89.3939 581.465 89.6928C581.399 89.9778 581.364 90.3366 581.322 90.7512L582.317 90.8507C582.362 90.4095 582.391 90.1263 582.439 89.9187C582.484 89.725 582.531 89.6637 582.569 89.6293L581.898 88.8878ZM583.81 88.5C583.393 88.5 583.033 88.499 582.743 88.5364C582.438 88.5756 582.146 88.6637 581.898 88.8878L582.569 89.6293C582.608 89.5948 582.673 89.5536 582.87 89.5282C583.082 89.501 583.367 89.5 583.81 89.5V88.5ZM620.19 88.5H583.81V89.5H620.19V88.5ZM622.102 88.8878C621.854 88.6637 621.562 88.5756 621.257 88.5364C620.967 88.499 620.607 88.5 620.19 88.5V89.5C620.633 89.5 620.918 89.501 621.13 89.5282C621.327 89.5536 621.392 89.5948 621.431 89.6293L622.102 88.8878ZM622.678 90.7512C622.636 90.3365 622.601 89.9778 622.535 89.6928C622.466 89.3939 622.349 89.1119 622.102 88.8878L621.431 89.6293C621.469 89.6637 621.516 89.725 621.561 89.9187C621.609 90.1263 621.638 90.4095 621.683 90.8507L622.678 90.7512ZM641.5 189C641.5 210.815 623.815 228.5 602 228.5V229.5C624.368 229.5 642.5 211.368 642.5 189H641.5ZM602 149.5C623.815 149.5 641.5 167.185 641.5 189H642.5C642.5 166.632 624.368 148.5 602 148.5V149.5ZM562.5 189C562.5 167.185 580.185 149.5 602 149.5V148.5C579.632 148.5 561.5 166.632 561.5 189H562.5ZM602 228.5C580.185 228.5 562.5 210.815 562.5 189H561.5C561.5 211.368 579.632 229.5 602 229.5V228.5Z" fill="#717783"/>
</g>
<g clip-path="url(#clip9_769_7730)">
<line x1="824" y1="350.5" x2="1203" y2="350.5" stroke="#717783"/>
<path d="M1186 368L1203.5 350.5L1186 333" stroke="#717783"/>
<path d="M844.5 198C844.5 193.858 847.858 190.5 852 190.5H976C980.142 190.5 983.5 193.858 983.5 198V221.5H844.5V198Z" fill="white"/>
<circle cx="864" cy="206" r="4" fill="#717783"/>
<circle cx="880" cy="206" r="4" fill="#717783"/>
<circle cx="896" cy="206" r="4" fill="#717783"/>
<path d="M844.5 198C844.5 193.858 847.858 190.5 852 190.5H976C980.142 190.5 983.5 193.858 983.5 198V221.5H844.5V198Z" stroke="#717783"/>
<path d="M844.5 221.5H983.5V324C983.5 327.038 981.038 329.5 978 329.5H850C846.962 329.5 844.5 327.038 844.5 324V221.5Z" fill="white" stroke="#717783"/>
<g clip-path="url(#clip10_769_7730)">
<rect x="861.5" y="243.5" width="23" height="23" rx="3.5" stroke="#06C569"/>
<circle cx="873" cy="255" r="6" stroke="#06C569"/>
<path d="M870.334 255L872.334 257L875.667 253" stroke="#06C569"/>
</g>
<g clip-path="url(#clip11_769_7730)">
<rect x="902.5" y="243.5" width="23" height="23" rx="3.5" stroke="#06C569"/>
<circle cx="914" cy="255" r="6" stroke="#06C569"/>
<path d="M911.334 255L913.334 257L916.667 253" stroke="#06C569"/>
</g>
<g clip-path="url(#clip12_769_7730)">
<rect x="943.5" y="243.5" width="23" height="23" rx="3.5" stroke="#06C569"/>
<circle cx="955" cy="255" r="6" stroke="#06C569"/>
<path d="M952.334 255L954.334 257L957.667 253" stroke="#06C569"/>
</g>
<g clip-path="url(#clip13_769_7730)">
<rect x="861.5" y="283.5" width="23" height="23" rx="3.5" stroke="#06C569"/>
<circle cx="873" cy="295" r="6" stroke="#06C569"/>
<path d="M870.334 295L872.334 297L875.667 293" stroke="#06C569"/>
</g>
<g clip-path="url(#clip14_769_7730)">
<rect x="902.5" y="283.5" width="23" height="23" rx="3.5" stroke="#06C569"/>
<circle cx="914" cy="295" r="6" stroke="#06C569"/>
<path d="M911.334 295L913.334 297L916.667 293" stroke="#06C569"/>
</g>
<g clip-path="url(#clip15_769_7730)">
<rect x="943.5" y="283.5" width="23" height="23" rx="3.5" stroke="#06C569"/>
<circle cx="955" cy="295" r="6" stroke="#06C569"/>
<path d="M952.334 295L954.334 297L957.667 293" stroke="#06C569"/>
</g>
<path d="M944.5 8C944.5 3.85786 947.858 0.5 952 0.5H1076C1080.14 0.5 1083.5 3.85786 1083.5 8V31.5H944.5V8Z" fill="white"/>
<circle cx="964" cy="16" r="4" fill="#717783"/>
<circle cx="980" cy="16" r="4" fill="#717783"/>
<circle cx="996" cy="16" r="4" fill="#717783"/>
<path d="M944.5 8C944.5 3.85786 947.858 0.5 952 0.5H1076C1080.14 0.5 1083.5 3.85786 1083.5 8V31.5H944.5V8Z" stroke="#717783"/>
<path d="M944.5 31.5H1083.5V134C1083.5 137.038 1081.04 139.5 1078 139.5H950C946.962 139.5 944.5 137.038 944.5 134V31.5Z" fill="white" stroke="#717783"/>
<g clip-path="url(#clip16_769_7730)">
<rect x="961.5" y="53.5" width="23" height="23" rx="3.5" stroke="#06C569"/>
<circle cx="973" cy="65" r="6" stroke="#06C569"/>
<path d="M970.334 65L972.334 67L975.667 63" stroke="#06C569"/>
</g>
<g clip-path="url(#clip17_769_7730)">
<rect x="1002.5" y="53.5" width="23" height="23" rx="3.5" stroke="#06C569"/>
<circle cx="1014" cy="65" r="6" stroke="#06C569"/>
<path d="M1011.33 65L1013.33 67L1016.67 63" stroke="#06C569"/>
</g>
<g clip-path="url(#clip18_769_7730)">
<rect x="1043.5" y="53.5" width="23" height="23" rx="3.5" stroke="#06C569"/>
<circle cx="1055" cy="65" r="6" stroke="#06C569"/>
<path d="M1052.33 65L1054.33 67L1057.67 63" stroke="#06C569"/>
</g>
<g clip-path="url(#clip19_769_7730)">
<rect x="961.5" y="93.5" width="23" height="23" rx="3.5" stroke="#06C569"/>
<circle cx="973" cy="105" r="6" stroke="#06C569"/>
<path d="M970.334 105L972.334 107L975.667 103" stroke="#06C569"/>
</g>
<g clip-path="url(#clip20_769_7730)">
<rect x="1002.5" y="93.5" width="23" height="23" rx="3.5" stroke="#06C569"/>
<circle cx="1014" cy="105" r="6" stroke="#06C569"/>
<path d="M1011.33 105L1013.33 107L1016.67 103" stroke="#06C569"/>
</g>
<g clip-path="url(#clip21_769_7730)">
<rect x="1043.5" y="93.5" width="23" height="23" rx="3.5" stroke="#06C569"/>
<circle cx="1055" cy="105" r="6" stroke="#06C569"/>
<path d="M1052.33 105L1054.33 107L1057.67 103" stroke="#06C569"/>
</g>
<path d="M1016 150V164.677C1016 165.782 1015.1 166.677 1014 166.677H915C913.895 166.677 913 167.573 913 168.677V183" stroke="#717783" stroke-linejoin="round" stroke-dasharray="0.5 5"/>
<path d="M1016 150V164.677C1016 165.782 1016.9 166.677 1018 166.677H1117C1118.1 166.677 1119 167.573 1119 168.677V183" stroke="#717783" stroke-linejoin="round" stroke-dasharray="0.5 5"/>
<path d="M1044.5 198C1044.5 193.858 1047.86 190.5 1052 190.5H1176C1180.14 190.5 1183.5 193.858 1183.5 198V221.5H1044.5V198Z" fill="white"/>
<circle cx="1064" cy="206" r="4" fill="#717783"/>
<circle cx="1080" cy="206" r="4" fill="#717783"/>
<circle cx="1096" cy="206" r="4" fill="#717783"/>
<path d="M1044.5 198C1044.5 193.858 1047.86 190.5 1052 190.5H1176C1180.14 190.5 1183.5 193.858 1183.5 198V221.5H1044.5V198Z" stroke="#717783"/>
<path d="M1044.5 221.5H1183.5V324C1183.5 327.038 1181.04 329.5 1178 329.5H1050C1046.96 329.5 1044.5 327.038 1044.5 324V221.5Z" fill="white" stroke="#717783"/>
<g clip-path="url(#clip22_769_7730)">
<rect x="1061.5" y="244.5" width="23" height="23" rx="3.5" stroke="#06C569"/>
<circle cx="1073" cy="256" r="6" stroke="#06C569"/>
<path d="M1070.33 256L1072.33 258L1075.67 254" stroke="#06C569"/>
</g>
<g clip-path="url(#clip23_769_7730)">
<rect x="1102.5" y="244.5" width="23" height="23" rx="3.5" stroke="#06C569"/>
<circle cx="1114" cy="256" r="6" stroke="#06C569"/>
<path d="M1111.33 256L1113.33 258L1116.67 254" stroke="#06C569"/>
</g>
<g clip-path="url(#clip24_769_7730)">
<rect x="1143.5" y="244.5" width="23" height="23" rx="3.5" stroke="#06C569"/>
<circle cx="1155" cy="256" r="6" stroke="#06C569"/>
<path d="M1152.33 256L1154.33 258L1157.67 254" stroke="#06C569"/>
</g>
<g clip-path="url(#clip25_769_7730)">
<rect x="1061.5" y="284.5" width="23" height="23" rx="3.5" stroke="#06C569"/>
<circle cx="1073" cy="296" r="6" stroke="#06C569"/>
<path d="M1070.33 296L1072.33 298L1075.67 294" stroke="#06C569"/>
</g>
<g clip-path="url(#clip26_769_7730)">
<rect x="1102.5" y="284.5" width="23" height="23" rx="3.5" stroke="#06C569"/>
<circle cx="1114" cy="296" r="6" stroke="#06C569"/>
<path d="M1111.33 296L1113.33 298L1116.67 294" stroke="#06C569"/>
</g>
<g clip-path="url(#clip27_769_7730)">
<rect x="1143.5" y="284.5" width="23" height="23" rx="3.5" stroke="#06C569"/>
<circle cx="1155" cy="296" r="6" stroke="#06C569"/>
<path d="M1152.33 296L1154.33 298L1157.67 294" stroke="#06C569"/>
</g>
</g>
<defs>
<clipPath id="clip0_769_7730">
<rect width="32" height="32" fill="white" transform="translate(181.25 227)"/>
</clipPath>
<clipPath id="clip1_769_7730">
<rect width="32" height="32" fill="white" transform="translate(231.5 227)"/>
</clipPath>
<clipPath id="clip2_769_7730">
<rect width="32" height="32" fill="white" transform="translate(281.75 227)"/>
</clipPath>
<clipPath id="clip3_769_7730">
<rect width="32" height="32" fill="white" transform="translate(332 227)"/>
</clipPath>
<clipPath id="clip4_769_7730">
<rect width="32" height="32" fill="white" transform="translate(131 275)"/>
</clipPath>
<clipPath id="clip5_769_7730">
<rect width="32" height="32" fill="white" transform="translate(231.5 275)"/>
</clipPath>
<clipPath id="clip6_769_7730">
<rect width="32" height="32" fill="white" transform="translate(281.75 275)"/>
</clipPath>
<clipPath id="clip7_769_7730">
<rect width="32" height="32" fill="white" transform="translate(332 275)"/>
</clipPath>
<clipPath id="clip8_769_7730">
<rect width="380" height="379" fill="white" transform="translate(412)"/>
</clipPath>
<clipPath id="clip9_769_7730">
<rect width="380" height="379" fill="white" transform="translate(824)"/>
</clipPath>
<clipPath id="clip10_769_7730">
<rect width="24" height="24" fill="white" transform="translate(861 243)"/>
</clipPath>
<clipPath id="clip11_769_7730">
<rect width="24" height="24" fill="white" transform="translate(902 243)"/>
</clipPath>
<clipPath id="clip12_769_7730">
<rect width="24" height="24" fill="white" transform="translate(943 243)"/>
</clipPath>
<clipPath id="clip13_769_7730">
<rect width="24" height="24" fill="white" transform="translate(861 283)"/>
</clipPath>
<clipPath id="clip14_769_7730">
<rect width="24" height="24" fill="white" transform="translate(902 283)"/>
</clipPath>
<clipPath id="clip15_769_7730">
<rect width="24" height="24" fill="white" transform="translate(943 283)"/>
</clipPath>
<clipPath id="clip16_769_7730">
<rect width="24" height="24" fill="white" transform="translate(961 53)"/>
</clipPath>
<clipPath id="clip17_769_7730">
<rect width="24" height="24" fill="white" transform="translate(1002 53)"/>
</clipPath>
<clipPath id="clip18_769_7730">
<rect width="24" height="24" fill="white" transform="translate(1043 53)"/>
</clipPath>
<clipPath id="clip19_769_7730">
<rect width="24" height="24" fill="white" transform="translate(961 93)"/>
</clipPath>
<clipPath id="clip20_769_7730">
<rect width="24" height="24" fill="white" transform="translate(1002 93)"/>
</clipPath>
<clipPath id="clip21_769_7730">
<rect width="24" height="24" fill="white" transform="translate(1043 93)"/>
</clipPath>
<clipPath id="clip22_769_7730">
<rect width="24" height="24" fill="white" transform="translate(1061 244)"/>
</clipPath>
<clipPath id="clip23_769_7730">
<rect width="24" height="24" fill="white" transform="translate(1102 244)"/>
</clipPath>
<clipPath id="clip24_769_7730">
<rect width="24" height="24" fill="white" transform="translate(1143 244)"/>
</clipPath>
<clipPath id="clip25_769_7730">
<rect width="24" height="24" fill="white" transform="translate(1061 284)"/>
</clipPath>
<clipPath id="clip26_769_7730">
<rect width="24" height="24" fill="white" transform="translate(1102 284)"/>
</clipPath>
<clipPath id="clip27_769_7730">
<rect width="24" height="24" fill="white" transform="translate(1143 284)"/>
</clipPath>
</defs>
</svg>
