<svg aria-hidden="true" style="position: absolute; width: 0; height: 0; overflow: hidden;" version="1.1" xmlns="http://www.w3.org/2000/svg" xmlns:xlink="http://www.w3.org/1999/xlink">
<defs>
<symbol id="icon-linkedin" viewBox="0 0 33 32">
<path fill="#f2f3f5" style="fill: var(--color1, #f2f3f5)" d="M11.871 22.667c0 0.736-0.597 1.333-1.333 1.333h-0.812c-0.736 0-1.333-0.597-1.333-1.333v-8.242c0-0.736 0.597-1.333 1.333-1.333h0.812c0.736 0 1.333 0.597 1.333 1.333v8.242zM10.133 11.636c-0.962 0-1.74-0.815-1.74-1.819s0.779-1.817 1.74-1.817c0.959 0 1.738 0.815 1.738 1.817 0 1.004-0.78 1.819-1.738 1.819zM24.393 22.668c0 0.736-0.597 1.332-1.333 1.332h-0.677c-0.736 0-1.333-0.597-1.333-1.333v-3.976c0-1.266-0.023-2.895-1.738-2.895-1.741 0-2.009 1.379-2.009 2.803v4.067c0 0.736-0.597 1.333-1.333 1.333h-0.677c-0.736 0-1.333-0.597-1.333-1.333v-8.25c0-0.736 0.597-1.333 1.333-1.333h1.131c0.412 0 0.746 0.334 0.746 0.746v0.718c0 0.016 0.013 0.028 0.028 0.028 0.011 0 0.020-0.006 0.025-0.015 0.451-0.854 1.54-1.748 3.158-1.748 1.998 0 3.035 0.787 3.55 2.035 0.453 1.098 0.463 5.197 0.463 6.385 0 0.507 0 1.005 0 1.437z"></path>
<path fill="none" stroke="#f2f3f5" style="stroke: var(--color1, #f2f3f5)" stroke-linejoin="miter" stroke-linecap="butt" stroke-miterlimit="4" stroke-width="2.6667" d="M4.393 14.667c0-5.028 0-7.542 1.562-9.105s4.076-1.562 9.105-1.562h2.667c5.028 0 7.543 0 9.105 1.562s1.562 4.076 1.562 9.105v2.667c0 5.028 0 7.543-1.562 9.105s-4.076 1.562-9.105 1.562h-2.667c-5.028 0-7.542 0-9.105-1.562s-1.562-4.076-1.562-9.105v-2.667z"></path>
</symbol>
<symbol id="icon-instagram" viewBox="0 0 33 32">
<path fill="none" stroke="#f2f3f5" style="stroke: var(--color1, #f2f3f5)" stroke-linejoin="miter" stroke-linecap="butt" stroke-miterlimit="4" stroke-width="2.6667" d="M4.393 14.667c0-5.028 0-7.542 1.562-9.105s4.076-1.562 9.105-1.562h2.667c5.028 0 7.543 0 9.105 1.562s1.562 4.076 1.562 9.105v2.667c0 5.028 0 7.543-1.562 9.105s-4.076 1.562-9.105 1.562h-2.667c-5.028 0-7.542 0-9.105-1.562s-1.562-4.076-1.562-9.105v-2.667z"></path>
<path fill="#f2f3f5" style="fill: var(--color1, #f2f3f5)" d="M24.393 10c0 1.105-0.895 2-2 2s-2-0.895-2-2c0-1.105 0.895-2 2-2s2 0.895 2 2z"></path>
<path fill="none" stroke="#f2f3f5" style="stroke: var(--color1, #f2f3f5)" stroke-linejoin="miter" stroke-linecap="butt" stroke-miterlimit="4" stroke-width="2.6667" d="M20.393 16c0 2.209-1.791 4-4 4s-4-1.791-4-4c0-2.209 1.791-4 4-4s4 1.791 4 4z"></path>
</symbol>
<symbol id="icon-facebook" viewBox="0 0 33 32">
<path fill="#f2f3f5" style="fill: var(--color1, #f2f3f5)" d="M20.675 15h-2.457v-2c0-1.032 0.086-1.682 1.598-1.682h0.888c0.564 0 1.023-0.448 1.023-1v-1.254c0-0.523-0.41-0.97-0.944-1.005-0.618-0.041-1.236-0.060-1.856-0.059-2.774 0-4.799 1.657-4.799 4.699v2.301h-2.045c-0.564 0-1.023 0.448-1.023 1v2c0 0.552 0.458 1 1.023 1l2.045-0.001v8.001c0 0.552 0.458 1 1.023 1h2.045c0.564 0 1.023-0.448 1.023-1v-8.003l2.223-0.001c0.519 0 0.956-0.381 1.015-0.886l0.234-1.996c0.071-0.593-0.404-1.114-1.015-1.114z"></path>
<path fill="none" stroke="#f2f3f5" style="stroke: var(--color1, #f2f3f5)" stroke-linejoin="miter" stroke-linecap="butt" stroke-miterlimit="4" stroke-width="2.6667" d="M4.393 14.667c0-5.028 0-7.542 1.562-9.105s4.076-1.562 9.105-1.562h2.667c5.028 0 7.543 0 9.105 1.562s1.562 4.076 1.562 9.105v2.667c0 5.028 0 7.543-1.562 9.105s-4.076 1.562-9.105 1.562h-2.667c-5.028 0-7.542 0-9.105-1.562s-1.562-4.076-1.562-9.105v-2.667z"></path>
</symbol>
<symbol id="icon-linked" viewBox="0 0 32 32">
<path d="M11.478 22.667c0 0.736-0.597 1.333-1.333 1.333h-0.812c-0.736 0-1.333-0.597-1.333-1.333v-8.242c0-0.736 0.597-1.333 1.333-1.333h0.812c0.736 0 1.333 0.597 1.333 1.333v8.242zM9.74 11.636c-0.962 0-1.74-0.815-1.74-1.819s0.779-1.817 1.74-1.817c0.959 0 1.738 0.815 1.738 1.817 0 1.004-0.78 1.819-1.738 1.819zM24 22.668c0 0.736-0.597 1.332-1.333 1.332h-0.677c-0.736 0-1.333-0.597-1.333-1.333v-3.976c0-1.266-0.023-2.895-1.738-2.895-1.741 0-2.009 1.379-2.009 2.803v4.067c0 0.736-0.597 1.333-1.333 1.333h-0.677c-0.736 0-1.333-0.597-1.333-1.333v-8.25c0-0.736 0.597-1.333 1.333-1.333h1.131c0.412 0 0.746 0.334 0.746 0.746v0.718c0 0.016 0.013 0.028 0.028 0.028 0.011 0 0.020-0.006 0.025-0.015 0.451-0.854 1.54-1.748 3.158-1.748 1.998 0 3.035 0.787 3.55 2.035 0.453 1.098 0.463 5.197 0.463 6.385 0 0.507 0 1.005 0 1.437z"></path>
<path fill="none" stroke="#000f2e" style="stroke: var(--color2, #000f2e)" stroke-linejoin="miter" stroke-linecap="butt" stroke-miterlimit="4" stroke-width="2.6667" d="M4 14.667c0-5.028 0-7.542 1.562-9.105s4.076-1.562 9.105-1.562h2.667c5.028 0 7.543 0 9.105 1.562s1.562 4.076 1.562 9.105v2.667c0 5.028 0 7.543-1.562 9.105s-4.076 1.562-9.105 1.562h-2.667c-5.028 0-7.542 0-9.105-1.562s-1.562-4.076-1.562-9.105v-2.667z"></path>
</symbol>
<symbol id="icon-face" viewBox="0 0 32 32">
<path d="M20.282 15h-2.457v-2c0-1.032 0.086-1.682 1.598-1.682h0.888c0.564 0 1.023-0.448 1.023-1v-1.254c0-0.523-0.41-0.97-0.944-1.005-0.618-0.041-1.236-0.060-1.856-0.059-2.774 0-4.799 1.657-4.799 4.699v2.301h-2.045c-0.564 0-1.023 0.448-1.023 1v2c0 0.552 0.458 1 1.023 1l2.045-0.001v8.001c0 0.552 0.458 1 1.023 1h2.045c0.564 0 1.023-0.448 1.023-1v-8.003l2.223-0.001c0.519 0 0.956-0.381 1.015-0.886l0.234-1.996c0.071-0.593-0.404-1.114-1.015-1.114z"></path>
<path fill="none" stroke="#000f2e" style="stroke: var(--color2, #000f2e)" stroke-linejoin="miter" stroke-linecap="butt" stroke-miterlimit="4" stroke-width="2.6667" d="M4 14.667c0-5.028 0-7.542 1.562-9.105s4.076-1.562 9.105-1.562h2.667c5.028 0 7.543 0 9.105 1.562s1.562 4.076 1.562 9.105v2.667c0 5.028 0 7.543-1.562 9.105s-4.076 1.562-9.105 1.562h-2.667c-5.028 0-7.542 0-9.105-1.562s-1.562-4.076-1.562-9.105v-2.667z"></path>
</symbol>
<symbol id="icon-insta" viewBox="0 0 32 32">
<path fill="none" stroke="#000f2e" style="stroke: var(--color2, #000f2e)" stroke-linejoin="miter" stroke-linecap="butt" stroke-miterlimit="4" stroke-width="2.6667" d="M4 14.667c0-5.028 0-7.542 1.562-9.105s4.076-1.562 9.105-1.562h2.667c5.028 0 7.543 0 9.105 1.562s1.562 4.076 1.562 9.105v2.667c0 5.028 0 7.543-1.562 9.105s-4.076 1.562-9.105 1.562h-2.667c-5.028 0-7.542 0-9.105-1.562s-1.562-4.076-1.562-9.105v-2.667z"></path>
<path d="M24 10c0 1.105-0.895 2-2 2s-2-0.895-2-2c0-1.105 0.895-2 2-2s2 0.895 2 2z"></path>
<path fill="none" stroke="#000f2e" style="stroke: var(--color2, #000f2e)" stroke-linejoin="miter" stroke-linecap="butt" stroke-miterlimit="4" stroke-width="2.6667" d="M20 16c0 2.209-1.791 4-4 4s-4-1.791-4-4c0-2.209 1.791-4 4-4s4 1.791 4 4z"></path>
</symbol>
<symbol id="icon-arrow" viewBox="0 0 48 32">
<path fill="#e48038" style="fill: var(--color3, #e48038)" d="M41.6 16l2.263-2.263 2.263 2.263-2.263 2.263-2.263-2.263zM3.2 19.2c-1.767 0-3.2-1.433-3.2-3.2s1.433-3.2 3.2-3.2v6.4zM31.063 0.937l12.8 12.8-4.525 4.525-12.8-12.8 4.526-4.526zM43.863 18.263l-12.8 12.8-4.526-4.526 12.8-12.8 4.525 4.526zM41.6 19.2h-38.4v-6.4h38.4v6.4z"></path>
</symbol>
<symbol id="icon-Contact" viewBox="0 0 32 32">
<path fill="#fff" style="fill: var(--color4, #fff)" opacity="0.54" d="M16 7.040c4.948 0 8.96 4.012 8.96 8.96s-4.012 8.96-8.96 8.96c-4.948 0-8.96-4.012-8.96-8.96s4.012-8.96 8.96-8.96z"></path>
<path fill="#0045ff" style="fill: var(--color5, #0045ff)" opacity="0.9" d="M12.587 16c0-1.885 1.528-3.413 3.413-3.413s3.413 1.528 3.413 3.413v2.844c0 0.233 0 0.35-0.058 0.432-0.021 0.031-0.048 0.057-0.079 0.079-0.083 0.058-0.199 0.058-0.432 0.058h-2.844c-1.885 0-3.413-1.528-3.413-3.413z"></path>
<path fill="none" opacity="0.9" stroke="#f2f3f5" style="stroke: var(--color1, #f2f3f5)" stroke-linejoin="round" stroke-linecap="round" stroke-miterlimit="4" stroke-width="0.64" d="M14.507 15.36h2.987"></path>
<path fill="none" opacity="0.9" stroke="#f2f3f5" style="stroke: var(--color1, #f2f3f5)" stroke-linejoin="round" stroke-linecap="round" stroke-miterlimit="4" stroke-width="0.64" d="M14.507 16.64h2.133"></path>
<path fill="#0045ff" style="fill: var(--color5, #0045ff)" d="M12.124 29.282l0.104 0.216c0.207-0.158 0.49-0.235 0.827-0.175 0.576 0.102 0.926 0.598 0.816 1.217s-0.597 0.967-1.185 0.863c-0.348-0.062-0.607-0.287-0.694-0.452l-0.176 0.189c0.131 0.188 0.384 0.427 0.834 0.506 0.714 0.126 1.365-0.297 1.501-1.065 0.137-0.772-0.29-1.382-1.033-1.514-0.464-0.082-0.795 0.057-0.995 0.213z"></path>
<path fill="#0045ff" style="fill: var(--color5, #0045ff)" d="M10.696 28.291c-0.653-0.26-1.391-0.018-1.692 0.738-0.299 0.753 0.077 1.441 0.723 1.698 0.65 0.258 1.393 0.015 1.692-0.738 0.301-0.756-0.073-1.439-0.723-1.698zM10.603 28.524c0.506 0.201 0.796 0.748 0.551 1.364-0.248 0.623-0.826 0.812-1.336 0.61-0.513-0.204-0.799-0.741-0.552-1.361 0.245-0.616 0.824-0.817 1.337-0.613z"></path>
<path fill="#0045ff" style="fill: var(--color5, #0045ff)" d="M7.572 26.528l-0.221-0.147-1.409 2.113 0.227 0.151 1.162-1.743 0.134 2.607 0.239 0.159 1.409-2.113-0.23-0.153-0.682 1.023c-0.196 0.294-0.391 0.593-0.493 0.746l-0.136-2.643z"></path>
<path fill="#0045ff" style="fill: var(--color5, #0045ff)" d="M6.571 25.579l-0.199-0.191-1.597 1.661-0.531-0.51-0.163 0.17 1.263 1.215 0.163-0.17-0.533-0.513 1.597-1.661z"></path>
<path fill="#0045ff" style="fill: var(--color5, #0045ff)" d="M4.484 23.046l-0.187-0.251-1.411 2.371 0.125 0.168 2.674-0.673-0.171-0.23-0.739 0.197-0.692-0.93 0.401-0.652zM3.946 23.919l0.578 0.777-1.268 0.338 0.69-1.114z"></path>
<path fill="#0045ff" style="fill: var(--color5, #0045ff)" d="M2.976 20.751l-0.114 0.211c0.25 0.074 0.479 0.257 0.629 0.565 0.257 0.526 0.063 1.1-0.502 1.377s-1.133 0.088-1.396-0.448c-0.155-0.317-0.126-0.66-0.044-0.827l-0.257-0.030c-0.074 0.217-0.118 0.562 0.083 0.972 0.319 0.651 1.044 0.927 1.745 0.584 0.704-0.345 0.945-1.049 0.613-1.727-0.207-0.423-0.515-0.608-0.758-0.678z"></path>
<path fill="#0045ff" style="fill: var(--color5, #0045ff)" d="M3.054 19.645l-0.077-0.265-2.212 0.646-0.206-0.707-0.226 0.066 0.491 1.682 0.226-0.066-0.207-0.71 2.212-0.646z"></path>
<path fill="#0045ff" style="fill: var(--color5, #0045ff)" d="M0.003 15.236l1.502-0.016c0.202-0.002 0.427 0.003 0.587 0.119 0.152 0.112 0.25 0.292 0.252 0.531 0.003 0.232-0.098 0.428-0.237 0.533-0.161 0.123-0.385 0.133-0.588 0.135l-1.502 0.016 0.003 0.276 1.509-0.016c0.302-0.003 0.563-0.025 0.771-0.2 0.201-0.168 0.297-0.423 0.294-0.747-0.003-0.32-0.113-0.577-0.317-0.74-0.208-0.167-0.466-0.186-0.768-0.183l-1.509 0.016 0.003 0.276z"></path>
<path fill="#0045ff" style="fill: var(--color5, #0045ff)" d="M2.094 14.069l0.147 0.215c0.214-0.095 0.514-0.324 0.578-0.705 0.082-0.486-0.136-0.878-0.579-0.952-0.359-0.061-0.575 0.153-0.757 0.436l-0.203 0.317c-0.097 0.155-0.226 0.32-0.487 0.276-0.247-0.042-0.353-0.276-0.308-0.545 0.045-0.265 0.214-0.408 0.36-0.496l-0.155-0.19c-0.062 0.034-0.368 0.214-0.439 0.632-0.065 0.385 0.092 0.807 0.513 0.878 0.305 0.051 0.514-0.059 0.681-0.318l0.222-0.343c0.141-0.215 0.303-0.404 0.565-0.36 0.283 0.048 0.406 0.292 0.355 0.594-0.045 0.269-0.309 0.482-0.494 0.563z"></path>
<path fill="#000" style="fill: var(--color6, #000)" d="M2.891 9.133c-0.261-0.121-0.588-0.001-0.709 0.26s-0.001 0.588 0.26 0.709c0.261 0.121 0.591 0.002 0.712-0.258s-0.003-0.59-0.263-0.71z"></path>
<path fill="#0045ff" style="fill: var(--color5, #0045ff)" d="M6.511 5.93l-0.239-0.022c0.029 0.259-0.050 0.541-0.274 0.8-0.383 0.443-0.988 0.489-1.464 0.077s-0.524-1.009-0.134-1.46c0.231-0.267 0.558-0.374 0.744-0.364l-0.073-0.248c-0.228 0.016-0.564 0.111-0.862 0.456-0.475 0.548-0.445 1.324 0.146 1.835 0.593 0.513 1.335 0.459 1.829-0.111 0.308-0.356 0.358-0.712 0.327-0.963z"></path>
<path fill="#0045ff" style="fill: var(--color5, #0045ff)" d="M8.094 5.211c0.558-0.428 0.729-1.185 0.234-1.831-0.493-0.643-1.277-0.672-1.829-0.249-0.555 0.426-0.726 1.188-0.234 1.831 0.495 0.646 1.274 0.675 1.829 0.249zM7.942 5.012c-0.432 0.332-1.050 0.3-1.454-0.226-0.408-0.532-0.274-1.126 0.161-1.46 0.438-0.336 1.046-0.306 1.451 0.223 0.403 0.526 0.279 1.126-0.159 1.462z"></path>
<path fill="#0045ff" style="fill: var(--color5, #0045ff)" d="M11.209 3.433l0.239-0.114-1.093-2.293-0.246 0.117 0.901 1.891-2.307-1.221-0.259 0.123 1.093 2.293 0.249-0.119-0.529-1.11c-0.152-0.319-0.309-0.64-0.388-0.806l2.339 1.238z"></path>
<path fill="#0045ff" style="fill: var(--color5, #0045ff)" d="M12.536 3.059l0.266-0.073-0.608-2.223 0.71-0.194-0.062-0.227-1.69 0.462 0.062 0.227 0.714-0.195 0.608 2.223z"></path>
<path fill="#0045ff" style="fill: var(--color5, #0045ff)" d="M15.782 2.566l0.311-0.032-1.313-2.427-0.209 0.021-0.793 2.641 0.286-0.029 0.21-0.736 1.154-0.118 0.354 0.678zM15.308 1.656l-0.963 0.098 0.36-1.262 0.603 1.163z"></path>
<path fill="#0045ff" style="fill: var(--color5, #0045ff)" d="M18.525 2.446l-0.123-0.206c-0.192 0.176-0.466 0.279-0.808 0.251-0.583-0.048-0.977-0.509-0.925-1.137s0.505-1.018 1.1-0.969c0.352 0.029 0.631 0.23 0.733 0.386l0.157-0.205c-0.148-0.175-0.422-0.39-0.877-0.427-0.723-0.060-1.331 0.422-1.396 1.199-0.065 0.781 0.416 1.349 1.169 1.412 0.47 0.039 0.787-0.131 0.971-0.304z"></path>
<path fill="#0045ff" style="fill: var(--color5, #0045ff)" d="M19.434 3.080l0.267 0.069 0.579-2.23 0.713 0.185 0.059-0.228-1.696-0.44-0.059 0.228 0.716 0.186-0.579 2.23z"></path>
<path fill="#0045ff" style="fill: var(--color5, #0045ff)" d="M24.784 2.72l-0.756 1.298c-0.102 0.175-0.221 0.365-0.403 0.443-0.175 0.073-0.379 0.065-0.585-0.055-0.2-0.117-0.317-0.304-0.336-0.477-0.023-0.201 0.083-0.399 0.185-0.574l0.756-1.298-0.239-0.139-0.759 1.304c-0.152 0.261-0.267 0.496-0.224 0.764 0.041 0.258 0.211 0.472 0.491 0.635 0.277 0.161 0.553 0.199 0.798 0.107 0.25-0.093 0.399-0.305 0.551-0.565l0.759-1.304-0.239-0.139z"></path>
<path fill="#0045ff" style="fill: var(--color5, #0045ff)" d="M24.715 5.113l-0.26 0.016c-0.028 0.232 0.015 0.607 0.309 0.858 0.376 0.32 0.823 0.333 1.114-0.009 0.236-0.278 0.163-0.572 0.013-0.873l-0.168-0.336c-0.084-0.163-0.159-0.358 0.012-0.56 0.162-0.191 0.418-0.162 0.625 0.015 0.205 0.174 0.241 0.393 0.241 0.563l0.243-0.035c0.002-0.071 0.005-0.426-0.318-0.7-0.297-0.253-0.74-0.335-1.017-0.010-0.2 0.236-0.213 0.472-0.076 0.748l0.181 0.367c0.113 0.231 0.192 0.468 0.020 0.67-0.186 0.219-0.459 0.199-0.692 0.001-0.207-0.177-0.255-0.512-0.23-0.713z"></path>
<path fill="#000" style="fill: var(--color6, #000)" d="M28.544 8.328c0.237-0.162 0.302-0.505 0.14-0.742s-0.505-0.302-0.742-0.14c-0.237 0.162-0.305 0.507-0.143 0.744s0.508 0.3 0.745 0.138z"></path>
<path fill="#0045ff" style="fill: var(--color5, #0045ff)" d="M29.44 13.078l0.141-0.194c-0.237-0.108-0.439-0.32-0.547-0.645-0.184-0.556 0.086-1.099 0.684-1.296s1.135 0.067 1.322 0.633c0.111 0.336 0.036 0.671-0.068 0.825l0.25 0.065c0.103-0.205 0.193-0.541 0.050-0.974-0.228-0.688-0.909-1.060-1.65-0.815-0.744 0.246-1.079 0.911-0.842 1.628 0.148 0.447 0.428 0.673 0.659 0.774z"></path>
<path fill="#0045ff" style="fill: var(--color5, #0045ff)" d="M29.246 14.806c0.081 0.698 0.644 1.233 1.452 1.139 0.804-0.094 1.232-0.752 1.151-1.443-0.081-0.695-0.648-1.233-1.452-1.139-0.808 0.094-1.232 0.748-1.151 1.443zM29.495 14.777c-0.063-0.541 0.281-1.056 0.939-1.132 0.665-0.078 1.107 0.341 1.171 0.886 0.064 0.548-0.273 1.055-0.935 1.132-0.658 0.077-1.11-0.337-1.175-0.886z"></path>
<path fill="#0045ff" style="fill: var(--color5, #0045ff)" d="M29.176 18.392l-0.025 0.264 2.529 0.237 0.025-0.271-2.085-0.195 2.231-1.355 0.027-0.286-2.529-0.237-0.026 0.275 1.224 0.115c0.352 0.033 0.708 0.063 0.891 0.080l-2.262 1.374z"></path>
<path fill="#0045ff" style="fill: var(--color5, #0045ff)" d="M28.817 19.723l-0.074 0.266 2.22 0.618-0.197 0.709 0.227 0.063 0.47-1.688-0.227-0.063-0.198 0.713-2.22-0.618z"></path>
<path fill="#0045ff" style="fill: var(--color5, #0045ff)" d="M27.577 22.763l-0.132 0.284 2.757 0.116 0.089-0.19-1.862-2.034-0.121 0.26 0.524 0.557-0.49 1.051-0.764-0.043zM28.602 22.822l0.409-0.877 0.899 0.955-1.308-0.078z"></path>
<path fill="#0045ff" style="fill: var(--color5, #0045ff)" d="M26.274 25.179l0.24-0c-0.053-0.255-0.001-0.543 0.198-0.822 0.34-0.476 0.938-0.578 1.45-0.212s0.615 0.956 0.269 1.441c-0.206 0.288-0.521 0.424-0.707 0.431l0.095 0.24c0.226-0.038 0.551-0.163 0.816-0.534 0.422-0.59 0.32-1.359-0.315-1.813-0.638-0.456-1.372-0.334-1.811 0.28-0.274 0.383-0.291 0.742-0.237 0.989z"></path>
<path fill="#0045ff" style="fill: var(--color5, #0045ff)" d="M25.264 25.636l-0.197 0.194 1.618 1.64-0.524 0.517 0.165 0.168 1.247-1.231-0.165-0.168-0.527 0.52-1.618-1.64z"></path>
<path fill="#0045ff" style="fill: var(--color5, #0045ff)" d="M22.831 30.414l-0.727-1.314c-0.098-0.177-0.2-0.377-0.174-0.573 0.027-0.187 0.138-0.358 0.348-0.474 0.203-0.112 0.424-0.117 0.581-0.044 0.185 0.083 0.3 0.276 0.398 0.453l0.727 1.314 0.242-0.134-0.731-1.321c-0.146-0.264-0.289-0.484-0.542-0.584-0.243-0.097-0.513-0.061-0.797 0.096-0.28 0.155-0.454 0.373-0.501 0.631-0.048 0.262 0.057 0.499 0.203 0.763l0.731 1.321 0.242-0.134z"></path>
<path fill="#0045ff" style="fill: var(--color5, #0045ff)" d="M20.812 29.128l0.12-0.231c-0.185-0.143-0.529-0.298-0.895-0.174-0.467 0.159-0.708 0.536-0.564 0.961 0.117 0.345 0.408 0.433 0.743 0.459l0.375 0.028c0.183 0.012 0.389 0.047 0.474 0.298 0.081 0.237-0.075 0.442-0.333 0.529-0.254 0.086-0.461 0.005-0.607-0.081l-0.094 0.226c0.060 0.038 0.363 0.223 0.764 0.086 0.369-0.126 0.667-0.464 0.529-0.868-0.1-0.293-0.296-0.424-0.603-0.448l-0.408-0.033c-0.256-0.022-0.5-0.075-0.585-0.326-0.092-0.272 0.065-0.496 0.354-0.595 0.258-0.088 0.571 0.043 0.73 0.168z"></path>
<path fill="#000" style="fill: var(--color6, #000)" d="M16.089 30.769c0.017 0.287 0.279 0.518 0.565 0.5s0.518-0.279 0.5-0.565c-0.017-0.287-0.279-0.521-0.565-0.504s-0.518 0.282-0.5 0.569z"></path>
</symbol>
<symbol id="icon-logo-blue" viewBox="0 0 34 32">
<path fill="#0045ff" style="fill: var(--color5, #0045ff)" d="M20.401 0l13.481 26.083-5.717 5.669c-6.398-6.364-15.938-6.275-22.413 0l-5.752-5.668 13.424-26.085h6.978zM16.87 10.545l-4.536 9.083 0.197-0.042c2.893-0.601 5.87-0.649 8.78-0.143l0.24 0.043-4.681-8.941z"></path>
</symbol>
<symbol id="icon-quotes" viewBox="0 0 32 32">
<path fill="#f5f5f5" style="fill: var(--color7, #f5f5f5)" d="M0 0h32v32h-32v-32z"></path>
<path fill="none" stroke="#0045ff" style="stroke: var(--color5, #0045ff)" stroke-linejoin="miter" stroke-linecap="round" stroke-miterlimit="4" stroke-width="2.1818" d="M24.89 27.252c1.982-3.433 3.026-7.328 3.026-11.292s-1.044-7.859-3.026-11.292"></path>
<path fill="none" stroke="#0045ff" style="stroke: var(--color5, #0045ff)" stroke-linejoin="miter" stroke-linecap="round" stroke-miterlimit="4" stroke-width="2.1818" d="M19.137 23.93c1.399-2.424 2.136-5.173 2.136-7.971s-0.737-5.548-2.136-7.971"></path>
</symbol>
</defs>
</svg>
