<svg width="1204" height="895" viewBox="0 0 1204 895" fill="none" xmlns="http://www.w3.org/2000/svg">
<ellipse rx="455.898" ry="246.661" transform="matrix(-0.837043 0.547136 0.60004 0.79997 579.176 447.288)" stroke="#CCCFD5" stroke-width="4" stroke-linecap="round" stroke-dasharray="0.5 15"/>
<circle cx="225.5" cy="725.5" r="13" fill="white" stroke="#CCCFD5"/>
<path d="M0.5 125C0.5 118.649 5.64873 113.5 12 113.5H573C579.351 113.5 584.5 118.649 584.5 125V159.5H0.5V125Z" fill="black"/>
<circle cx="35.5" cy="136.5" r="5.5" fill="#717783"/>
<circle cx="58.5" cy="136.5" r="5.5" fill="#717783"/>
<circle cx="81.5" cy="136.5" r="5.5" fill="#717783"/>
<path d="M0.5 125C0.5 118.649 5.64873 113.5 12 113.5H573C579.351 113.5 584.5 118.649 584.5 125V159.5H0.5V125Z" stroke="#717783"/>
<path d="M0.5 159.5H584.5V485C584.5 489.142 581.142 492.5 577 492.5H8C3.85786 492.5 0.5 489.142 0.5 485V159.5Z" fill="black" stroke="#717783"/>
<circle cx="168" cy="214" r="1" fill="white"/>
<circle cx="178.5" cy="218.5" r="2.5" fill="white"/>
<circle cx="221" cy="318" r="4" fill="white"/>
<circle cx="188.5" cy="335.5" r="2.5" fill="white"/>
<circle cx="231.5" cy="350.5" r="1.5" fill="white"/>
<path d="M139.944 332.951C139.944 335.556 137.832 337.668 135.227 337.668C132.622 337.668 130.51 335.556 130.51 332.951C130.51 330.345 132.622 328.233 135.227 328.233C137.832 328.233 139.944 330.345 139.944 332.951Z" fill="white"/>
<path d="M88.669 355.717C88.669 358.096 86.7407 360.024 84.3618 360.024C81.983 360.024 80.0547 358.096 80.0547 355.717C80.0547 353.338 81.983 351.41 84.3618 351.41C86.7407 351.41 88.669 353.338 88.669 355.717Z" fill="white"/>
<path d="M124.766 369.254C124.766 370.839 123.481 372.125 121.895 372.125C120.309 372.125 119.023 370.839 119.023 369.254C119.023 367.668 120.309 366.382 121.895 366.382C123.481 366.382 124.766 367.668 124.766 369.254Z" fill="white"/>
<path d="M130.715 342.59H126.408C125.998 339.719 124.972 337.053 123.331 335.002L126.408 331.72C127.228 330.899 127.228 329.464 126.408 328.643C125.587 327.823 124.152 327.823 123.331 328.643L120.255 331.72C117.999 330.079 115.537 328.848 112.666 328.643V324.131C112.666 322.901 111.641 321.875 110.41 321.875C109.179 321.875 108.154 322.901 108.154 324.131V328.643C105.282 329.054 102.616 330.079 100.565 331.72L97.2834 328.643C96.463 327.823 95.0273 327.823 94.0017 328.643C93.1813 329.464 93.1813 330.899 94.0017 331.72L97.0783 334.796C95.4375 337.053 94.2068 339.514 94.0017 342.385H89.6946C88.464 342.385 87.4385 343.411 87.4385 344.641C87.4385 345.872 88.464 346.897 89.6946 346.897H94.2068C94.617 349.769 95.6426 352.435 97.2834 354.486L94.2068 357.563C93.3864 358.383 93.3864 359.819 94.2068 360.639C95.0273 361.46 96.463 361.46 97.2834 360.639L100.36 357.563C102.616 359.204 105.077 360.434 107.949 360.639V365.152C107.949 366.382 108.974 367.408 110.205 367.408C111.435 367.408 112.461 366.382 112.461 365.152V360.639C115.332 360.229 117.999 359.204 120.05 357.563L123.126 360.639C123.947 361.46 125.382 361.46 126.203 360.639C127.023 359.819 127.023 358.383 126.203 357.563L123.126 354.486C124.767 352.23 125.998 349.769 126.203 346.897H130.715C131.946 346.897 132.971 345.872 132.971 344.641C132.971 343.616 131.946 342.59 130.715 342.59ZM104.872 354.076C103.436 354.076 102.206 352.845 102.206 351.41C102.206 349.974 103.436 348.743 104.872 348.743C106.308 348.743 107.538 349.974 107.538 351.41C107.538 352.845 106.308 354.076 104.872 354.076ZM109.384 343.411C106.923 343.411 104.872 341.36 104.872 338.898C104.872 336.437 106.923 334.386 109.384 334.386C111.846 334.386 113.897 336.437 113.897 338.898C113.897 341.36 111.846 343.411 109.384 343.411ZM119.024 350.999C117.588 350.999 116.358 349.769 116.358 348.333C116.358 346.897 117.588 345.667 119.024 345.667C120.46 345.667 121.691 346.897 121.691 348.333C121.691 349.769 120.46 350.999 119.024 350.999Z" fill="#D91818"/>
<rect x="70" y="307" width="80" height="80" rx="40" stroke="#06C569" stroke-width="2" stroke-linecap="round" stroke-dasharray="0.2 10"/>
<path d="M279.452 201.918H278.014C277.877 200.959 277.535 200.069 276.987 199.384L278.014 198.288C278.288 198.014 278.288 197.534 278.014 197.26C277.74 196.986 277.261 196.986 276.987 197.26L275.959 198.288C275.206 197.74 274.384 197.329 273.425 197.26V195.753C273.425 195.342 273.082 195 272.671 195C272.26 195 271.918 195.342 271.918 195.753V197.26C270.959 197.397 270.069 197.74 269.384 198.288L268.288 197.26C268.014 196.986 267.534 196.986 267.192 197.26C266.918 197.534 266.918 198.014 267.192 198.288L268.219 199.315C267.671 200.069 267.26 200.891 267.192 201.85H265.753C265.342 201.85 265 202.192 265 202.603C265 203.014 265.342 203.356 265.753 203.356H267.26C267.397 204.315 267.74 205.206 268.288 205.891L267.26 206.918C266.986 207.192 266.986 207.672 267.26 207.946C267.534 208.22 268.014 208.22 268.288 207.946L269.315 206.918C270.069 207.466 270.891 207.877 271.85 207.946V209.452C271.85 209.863 272.192 210.206 272.603 210.206C273.014 210.206 273.356 209.863 273.356 209.452V207.946C274.315 207.809 275.206 207.466 275.891 206.918L276.918 207.946C277.192 208.22 277.672 208.22 277.946 207.946C278.22 207.672 278.22 207.192 277.946 206.918L276.918 205.891C277.466 205.137 277.877 204.315 277.946 203.356H279.452C279.863 203.356 280.206 203.014 280.206 202.603C280.206 202.26 279.863 201.918 279.452 201.918ZM270.822 205.754C270.343 205.754 269.932 205.343 269.932 204.863C269.932 204.384 270.343 203.973 270.822 203.973C271.302 203.973 271.713 204.384 271.713 204.863C271.713 205.343 271.302 205.754 270.822 205.754ZM272.329 202.192C271.507 202.192 270.822 201.507 270.822 200.685C270.822 199.863 271.507 199.178 272.329 199.178C273.151 199.178 273.836 199.863 273.836 200.685C273.836 201.507 273.151 202.192 272.329 202.192ZM275.548 204.726C275.069 204.726 274.658 204.315 274.658 203.836C274.658 203.356 275.069 202.945 275.548 202.945C276.028 202.945 276.439 203.356 276.439 203.836C276.439 204.315 276.028 204.726 275.548 204.726Z" fill="white"/>
<rect x="260" y="190" width="25.2059" height="25.2059" rx="12.603" stroke="#06C569" stroke-width="2" stroke-linecap="round" stroke-dasharray="0.2 10"/>
<path d="M62 264.642L74.14 256.641C78.8589 253.531 85.2158 254.946 88.1691 259.765L91.1213 264.581C95.2582 271.331 105.226 270.826 108.658 263.692L119.248 241.685C123.267 233.332 135.503 234.469 137.915 243.419L149.311 285.712C150.839 291.383 156.903 294.522 162.416 292.496L203.832 277.275C206.119 276.434 208.635 276.458 210.906 277.341L256.524 295.081C262.05 297.23 268.221 294.127 269.791 288.41L279.562 252.829C282.414 242.443 297.413 243.286 299.084 253.926L302.086 273.044C303.658 283.052 317.938 283.414 320.015 273.498L320.614 270.635C322.487 261.692 335.231 261.619 337.206 270.54V270.54C338.933 278.344 349.507 279.65 353.082 272.501L357.011 264.642" stroke="white" stroke-width="6" stroke-linecap="round" stroke-linejoin="round"/>
<circle cx="206.91" cy="264.17" r="49.866" fill="black" stroke="#0045FF" stroke-width="6"/>
<g clip-path="url(#clip0_5388_14304)">
<line x1="170.208" y1="212.72" x2="170.208" y2="316.564" stroke="#717783"/>
<line x1="182.208" y1="212.72" x2="182.208" y2="316.564" stroke="#717783"/>
<line x1="194.208" y1="212.72" x2="194.208" y2="316.564" stroke="#717783"/>
<line x1="206.208" y1="212.72" x2="206.208" y2="316.564" stroke="#717783"/>
<line x1="218.208" y1="212.72" x2="218.208" y2="316.564" stroke="#717783"/>
<line x1="230.208" y1="212.72" x2="230.208" y2="316.564" stroke="#717783"/>
<line x1="242.208" y1="212.72" x2="242.208" y2="316.564" stroke="#717783"/>
<line x1="254.208" y1="212.72" x2="254.208" y2="316.564" stroke="#717783"/>
</g>
<g clip-path="url(#clip1_5388_14304)">
<line x1="258.359" y1="226.052" x2="154.515" y2="226.052" stroke="#717783"/>
<line x1="258.359" y1="239.052" x2="154.515" y2="239.052" stroke="#717783"/>
<line x1="258.359" y1="252.052" x2="154.515" y2="252.052" stroke="#717783"/>
<line x1="258.359" y1="265.052" x2="154.515" y2="265.052" stroke="#717783"/>
<line x1="258.359" y1="278.052" x2="154.515" y2="278.052" stroke="#717783"/>
<line x1="258.359" y1="291.052" x2="154.515" y2="291.052" stroke="#717783"/>
<line x1="258.359" y1="304.052" x2="154.515" y2="304.052" stroke="#717783"/>
</g>
<circle cx="206.91" cy="264.17" r="49.866" stroke="#0045FF" stroke-width="6"/>
<rect x="168.204" y="260.394" width="21" height="21" rx="2" fill="#E48038"/>
<rect x="195.581" y="243.401" width="21" height="21" rx="2" fill="#E48038"/>
<rect x="222.958" y="254.73" width="21" height="21" rx="2" fill="#E48038"/>
<path d="M239.951 304.278L247.962 296.267L286.679 334.984C288.891 337.196 288.891 340.783 286.679 342.995C284.467 345.207 280.88 345.207 278.668 342.995L239.951 304.278Z" fill="#0045FF"/>
<line x1="321.77" y1="446.331" x2="343.331" y2="402.23" stroke="#CCCFD5" stroke-linecap="round" stroke-dasharray="0.5 5"/>
<line x1="383.703" y1="391.922" x2="437.922" y2="435.297" stroke="#CCCFD5" stroke-linecap="round" stroke-dasharray="0.5 5"/>
<rect x="273.5" y="454.5" width="61" height="61" rx="30.5" fill="white"/>
<path d="M315.205 496.832C315.794 496.709 316.145 496.093 315.875 495.555C315.031 493.878 313.613 492.404 311.762 491.299C309.535 489.97 306.807 489.25 304 489.25C301.193 489.25 298.465 489.97 296.238 491.299C294.387 492.404 292.969 493.878 292.126 495.555C291.855 496.093 292.206 496.709 292.796 496.832L295.839 497.466C301.222 498.588 306.778 498.588 312.161 497.466L315.205 496.832Z" fill="#E48038"/>
<ellipse cx="304" cy="479.333" rx="7.08333" ry="7.08333" fill="#E48038"/>
<rect x="273.5" y="454.5" width="61" height="61" rx="30.5" stroke="#717783"/>
<rect x="433.5" y="429.5" width="81" height="81" rx="40.5" fill="white"/>
<path d="M492.449 488.655C493.039 488.532 493.389 487.918 493.145 487.368C491.854 484.454 489.488 481.891 486.328 480.005C482.791 477.894 478.458 476.75 474 476.75C469.543 476.75 465.21 477.894 461.673 480.005C458.513 481.891 456.147 484.454 454.856 487.368C454.612 487.918 454.962 488.532 455.552 488.655L465.84 490.799C471.222 491.921 476.779 491.921 482.161 490.799L492.449 488.655Z" fill="#E48038"/>
<circle cx="474" cy="461" r="11.25" fill="#E48038"/>
<rect x="433.5" y="429.5" width="81" height="81" rx="40.5" stroke="#717783"/>
<rect x="339.5" y="356.5" width="39" height="39" rx="19.5" fill="white"/>
<path d="M366.652 384.405C367.204 384.29 367.534 383.712 367.259 383.218C366.653 382.131 365.699 381.175 364.479 380.447C362.907 379.508 360.981 379 359 379C357.019 379 355.093 379.508 353.521 380.447C352.301 381.175 351.347 382.131 350.741 383.218C350.466 383.712 350.796 384.29 351.348 384.405C356.395 385.457 361.605 385.457 366.652 384.405Z" fill="#E48038"/>
<circle cx="359" cy="372" r="5" fill="#E48038"/>
<rect x="339.5" y="356.5" width="39" height="39" rx="19.5" stroke="#717783"/>
<path d="M584.5 241.5L566.929 223.929C565.054 222.054 562.51 221 559.858 221H520" stroke="#F2F3F5" stroke-width="2" stroke-linecap="round"/>
<circle cx="514" cy="221" r="5" stroke="#F2F3F5" stroke-width="2"/>
<path d="M585 255H541" stroke="#F2F3F5" stroke-width="2"/>
<circle cx="535" cy="255" r="5" stroke="#F2F3F5" stroke-width="2"/>
<path d="M584.5 269L566.929 286.571C565.054 288.446 562.51 289.5 559.858 289.5H520" stroke="#F2F3F5" stroke-width="2" stroke-linecap="round"/>
<circle r="5" transform="matrix(1 0 0 -1 514 289.5)" stroke="#F2F3F5" stroke-width="2"/>
<path d="M584.5 305L566.929 322.571C565.054 324.446 562.51 325.5 559.858 325.5H540" stroke="#F2F3F5" stroke-width="2" stroke-linecap="round"/>
<circle r="5" transform="matrix(1 0 0 -1 534 325.5)" stroke="#F2F3F5" stroke-width="2"/>
<path d="M584.5 205.5L566.929 187.929C565.054 186.054 562.51 185 559.858 185H540" stroke="#F2F3F5" stroke-width="2" stroke-linecap="round"/>
<circle cx="534" cy="185" r="5" stroke="#F2F3F5" stroke-width="2"/>
<path d="M619.5 352C619.5 345.649 624.649 340.5 631 340.5H1192C1198.35 340.5 1203.5 345.649 1203.5 352V386.5H619.5V352Z" fill="white"/>
<circle cx="654.5" cy="363.5" r="5.5" fill="#717783"/>
<circle cx="677.5" cy="363.5" r="5.5" fill="#717783"/>
<circle cx="700.5" cy="363.5" r="5.5" fill="#717783"/>
<path d="M619.5 352C619.5 345.649 624.649 340.5 631 340.5H1192C1198.35 340.5 1203.5 345.649 1203.5 352V386.5H619.5V352Z" stroke="#717783"/>
<path d="M619.5 386.5H1203.5V712C1203.5 716.142 1200.14 719.5 1196 719.5H627C622.858 719.5 619.5 716.142 619.5 712V386.5Z" fill="white" stroke="#717783"/>
<path d="M643 500H1180" stroke="#E48038" stroke-width="2" stroke-dasharray="2 5"/>
<path d="M1115.86 479.72H1114.3V484.532C1114.3 485.168 1114.26 485.732 1113.94 486.152C1113.64 486.536 1113.18 486.776 1112.55 486.776C1111.92 486.776 1111.45 486.536 1111.15 486.152C1110.83 485.732 1110.81 485.168 1110.81 484.532V479.72H1109.23V484.58C1109.23 485.684 1109.39 486.488 1109.97 487.148C1110.53 487.784 1111.39 488.144 1112.55 488.144C1113.7 488.144 1114.56 487.784 1115.13 487.148C1115.7 486.488 1115.86 485.684 1115.86 484.58V479.72ZM1119.84 479.72V488H1121.41V484.736H1122.5C1123.33 484.736 1124.05 484.532 1124.58 484.088C1125.12 483.644 1125.44 483.044 1125.44 482.204C1125.44 481.364 1125.12 480.776 1124.58 480.332C1124.05 479.888 1123.33 479.72 1122.5 479.72H1119.84ZM1122.31 483.512H1121.4V480.944H1122.27C1122.75 480.944 1123.08 481.028 1123.34 481.22C1123.61 481.412 1123.83 481.748 1123.83 482.204C1123.83 482.672 1123.64 483.008 1123.38 483.2C1123.11 483.392 1122.79 483.512 1122.31 483.512ZM1130.42 480.98V488H1131.97V480.98H1134.23V479.72H1128.14V480.98H1130.42ZM1139.83 484.64L1141.79 488H1143.61L1141.38 484.448C1142.39 484.136 1143.17 483.56 1143.17 482.132C1143.17 481.34 1142.8 480.704 1142.28 480.308C1141.77 479.912 1141.07 479.72 1140.19 479.72H1137.53V488H1139.09V484.64H1139.83ZM1139.89 483.416H1139.08V480.944H1139.89C1140.4 480.944 1140.78 480.98 1141.08 481.208C1141.39 481.424 1141.56 481.724 1141.56 482.18C1141.56 482.648 1141.39 482.924 1141.08 483.152C1140.78 483.38 1140.4 483.416 1139.89 483.416ZM1146.77 479.72V488H1151.98V486.704H1148.33V484.352H1151.68V483.068H1148.33V481.016H1151.88V479.72H1146.77ZM1157.19 481.892L1161.39 488H1162.96V479.72H1161.44V483.8C1161.44 484.784 1161.46 485.756 1161.46 485.756L1157.34 479.72H1155.69V488H1157.21V483.932C1157.21 482.948 1157.19 481.892 1157.19 481.892ZM1167.03 479.72V488H1169.68C1171.12 488 1172.19 487.532 1172.83 486.968C1173.47 486.404 1174.15 485.432 1174.15 483.848C1174.15 482.276 1173.47 481.328 1172.83 480.764C1172.19 480.188 1171.12 479.72 1169.68 479.72H1167.03ZM1169.74 486.68H1168.59V481.028H1169.74C1170.64 481.028 1171.3 481.328 1171.71 481.7C1172.11 482.084 1172.54 482.756 1172.54 483.86C1172.54 484.976 1172.11 485.612 1171.71 485.996C1171.3 486.38 1170.64 486.68 1169.74 486.68Z" fill="#E48038"/>
<rect x="658" y="589" width="73" height="99" fill="#F2F3F5"/>
<rect x="745" y="624" width="73" height="64" fill="#D91818"/>
<rect x="832" y="572" width="73" height="116" fill="#F2F3F5"/>
<rect x="919" y="544" width="73" height="144" fill="#F2F3F5"/>
<rect x="1006" y="572" width="73" height="116" fill="#F2F3F5"/>
<rect x="1093" y="513" width="73" height="175" fill="#06C569"/>
<path d="M1111.63 771.602L1111.61 684.669C1111.61 679.27 1105.76 675.905 1101.09 678.62L1026.15 722.23C1020.44 725.551 1022.08 734.201 1028.61 735.2L1068.92 741.371C1070.65 741.635 1072.22 742.537 1073.31 743.898L1099.18 775.996C1103.33 781.139 1111.63 778.207 1111.63 771.602Z" fill="black" stroke="black" stroke-width="2"/>
<line x1="1025.5" y1="700.555" x2="972.5" y2="700.555" stroke="#CCCFD5" stroke-width="3" stroke-linecap="round"/>
<line x1="1037.5" y1="700.555" x2="1033.5" y2="700.555" stroke="#CCCFD5" stroke-width="3" stroke-linecap="round"/>
<line x1="1009.5" y1="730.555" x2="922.5" y2="730.555" stroke="#CCCFD5" stroke-width="3" stroke-linecap="round"/>
<line x1="1033.5" y1="758.555" x2="990.5" y2="758.555" stroke="#CCCFD5" stroke-width="3" stroke-linecap="round"/>
<line x1="975.5" y1="758.555" x2="968.5" y2="758.555" stroke="#CCCFD5" stroke-width="3" stroke-linecap="round"/>
<path d="M588.5 579L596.619 595.736L611.713 583.946L611.249 602.313L630.328 597.804L621.374 614.164L640.659 617.83L624.987 628.943L640.659 640.056L621.374 643.722L630.328 660.082L611.249 655.573L611.713 673.94L596.619 662.15L588.5 678.886L580.381 662.15L565.287 673.94L565.751 655.573L546.672 660.082L555.626 643.722L536.341 640.056L552.013 628.943L536.341 617.83L555.626 614.164L546.672 597.804L565.751 602.313L565.287 583.946L580.381 595.736L588.5 579Z" fill="#0045FF"/>
<path d="M589 628.5L699 548L787.5 590.5L925.5 438.5L1041 548L1149.5 411.5" stroke="#000F2E" stroke-width="2"/>
<path fill-rule="evenodd" clip-rule="evenodd" d="M632.872 188.21L631.039 186.652L630 192.331L635.438 190.391L633.635 188.859C644.983 176.642 661.185 169 679.173 169C710.074 169 735.707 191.554 740.508 221.099C731.106 225.287 722.916 231.706 716.612 239.683L716.701 239.753C712.592 244.581 709.261 251.451 707.76 257.796C707.005 260.989 706.706 264.076 707.02 266.721C707.333 269.363 708.266 271.619 710.027 273.062C713.486 275.896 718.14 275.665 722.528 273.593C726.922 271.518 731.158 267.557 733.927 262.71L733.884 262.685C739.246 253.404 742.315 242.63 742.315 231.142C742.315 227.935 742.076 224.784 741.615 221.705C749.149 218.46 757.454 216.662 766.178 216.662C800.498 216.662 828.32 244.484 828.32 278.804C828.32 290.123 825.294 300.734 820.006 309.874L820.872 310.375C826.245 301.087 829.32 290.304 829.32 278.804C829.32 243.932 801.05 215.662 766.178 215.662C757.403 215.662 749.047 217.452 741.454 220.687C736.472 190.79 710.484 168 679.173 168C660.88 168 644.403 175.78 632.872 188.21ZM733.046 262.237L733.002 262.212C738.289 253.072 741.315 242.461 741.315 231.142C741.315 228.079 741.093 225.068 740.666 222.124C731.541 226.237 723.587 232.49 717.444 240.243L717.532 240.319C713.504 245.018 710.21 251.783 708.733 258.026C707.995 261.147 707.717 264.11 708.013 266.603C708.309 269.099 709.172 271.068 710.661 272.289C713.704 274.782 717.901 274.672 722.101 272.689C726.287 270.712 730.368 266.912 733.046 262.237Z" fill="black"/>
<path fill-rule="evenodd" clip-rule="evenodd" d="M539.985 705.846L541.352 707.826L543.826 702.609L538.071 703.076L539.416 705.023C525.292 713.886 507.664 717.074 490.289 712.418C460.441 704.421 441.52 676.001 444.529 646.22C454.695 644.608 464.266 640.527 472.42 634.454L472.353 634.364C477.571 630.763 482.566 624.99 485.659 619.249C487.215 616.361 488.302 613.456 488.684 610.82C489.065 608.187 488.748 605.767 487.42 603.917C484.813 600.284 480.257 599.302 475.483 600.168C470.701 601.035 465.585 603.765 461.655 607.73L461.691 607.766C454.109 615.343 448.356 624.955 445.383 636.052C444.553 639.15 443.968 642.255 443.617 645.348C435.499 646.533 427.012 646.12 418.585 643.862C385.435 634.979 365.762 600.905 374.644 567.754C377.574 556.821 383.243 547.354 390.716 539.894L390.009 539.186C382.416 546.767 376.655 556.387 373.678 567.496C364.653 601.179 384.642 635.802 418.326 644.828C426.802 647.099 435.337 647.533 443.509 646.374C440.583 676.541 459.787 705.281 490.03 713.384C507.7 718.119 525.629 714.869 539.985 705.846ZM462.384 608.415L462.42 608.451C454.948 615.911 449.278 625.377 446.348 636.311C445.556 639.269 444.991 642.235 444.642 645.189C454.521 643.578 463.821 639.597 471.761 633.698L471.696 633.602C476.803 630.105 481.736 624.423 484.778 618.775C486.299 615.952 487.334 613.161 487.694 610.677C488.054 608.189 487.73 606.064 486.607 604.5C484.314 601.304 480.231 600.324 475.661 601.152C471.107 601.978 466.18 604.593 462.384 608.415Z" fill="black"/>
<circle cx="589" cy="629" r="7.5" fill="white" stroke="#000F2E"/>
<circle cx="698" cy="548" r="7.5" fill="white" stroke="#000F2E"/>
<circle cx="788" cy="589" r="7.5" fill="white" stroke="#000F2E"/>
<circle cx="925" cy="439" r="7.5" fill="white" stroke="#000F2E"/>
<circle cx="1041" cy="546" r="7.5" fill="white" stroke="#000F2E"/>
<circle cx="1150" cy="411" r="7.5" fill="white" stroke="#000F2E"/>
<path d="M670.5 326C670.5 321.858 673.858 318.5 678 318.5H893C897.142 318.5 900.5 321.858 900.5 326V467C900.5 471.142 897.142 474.5 893 474.5H678C673.858 474.5 670.5 471.142 670.5 467V326Z" fill="white" stroke="#717783"/>
<rect x="822.5" y="367.5" width="59" height="12" stroke="#CCCFD5"/>
<rect x="822.5" y="392.5" width="59" height="12" stroke="#CCCFD5"/>
<rect x="822.5" y="417.5" width="59" height="12" stroke="#CCCFD5"/>
<path d="M775.296 349.521C765.693 343.976 754.69 341.327 743.615 341.892C732.54 342.457 721.864 346.213 712.875 352.707C703.886 359.201 696.966 368.156 692.95 378.493C688.934 388.83 687.992 400.108 690.239 410.967C692.486 421.827 697.825 431.805 705.613 439.7C713.402 447.594 723.307 453.068 734.135 455.462C744.963 457.856 756.252 457.067 766.643 453.191C777.033 449.315 786.081 442.518 792.696 433.617L746.546 399.317L775.296 349.521Z" fill="#F2F3F5"/>
<path d="M800.193 431.683C804.79 425.231 808.005 417.899 809.634 410.146C811.264 402.393 811.274 394.387 809.664 386.63C808.054 378.873 804.858 371.533 800.277 365.069C795.696 358.606 789.829 353.158 783.044 349.069L753.364 398.317L800.193 431.683Z" fill="#06C569"/>
<defs>
<clipPath id="clip0_5388_14304">
<rect x="159.708" y="212.72" width="98.1798" height="103.844" rx="49.0899" fill="white"/>
</clipPath>
<clipPath id="clip1_5388_14304">
<rect x="258.359" y="215.552" width="98.1798" height="103.844" rx="49.0899" transform="rotate(90 258.359 215.552)" fill="white"/>
</clipPath>
</defs>
</svg>
