<svg width="374" height="262" viewBox="0 0 374 262" fill="none" xmlns="http://www.w3.org/2000/svg">
<path d="M42 0L42.8004 38.6346C42.8184 39.5037 43.7527 40.043 44.5143 39.6241L78.3731 21L45.3147 41.0105C44.5711 41.4606 44.5711 42.5394 45.3147 42.9895L78.3731 63L44.5143 44.3759C43.7527 43.957 42.8184 44.4964 42.8004 45.3654L42 84L41.1996 45.3654C41.1816 44.4963 40.2473 43.957 39.4857 44.3759L5.62693 63L38.6853 42.9895C39.4289 42.5394 39.4289 41.4606 38.6853 41.0105L5.62693 21L39.4857 39.6241C40.2473 40.043 41.1816 39.5036 41.1996 38.6346L42 0Z" fill="#E48038"/>
<path d="M359.508 216.669C350.538 212.215 345.612 207.018 341.116 197.267C340.462 195.848 339.014 192.058 337.899 188.844L335.871 183L335.18 185.331C333.126 192.257 329.567 200.44 326.822 204.552C325.189 206.999 321.546 210.816 319.112 212.631C315.137 215.594 309.791 218.207 302.392 220.801C300.12 221.598 298.153 222.343 298.022 222.456C297.89 222.57 298.372 222.834 299.093 223.044C301.825 223.841 309.399 226.85 312.331 228.306C323.67 233.932 329.048 241.042 334.518 257.635L335.957 262L336.798 259.305C338.158 254.94 340.615 248.618 342.091 245.682C347.664 234.596 354.641 229.279 371.016 223.64C372.657 223.075 374 222.537 374 222.445C374 222.353 373.002 221.963 371.782 221.579C368.102 220.42 362.759 218.283 359.508 216.669Z" fill="#06C569"/>
</svg>
