<svg width="200" height="143" viewBox="0 0 200 143" fill="none" xmlns="http://www.w3.org/2000/svg">
<path fill-rule="evenodd" clip-rule="evenodd" d="M2.90052 20.5786L1.06721 19.0201L0.0282059 24.6993L5.46608 22.7595L3.66316 21.2269C15.0114 9.01058 31.2137 1.3683 49.2017 1.3683C80.1024 1.3683 105.735 23.9226 110.536 53.4669C101.134 57.6558 92.9447 64.0748 86.6405 72.0514L86.7287 72.1211C82.6202 76.9496 79.2897 83.819 77.7884 90.1645C77.0331 93.3572 76.7344 96.4441 77.0481 99.0891C77.3615 101.731 78.2941 103.987 80.0556 105.43C83.514 108.264 88.1682 108.033 92.5558 105.961C96.9503 103.886 101.186 99.9256 103.956 95.0784L103.912 95.0533C109.275 85.7718 112.343 74.9985 112.343 63.5099C112.343 60.303 112.104 57.152 111.643 54.0737C119.177 50.8282 127.482 49.0304 136.206 49.0304C170.526 49.0304 198.348 76.8521 198.348 111.172C198.348 122.491 195.322 133.103 190.035 142.242L190.9 142.743C196.273 133.455 199.348 122.672 199.348 111.172C199.348 76.2998 171.078 48.0304 136.206 48.0304C127.432 48.0304 119.075 49.8203 111.482 53.0549C106.5 23.1582 80.5122 0.368301 49.2017 0.368301C30.9084 0.368301 14.4315 8.14832 2.90052 20.5786ZM103.074 94.6057L103.03 94.5803C108.317 85.4406 111.343 74.8294 111.343 63.5099C111.343 60.4472 111.122 57.4362 110.694 54.4921C101.569 58.6058 93.6156 64.8583 87.4726 72.6114L87.5606 72.6868C83.5326 77.3867 80.2386 84.1514 78.7616 90.3947C78.0234 93.5151 77.7455 96.4785 78.0412 98.9713C78.3372 101.467 79.2002 103.437 80.6894 104.657C83.7323 107.15 87.9291 107.04 92.1288 105.057C96.3148 103.08 100.396 99.2802 103.074 94.6057Z" fill="#000F2E"/>
</svg>
