<svg width="262" height="268" viewBox="0 0 262 268" fill="none" xmlns="http://www.w3.org/2000/svg">
<path opacity="0.9" d="M151.453 45.2724L188.345 14.4026L187.212 62.4933L187.197 63.1513L187.835 62.9898L234.468 51.1841L212.581 94.0207L212.282 94.6068L212.927 94.7382L260.064 104.335L221.759 133.433L221.234 133.831L221.759 134.229L260.064 163.328L212.927 172.924L212.282 173.056L212.581 173.642L234.468 216.478L187.835 204.673L187.197 204.511L187.212 205.169L188.345 253.26L151.453 222.39L150.948 221.968L150.676 222.567L130.831 266.387L110.986 222.567L110.715 221.968L110.21 222.39L73.3176 253.26L74.4505 205.169L74.466 204.511L73.8279 204.673L27.1951 216.478L49.0816 173.642L49.3811 173.056L48.7361 172.924L1.59905 163.328L39.9042 134.229L40.4283 133.831L39.9042 133.433L1.59906 104.335L48.7361 94.7382L49.3811 94.6068L49.0816 94.0207L27.1951 51.1841L73.8279 62.9898L74.466 63.1513L74.4505 62.4933L73.3176 14.4026L110.21 45.2724L110.715 45.6948L110.986 45.0952L130.831 1.27548L150.676 45.0952L150.948 45.6948L151.453 45.2724Z" stroke="white"/>
</svg>
