<svg width="483" height="482" viewBox="0 0 483 482" fill="none" xmlns="http://www.w3.org/2000/svg">
<ellipse cx="241.5" cy="241" rx="139.5" ry="139" stroke="#CCCFD5" stroke-width="2" stroke-linecap="round" stroke-dasharray="2 10"/>
<ellipse cx="241.5" cy="241" rx="240.5" ry="240" stroke="#CCCFD5" stroke-width="2" stroke-linecap="round" stroke-dasharray="2 10"/>
<path d="M77.3358 356.262C78.2448 350.145 77.8846 344.277 76.4902 342.485C76.1242 342.015 75.499 341.872 74.8899 342.12C74.5789 342.246 73.938 343.533 73.6109 344.689C73.2337 346.021 73.0974 351.194 73.3721 353.746C73.7421 357.183 75.2632 364.862 75.5219 364.6C75.7743 364.345 76.9118 359.116 77.3358 356.262Z" fill="#E48038"/>
<path d="M71.8899 364.713C68.1699 363.806 66.1644 363.445 63.3619 363.181C58.7274 362.743 55.0383 363.243 53.6217 364.5C52.8483 365.186 52.8005 365.732 53.4561 366.395C55.6314 368.594 63.209 368.517 72.3412 366.203C74.7364 365.596 75.0976 365.545 75.2819 365.79C75.4688 366.039 75.5227 366.038 75.7679 365.784C76.013 365.529 76.011 365.465 75.7495 365.2C75.4813 364.929 75.4392 364.929 75.2716 365.198C75.1075 365.461 74.7447 365.409 71.8899 364.713Z" fill="#E48038"/>
<path d="M96.7731 366.955C98.9457 365.846 98.1455 364.209 95.0635 363.459C93.5858 363.099 89.4629 362.955 87.2549 363.186C84.2813 363.498 78.4218 364.711 76.6683 365.378C76.259 365.534 76.2865 365.561 77.0544 365.764C77.5093 365.885 78.1296 366.061 78.4328 366.156C79.3421 366.441 84.012 367.395 85.7845 367.658C87.9921 367.985 93.3597 367.984 94.7903 367.657C95.3969 367.518 96.2892 367.203 96.7731 366.955Z" fill="#E48038"/>
<path d="M77.7866 383.452C78.0667 379.914 77.5245 374.776 76.2933 369.306C75.9829 367.927 75.6649 366.68 75.5868 366.536C75.4424 366.27 74.6067 369.549 74.0285 372.65C72.9818 378.266 72.9128 384.485 73.8678 387.142C74.3582 388.506 74.7855 389 75.4762 389C76.7486 389 77.488 387.225 77.7866 383.452Z" fill="#E48038"/>
</svg>
