<svg width="691" height="697" viewBox="0 0 691 697" fill="none" xmlns="http://www.w3.org/2000/svg">
<rect width="691" height="697" fill="white"/>
<path d="M342.631 326.32H343.631V325.32H342.631V326.32ZM326.215 326.32V325.32H325.215V326.32H326.215ZM313.615 326.32H314.615V325.32H313.615V326.32ZM297.271 326.32V325.32H296.271V326.32H297.271ZM302.671 370.96L303.378 370.253L302.671 370.96ZM337.231 370.96L337.938 371.667L337.231 370.96ZM343.631 354.76V326.32H341.631V354.76H343.631ZM342.631 325.32H326.215V327.32H342.631V325.32ZM325.215 326.32V355.48H327.215V326.32H325.215ZM325.215 355.48C325.215 357.502 324.817 359.04 324.023 360.058C323.266 361.028 322.026 361.68 319.951 361.68V363.68C322.485 363.68 324.377 362.856 325.6 361.288C326.786 359.768 327.215 357.706 327.215 355.48H325.215ZM319.951 361.68C317.876 361.68 316.614 361.027 315.838 360.051C315.029 359.032 314.615 357.494 314.615 355.48H312.615C312.615 357.714 313.066 359.776 314.272 361.295C315.513 362.857 317.419 363.68 319.951 363.68V361.68ZM314.615 355.48V326.32H312.615V355.48H314.615ZM313.615 325.32H297.271V327.32H313.615V325.32ZM296.271 326.32V354.76H298.271V326.32H296.271ZM296.271 354.76C296.271 362.851 298.119 367.822 301.964 371.667L303.378 370.253C300.023 366.898 298.271 362.509 298.271 354.76H296.271ZM301.964 371.667C305.805 375.508 311.852 377.792 319.951 377.792V375.792C312.21 375.792 306.738 373.612 303.378 370.253L301.964 371.667ZM319.951 377.792C328.05 377.792 334.098 375.508 337.938 371.667L336.524 370.253C333.165 373.612 327.692 375.792 319.951 375.792V377.792ZM337.938 371.667C341.783 367.822 343.631 362.851 343.631 354.76H341.631C341.631 362.509 339.879 366.898 336.524 370.253L337.938 371.667ZM398.428 376V377H400.254L399.271 375.462L398.428 376ZM381.868 350.08L381.033 349.531L380.677 350.072L381.026 350.618L381.868 350.08ZM397.492 326.32L398.328 326.869L399.347 325.32H397.492V326.32ZM378.052 326.32V325.32H377.448L377.167 325.856L378.052 326.32ZM371.068 339.64L370.185 340.108L371.073 341.785L371.954 340.104L371.068 339.64ZM364.012 326.32L364.896 325.852L364.614 325.32H364.012V326.32ZM344.572 326.32V325.32H342.713L343.738 326.871L344.572 326.32ZM360.268 350.08L361.111 350.618L361.461 350.071L361.103 349.529L360.268 350.08ZM343.708 376L342.866 375.462L341.883 377H343.708V376ZM363.148 376V377H363.766L364.043 376.447L363.148 376ZM371.068 360.16L371.963 359.713L371.068 357.924L370.174 359.713L371.068 360.16ZM378.988 376L378.094 376.447L378.37 377H378.988V376ZM399.271 375.462L382.711 349.542L381.026 350.618L397.586 376.538L399.271 375.462ZM382.704 350.629L398.328 326.869L396.657 325.771L381.033 349.531L382.704 350.629ZM397.492 325.32H378.052V327.32H397.492V325.32ZM377.167 325.856L370.183 339.176L371.954 340.104L378.938 326.784L377.167 325.856ZM371.952 339.172L364.896 325.852L363.129 326.788L370.185 340.108L371.952 339.172ZM364.012 325.32H344.572V327.32H364.012V325.32ZM343.738 326.871L359.434 350.631L361.103 349.529L345.407 325.769L343.738 326.871ZM359.426 349.542L342.866 375.462L344.551 376.538L361.111 350.618L359.426 349.542ZM343.708 377H363.148V375H343.708V377ZM364.043 376.447L371.963 360.607L370.174 359.713L362.254 375.553L364.043 376.447ZM370.174 360.607L378.094 376.447L379.883 375.553L371.963 359.713L370.174 360.607ZM378.988 377H398.428V375H378.988V377Z" fill="#0045FF"/>
<rect x="234.5" y="242.5" width="222" height="223" rx="111" stroke="#CCCFD5"/>
</svg>
